G04 #@! TF.GenerationSoftware,KiCad,Pcbnew,(5.1.5-0-10_14)*
G04 #@! TF.CreationDate,2020-05-24T14:41:35+12:00*
G04 #@! TF.ProjectId,power-board,706f7765-722d-4626-9f61-72642e6b6963,C*
G04 #@! TF.SameCoordinates,Original*
G04 #@! TF.FileFunction,Legend,Bot*
G04 #@! TF.FilePolarity,Positive*
%FSLAX46Y46*%
G04 Gerber Fmt 4.6, Leading zero omitted, Abs format (unit mm)*
G04 Created by KiCad (PCBNEW (5.1.5-0-10_14)) date 2020-05-24 14:41:35*
%MOMM*%
%LPD*%
G04 APERTURE LIST*
%ADD10C,0.200000*%
%ADD11C,0.100000*%
%ADD12C,0.109220*%
G04 APERTURE END LIST*
D10*
X111800000Y-94400000D02*
X111800000Y-42400000D01*
X41800000Y-42400000D02*
X41800000Y-94400000D01*
X111800000Y-42400000D02*
X41800000Y-42400000D01*
X41800000Y-94400000D02*
X111800000Y-94400000D01*
X91820000Y-52480000D02*
X83380000Y-52480000D01*
X91820000Y-42820000D02*
X83380000Y-42820000D01*
X78910000Y-64850000D02*
X71410000Y-64850000D01*
X78910000Y-56950000D02*
X71410000Y-56950000D01*
X87479000Y-58868000D02*
X87479000Y-63440000D01*
X83669000Y-58868000D02*
X83669000Y-63440000D01*
X85796000Y-65658000D02*
G75*
G03X85796000Y-65658000I-100000J0D01*
G01*
X82208500Y-70195500D02*
X85383500Y-70195500D01*
X82208500Y-65320500D02*
X85383500Y-65320500D01*
X77222000Y-66158000D02*
X77222000Y-69358000D01*
X74622000Y-66158000D02*
X74622000Y-69358000D01*
X74208000Y-66394000D02*
X74208000Y-73694000D01*
X69508000Y-66394000D02*
X69508000Y-73694000D01*
X69128000Y-66394000D02*
X69128000Y-73694000D01*
X64428000Y-66394000D02*
X64428000Y-73694000D01*
X87796000Y-66328000D02*
X87796000Y-59028000D01*
X92496000Y-66328000D02*
X92496000Y-59028000D01*
D11*
X84169047Y-53226190D02*
X84169047Y-52726190D01*
X83978571Y-52726190D01*
X83930952Y-52750000D01*
X83907142Y-52773809D01*
X83883333Y-52821428D01*
X83883333Y-52892857D01*
X83907142Y-52940476D01*
X83930952Y-52964285D01*
X83978571Y-52988095D01*
X84169047Y-52988095D01*
X83692857Y-52773809D02*
X83669047Y-52750000D01*
X83621428Y-52726190D01*
X83502380Y-52726190D01*
X83454761Y-52750000D01*
X83430952Y-52773809D01*
X83407142Y-52821428D01*
X83407142Y-52869047D01*
X83430952Y-52940476D01*
X83716666Y-53226190D01*
X83407142Y-53226190D01*
X70083333Y-57626190D02*
X70321428Y-57626190D01*
X70321428Y-57126190D01*
X69940476Y-57173809D02*
X69916666Y-57150000D01*
X69869047Y-57126190D01*
X69750000Y-57126190D01*
X69702380Y-57150000D01*
X69678571Y-57173809D01*
X69654761Y-57221428D01*
X69654761Y-57269047D01*
X69678571Y-57340476D01*
X69964285Y-57626190D01*
X69654761Y-57626190D01*
X50769047Y-72302190D02*
X50769047Y-71802190D01*
X50578571Y-71802190D01*
X50530952Y-71826000D01*
X50507142Y-71849809D01*
X50483333Y-71897428D01*
X50483333Y-71968857D01*
X50507142Y-72016476D01*
X50530952Y-72040285D01*
X50578571Y-72064095D01*
X50769047Y-72064095D01*
X50007142Y-72302190D02*
X50292857Y-72302190D01*
X50150000Y-72302190D02*
X50150000Y-71802190D01*
X50197619Y-71873619D01*
X50245238Y-71921238D01*
X50292857Y-71945047D01*
X49980952Y-58326190D02*
X49980952Y-58730952D01*
X49957142Y-58778571D01*
X49933333Y-58802380D01*
X49885714Y-58826190D01*
X49790476Y-58826190D01*
X49742857Y-58802380D01*
X49719047Y-58778571D01*
X49695238Y-58730952D01*
X49695238Y-58326190D01*
X49480952Y-58373809D02*
X49457142Y-58350000D01*
X49409523Y-58326190D01*
X49290476Y-58326190D01*
X49242857Y-58350000D01*
X49219047Y-58373809D01*
X49195238Y-58421428D01*
X49195238Y-58469047D01*
X49219047Y-58540476D01*
X49504761Y-58826190D01*
X49195238Y-58826190D01*
X83407142Y-59026190D02*
X83407142Y-58526190D01*
X83288095Y-58526190D01*
X83216666Y-58550000D01*
X83169047Y-58597619D01*
X83145238Y-58645238D01*
X83121428Y-58740476D01*
X83121428Y-58811904D01*
X83145238Y-58907142D01*
X83169047Y-58954761D01*
X83216666Y-59002380D01*
X83288095Y-59026190D01*
X83407142Y-59026190D01*
X82645238Y-59026190D02*
X82930952Y-59026190D01*
X82788095Y-59026190D02*
X82788095Y-58526190D01*
X82835714Y-58597619D01*
X82883333Y-58645238D01*
X82930952Y-58669047D01*
X82169047Y-59026190D02*
X82454761Y-59026190D01*
X82311904Y-59026190D02*
X82311904Y-58526190D01*
X82359523Y-58597619D01*
X82407142Y-58645238D01*
X82454761Y-58669047D01*
X86580952Y-64526190D02*
X86580952Y-64930952D01*
X86557142Y-64978571D01*
X86533333Y-65002380D01*
X86485714Y-65026190D01*
X86390476Y-65026190D01*
X86342857Y-65002380D01*
X86319047Y-64978571D01*
X86295238Y-64930952D01*
X86295238Y-64526190D01*
X85795238Y-65026190D02*
X86080952Y-65026190D01*
X85938095Y-65026190D02*
X85938095Y-64526190D01*
X85985714Y-64597619D01*
X86033333Y-64645238D01*
X86080952Y-64669047D01*
X99826190Y-61792857D02*
X99326190Y-61792857D01*
X99326190Y-61983333D01*
X99350000Y-62030952D01*
X99373809Y-62054761D01*
X99421428Y-62078571D01*
X99492857Y-62078571D01*
X99540476Y-62054761D01*
X99564285Y-62030952D01*
X99588095Y-61983333D01*
X99588095Y-61792857D01*
X99826190Y-62554761D02*
X99826190Y-62269047D01*
X99826190Y-62411904D02*
X99326190Y-62411904D01*
X99397619Y-62364285D01*
X99445238Y-62316666D01*
X99469047Y-62269047D01*
X99373809Y-62745238D02*
X99350000Y-62769047D01*
X99326190Y-62816666D01*
X99326190Y-62935714D01*
X99350000Y-62983333D01*
X99373809Y-63007142D01*
X99421428Y-63030952D01*
X99469047Y-63030952D01*
X99540476Y-63007142D01*
X99826190Y-62721428D01*
X99826190Y-63030952D01*
X99826190Y-70392857D02*
X99326190Y-70392857D01*
X99326190Y-70583333D01*
X99350000Y-70630952D01*
X99373809Y-70654761D01*
X99421428Y-70678571D01*
X99492857Y-70678571D01*
X99540476Y-70654761D01*
X99564285Y-70630952D01*
X99588095Y-70583333D01*
X99588095Y-70392857D01*
X99826190Y-71154761D02*
X99826190Y-70869047D01*
X99826190Y-71011904D02*
X99326190Y-71011904D01*
X99397619Y-70964285D01*
X99445238Y-70916666D01*
X99469047Y-70869047D01*
X99326190Y-71321428D02*
X99326190Y-71630952D01*
X99516666Y-71464285D01*
X99516666Y-71535714D01*
X99540476Y-71583333D01*
X99564285Y-71607142D01*
X99611904Y-71630952D01*
X99730952Y-71630952D01*
X99778571Y-71607142D01*
X99802380Y-71583333D01*
X99826190Y-71535714D01*
X99826190Y-71392857D01*
X99802380Y-71345238D01*
X99778571Y-71321428D01*
X77826190Y-67316666D02*
X77588095Y-67150000D01*
X77826190Y-67030952D02*
X77326190Y-67030952D01*
X77326190Y-67221428D01*
X77350000Y-67269047D01*
X77373809Y-67292857D01*
X77421428Y-67316666D01*
X77492857Y-67316666D01*
X77540476Y-67292857D01*
X77564285Y-67269047D01*
X77588095Y-67221428D01*
X77588095Y-67030952D01*
X77826190Y-67554761D02*
X77826190Y-67650000D01*
X77802380Y-67697619D01*
X77778571Y-67721428D01*
X77707142Y-67769047D01*
X77611904Y-67792857D01*
X77421428Y-67792857D01*
X77373809Y-67769047D01*
X77350000Y-67745238D01*
X77326190Y-67697619D01*
X77326190Y-67602380D01*
X77350000Y-67554761D01*
X77373809Y-67530952D01*
X77421428Y-67507142D01*
X77540476Y-67507142D01*
X77588095Y-67530952D01*
X77611904Y-67554761D01*
X77635714Y-67602380D01*
X77635714Y-67697619D01*
X77611904Y-67745238D01*
X77588095Y-67769047D01*
X77540476Y-67792857D01*
D12*
X62883396Y-60778707D02*
X62907224Y-60802534D01*
X62978707Y-60826362D01*
X63026362Y-60826362D01*
X63097845Y-60802534D01*
X63145500Y-60754879D01*
X63169328Y-60707224D01*
X63193155Y-60611913D01*
X63193155Y-60540430D01*
X63169328Y-60445120D01*
X63145500Y-60397465D01*
X63097845Y-60349810D01*
X63026362Y-60325982D01*
X62978707Y-60325982D01*
X62907224Y-60349810D01*
X62883396Y-60373637D01*
X62430671Y-60325982D02*
X62668948Y-60325982D01*
X62692775Y-60564258D01*
X62668948Y-60540430D01*
X62621292Y-60516603D01*
X62502154Y-60516603D01*
X62454499Y-60540430D01*
X62430671Y-60564258D01*
X62406844Y-60611913D01*
X62406844Y-60731051D01*
X62430671Y-60778707D01*
X62454499Y-60802534D01*
X62502154Y-60826362D01*
X62621292Y-60826362D01*
X62668948Y-60802534D01*
X62692775Y-60778707D01*
X62883396Y-63378707D02*
X62907224Y-63402534D01*
X62978707Y-63426362D01*
X63026362Y-63426362D01*
X63097845Y-63402534D01*
X63145500Y-63354879D01*
X63169328Y-63307224D01*
X63193155Y-63211913D01*
X63193155Y-63140430D01*
X63169328Y-63045120D01*
X63145500Y-62997465D01*
X63097845Y-62949810D01*
X63026362Y-62925982D01*
X62978707Y-62925982D01*
X62907224Y-62949810D01*
X62883396Y-62973637D01*
X62716603Y-62925982D02*
X62406844Y-62925982D01*
X62573637Y-63116603D01*
X62502154Y-63116603D01*
X62454499Y-63140430D01*
X62430671Y-63164258D01*
X62406844Y-63211913D01*
X62406844Y-63331051D01*
X62430671Y-63378707D01*
X62454499Y-63402534D01*
X62502154Y-63426362D01*
X62645120Y-63426362D01*
X62692775Y-63402534D01*
X62716603Y-63378707D01*
D11*
X87083333Y-73826190D02*
X87250000Y-73588095D01*
X87369047Y-73826190D02*
X87369047Y-73326190D01*
X87178571Y-73326190D01*
X87130952Y-73350000D01*
X87107142Y-73373809D01*
X87083333Y-73421428D01*
X87083333Y-73492857D01*
X87107142Y-73540476D01*
X87130952Y-73564285D01*
X87178571Y-73588095D01*
X87369047Y-73588095D01*
X86916666Y-73326190D02*
X86583333Y-73326190D01*
X86797619Y-73826190D01*
X89721333Y-72426190D02*
X89888000Y-72188095D01*
X90007047Y-72426190D02*
X90007047Y-71926190D01*
X89816571Y-71926190D01*
X89768952Y-71950000D01*
X89745142Y-71973809D01*
X89721333Y-72021428D01*
X89721333Y-72092857D01*
X89745142Y-72140476D01*
X89768952Y-72164285D01*
X89816571Y-72188095D01*
X90007047Y-72188095D01*
X89530857Y-71973809D02*
X89507047Y-71950000D01*
X89459428Y-71926190D01*
X89340380Y-71926190D01*
X89292761Y-71950000D01*
X89268952Y-71973809D01*
X89245142Y-72021428D01*
X89245142Y-72069047D01*
X89268952Y-72140476D01*
X89554666Y-72426190D01*
X89245142Y-72426190D01*
X87943333Y-72426190D02*
X88110000Y-72188095D01*
X88229047Y-72426190D02*
X88229047Y-71926190D01*
X88038571Y-71926190D01*
X87990952Y-71950000D01*
X87967142Y-71973809D01*
X87943333Y-72021428D01*
X87943333Y-72092857D01*
X87967142Y-72140476D01*
X87990952Y-72164285D01*
X88038571Y-72188095D01*
X88229047Y-72188095D01*
X87467142Y-72426190D02*
X87752857Y-72426190D01*
X87610000Y-72426190D02*
X87610000Y-71926190D01*
X87657619Y-71997619D01*
X87705238Y-72045238D01*
X87752857Y-72069047D01*
X81683333Y-72826190D02*
X81850000Y-72588095D01*
X81969047Y-72826190D02*
X81969047Y-72326190D01*
X81778571Y-72326190D01*
X81730952Y-72350000D01*
X81707142Y-72373809D01*
X81683333Y-72421428D01*
X81683333Y-72492857D01*
X81707142Y-72540476D01*
X81730952Y-72564285D01*
X81778571Y-72588095D01*
X81969047Y-72588095D01*
X81254761Y-72326190D02*
X81350000Y-72326190D01*
X81397619Y-72350000D01*
X81421428Y-72373809D01*
X81469047Y-72445238D01*
X81492857Y-72540476D01*
X81492857Y-72730952D01*
X81469047Y-72778571D01*
X81445238Y-72802380D01*
X81397619Y-72826190D01*
X81302380Y-72826190D01*
X81254761Y-72802380D01*
X81230952Y-72778571D01*
X81207142Y-72730952D01*
X81207142Y-72611904D01*
X81230952Y-72564285D01*
X81254761Y-72540476D01*
X81302380Y-72516666D01*
X81397619Y-72516666D01*
X81445238Y-72540476D01*
X81469047Y-72564285D01*
X81492857Y-72611904D01*
X75483333Y-72826190D02*
X75650000Y-72588095D01*
X75769047Y-72826190D02*
X75769047Y-72326190D01*
X75578571Y-72326190D01*
X75530952Y-72350000D01*
X75507142Y-72373809D01*
X75483333Y-72421428D01*
X75483333Y-72492857D01*
X75507142Y-72540476D01*
X75530952Y-72564285D01*
X75578571Y-72588095D01*
X75769047Y-72588095D01*
X75030952Y-72326190D02*
X75269047Y-72326190D01*
X75292857Y-72564285D01*
X75269047Y-72540476D01*
X75221428Y-72516666D01*
X75102380Y-72516666D01*
X75054761Y-72540476D01*
X75030952Y-72564285D01*
X75007142Y-72611904D01*
X75007142Y-72730952D01*
X75030952Y-72778571D01*
X75054761Y-72802380D01*
X75102380Y-72826190D01*
X75221428Y-72826190D01*
X75269047Y-72802380D01*
X75292857Y-72778571D01*
X78083333Y-68626190D02*
X78250000Y-68388095D01*
X78369047Y-68626190D02*
X78369047Y-68126190D01*
X78178571Y-68126190D01*
X78130952Y-68150000D01*
X78107142Y-68173809D01*
X78083333Y-68221428D01*
X78083333Y-68292857D01*
X78107142Y-68340476D01*
X78130952Y-68364285D01*
X78178571Y-68388095D01*
X78369047Y-68388095D01*
X77654761Y-68292857D02*
X77654761Y-68626190D01*
X77773809Y-68102380D02*
X77892857Y-68459523D01*
X77583333Y-68459523D01*
X78483333Y-73826190D02*
X78650000Y-73588095D01*
X78769047Y-73826190D02*
X78769047Y-73326190D01*
X78578571Y-73326190D01*
X78530952Y-73350000D01*
X78507142Y-73373809D01*
X78483333Y-73421428D01*
X78483333Y-73492857D01*
X78507142Y-73540476D01*
X78530952Y-73564285D01*
X78578571Y-73588095D01*
X78769047Y-73588095D01*
X78316666Y-73326190D02*
X78007142Y-73326190D01*
X78173809Y-73516666D01*
X78102380Y-73516666D01*
X78054761Y-73540476D01*
X78030952Y-73564285D01*
X78007142Y-73611904D01*
X78007142Y-73730952D01*
X78030952Y-73778571D01*
X78054761Y-73802380D01*
X78102380Y-73826190D01*
X78245238Y-73826190D01*
X78292857Y-73802380D01*
X78316666Y-73778571D01*
X73083333Y-75578571D02*
X73107142Y-75602380D01*
X73178571Y-75626190D01*
X73226190Y-75626190D01*
X73297619Y-75602380D01*
X73345238Y-75554761D01*
X73369047Y-75507142D01*
X73392857Y-75411904D01*
X73392857Y-75340476D01*
X73369047Y-75245238D01*
X73345238Y-75197619D01*
X73297619Y-75150000D01*
X73226190Y-75126190D01*
X73178571Y-75126190D01*
X73107142Y-75150000D01*
X73083333Y-75173809D01*
X72607142Y-75626190D02*
X72892857Y-75626190D01*
X72750000Y-75626190D02*
X72750000Y-75126190D01*
X72797619Y-75197619D01*
X72845238Y-75245238D01*
X72892857Y-75269047D01*
X68483333Y-75578571D02*
X68507142Y-75602380D01*
X68578571Y-75626190D01*
X68626190Y-75626190D01*
X68697619Y-75602380D01*
X68745238Y-75554761D01*
X68769047Y-75507142D01*
X68792857Y-75411904D01*
X68792857Y-75340476D01*
X68769047Y-75245238D01*
X68745238Y-75197619D01*
X68697619Y-75150000D01*
X68626190Y-75126190D01*
X68578571Y-75126190D01*
X68507142Y-75150000D01*
X68483333Y-75173809D01*
X68054761Y-75126190D02*
X68150000Y-75126190D01*
X68197619Y-75150000D01*
X68221428Y-75173809D01*
X68269047Y-75245238D01*
X68292857Y-75340476D01*
X68292857Y-75530952D01*
X68269047Y-75578571D01*
X68245238Y-75602380D01*
X68197619Y-75626190D01*
X68102380Y-75626190D01*
X68054761Y-75602380D01*
X68030952Y-75578571D01*
X68007142Y-75530952D01*
X68007142Y-75411904D01*
X68030952Y-75364285D01*
X68054761Y-75340476D01*
X68102380Y-75316666D01*
X68197619Y-75316666D01*
X68245238Y-75340476D01*
X68269047Y-75364285D01*
X68292857Y-75411904D01*
X93283333Y-59578571D02*
X93307142Y-59602380D01*
X93378571Y-59626190D01*
X93426190Y-59626190D01*
X93497619Y-59602380D01*
X93545238Y-59554761D01*
X93569047Y-59507142D01*
X93592857Y-59411904D01*
X93592857Y-59340476D01*
X93569047Y-59245238D01*
X93545238Y-59197619D01*
X93497619Y-59150000D01*
X93426190Y-59126190D01*
X93378571Y-59126190D01*
X93307142Y-59150000D01*
X93283333Y-59173809D01*
X92854761Y-59292857D02*
X92854761Y-59626190D01*
X92973809Y-59102380D02*
X93092857Y-59459523D01*
X92783333Y-59459523D01*
X94207333Y-73826190D02*
X94445428Y-73826190D01*
X94445428Y-73326190D01*
X93778761Y-73826190D02*
X94064476Y-73826190D01*
X93921619Y-73826190D02*
X93921619Y-73326190D01*
X93969238Y-73397619D01*
X94016857Y-73445238D01*
X94064476Y-73469047D01*
X81253333Y-63178571D02*
X81277142Y-63202380D01*
X81348571Y-63226190D01*
X81396190Y-63226190D01*
X81467619Y-63202380D01*
X81515238Y-63154761D01*
X81539047Y-63107142D01*
X81562857Y-63011904D01*
X81562857Y-62940476D01*
X81539047Y-62845238D01*
X81515238Y-62797619D01*
X81467619Y-62750000D01*
X81396190Y-62726190D01*
X81348571Y-62726190D01*
X81277142Y-62750000D01*
X81253333Y-62773809D01*
X81062857Y-62773809D02*
X81039047Y-62750000D01*
X80991428Y-62726190D01*
X80872380Y-62726190D01*
X80824761Y-62750000D01*
X80800952Y-62773809D01*
X80777142Y-62821428D01*
X80777142Y-62869047D01*
X80800952Y-62940476D01*
X81086666Y-63226190D01*
X80777142Y-63226190D01*
X78626190Y-65592857D02*
X78126190Y-65592857D01*
X78126190Y-65711904D01*
X78150000Y-65783333D01*
X78197619Y-65830952D01*
X78245238Y-65854761D01*
X78340476Y-65878571D01*
X78411904Y-65878571D01*
X78507142Y-65854761D01*
X78554761Y-65830952D01*
X78602380Y-65783333D01*
X78626190Y-65711904D01*
X78626190Y-65592857D01*
X78626190Y-66354761D02*
X78626190Y-66069047D01*
X78626190Y-66211904D02*
X78126190Y-66211904D01*
X78197619Y-66164285D01*
X78245238Y-66116666D01*
X78269047Y-66069047D01*
X78173809Y-66545238D02*
X78150000Y-66569047D01*
X78126190Y-66616666D01*
X78126190Y-66735714D01*
X78150000Y-66783333D01*
X78173809Y-66807142D01*
X78221428Y-66830952D01*
X78269047Y-66830952D01*
X78340476Y-66807142D01*
X78626190Y-66521428D01*
X78626190Y-66830952D01*
M02*
