G04 #@! TF.GenerationSoftware,KiCad,Pcbnew,(5.1.5-0-10_14)*
G04 #@! TF.CreationDate,2020-05-24T14:41:35+12:00*
G04 #@! TF.ProjectId,power-board,706f7765-722d-4626-9f61-72642e6b6963,C*
G04 #@! TF.SameCoordinates,Original*
G04 #@! TF.FileFunction,Paste,Bot*
G04 #@! TF.FilePolarity,Positive*
%FSLAX46Y46*%
G04 Gerber Fmt 4.6, Leading zero omitted, Abs format (unit mm)*
G04 Created by KiCad (PCBNEW (5.1.5-0-10_14)) date 2020-05-24 14:41:35*
%MOMM*%
%LPD*%
G04 APERTURE LIST*
%ADD10C,0.200000*%
%ADD11R,1.500000X3.400000*%
%ADD12R,1.000000X3.500000*%
%ADD13R,2.500000X3.250000*%
%ADD14R,3.000000X1.600000*%
%ADD15R,5.500000X1.000000*%
%ADD16R,2.032000X1.016000*%
%ADD17R,2.032000X3.657600*%
%ADD18R,2.199640X1.800000*%
%ADD19R,1.651000X2.845000*%
%ADD20R,1.270000X0.381000*%
%ADD21R,1.800000X1.200000*%
%ADD22R,1.500000X0.600000*%
%ADD23R,2.032000X1.524000*%
%ADD24R,0.889000X1.397000*%
%ADD25R,1.143000X0.635000*%
%ADD26R,0.635000X1.143000*%
%ADD27R,3.100000X2.600000*%
G04 APERTURE END LIST*
D10*
X111800000Y-94400000D02*
X111800000Y-42400000D01*
X41800000Y-42400000D02*
X41800000Y-94400000D01*
X111800000Y-42400000D02*
X41800000Y-42400000D01*
X41800000Y-94400000D02*
X111800000Y-94400000D01*
D11*
X84250000Y-44740000D03*
X90950000Y-44740000D03*
D12*
X88600000Y-50490000D03*
X86600000Y-50490000D03*
D13*
X78160000Y-60900000D03*
X72160000Y-60900000D03*
D14*
X54070000Y-75476000D03*
X54070000Y-68676000D03*
D15*
X56320000Y-71076000D03*
X56320000Y-73076000D03*
D16*
X57380000Y-59630000D03*
X57380000Y-64202000D03*
X57380000Y-61916000D03*
D17*
X50776000Y-61916000D03*
D18*
X85574000Y-63254000D03*
X85574000Y-59054000D03*
D19*
X83796000Y-67758000D03*
D20*
X81637000Y-66782640D03*
X81637000Y-67432880D03*
X81637000Y-68083120D03*
X81637000Y-68733360D03*
X85955000Y-68733360D03*
X85955000Y-68083120D03*
X85955000Y-67432880D03*
X85955000Y-66782640D03*
X81637000Y-69383360D03*
X81637000Y-66132640D03*
X85955000Y-66132640D03*
X85955000Y-69383360D03*
D21*
X102502000Y-68018000D03*
X102502000Y-62418000D03*
D22*
X106402000Y-63718000D03*
X106402000Y-66718000D03*
X106402000Y-65718000D03*
X106402000Y-64718000D03*
D21*
X102502000Y-76654000D03*
X102502000Y-71054000D03*
D22*
X106402000Y-72354000D03*
X106402000Y-75354000D03*
X106402000Y-74354000D03*
X106402000Y-73354000D03*
D23*
X75922000Y-69409000D03*
X75922000Y-66107000D03*
D24*
X61634500Y-61916000D03*
X59729500Y-61916000D03*
X61634500Y-64202000D03*
X59729500Y-64202000D03*
D25*
X85828000Y-71060000D03*
X85828000Y-72584000D03*
X89638000Y-71060000D03*
X89638000Y-69536000D03*
X87860000Y-71060000D03*
X87860000Y-69536000D03*
X80240000Y-71060000D03*
X80240000Y-72584000D03*
X76684000Y-71060000D03*
X76684000Y-72584000D03*
D26*
X79478000Y-69536000D03*
X77954000Y-69536000D03*
D25*
X78462000Y-71060000D03*
X78462000Y-72584000D03*
D27*
X71858000Y-66894000D03*
X71858000Y-73194000D03*
X66778000Y-66894000D03*
X66778000Y-73194000D03*
X90146000Y-65828000D03*
X90146000Y-59528000D03*
D26*
X94886000Y-72388000D03*
X93362000Y-72388000D03*
X80408000Y-64260000D03*
X81932000Y-64260000D03*
D25*
X79478000Y-66488000D03*
X79478000Y-68012000D03*
M02*
