M48
; DRILL file {KiCad (5.1.5-0-10_14)} date Sunday, 24 May 2020 at 02:41:45 pm
; FORMAT={-:-/ absolute / metric / decimal}
; #@! TF.CreationDate,2020-05-24T14:41:45+12:00
; #@! TF.GenerationSoftware,Kicad,Pcbnew,(5.1.5-0-10_14)
; #@! TF.FileFunction,Plated,1,2,PTH
FMAT,2
METRIC
T1C0.500
T2C0.813
%
G90
G05
T1
X44.086Y-64.006
X47.474Y-57.344
X50.944Y-66.292
X56.364Y-84.014
X59.6Y-59.624
X60.428Y-73.092
X63.2Y-61.824
X63.2Y-64.224
X66.524Y-82.744
X66.8Y-75.2
X71.832Y-75.29
X76.684Y-74.108
X80.24Y-74.108
X83.288Y-64.202
X83.71Y-71.102
X85.828Y-74.108
X88.114Y-56.328
X88.6Y-53.4
X95.902Y-60.18
X96.918Y-59.164
X97.426Y-57.894
X97.68Y-60.18
X107.164Y-79.442
X108.434Y-66.742
X108.688Y-73.854
T2
X76.176Y-91.126
X78.716Y-91.126
X81.256Y-91.126
X95.988Y-91.126
X98.528Y-91.126
X101.068Y-91.126
X87.352Y-91.126
X89.892Y-91.126
T0
M30
