G04 #@! TF.GenerationSoftware,KiCad,Pcbnew,(5.1.5-0-10_14)*
G04 #@! TF.CreationDate,2020-04-26T15:29:48+12:00*
G04 #@! TF.ProjectId,Power Board,506f7765-7220-4426-9f61-72642e6b6963,C*
G04 #@! TF.SameCoordinates,Original*
G04 #@! TF.FileFunction,Legend,Top*
G04 #@! TF.FilePolarity,Positive*
%FSLAX46Y46*%
G04 Gerber Fmt 4.6, Leading zero omitted, Abs format (unit mm)*
G04 Created by KiCad (PCBNEW (5.1.5-0-10_14)) date 2020-04-26 15:29:48*
%MOMM*%
%LPD*%
G04 APERTURE LIST*
%ADD10C,0.100000*%
%ADD11C,0.150000*%
%ADD12C,0.300000*%
%ADD13C,0.400000*%
%ADD14C,0.200000*%
G04 APERTURE END LIST*
D10*
D11*
X177002200Y-166007200D02*
X177002200Y-198007200D01*
X285002200Y-198007200D01*
X285002200Y-166007200D01*
X177002200Y-166007200D01*
D10*
D11*
X10000000Y-10000000D02*
X10000000Y-200007200D01*
X287002200Y-200007200D01*
X287002200Y-10000000D01*
X10000000Y-10000000D01*
D10*
D11*
X12000000Y-12000000D02*
X12000000Y-198007200D01*
X285002200Y-198007200D01*
X285002200Y-12000000D01*
X12000000Y-12000000D01*
D10*
D11*
X60000000Y-12000000D02*
X60000000Y-10000000D01*
D10*
D11*
X110000000Y-12000000D02*
X110000000Y-10000000D01*
D10*
D11*
X160000000Y-12000000D02*
X160000000Y-10000000D01*
D10*
D11*
X210000000Y-12000000D02*
X210000000Y-10000000D01*
D10*
D11*
X260000000Y-12000000D02*
X260000000Y-10000000D01*
D10*
D11*
X36065476Y-11588095D02*
X35322619Y-11588095D01*
X35694047Y-11588095D02*
X35694047Y-10288095D01*
X35570238Y-10473809D01*
X35446428Y-10597619D01*
X35322619Y-10659523D01*
D10*
D11*
X85322619Y-10411904D02*
X85384523Y-10350000D01*
X85508333Y-10288095D01*
X85817857Y-10288095D01*
X85941666Y-10350000D01*
X86003571Y-10411904D01*
X86065476Y-10535714D01*
X86065476Y-10659523D01*
X86003571Y-10845238D01*
X85260714Y-11588095D01*
X86065476Y-11588095D01*
D10*
D11*
X135260714Y-10288095D02*
X136065476Y-10288095D01*
X135632142Y-10783333D01*
X135817857Y-10783333D01*
X135941666Y-10845238D01*
X136003571Y-10907142D01*
X136065476Y-11030952D01*
X136065476Y-11340476D01*
X136003571Y-11464285D01*
X135941666Y-11526190D01*
X135817857Y-11588095D01*
X135446428Y-11588095D01*
X135322619Y-11526190D01*
X135260714Y-11464285D01*
D10*
D11*
X185941666Y-10721428D02*
X185941666Y-11588095D01*
X185632142Y-10226190D02*
X185322619Y-11154761D01*
X186127380Y-11154761D01*
D10*
D11*
X236003571Y-10288095D02*
X235384523Y-10288095D01*
X235322619Y-10907142D01*
X235384523Y-10845238D01*
X235508333Y-10783333D01*
X235817857Y-10783333D01*
X235941666Y-10845238D01*
X236003571Y-10907142D01*
X236065476Y-11030952D01*
X236065476Y-11340476D01*
X236003571Y-11464285D01*
X235941666Y-11526190D01*
X235817857Y-11588095D01*
X235508333Y-11588095D01*
X235384523Y-11526190D01*
X235322619Y-11464285D01*
D10*
D11*
X285941666Y-10288095D02*
X285694047Y-10288095D01*
X285570238Y-10350000D01*
X285508333Y-10411904D01*
X285384523Y-10597619D01*
X285322619Y-10845238D01*
X285322619Y-11340476D01*
X285384523Y-11464285D01*
X285446428Y-11526190D01*
X285570238Y-11588095D01*
X285817857Y-11588095D01*
X285941666Y-11526190D01*
X286003571Y-11464285D01*
X286065476Y-11340476D01*
X286065476Y-11030952D01*
X286003571Y-10907142D01*
X285941666Y-10845238D01*
X285817857Y-10783333D01*
X285570238Y-10783333D01*
X285446428Y-10845238D01*
X285384523Y-10907142D01*
X285322619Y-11030952D01*
D10*
D11*
X60000000Y-198007200D02*
X60000000Y-200007200D01*
D10*
D11*
X110000000Y-198007200D02*
X110000000Y-200007200D01*
D10*
D11*
X160000000Y-198007200D02*
X160000000Y-200007200D01*
D10*
D11*
X210000000Y-198007200D02*
X210000000Y-200007200D01*
D10*
D11*
X260000000Y-198007200D02*
X260000000Y-200007200D01*
D10*
D11*
X36065476Y-199595295D02*
X35322619Y-199595295D01*
X35694047Y-199595295D02*
X35694047Y-198295295D01*
X35570238Y-198481009D01*
X35446428Y-198604819D01*
X35322619Y-198666723D01*
D10*
D11*
X85322619Y-198419104D02*
X85384523Y-198357200D01*
X85508333Y-198295295D01*
X85817857Y-198295295D01*
X85941666Y-198357200D01*
X86003571Y-198419104D01*
X86065476Y-198542914D01*
X86065476Y-198666723D01*
X86003571Y-198852438D01*
X85260714Y-199595295D01*
X86065476Y-199595295D01*
D10*
D11*
X135260714Y-198295295D02*
X136065476Y-198295295D01*
X135632142Y-198790533D01*
X135817857Y-198790533D01*
X135941666Y-198852438D01*
X136003571Y-198914342D01*
X136065476Y-199038152D01*
X136065476Y-199347676D01*
X136003571Y-199471485D01*
X135941666Y-199533390D01*
X135817857Y-199595295D01*
X135446428Y-199595295D01*
X135322619Y-199533390D01*
X135260714Y-199471485D01*
D10*
D11*
X185941666Y-198728628D02*
X185941666Y-199595295D01*
X185632142Y-198233390D02*
X185322619Y-199161961D01*
X186127380Y-199161961D01*
D10*
D11*
X236003571Y-198295295D02*
X235384523Y-198295295D01*
X235322619Y-198914342D01*
X235384523Y-198852438D01*
X235508333Y-198790533D01*
X235817857Y-198790533D01*
X235941666Y-198852438D01*
X236003571Y-198914342D01*
X236065476Y-199038152D01*
X236065476Y-199347676D01*
X236003571Y-199471485D01*
X235941666Y-199533390D01*
X235817857Y-199595295D01*
X235508333Y-199595295D01*
X235384523Y-199533390D01*
X235322619Y-199471485D01*
D10*
D11*
X285941666Y-198295295D02*
X285694047Y-198295295D01*
X285570238Y-198357200D01*
X285508333Y-198419104D01*
X285384523Y-198604819D01*
X285322619Y-198852438D01*
X285322619Y-199347676D01*
X285384523Y-199471485D01*
X285446428Y-199533390D01*
X285570238Y-199595295D01*
X285817857Y-199595295D01*
X285941666Y-199533390D01*
X286003571Y-199471485D01*
X286065476Y-199347676D01*
X286065476Y-199038152D01*
X286003571Y-198914342D01*
X285941666Y-198852438D01*
X285817857Y-198790533D01*
X285570238Y-198790533D01*
X285446428Y-198852438D01*
X285384523Y-198914342D01*
X285322619Y-199038152D01*
D10*
D11*
X10000000Y-60000000D02*
X12000000Y-60000000D01*
D10*
D11*
X10000000Y-110000000D02*
X12000000Y-110000000D01*
D10*
D11*
X10000000Y-160000000D02*
X12000000Y-160000000D01*
D10*
D11*
X10690476Y-35216666D02*
X11309523Y-35216666D01*
X10566666Y-35588095D02*
X11000000Y-34288095D01*
X11433333Y-35588095D01*
D10*
D11*
X11092857Y-84907142D02*
X11278571Y-84969047D01*
X11340476Y-85030952D01*
X11402380Y-85154761D01*
X11402380Y-85340476D01*
X11340476Y-85464285D01*
X11278571Y-85526190D01*
X11154761Y-85588095D01*
X10659523Y-85588095D01*
X10659523Y-84288095D01*
X11092857Y-84288095D01*
X11216666Y-84350000D01*
X11278571Y-84411904D01*
X11340476Y-84535714D01*
X11340476Y-84659523D01*
X11278571Y-84783333D01*
X11216666Y-84845238D01*
X11092857Y-84907142D01*
X10659523Y-84907142D01*
D10*
D11*
X11402380Y-135464285D02*
X11340476Y-135526190D01*
X11154761Y-135588095D01*
X11030952Y-135588095D01*
X10845238Y-135526190D01*
X10721428Y-135402380D01*
X10659523Y-135278571D01*
X10597619Y-135030952D01*
X10597619Y-134845238D01*
X10659523Y-134597619D01*
X10721428Y-134473809D01*
X10845238Y-134350000D01*
X11030952Y-134288095D01*
X11154761Y-134288095D01*
X11340476Y-134350000D01*
X11402380Y-134411904D01*
D10*
D11*
X10659523Y-185588095D02*
X10659523Y-184288095D01*
X10969047Y-184288095D01*
X11154761Y-184350000D01*
X11278571Y-184473809D01*
X11340476Y-184597619D01*
X11402380Y-184845238D01*
X11402380Y-185030952D01*
X11340476Y-185278571D01*
X11278571Y-185402380D01*
X11154761Y-185526190D01*
X10969047Y-185588095D01*
X10659523Y-185588095D01*
D10*
D11*
X287002200Y-60000000D02*
X285002200Y-60000000D01*
D10*
D11*
X287002200Y-110000000D02*
X285002200Y-110000000D01*
D10*
D11*
X287002200Y-160000000D02*
X285002200Y-160000000D01*
D10*
D11*
X285692676Y-35216666D02*
X286311723Y-35216666D01*
X285568866Y-35588095D02*
X286002200Y-34288095D01*
X286435533Y-35588095D01*
D10*
D11*
X286095057Y-84907142D02*
X286280771Y-84969047D01*
X286342676Y-85030952D01*
X286404580Y-85154761D01*
X286404580Y-85340476D01*
X286342676Y-85464285D01*
X286280771Y-85526190D01*
X286156961Y-85588095D01*
X285661723Y-85588095D01*
X285661723Y-84288095D01*
X286095057Y-84288095D01*
X286218866Y-84350000D01*
X286280771Y-84411904D01*
X286342676Y-84535714D01*
X286342676Y-84659523D01*
X286280771Y-84783333D01*
X286218866Y-84845238D01*
X286095057Y-84907142D01*
X285661723Y-84907142D01*
D10*
D11*
X286404580Y-135464285D02*
X286342676Y-135526190D01*
X286156961Y-135588095D01*
X286033152Y-135588095D01*
X285847438Y-135526190D01*
X285723628Y-135402380D01*
X285661723Y-135278571D01*
X285599819Y-135030952D01*
X285599819Y-134845238D01*
X285661723Y-134597619D01*
X285723628Y-134473809D01*
X285847438Y-134350000D01*
X286033152Y-134288095D01*
X286156961Y-134288095D01*
X286342676Y-134350000D01*
X286404580Y-134411904D01*
D10*
D11*
X285661723Y-185588095D02*
X285661723Y-184288095D01*
X285971247Y-184288095D01*
X286156961Y-184350000D01*
X286280771Y-184473809D01*
X286342676Y-184597619D01*
X286404580Y-184845238D01*
X286404580Y-185030952D01*
X286342676Y-185278571D01*
X286280771Y-185402380D01*
X286156961Y-185526190D01*
X285971247Y-185588095D01*
X285661723Y-185588095D01*
D10*
D11*
X200434342Y-193785771D02*
X200434342Y-192285771D01*
X200791485Y-192285771D01*
X201005771Y-192357200D01*
X201148628Y-192500057D01*
X201220057Y-192642914D01*
X201291485Y-192928628D01*
X201291485Y-193142914D01*
X201220057Y-193428628D01*
X201148628Y-193571485D01*
X201005771Y-193714342D01*
X200791485Y-193785771D01*
X200434342Y-193785771D01*
X202577200Y-193785771D02*
X202577200Y-193000057D01*
X202505771Y-192857200D01*
X202362914Y-192785771D01*
X202077200Y-192785771D01*
X201934342Y-192857200D01*
X202577200Y-193714342D02*
X202434342Y-193785771D01*
X202077200Y-193785771D01*
X201934342Y-193714342D01*
X201862914Y-193571485D01*
X201862914Y-193428628D01*
X201934342Y-193285771D01*
X202077200Y-193214342D01*
X202434342Y-193214342D01*
X202577200Y-193142914D01*
X203077200Y-192785771D02*
X203648628Y-192785771D01*
X203291485Y-192285771D02*
X203291485Y-193571485D01*
X203362914Y-193714342D01*
X203505771Y-193785771D01*
X203648628Y-193785771D01*
X204720057Y-193714342D02*
X204577200Y-193785771D01*
X204291485Y-193785771D01*
X204148628Y-193714342D01*
X204077200Y-193571485D01*
X204077200Y-193000057D01*
X204148628Y-192857200D01*
X204291485Y-192785771D01*
X204577200Y-192785771D01*
X204720057Y-192857200D01*
X204791485Y-193000057D01*
X204791485Y-193142914D01*
X204077200Y-193285771D01*
X205434342Y-193642914D02*
X205505771Y-193714342D01*
X205434342Y-193785771D01*
X205362914Y-193714342D01*
X205434342Y-193642914D01*
X205434342Y-193785771D01*
X205434342Y-192857200D02*
X205505771Y-192928628D01*
X205434342Y-193000057D01*
X205362914Y-192928628D01*
X205434342Y-192857200D01*
X205434342Y-193000057D01*
X207220057Y-192428628D02*
X207291485Y-192357200D01*
X207434342Y-192285771D01*
X207791485Y-192285771D01*
X207934342Y-192357200D01*
X208005771Y-192428628D01*
X208077200Y-192571485D01*
X208077200Y-192714342D01*
X208005771Y-192928628D01*
X207148628Y-193785771D01*
X208077200Y-193785771D01*
X209005771Y-192285771D02*
X209148628Y-192285771D01*
X209291485Y-192357200D01*
X209362914Y-192428628D01*
X209434342Y-192571485D01*
X209505771Y-192857200D01*
X209505771Y-193214342D01*
X209434342Y-193500057D01*
X209362914Y-193642914D01*
X209291485Y-193714342D01*
X209148628Y-193785771D01*
X209005771Y-193785771D01*
X208862914Y-193714342D01*
X208791485Y-193642914D01*
X208720057Y-193500057D01*
X208648628Y-193214342D01*
X208648628Y-192857200D01*
X208720057Y-192571485D01*
X208791485Y-192428628D01*
X208862914Y-192357200D01*
X209005771Y-192285771D01*
X210077200Y-192428628D02*
X210148628Y-192357200D01*
X210291485Y-192285771D01*
X210648628Y-192285771D01*
X210791485Y-192357200D01*
X210862914Y-192428628D01*
X210934342Y-192571485D01*
X210934342Y-192714342D01*
X210862914Y-192928628D01*
X210005771Y-193785771D01*
X210934342Y-193785771D01*
X211862914Y-192285771D02*
X212005771Y-192285771D01*
X212148628Y-192357200D01*
X212220057Y-192428628D01*
X212291485Y-192571485D01*
X212362914Y-192857200D01*
X212362914Y-193214342D01*
X212291485Y-193500057D01*
X212220057Y-193642914D01*
X212148628Y-193714342D01*
X212005771Y-193785771D01*
X211862914Y-193785771D01*
X211720057Y-193714342D01*
X211648628Y-193642914D01*
X211577200Y-193500057D01*
X211505771Y-193214342D01*
X211505771Y-192857200D01*
X211577200Y-192571485D01*
X211648628Y-192428628D01*
X211720057Y-192357200D01*
X211862914Y-192285771D01*
X213005771Y-193214342D02*
X214148628Y-193214342D01*
X215148628Y-192285771D02*
X215291485Y-192285771D01*
X215434342Y-192357200D01*
X215505771Y-192428628D01*
X215577200Y-192571485D01*
X215648628Y-192857200D01*
X215648628Y-193214342D01*
X215577200Y-193500057D01*
X215505771Y-193642914D01*
X215434342Y-193714342D01*
X215291485Y-193785771D01*
X215148628Y-193785771D01*
X215005771Y-193714342D01*
X214934342Y-193642914D01*
X214862914Y-193500057D01*
X214791485Y-193214342D01*
X214791485Y-192857200D01*
X214862914Y-192571485D01*
X214934342Y-192428628D01*
X215005771Y-192357200D01*
X215148628Y-192285771D01*
X216934342Y-192785771D02*
X216934342Y-193785771D01*
X216577200Y-192214342D02*
X216220057Y-193285771D01*
X217148628Y-193285771D01*
X217720057Y-193214342D02*
X218862914Y-193214342D01*
X219505771Y-192428628D02*
X219577200Y-192357200D01*
X219720057Y-192285771D01*
X220077200Y-192285771D01*
X220220057Y-192357200D01*
X220291485Y-192428628D01*
X220362914Y-192571485D01*
X220362914Y-192714342D01*
X220291485Y-192928628D01*
X219434342Y-193785771D01*
X220362914Y-193785771D01*
X221720057Y-192285771D02*
X221005771Y-192285771D01*
X220934342Y-193000057D01*
X221005771Y-192928628D01*
X221148628Y-192857200D01*
X221505771Y-192857200D01*
X221648628Y-192928628D01*
X221720057Y-193000057D01*
X221791485Y-193142914D01*
X221791485Y-193500057D01*
X221720057Y-193642914D01*
X221648628Y-193714342D01*
X221505771Y-193785771D01*
X221148628Y-193785771D01*
X221005771Y-193714342D01*
X220934342Y-193642914D01*
D10*
D11*
X177002200Y-194507200D02*
X285002200Y-194507200D01*
D10*
D11*
X178434342Y-196585771D02*
X178434342Y-195085771D01*
X179291485Y-196585771D02*
X178648628Y-195728628D01*
X179291485Y-195085771D02*
X178434342Y-195942914D01*
X179934342Y-196585771D02*
X179934342Y-195585771D01*
X179934342Y-195085771D02*
X179862914Y-195157200D01*
X179934342Y-195228628D01*
X180005771Y-195157200D01*
X179934342Y-195085771D01*
X179934342Y-195228628D01*
X181505771Y-196442914D02*
X181434342Y-196514342D01*
X181220057Y-196585771D01*
X181077200Y-196585771D01*
X180862914Y-196514342D01*
X180720057Y-196371485D01*
X180648628Y-196228628D01*
X180577200Y-195942914D01*
X180577200Y-195728628D01*
X180648628Y-195442914D01*
X180720057Y-195300057D01*
X180862914Y-195157200D01*
X181077200Y-195085771D01*
X181220057Y-195085771D01*
X181434342Y-195157200D01*
X181505771Y-195228628D01*
X182791485Y-196585771D02*
X182791485Y-195800057D01*
X182720057Y-195657200D01*
X182577200Y-195585771D01*
X182291485Y-195585771D01*
X182148628Y-195657200D01*
X182791485Y-196514342D02*
X182648628Y-196585771D01*
X182291485Y-196585771D01*
X182148628Y-196514342D01*
X182077200Y-196371485D01*
X182077200Y-196228628D01*
X182148628Y-196085771D01*
X182291485Y-196014342D01*
X182648628Y-196014342D01*
X182791485Y-195942914D01*
X184148628Y-196585771D02*
X184148628Y-195085771D01*
X184148628Y-196514342D02*
X184005771Y-196585771D01*
X183720057Y-196585771D01*
X183577200Y-196514342D01*
X183505771Y-196442914D01*
X183434342Y-196300057D01*
X183434342Y-195871485D01*
X183505771Y-195728628D01*
X183577200Y-195657200D01*
X183720057Y-195585771D01*
X184005771Y-195585771D01*
X184148628Y-195657200D01*
X186005771Y-195800057D02*
X186505771Y-195800057D01*
X186720057Y-196585771D02*
X186005771Y-196585771D01*
X186005771Y-195085771D01*
X186720057Y-195085771D01*
X187362914Y-196442914D02*
X187434342Y-196514342D01*
X187362914Y-196585771D01*
X187291485Y-196514342D01*
X187362914Y-196442914D01*
X187362914Y-196585771D01*
X188077200Y-196585771D02*
X188077200Y-195085771D01*
X188434342Y-195085771D01*
X188648628Y-195157200D01*
X188791485Y-195300057D01*
X188862914Y-195442914D01*
X188934342Y-195728628D01*
X188934342Y-195942914D01*
X188862914Y-196228628D01*
X188791485Y-196371485D01*
X188648628Y-196514342D01*
X188434342Y-196585771D01*
X188077200Y-196585771D01*
X189577200Y-196442914D02*
X189648628Y-196514342D01*
X189577200Y-196585771D01*
X189505771Y-196514342D01*
X189577200Y-196442914D01*
X189577200Y-196585771D01*
X190220057Y-196157200D02*
X190934342Y-196157200D01*
X190077200Y-196585771D02*
X190577200Y-195085771D01*
X191077200Y-196585771D01*
X191577200Y-196442914D02*
X191648628Y-196514342D01*
X191577200Y-196585771D01*
X191505771Y-196514342D01*
X191577200Y-196442914D01*
X191577200Y-196585771D01*
X194577200Y-196585771D02*
X194577200Y-195085771D01*
X194720057Y-196014342D02*
X195148628Y-196585771D01*
X195148628Y-195585771D02*
X194577200Y-196157200D01*
X195791485Y-196585771D02*
X195791485Y-195585771D01*
X195791485Y-195085771D02*
X195720057Y-195157200D01*
X195791485Y-195228628D01*
X195862914Y-195157200D01*
X195791485Y-195085771D01*
X195791485Y-195228628D01*
X197148628Y-196514342D02*
X197005771Y-196585771D01*
X196720057Y-196585771D01*
X196577200Y-196514342D01*
X196505771Y-196442914D01*
X196434342Y-196300057D01*
X196434342Y-195871485D01*
X196505771Y-195728628D01*
X196577200Y-195657200D01*
X196720057Y-195585771D01*
X197005771Y-195585771D01*
X197148628Y-195657200D01*
X198434342Y-196585771D02*
X198434342Y-195800057D01*
X198362914Y-195657200D01*
X198220057Y-195585771D01*
X197934342Y-195585771D01*
X197791485Y-195657200D01*
X198434342Y-196514342D02*
X198291485Y-196585771D01*
X197934342Y-196585771D01*
X197791485Y-196514342D01*
X197720057Y-196371485D01*
X197720057Y-196228628D01*
X197791485Y-196085771D01*
X197934342Y-196014342D01*
X198291485Y-196014342D01*
X198434342Y-195942914D01*
X199791485Y-196585771D02*
X199791485Y-195085771D01*
X199791485Y-196514342D02*
X199648628Y-196585771D01*
X199362914Y-196585771D01*
X199220057Y-196514342D01*
X199148628Y-196442914D01*
X199077200Y-196300057D01*
X199077200Y-195871485D01*
X199148628Y-195728628D01*
X199220057Y-195657200D01*
X199362914Y-195585771D01*
X199648628Y-195585771D01*
X199791485Y-195657200D01*
X202077200Y-197157200D02*
X202005771Y-197085771D01*
X201862914Y-196871485D01*
X201791485Y-196728628D01*
X201720057Y-196514342D01*
X201648628Y-196157200D01*
X201648628Y-195871485D01*
X201720057Y-195514342D01*
X201791485Y-195300057D01*
X201862914Y-195157200D01*
X202005771Y-194942914D01*
X202077200Y-194871485D01*
X203362914Y-195085771D02*
X202648628Y-195085771D01*
X202577200Y-195800057D01*
X202648628Y-195728628D01*
X202791485Y-195657200D01*
X203148628Y-195657200D01*
X203291485Y-195728628D01*
X203362914Y-195800057D01*
X203434342Y-195942914D01*
X203434342Y-196300057D01*
X203362914Y-196442914D01*
X203291485Y-196514342D01*
X203148628Y-196585771D01*
X202791485Y-196585771D01*
X202648628Y-196514342D01*
X202577200Y-196442914D01*
X204077200Y-196442914D02*
X204148628Y-196514342D01*
X204077200Y-196585771D01*
X204005771Y-196514342D01*
X204077200Y-196442914D01*
X204077200Y-196585771D01*
X205577200Y-196585771D02*
X204720057Y-196585771D01*
X205148628Y-196585771D02*
X205148628Y-195085771D01*
X205005771Y-195300057D01*
X204862914Y-195442914D01*
X204720057Y-195514342D01*
X206220057Y-196442914D02*
X206291485Y-196514342D01*
X206220057Y-196585771D01*
X206148628Y-196514342D01*
X206220057Y-196442914D01*
X206220057Y-196585771D01*
X207648628Y-195085771D02*
X206934342Y-195085771D01*
X206862914Y-195800057D01*
X206934342Y-195728628D01*
X207077200Y-195657200D01*
X207434342Y-195657200D01*
X207577200Y-195728628D01*
X207648628Y-195800057D01*
X207720057Y-195942914D01*
X207720057Y-196300057D01*
X207648628Y-196442914D01*
X207577200Y-196514342D01*
X207434342Y-196585771D01*
X207077200Y-196585771D01*
X206934342Y-196514342D01*
X206862914Y-196442914D01*
X208362914Y-196014342D02*
X209505771Y-196014342D01*
X210505771Y-195085771D02*
X210648628Y-195085771D01*
X210791485Y-195157200D01*
X210862914Y-195228628D01*
X210934342Y-195371485D01*
X211005771Y-195657200D01*
X211005771Y-196014342D01*
X210934342Y-196300057D01*
X210862914Y-196442914D01*
X210791485Y-196514342D01*
X210648628Y-196585771D01*
X210505771Y-196585771D01*
X210362914Y-196514342D01*
X210291485Y-196442914D01*
X210220057Y-196300057D01*
X210148628Y-196014342D01*
X210148628Y-195657200D01*
X210220057Y-195371485D01*
X210291485Y-195228628D01*
X210362914Y-195157200D01*
X210505771Y-195085771D01*
X211648628Y-196014342D02*
X212791485Y-196014342D01*
X214291485Y-196585771D02*
X213434342Y-196585771D01*
X213862914Y-196585771D02*
X213862914Y-195085771D01*
X213720057Y-195300057D01*
X213577200Y-195442914D01*
X213434342Y-195514342D01*
X215220057Y-195085771D02*
X215362914Y-195085771D01*
X215505771Y-195157200D01*
X215577200Y-195228628D01*
X215648628Y-195371485D01*
X215720057Y-195657200D01*
X215720057Y-196014342D01*
X215648628Y-196300057D01*
X215577200Y-196442914D01*
X215505771Y-196514342D01*
X215362914Y-196585771D01*
X215220057Y-196585771D01*
X215077200Y-196514342D01*
X215005771Y-196442914D01*
X214934342Y-196300057D01*
X214862914Y-196014342D01*
X214862914Y-195657200D01*
X214934342Y-195371485D01*
X215005771Y-195228628D01*
X215077200Y-195157200D01*
X215220057Y-195085771D01*
X216005771Y-196728628D02*
X217148628Y-196728628D01*
X218291485Y-196585771D02*
X217434342Y-196585771D01*
X217862914Y-196585771D02*
X217862914Y-195085771D01*
X217720057Y-195300057D01*
X217577200Y-195442914D01*
X217434342Y-195514342D01*
X219577200Y-195585771D02*
X219577200Y-196585771D01*
X219220057Y-195014342D02*
X218862914Y-196085771D01*
X219791485Y-196085771D01*
X220220057Y-197157200D02*
X220291485Y-197085771D01*
X220434342Y-196871485D01*
X220505771Y-196728628D01*
X220577200Y-196514342D01*
X220648628Y-196157200D01*
X220648628Y-195871485D01*
X220577200Y-195514342D01*
X220505771Y-195300057D01*
X220434342Y-195157200D01*
X220291485Y-194942914D01*
X220220057Y-194871485D01*
D10*
D11*
X177002200Y-191507200D02*
X285002200Y-191507200D01*
D10*
D12*
X264411485Y-193785771D02*
X263911485Y-193071485D01*
X263554342Y-193785771D02*
X263554342Y-192285771D01*
X264125771Y-192285771D01*
X264268628Y-192357200D01*
X264340057Y-192428628D01*
X264411485Y-192571485D01*
X264411485Y-192785771D01*
X264340057Y-192928628D01*
X264268628Y-193000057D01*
X264125771Y-193071485D01*
X263554342Y-193071485D01*
X265625771Y-193714342D02*
X265482914Y-193785771D01*
X265197200Y-193785771D01*
X265054342Y-193714342D01*
X264982914Y-193571485D01*
X264982914Y-193000057D01*
X265054342Y-192857200D01*
X265197200Y-192785771D01*
X265482914Y-192785771D01*
X265625771Y-192857200D01*
X265697200Y-193000057D01*
X265697200Y-193142914D01*
X264982914Y-193285771D01*
X266197200Y-192785771D02*
X266554342Y-193785771D01*
X266911485Y-192785771D01*
X267482914Y-193642914D02*
X267554342Y-193714342D01*
X267482914Y-193785771D01*
X267411485Y-193714342D01*
X267482914Y-193642914D01*
X267482914Y-193785771D01*
X267482914Y-192857200D02*
X267554342Y-192928628D01*
X267482914Y-193000057D01*
X267411485Y-192928628D01*
X267482914Y-192857200D01*
X267482914Y-193000057D01*
X270197200Y-193642914D02*
X270125771Y-193714342D01*
X269911485Y-193785771D01*
X269768628Y-193785771D01*
X269554342Y-193714342D01*
X269411485Y-193571485D01*
X269340057Y-193428628D01*
X269268628Y-193142914D01*
X269268628Y-192928628D01*
X269340057Y-192642914D01*
X269411485Y-192500057D01*
X269554342Y-192357200D01*
X269768628Y-192285771D01*
X269911485Y-192285771D01*
X270125771Y-192357200D01*
X270197200Y-192428628D01*
D10*
D11*
X178362914Y-193714342D02*
X178577200Y-193785771D01*
X178934342Y-193785771D01*
X179077200Y-193714342D01*
X179148628Y-193642914D01*
X179220057Y-193500057D01*
X179220057Y-193357200D01*
X179148628Y-193214342D01*
X179077200Y-193142914D01*
X178934342Y-193071485D01*
X178648628Y-193000057D01*
X178505771Y-192928628D01*
X178434342Y-192857200D01*
X178362914Y-192714342D01*
X178362914Y-192571485D01*
X178434342Y-192428628D01*
X178505771Y-192357200D01*
X178648628Y-192285771D01*
X179005771Y-192285771D01*
X179220057Y-192357200D01*
X179862914Y-193785771D02*
X179862914Y-192785771D01*
X179862914Y-192285771D02*
X179791485Y-192357200D01*
X179862914Y-192428628D01*
X179934342Y-192357200D01*
X179862914Y-192285771D01*
X179862914Y-192428628D01*
X180434342Y-192785771D02*
X181220057Y-192785771D01*
X180434342Y-193785771D01*
X181220057Y-193785771D01*
X182362914Y-193714342D02*
X182220057Y-193785771D01*
X181934342Y-193785771D01*
X181791485Y-193714342D01*
X181720057Y-193571485D01*
X181720057Y-193000057D01*
X181791485Y-192857200D01*
X181934342Y-192785771D01*
X182220057Y-192785771D01*
X182362914Y-192857200D01*
X182434342Y-193000057D01*
X182434342Y-193142914D01*
X181720057Y-193285771D01*
X183077200Y-193642914D02*
X183148628Y-193714342D01*
X183077200Y-193785771D01*
X183005771Y-193714342D01*
X183077200Y-193642914D01*
X183077200Y-193785771D01*
X183077200Y-192857200D02*
X183148628Y-192928628D01*
X183077200Y-193000057D01*
X183005771Y-192928628D01*
X183077200Y-192857200D01*
X183077200Y-193000057D01*
X184862914Y-193357200D02*
X185577200Y-193357200D01*
X184720057Y-193785771D02*
X185220057Y-192285771D01*
X185720057Y-193785771D01*
X186862914Y-192785771D02*
X186862914Y-193785771D01*
X186505771Y-192214342D02*
X186148628Y-193285771D01*
X187077200Y-193285771D01*
D10*
D11*
X263434342Y-196585771D02*
X263434342Y-195085771D01*
X264791485Y-196585771D02*
X264791485Y-195085771D01*
X264791485Y-196514342D02*
X264648628Y-196585771D01*
X264362914Y-196585771D01*
X264220057Y-196514342D01*
X264148628Y-196442914D01*
X264077200Y-196300057D01*
X264077200Y-195871485D01*
X264148628Y-195728628D01*
X264220057Y-195657200D01*
X264362914Y-195585771D01*
X264648628Y-195585771D01*
X264791485Y-195657200D01*
X265505771Y-196442914D02*
X265577200Y-196514342D01*
X265505771Y-196585771D01*
X265434342Y-196514342D01*
X265505771Y-196442914D01*
X265505771Y-196585771D01*
X265505771Y-195657200D02*
X265577200Y-195728628D01*
X265505771Y-195800057D01*
X265434342Y-195728628D01*
X265505771Y-195657200D01*
X265505771Y-195800057D01*
X268148628Y-196585771D02*
X267291485Y-196585771D01*
X267720057Y-196585771D02*
X267720057Y-195085771D01*
X267577200Y-195300057D01*
X267434342Y-195442914D01*
X267291485Y-195514342D01*
X269862914Y-195014342D02*
X268577200Y-196942914D01*
X271148628Y-196585771D02*
X270291485Y-196585771D01*
X270720057Y-196585771D02*
X270720057Y-195085771D01*
X270577200Y-195300057D01*
X270434342Y-195442914D01*
X270291485Y-195514342D01*
D10*
D11*
X177002200Y-187507200D02*
X285002200Y-187507200D01*
D10*
D13*
X178714580Y-188211961D02*
X179857438Y-188211961D01*
X179036009Y-190211961D02*
X179286009Y-188211961D01*
X180274104Y-190211961D02*
X180440771Y-188878628D01*
X180524104Y-188211961D02*
X180416961Y-188307200D01*
X180500295Y-188402438D01*
X180607438Y-188307200D01*
X180524104Y-188211961D01*
X180500295Y-188402438D01*
X181107438Y-188878628D02*
X181869342Y-188878628D01*
X181476485Y-188211961D02*
X181262200Y-189926247D01*
X181333628Y-190116723D01*
X181512200Y-190211961D01*
X181702676Y-190211961D01*
X182655057Y-190211961D02*
X182476485Y-190116723D01*
X182405057Y-189926247D01*
X182619342Y-188211961D01*
X184190771Y-190116723D02*
X183988390Y-190211961D01*
X183607438Y-190211961D01*
X183428866Y-190116723D01*
X183357438Y-189926247D01*
X183452676Y-189164342D01*
X183571723Y-188973866D01*
X183774104Y-188878628D01*
X184155057Y-188878628D01*
X184333628Y-188973866D01*
X184405057Y-189164342D01*
X184381247Y-189354819D01*
X183405057Y-189545295D01*
X185155057Y-190021485D02*
X185238390Y-190116723D01*
X185131247Y-190211961D01*
X185047914Y-190116723D01*
X185155057Y-190021485D01*
X185131247Y-190211961D01*
X185286009Y-188973866D02*
X185369342Y-189069104D01*
X185262200Y-189164342D01*
X185178866Y-189069104D01*
X185286009Y-188973866D01*
X185262200Y-189164342D01*
X187607438Y-190211961D02*
X187857438Y-188211961D01*
X188619342Y-188211961D01*
X188797914Y-188307200D01*
X188881247Y-188402438D01*
X188952676Y-188592914D01*
X188916961Y-188878628D01*
X188797914Y-189069104D01*
X188690771Y-189164342D01*
X188488390Y-189259580D01*
X187726485Y-189259580D01*
X189893152Y-190211961D02*
X189714580Y-190116723D01*
X189631247Y-190021485D01*
X189559819Y-189831009D01*
X189631247Y-189259580D01*
X189750295Y-189069104D01*
X189857438Y-188973866D01*
X190059819Y-188878628D01*
X190345533Y-188878628D01*
X190524104Y-188973866D01*
X190607438Y-189069104D01*
X190678866Y-189259580D01*
X190607438Y-189831009D01*
X190488390Y-190021485D01*
X190381247Y-190116723D01*
X190178866Y-190211961D01*
X189893152Y-190211961D01*
X191393152Y-188878628D02*
X191607438Y-190211961D01*
X192107438Y-189259580D01*
X192369342Y-190211961D01*
X192916961Y-188878628D01*
X194286009Y-190116723D02*
X194083628Y-190211961D01*
X193702676Y-190211961D01*
X193524104Y-190116723D01*
X193452676Y-189926247D01*
X193547914Y-189164342D01*
X193666961Y-188973866D01*
X193869342Y-188878628D01*
X194250295Y-188878628D01*
X194428866Y-188973866D01*
X194500295Y-189164342D01*
X194476485Y-189354819D01*
X193500295Y-189545295D01*
X195226485Y-190211961D02*
X195393152Y-188878628D01*
X195345533Y-189259580D02*
X195464580Y-189069104D01*
X195571723Y-188973866D01*
X195774104Y-188878628D01*
X195964580Y-188878628D01*
X198786009Y-189164342D02*
X199059819Y-189259580D01*
X199143152Y-189354819D01*
X199214580Y-189545295D01*
X199178866Y-189831009D01*
X199059819Y-190021485D01*
X198952676Y-190116723D01*
X198750295Y-190211961D01*
X197988390Y-190211961D01*
X198238390Y-188211961D01*
X198905057Y-188211961D01*
X199083628Y-188307200D01*
X199166961Y-188402438D01*
X199238390Y-188592914D01*
X199214580Y-188783390D01*
X199095533Y-188973866D01*
X198988390Y-189069104D01*
X198786009Y-189164342D01*
X198119342Y-189164342D01*
X200274104Y-190211961D02*
X200095533Y-190116723D01*
X200012200Y-190021485D01*
X199940771Y-189831009D01*
X200012200Y-189259580D01*
X200131247Y-189069104D01*
X200238390Y-188973866D01*
X200440771Y-188878628D01*
X200726485Y-188878628D01*
X200905057Y-188973866D01*
X200988390Y-189069104D01*
X201059819Y-189259580D01*
X200988390Y-189831009D01*
X200869342Y-190021485D01*
X200762200Y-190116723D01*
X200559819Y-190211961D01*
X200274104Y-190211961D01*
X202655057Y-190211961D02*
X202786009Y-189164342D01*
X202714580Y-188973866D01*
X202536009Y-188878628D01*
X202155057Y-188878628D01*
X201952676Y-188973866D01*
X202666961Y-190116723D02*
X202464580Y-190211961D01*
X201988390Y-190211961D01*
X201809819Y-190116723D01*
X201738390Y-189926247D01*
X201762200Y-189735771D01*
X201881247Y-189545295D01*
X202083628Y-189450057D01*
X202559819Y-189450057D01*
X202762200Y-189354819D01*
X203607438Y-190211961D02*
X203774104Y-188878628D01*
X203726485Y-189259580D02*
X203845533Y-189069104D01*
X203952676Y-188973866D01*
X204155057Y-188878628D01*
X204345533Y-188878628D01*
X205702676Y-190211961D02*
X205952676Y-188211961D01*
X205714580Y-190116723D02*
X205512200Y-190211961D01*
X205131247Y-190211961D01*
X204952676Y-190116723D01*
X204869342Y-190021485D01*
X204797914Y-189831009D01*
X204869342Y-189259580D01*
X204988390Y-189069104D01*
X205095533Y-188973866D01*
X205297914Y-188878628D01*
X205678866Y-188878628D01*
X205857438Y-188973866D01*
D10*
D11*
X178934342Y-185600057D02*
X178434342Y-185600057D01*
X178434342Y-186385771D02*
X178434342Y-184885771D01*
X179148628Y-184885771D01*
X179720057Y-186385771D02*
X179720057Y-185385771D01*
X179720057Y-184885771D02*
X179648628Y-184957200D01*
X179720057Y-185028628D01*
X179791485Y-184957200D01*
X179720057Y-184885771D01*
X179720057Y-185028628D01*
X180648628Y-186385771D02*
X180505771Y-186314342D01*
X180434342Y-186171485D01*
X180434342Y-184885771D01*
X181791485Y-186314342D02*
X181648628Y-186385771D01*
X181362914Y-186385771D01*
X181220057Y-186314342D01*
X181148628Y-186171485D01*
X181148628Y-185600057D01*
X181220057Y-185457200D01*
X181362914Y-185385771D01*
X181648628Y-185385771D01*
X181791485Y-185457200D01*
X181862914Y-185600057D01*
X181862914Y-185742914D01*
X181148628Y-185885771D01*
X182505771Y-186242914D02*
X182577200Y-186314342D01*
X182505771Y-186385771D01*
X182434342Y-186314342D01*
X182505771Y-186242914D01*
X182505771Y-186385771D01*
X182505771Y-185457200D02*
X182577200Y-185528628D01*
X182505771Y-185600057D01*
X182434342Y-185528628D01*
X182505771Y-185457200D01*
X182505771Y-185600057D01*
X184362914Y-186385771D02*
X184362914Y-184885771D01*
X184934342Y-184885771D01*
X185077200Y-184957200D01*
X185148628Y-185028628D01*
X185220057Y-185171485D01*
X185220057Y-185385771D01*
X185148628Y-185528628D01*
X185077200Y-185600057D01*
X184934342Y-185671485D01*
X184362914Y-185671485D01*
X186077200Y-186385771D02*
X185934342Y-186314342D01*
X185862914Y-186242914D01*
X185791485Y-186100057D01*
X185791485Y-185671485D01*
X185862914Y-185528628D01*
X185934342Y-185457200D01*
X186077200Y-185385771D01*
X186291485Y-185385771D01*
X186434342Y-185457200D01*
X186505771Y-185528628D01*
X186577200Y-185671485D01*
X186577200Y-186100057D01*
X186505771Y-186242914D01*
X186434342Y-186314342D01*
X186291485Y-186385771D01*
X186077200Y-186385771D01*
X187077200Y-185385771D02*
X187362914Y-186385771D01*
X187648628Y-185671485D01*
X187934342Y-186385771D01*
X188220057Y-185385771D01*
X189362914Y-186314342D02*
X189220057Y-186385771D01*
X188934342Y-186385771D01*
X188791485Y-186314342D01*
X188720057Y-186171485D01*
X188720057Y-185600057D01*
X188791485Y-185457200D01*
X188934342Y-185385771D01*
X189220057Y-185385771D01*
X189362914Y-185457200D01*
X189434342Y-185600057D01*
X189434342Y-185742914D01*
X188720057Y-185885771D01*
X190077200Y-186385771D02*
X190077200Y-185385771D01*
X190077200Y-185671485D02*
X190148628Y-185528628D01*
X190220057Y-185457200D01*
X190362914Y-185385771D01*
X190505771Y-185385771D01*
X192648628Y-185600057D02*
X192862914Y-185671485D01*
X192934342Y-185742914D01*
X193005771Y-185885771D01*
X193005771Y-186100057D01*
X192934342Y-186242914D01*
X192862914Y-186314342D01*
X192720057Y-186385771D01*
X192148628Y-186385771D01*
X192148628Y-184885771D01*
X192648628Y-184885771D01*
X192791485Y-184957200D01*
X192862914Y-185028628D01*
X192934342Y-185171485D01*
X192934342Y-185314342D01*
X192862914Y-185457200D01*
X192791485Y-185528628D01*
X192648628Y-185600057D01*
X192148628Y-185600057D01*
X193862914Y-186385771D02*
X193720057Y-186314342D01*
X193648628Y-186242914D01*
X193577200Y-186100057D01*
X193577200Y-185671485D01*
X193648628Y-185528628D01*
X193720057Y-185457200D01*
X193862914Y-185385771D01*
X194077200Y-185385771D01*
X194220057Y-185457200D01*
X194291485Y-185528628D01*
X194362914Y-185671485D01*
X194362914Y-186100057D01*
X194291485Y-186242914D01*
X194220057Y-186314342D01*
X194077200Y-186385771D01*
X193862914Y-186385771D01*
X195648628Y-186385771D02*
X195648628Y-185600057D01*
X195577200Y-185457200D01*
X195434342Y-185385771D01*
X195148628Y-185385771D01*
X195005771Y-185457200D01*
X195648628Y-186314342D02*
X195505771Y-186385771D01*
X195148628Y-186385771D01*
X195005771Y-186314342D01*
X194934342Y-186171485D01*
X194934342Y-186028628D01*
X195005771Y-185885771D01*
X195148628Y-185814342D01*
X195505771Y-185814342D01*
X195648628Y-185742914D01*
X196362914Y-186385771D02*
X196362914Y-185385771D01*
X196362914Y-185671485D02*
X196434342Y-185528628D01*
X196505771Y-185457200D01*
X196648628Y-185385771D01*
X196791485Y-185385771D01*
X197934342Y-186385771D02*
X197934342Y-184885771D01*
X197934342Y-186314342D02*
X197791485Y-186385771D01*
X197505771Y-186385771D01*
X197362914Y-186314342D01*
X197291485Y-186242914D01*
X197220057Y-186100057D01*
X197220057Y-185671485D01*
X197291485Y-185528628D01*
X197362914Y-185457200D01*
X197505771Y-185385771D01*
X197791485Y-185385771D01*
X197934342Y-185457200D01*
X198648628Y-186242914D02*
X198720057Y-186314342D01*
X198648628Y-186385771D01*
X198577200Y-186314342D01*
X198648628Y-186242914D01*
X198648628Y-186385771D01*
X199362914Y-186385771D02*
X199362914Y-184885771D01*
X199505771Y-185814342D02*
X199934342Y-186385771D01*
X199934342Y-185385771D02*
X199362914Y-185957200D01*
X200577200Y-186385771D02*
X200577200Y-185385771D01*
X200577200Y-184885771D02*
X200505771Y-184957200D01*
X200577200Y-185028628D01*
X200648628Y-184957200D01*
X200577200Y-184885771D01*
X200577200Y-185028628D01*
X201934342Y-186314342D02*
X201791485Y-186385771D01*
X201505771Y-186385771D01*
X201362914Y-186314342D01*
X201291485Y-186242914D01*
X201220057Y-186100057D01*
X201220057Y-185671485D01*
X201291485Y-185528628D01*
X201362914Y-185457200D01*
X201505771Y-185385771D01*
X201791485Y-185385771D01*
X201934342Y-185457200D01*
X203220057Y-186385771D02*
X203220057Y-185600057D01*
X203148628Y-185457200D01*
X203005771Y-185385771D01*
X202720057Y-185385771D01*
X202577200Y-185457200D01*
X203220057Y-186314342D02*
X203077200Y-186385771D01*
X202720057Y-186385771D01*
X202577200Y-186314342D01*
X202505771Y-186171485D01*
X202505771Y-186028628D01*
X202577200Y-185885771D01*
X202720057Y-185814342D01*
X203077200Y-185814342D01*
X203220057Y-185742914D01*
X204577200Y-186385771D02*
X204577200Y-184885771D01*
X204577200Y-186314342D02*
X204434342Y-186385771D01*
X204148628Y-186385771D01*
X204005771Y-186314342D01*
X203934342Y-186242914D01*
X203862914Y-186100057D01*
X203862914Y-185671485D01*
X203934342Y-185528628D01*
X204005771Y-185457200D01*
X204148628Y-185385771D01*
X204434342Y-185385771D01*
X204577200Y-185457200D01*
X204934342Y-186528628D02*
X206077200Y-186528628D01*
X206434342Y-185385771D02*
X206434342Y-186885771D01*
X206434342Y-185457200D02*
X206577200Y-185385771D01*
X206862914Y-185385771D01*
X207005771Y-185457200D01*
X207077200Y-185528628D01*
X207148628Y-185671485D01*
X207148628Y-186100057D01*
X207077200Y-186242914D01*
X207005771Y-186314342D01*
X206862914Y-186385771D01*
X206577200Y-186385771D01*
X206434342Y-186314342D01*
X208434342Y-186314342D02*
X208291485Y-186385771D01*
X208005771Y-186385771D01*
X207862914Y-186314342D01*
X207791485Y-186242914D01*
X207720057Y-186100057D01*
X207720057Y-185671485D01*
X207791485Y-185528628D01*
X207862914Y-185457200D01*
X208005771Y-185385771D01*
X208291485Y-185385771D01*
X208434342Y-185457200D01*
X209077200Y-186385771D02*
X209077200Y-184885771D01*
X209077200Y-185457200D02*
X209220057Y-185385771D01*
X209505771Y-185385771D01*
X209648628Y-185457200D01*
X209720057Y-185528628D01*
X209791485Y-185671485D01*
X209791485Y-186100057D01*
X209720057Y-186242914D01*
X209648628Y-186314342D01*
X209505771Y-186385771D01*
X209220057Y-186385771D01*
X209077200Y-186314342D01*
D10*
D11*
X177002200Y-181507200D02*
X285002200Y-181507200D01*
D10*
D11*
X178362914Y-183614342D02*
X178577200Y-183685771D01*
X178934342Y-183685771D01*
X179077200Y-183614342D01*
X179148628Y-183542914D01*
X179220057Y-183400057D01*
X179220057Y-183257200D01*
X179148628Y-183114342D01*
X179077200Y-183042914D01*
X178934342Y-182971485D01*
X178648628Y-182900057D01*
X178505771Y-182828628D01*
X178434342Y-182757200D01*
X178362914Y-182614342D01*
X178362914Y-182471485D01*
X178434342Y-182328628D01*
X178505771Y-182257200D01*
X178648628Y-182185771D01*
X179005771Y-182185771D01*
X179220057Y-182257200D01*
X179862914Y-183685771D02*
X179862914Y-182185771D01*
X180505771Y-183685771D02*
X180505771Y-182900057D01*
X180434342Y-182757200D01*
X180291485Y-182685771D01*
X180077200Y-182685771D01*
X179934342Y-182757200D01*
X179862914Y-182828628D01*
X181791485Y-183614342D02*
X181648628Y-183685771D01*
X181362914Y-183685771D01*
X181220057Y-183614342D01*
X181148628Y-183471485D01*
X181148628Y-182900057D01*
X181220057Y-182757200D01*
X181362914Y-182685771D01*
X181648628Y-182685771D01*
X181791485Y-182757200D01*
X181862914Y-182900057D01*
X181862914Y-183042914D01*
X181148628Y-183185771D01*
X183077200Y-183614342D02*
X182934342Y-183685771D01*
X182648628Y-183685771D01*
X182505771Y-183614342D01*
X182434342Y-183471485D01*
X182434342Y-182900057D01*
X182505771Y-182757200D01*
X182648628Y-182685771D01*
X182934342Y-182685771D01*
X183077200Y-182757200D01*
X183148628Y-182900057D01*
X183148628Y-183042914D01*
X182434342Y-183185771D01*
X183577200Y-182685771D02*
X184148628Y-182685771D01*
X183791485Y-182185771D02*
X183791485Y-183471485D01*
X183862914Y-183614342D01*
X184005771Y-183685771D01*
X184148628Y-183685771D01*
X184648628Y-183542914D02*
X184720057Y-183614342D01*
X184648628Y-183685771D01*
X184577200Y-183614342D01*
X184648628Y-183542914D01*
X184648628Y-183685771D01*
X184648628Y-182757200D02*
X184720057Y-182828628D01*
X184648628Y-182900057D01*
X184577200Y-182828628D01*
X184648628Y-182757200D01*
X184648628Y-182900057D01*
D10*
D12*
X178554342Y-180685771D02*
X178554342Y-179185771D01*
X179125771Y-179185771D01*
X179268628Y-179257200D01*
X179340057Y-179328628D01*
X179411485Y-179471485D01*
X179411485Y-179685771D01*
X179340057Y-179828628D01*
X179268628Y-179900057D01*
X179125771Y-179971485D01*
X178554342Y-179971485D01*
X180054342Y-180685771D02*
X180054342Y-179685771D01*
X180054342Y-179971485D02*
X180125771Y-179828628D01*
X180197200Y-179757200D01*
X180340057Y-179685771D01*
X180482914Y-179685771D01*
X181197200Y-180685771D02*
X181054342Y-180614342D01*
X180982914Y-180542914D01*
X180911485Y-180400057D01*
X180911485Y-179971485D01*
X180982914Y-179828628D01*
X181054342Y-179757200D01*
X181197200Y-179685771D01*
X181411485Y-179685771D01*
X181554342Y-179757200D01*
X181625771Y-179828628D01*
X181697200Y-179971485D01*
X181697200Y-180400057D01*
X181625771Y-180542914D01*
X181554342Y-180614342D01*
X181411485Y-180685771D01*
X181197200Y-180685771D01*
X182340057Y-179685771D02*
X182340057Y-180971485D01*
X182268628Y-181114342D01*
X182125771Y-181185771D01*
X182054342Y-181185771D01*
X182340057Y-179185771D02*
X182268628Y-179257200D01*
X182340057Y-179328628D01*
X182411485Y-179257200D01*
X182340057Y-179185771D01*
X182340057Y-179328628D01*
X183625771Y-180614342D02*
X183482914Y-180685771D01*
X183197200Y-180685771D01*
X183054342Y-180614342D01*
X182982914Y-180471485D01*
X182982914Y-179900057D01*
X183054342Y-179757200D01*
X183197200Y-179685771D01*
X183482914Y-179685771D01*
X183625771Y-179757200D01*
X183697200Y-179900057D01*
X183697200Y-180042914D01*
X182982914Y-180185771D01*
X184982914Y-180614342D02*
X184840057Y-180685771D01*
X184554342Y-180685771D01*
X184411485Y-180614342D01*
X184340057Y-180542914D01*
X184268628Y-180400057D01*
X184268628Y-179971485D01*
X184340057Y-179828628D01*
X184411485Y-179757200D01*
X184554342Y-179685771D01*
X184840057Y-179685771D01*
X184982914Y-179757200D01*
X185411485Y-179685771D02*
X185982914Y-179685771D01*
X185625771Y-179185771D02*
X185625771Y-180471485D01*
X185697200Y-180614342D01*
X185840057Y-180685771D01*
X185982914Y-180685771D01*
X186482914Y-180542914D02*
X186554342Y-180614342D01*
X186482914Y-180685771D01*
X186411485Y-180614342D01*
X186482914Y-180542914D01*
X186482914Y-180685771D01*
X186482914Y-179757200D02*
X186554342Y-179828628D01*
X186482914Y-179900057D01*
X186411485Y-179828628D01*
X186482914Y-179757200D01*
X186482914Y-179900057D01*
X188840057Y-179900057D02*
X189054342Y-179971485D01*
X189125771Y-180042914D01*
X189197200Y-180185771D01*
X189197200Y-180400057D01*
X189125771Y-180542914D01*
X189054342Y-180614342D01*
X188911485Y-180685771D01*
X188340057Y-180685771D01*
X188340057Y-179185771D01*
X188840057Y-179185771D01*
X188982914Y-179257200D01*
X189054342Y-179328628D01*
X189125771Y-179471485D01*
X189125771Y-179614342D01*
X189054342Y-179757200D01*
X188982914Y-179828628D01*
X188840057Y-179900057D01*
X188340057Y-179900057D01*
X190482914Y-179685771D02*
X190482914Y-180685771D01*
X189840057Y-179685771D02*
X189840057Y-180471485D01*
X189911485Y-180614342D01*
X190054342Y-180685771D01*
X190268628Y-180685771D01*
X190411485Y-180614342D01*
X190482914Y-180542914D01*
X191411485Y-180685771D02*
X191268628Y-180614342D01*
X191197200Y-180542914D01*
X191125771Y-180400057D01*
X191125771Y-179971485D01*
X191197200Y-179828628D01*
X191268628Y-179757200D01*
X191411485Y-179685771D01*
X191625771Y-179685771D01*
X191768628Y-179757200D01*
X191840057Y-179828628D01*
X191911485Y-179971485D01*
X191911485Y-180400057D01*
X191840057Y-180542914D01*
X191768628Y-180614342D01*
X191625771Y-180685771D01*
X191411485Y-180685771D01*
X192411485Y-179685771D02*
X192768628Y-180685771D01*
X193125771Y-179685771D02*
X192768628Y-180685771D01*
X192625771Y-181042914D01*
X192554342Y-181114342D01*
X192411485Y-181185771D01*
X194840057Y-180685771D02*
X194840057Y-179185771D01*
X195554342Y-179685771D02*
X195554342Y-180685771D01*
X195554342Y-179828628D02*
X195625771Y-179757200D01*
X195768628Y-179685771D01*
X195982914Y-179685771D01*
X196125771Y-179757200D01*
X196197200Y-179900057D01*
X196197200Y-180685771D01*
X196840057Y-180614342D02*
X196982914Y-180685771D01*
X197268628Y-180685771D01*
X197411485Y-180614342D01*
X197482914Y-180471485D01*
X197482914Y-180400057D01*
X197411485Y-180257200D01*
X197268628Y-180185771D01*
X197054342Y-180185771D01*
X196911485Y-180114342D01*
X196840057Y-179971485D01*
X196840057Y-179900057D01*
X196911485Y-179757200D01*
X197054342Y-179685771D01*
X197268628Y-179685771D01*
X197411485Y-179757200D01*
X197911485Y-179685771D02*
X198482914Y-179685771D01*
X198125771Y-179185771D02*
X198125771Y-180471485D01*
X198197200Y-180614342D01*
X198340057Y-180685771D01*
X198482914Y-180685771D01*
X198982914Y-180685771D02*
X198982914Y-179685771D01*
X198982914Y-179971485D02*
X199054342Y-179828628D01*
X199125771Y-179757200D01*
X199268628Y-179685771D01*
X199411485Y-179685771D01*
X200554342Y-179685771D02*
X200554342Y-180685771D01*
X199911485Y-179685771D02*
X199911485Y-180471485D01*
X199982914Y-180614342D01*
X200125771Y-180685771D01*
X200340057Y-180685771D01*
X200482914Y-180614342D01*
X200554342Y-180542914D01*
X201268628Y-180685771D02*
X201268628Y-179685771D01*
X201268628Y-179828628D02*
X201340057Y-179757200D01*
X201482914Y-179685771D01*
X201697200Y-179685771D01*
X201840057Y-179757200D01*
X201911485Y-179900057D01*
X201911485Y-180685771D01*
X201911485Y-179900057D02*
X201982914Y-179757200D01*
X202125771Y-179685771D01*
X202340057Y-179685771D01*
X202482914Y-179757200D01*
X202554342Y-179900057D01*
X202554342Y-180685771D01*
X203840057Y-180614342D02*
X203697200Y-180685771D01*
X203411485Y-180685771D01*
X203268628Y-180614342D01*
X203197200Y-180471485D01*
X203197200Y-179900057D01*
X203268628Y-179757200D01*
X203411485Y-179685771D01*
X203697200Y-179685771D01*
X203840057Y-179757200D01*
X203911485Y-179900057D01*
X203911485Y-180042914D01*
X203197200Y-180185771D01*
X204554342Y-179685771D02*
X204554342Y-180685771D01*
X204554342Y-179828628D02*
X204625771Y-179757200D01*
X204768628Y-179685771D01*
X204982914Y-179685771D01*
X205125771Y-179757200D01*
X205197200Y-179900057D01*
X205197200Y-180685771D01*
X205697200Y-179685771D02*
X206268628Y-179685771D01*
X205911485Y-179185771D02*
X205911485Y-180471485D01*
X205982914Y-180614342D01*
X206125771Y-180685771D01*
X206268628Y-180685771D01*
X207411485Y-180685771D02*
X207411485Y-179900057D01*
X207340057Y-179757200D01*
X207197200Y-179685771D01*
X206911485Y-179685771D01*
X206768628Y-179757200D01*
X207411485Y-180614342D02*
X207268628Y-180685771D01*
X206911485Y-180685771D01*
X206768628Y-180614342D01*
X206697200Y-180471485D01*
X206697200Y-180328628D01*
X206768628Y-180185771D01*
X206911485Y-180114342D01*
X207268628Y-180114342D01*
X207411485Y-180042914D01*
X207911485Y-179685771D02*
X208482914Y-179685771D01*
X208125771Y-179185771D02*
X208125771Y-180471485D01*
X208197200Y-180614342D01*
X208340057Y-180685771D01*
X208482914Y-180685771D01*
X208982914Y-180685771D02*
X208982914Y-179685771D01*
X208982914Y-179185771D02*
X208911485Y-179257200D01*
X208982914Y-179328628D01*
X209054342Y-179257200D01*
X208982914Y-179185771D01*
X208982914Y-179328628D01*
X209911485Y-180685771D02*
X209768628Y-180614342D01*
X209697200Y-180542914D01*
X209625771Y-180400057D01*
X209625771Y-179971485D01*
X209697200Y-179828628D01*
X209768628Y-179757200D01*
X209911485Y-179685771D01*
X210125771Y-179685771D01*
X210268628Y-179757200D01*
X210340057Y-179828628D01*
X210411485Y-179971485D01*
X210411485Y-180400057D01*
X210340057Y-180542914D01*
X210268628Y-180614342D01*
X210125771Y-180685771D01*
X209911485Y-180685771D01*
X211054342Y-179685771D02*
X211054342Y-180685771D01*
X211054342Y-179828628D02*
X211125771Y-179757200D01*
X211268628Y-179685771D01*
X211482914Y-179685771D01*
X211625771Y-179757200D01*
X211697200Y-179900057D01*
X211697200Y-180685771D01*
D10*
D11*
X178434342Y-177685771D02*
X178434342Y-176185771D01*
X178791485Y-176185771D01*
X179005771Y-176257200D01*
X179148628Y-176400057D01*
X179220057Y-176542914D01*
X179291485Y-176828628D01*
X179291485Y-177042914D01*
X179220057Y-177328628D01*
X179148628Y-177471485D01*
X179005771Y-177614342D01*
X178791485Y-177685771D01*
X178434342Y-177685771D01*
X179934342Y-177685771D02*
X179934342Y-176685771D01*
X179934342Y-176971485D02*
X180005771Y-176828628D01*
X180077200Y-176757200D01*
X180220057Y-176685771D01*
X180362914Y-176685771D01*
X181505771Y-177685771D02*
X181505771Y-176900057D01*
X181434342Y-176757200D01*
X181291485Y-176685771D01*
X181005771Y-176685771D01*
X180862914Y-176757200D01*
X181505771Y-177614342D02*
X181362914Y-177685771D01*
X181005771Y-177685771D01*
X180862914Y-177614342D01*
X180791485Y-177471485D01*
X180791485Y-177328628D01*
X180862914Y-177185771D01*
X181005771Y-177114342D01*
X181362914Y-177114342D01*
X181505771Y-177042914D01*
X182077200Y-176685771D02*
X182362914Y-177685771D01*
X182648628Y-176971485D01*
X182934342Y-177685771D01*
X183220057Y-176685771D01*
X183791485Y-176685771D02*
X183791485Y-177685771D01*
X183791485Y-176828628D02*
X183862914Y-176757200D01*
X184005771Y-176685771D01*
X184220057Y-176685771D01*
X184362914Y-176757200D01*
X184434342Y-176900057D01*
X184434342Y-177685771D01*
X186291485Y-177685771D02*
X186291485Y-176185771D01*
X186291485Y-176757200D02*
X186434342Y-176685771D01*
X186720057Y-176685771D01*
X186862914Y-176757200D01*
X186934342Y-176828628D01*
X187005771Y-176971485D01*
X187005771Y-177400057D01*
X186934342Y-177542914D01*
X186862914Y-177614342D01*
X186720057Y-177685771D01*
X186434342Y-177685771D01*
X186291485Y-177614342D01*
X187505771Y-176685771D02*
X187862914Y-177685771D01*
X188220057Y-176685771D02*
X187862914Y-177685771D01*
X187720057Y-178042914D01*
X187648628Y-178114342D01*
X187505771Y-178185771D01*
X188791485Y-177542914D02*
X188862914Y-177614342D01*
X188791485Y-177685771D01*
X188720057Y-177614342D01*
X188791485Y-177542914D01*
X188791485Y-177685771D01*
X188791485Y-176757200D02*
X188862914Y-176828628D01*
X188791485Y-176900057D01*
X188720057Y-176828628D01*
X188791485Y-176757200D01*
X188791485Y-176900057D01*
X190577200Y-177257200D02*
X191291485Y-177257200D01*
X190434342Y-177685771D02*
X190934342Y-176185771D01*
X191434342Y-177685771D01*
X191934342Y-176685771D02*
X191934342Y-177685771D01*
X191934342Y-176828628D02*
X192005771Y-176757200D01*
X192148628Y-176685771D01*
X192362914Y-176685771D01*
X192505771Y-176757200D01*
X192577200Y-176900057D01*
X192577200Y-177685771D01*
X193934342Y-177685771D02*
X193934342Y-176185771D01*
X193934342Y-177614342D02*
X193791485Y-177685771D01*
X193505771Y-177685771D01*
X193362914Y-177614342D01*
X193291485Y-177542914D01*
X193220057Y-177400057D01*
X193220057Y-176971485D01*
X193291485Y-176828628D01*
X193362914Y-176757200D01*
X193505771Y-176685771D01*
X193791485Y-176685771D01*
X193934342Y-176757200D01*
X194648628Y-177685771D02*
X194648628Y-176685771D01*
X194648628Y-176971485D02*
X194720057Y-176828628D01*
X194791485Y-176757200D01*
X194934342Y-176685771D01*
X195077200Y-176685771D01*
X196148628Y-177614342D02*
X196005771Y-177685771D01*
X195720057Y-177685771D01*
X195577200Y-177614342D01*
X195505771Y-177471485D01*
X195505771Y-176900057D01*
X195577200Y-176757200D01*
X195720057Y-176685771D01*
X196005771Y-176685771D01*
X196148628Y-176757200D01*
X196220057Y-176900057D01*
X196220057Y-177042914D01*
X195505771Y-177185771D01*
X196720057Y-176685771D02*
X197005771Y-177685771D01*
X197291485Y-176971485D01*
X197577200Y-177685771D01*
X197862914Y-176685771D01*
X200291485Y-177685771D02*
X199577200Y-177685771D01*
X199577200Y-176185771D01*
X200791485Y-177685771D02*
X200791485Y-176685771D01*
X200791485Y-176185771D02*
X200720057Y-176257200D01*
X200791485Y-176328628D01*
X200862914Y-176257200D01*
X200791485Y-176185771D01*
X200791485Y-176328628D01*
D10*
D11*
X197002200Y-191507200D02*
X197002200Y-194507200D01*
D10*
D11*
X261002200Y-191507200D02*
X261002200Y-198007200D01*
D14*
X173800000Y-122400000D02*
X173800000Y-70400000D01*
X103800000Y-70400000D02*
X103800000Y-122400000D01*
X173800000Y-70400000D02*
X103800000Y-70400000D01*
D12*
X148622000Y-114803571D02*
X148622000Y-113303571D01*
X149193428Y-113303571D01*
X149336285Y-113375000D01*
X149407714Y-113446428D01*
X149479142Y-113589285D01*
X149479142Y-113803571D01*
X149407714Y-113946428D01*
X149336285Y-114017857D01*
X149193428Y-114089285D01*
X148622000Y-114089285D01*
X149979142Y-113303571D02*
X150336285Y-114803571D01*
X150622000Y-113732142D01*
X150907714Y-114803571D01*
X151264857Y-113303571D01*
X152693428Y-114803571D02*
X152193428Y-114089285D01*
X151836285Y-114803571D02*
X151836285Y-113303571D01*
X152407714Y-113303571D01*
X152550571Y-113375000D01*
X152622000Y-113446428D01*
X152693428Y-113589285D01*
X152693428Y-113803571D01*
X152622000Y-113946428D01*
X152550571Y-114017857D01*
X152407714Y-114089285D01*
X151836285Y-114089285D01*
X149693428Y-115853571D02*
X149979142Y-115853571D01*
X150122000Y-115925000D01*
X150264857Y-116067857D01*
X150336285Y-116353571D01*
X150336285Y-116853571D01*
X150264857Y-117139285D01*
X150122000Y-117282142D01*
X149979142Y-117353571D01*
X149693428Y-117353571D01*
X149550571Y-117282142D01*
X149407714Y-117139285D01*
X149336285Y-116853571D01*
X149336285Y-116353571D01*
X149407714Y-116067857D01*
X149550571Y-115925000D01*
X149693428Y-115853571D01*
X150979142Y-117353571D02*
X150979142Y-115853571D01*
X151836285Y-117353571D01*
X151836285Y-115853571D01*
X159978571Y-117007142D02*
X160192857Y-117078571D01*
X160550000Y-117078571D01*
X160692857Y-117007142D01*
X160764285Y-116935714D01*
X160835714Y-116792857D01*
X160835714Y-116650000D01*
X160764285Y-116507142D01*
X160692857Y-116435714D01*
X160550000Y-116364285D01*
X160264285Y-116292857D01*
X160121428Y-116221428D01*
X160050000Y-116150000D01*
X159978571Y-116007142D01*
X159978571Y-115864285D01*
X160050000Y-115721428D01*
X160121428Y-115650000D01*
X160264285Y-115578571D01*
X160621428Y-115578571D01*
X160835714Y-115650000D01*
X161764285Y-115578571D02*
X162050000Y-115578571D01*
X162192857Y-115650000D01*
X162335714Y-115792857D01*
X162407142Y-116078571D01*
X162407142Y-116578571D01*
X162335714Y-116864285D01*
X162192857Y-117007142D01*
X162050000Y-117078571D01*
X161764285Y-117078571D01*
X161621428Y-117007142D01*
X161478571Y-116864285D01*
X161407142Y-116578571D01*
X161407142Y-116078571D01*
X161478571Y-115792857D01*
X161621428Y-115650000D01*
X161764285Y-115578571D01*
X163764285Y-117078571D02*
X163050000Y-117078571D01*
X163050000Y-115578571D01*
X143148857Y-117177142D02*
X143148857Y-116677142D01*
X143934571Y-116462857D02*
X143934571Y-117177142D01*
X142434571Y-117177142D01*
X142434571Y-116462857D01*
X142434571Y-115962857D02*
X143934571Y-114962857D01*
X142434571Y-114962857D02*
X143934571Y-115962857D01*
X142434571Y-114605714D02*
X142434571Y-113748571D01*
X143934571Y-114177142D02*
X142434571Y-114177142D01*
X137608571Y-117208857D02*
X138822857Y-117208857D01*
X138965714Y-117137428D01*
X139037142Y-117066000D01*
X139108571Y-116923142D01*
X139108571Y-116637428D01*
X139037142Y-116494571D01*
X138965714Y-116423142D01*
X138822857Y-116351714D01*
X137608571Y-116351714D01*
X139037142Y-115708857D02*
X139108571Y-115494571D01*
X139108571Y-115137428D01*
X139037142Y-114994571D01*
X138965714Y-114923142D01*
X138822857Y-114851714D01*
X138680000Y-114851714D01*
X138537142Y-114923142D01*
X138465714Y-114994571D01*
X138394285Y-115137428D01*
X138322857Y-115423142D01*
X138251428Y-115566000D01*
X138180000Y-115637428D01*
X138037142Y-115708857D01*
X137894285Y-115708857D01*
X137751428Y-115637428D01*
X137680000Y-115566000D01*
X137608571Y-115423142D01*
X137608571Y-115066000D01*
X137680000Y-114851714D01*
X138322857Y-113708857D02*
X138394285Y-113494571D01*
X138465714Y-113423142D01*
X138608571Y-113351714D01*
X138822857Y-113351714D01*
X138965714Y-113423142D01*
X139037142Y-113494571D01*
X139108571Y-113637428D01*
X139108571Y-114208857D01*
X137608571Y-114208857D01*
X137608571Y-113708857D01*
X137680000Y-113566000D01*
X137751428Y-113494571D01*
X137894285Y-113423142D01*
X138037142Y-113423142D01*
X138180000Y-113494571D01*
X138251428Y-113566000D01*
X138322857Y-113708857D01*
X138322857Y-114208857D01*
X113152142Y-73278571D02*
X113152142Y-71778571D01*
X113723571Y-71778571D01*
X113866428Y-71850000D01*
X113937857Y-71921428D01*
X114009285Y-72064285D01*
X114009285Y-72278571D01*
X113937857Y-72421428D01*
X113866428Y-72492857D01*
X113723571Y-72564285D01*
X113152142Y-72564285D01*
X114866428Y-73278571D02*
X114723571Y-73207142D01*
X114652142Y-73135714D01*
X114580714Y-72992857D01*
X114580714Y-72564285D01*
X114652142Y-72421428D01*
X114723571Y-72350000D01*
X114866428Y-72278571D01*
X115080714Y-72278571D01*
X115223571Y-72350000D01*
X115295000Y-72421428D01*
X115366428Y-72564285D01*
X115366428Y-72992857D01*
X115295000Y-73135714D01*
X115223571Y-73207142D01*
X115080714Y-73278571D01*
X114866428Y-73278571D01*
X115866428Y-72278571D02*
X116152142Y-73278571D01*
X116437857Y-72564285D01*
X116723571Y-73278571D01*
X117009285Y-72278571D01*
X118152142Y-73207142D02*
X118009285Y-73278571D01*
X117723571Y-73278571D01*
X117580714Y-73207142D01*
X117509285Y-73064285D01*
X117509285Y-72492857D01*
X117580714Y-72350000D01*
X117723571Y-72278571D01*
X118009285Y-72278571D01*
X118152142Y-72350000D01*
X118223571Y-72492857D01*
X118223571Y-72635714D01*
X117509285Y-72778571D01*
X118866428Y-73278571D02*
X118866428Y-72278571D01*
X118866428Y-72564285D02*
X118937857Y-72421428D01*
X119009285Y-72350000D01*
X119152142Y-72278571D01*
X119295000Y-72278571D01*
X121437857Y-72492857D02*
X121652142Y-72564285D01*
X121723571Y-72635714D01*
X121795000Y-72778571D01*
X121795000Y-72992857D01*
X121723571Y-73135714D01*
X121652142Y-73207142D01*
X121509285Y-73278571D01*
X120937857Y-73278571D01*
X120937857Y-71778571D01*
X121437857Y-71778571D01*
X121580714Y-71850000D01*
X121652142Y-71921428D01*
X121723571Y-72064285D01*
X121723571Y-72207142D01*
X121652142Y-72350000D01*
X121580714Y-72421428D01*
X121437857Y-72492857D01*
X120937857Y-72492857D01*
X122652142Y-73278571D02*
X122509285Y-73207142D01*
X122437857Y-73135714D01*
X122366428Y-72992857D01*
X122366428Y-72564285D01*
X122437857Y-72421428D01*
X122509285Y-72350000D01*
X122652142Y-72278571D01*
X122866428Y-72278571D01*
X123009285Y-72350000D01*
X123080714Y-72421428D01*
X123152142Y-72564285D01*
X123152142Y-72992857D01*
X123080714Y-73135714D01*
X123009285Y-73207142D01*
X122866428Y-73278571D01*
X122652142Y-73278571D01*
X124437857Y-73278571D02*
X124437857Y-72492857D01*
X124366428Y-72350000D01*
X124223571Y-72278571D01*
X123937857Y-72278571D01*
X123795000Y-72350000D01*
X124437857Y-73207142D02*
X124295000Y-73278571D01*
X123937857Y-73278571D01*
X123795000Y-73207142D01*
X123723571Y-73064285D01*
X123723571Y-72921428D01*
X123795000Y-72778571D01*
X123937857Y-72707142D01*
X124295000Y-72707142D01*
X124437857Y-72635714D01*
X125152142Y-73278571D02*
X125152142Y-72278571D01*
X125152142Y-72564285D02*
X125223571Y-72421428D01*
X125295000Y-72350000D01*
X125437857Y-72278571D01*
X125580714Y-72278571D01*
X126723571Y-73278571D02*
X126723571Y-71778571D01*
X126723571Y-73207142D02*
X126580714Y-73278571D01*
X126295000Y-73278571D01*
X126152142Y-73207142D01*
X126080714Y-73135714D01*
X126009285Y-72992857D01*
X126009285Y-72564285D01*
X126080714Y-72421428D01*
X126152142Y-72350000D01*
X126295000Y-72278571D01*
X126580714Y-72278571D01*
X126723571Y-72350000D01*
X127437857Y-73135714D02*
X127509285Y-73207142D01*
X127437857Y-73278571D01*
X127366428Y-73207142D01*
X127437857Y-73135714D01*
X127437857Y-73278571D01*
X127437857Y-72350000D02*
X127509285Y-72421428D01*
X127437857Y-72492857D01*
X127366428Y-72421428D01*
X127437857Y-72350000D01*
X127437857Y-72492857D01*
X130152142Y-73278571D02*
X129652142Y-72564285D01*
X129295000Y-73278571D02*
X129295000Y-71778571D01*
X129866428Y-71778571D01*
X130009285Y-71850000D01*
X130080714Y-71921428D01*
X130152142Y-72064285D01*
X130152142Y-72278571D01*
X130080714Y-72421428D01*
X130009285Y-72492857D01*
X129866428Y-72564285D01*
X129295000Y-72564285D01*
X131366428Y-73207142D02*
X131223571Y-73278571D01*
X130937857Y-73278571D01*
X130795000Y-73207142D01*
X130723571Y-73064285D01*
X130723571Y-72492857D01*
X130795000Y-72350000D01*
X130937857Y-72278571D01*
X131223571Y-72278571D01*
X131366428Y-72350000D01*
X131437857Y-72492857D01*
X131437857Y-72635714D01*
X130723571Y-72778571D01*
X131937857Y-72278571D02*
X132295000Y-73278571D01*
X132652142Y-72278571D01*
X135223571Y-73135714D02*
X135152142Y-73207142D01*
X134937857Y-73278571D01*
X134795000Y-73278571D01*
X134580714Y-73207142D01*
X134437857Y-73064285D01*
X134366428Y-72921428D01*
X134295000Y-72635714D01*
X134295000Y-72421428D01*
X134366428Y-72135714D01*
X134437857Y-71992857D01*
X134580714Y-71850000D01*
X134795000Y-71778571D01*
X134937857Y-71778571D01*
X135152142Y-71850000D01*
X135223571Y-71921428D01*
D14*
X103800000Y-122400000D02*
X173800000Y-122400000D01*
D10*
X122873920Y-121894000D02*
X122873920Y-112294000D01*
X134174080Y-121894000D02*
X134174080Y-112294000D01*
X122874000Y-112294000D02*
X134174000Y-112294000D01*
X134174000Y-121894000D02*
X122874000Y-121894000D01*
X139446000Y-117856000D02*
X139446000Y-120396000D01*
X144526000Y-120396000D02*
X136906000Y-120396000D01*
X144526000Y-117856000D02*
X144526000Y-120396000D01*
X136906000Y-117856000D02*
X144526000Y-117856000D01*
X136906000Y-120396000D02*
X136906000Y-117856000D01*
X159258000Y-117856000D02*
X159258000Y-120396000D01*
X164338000Y-120396000D02*
X156718000Y-120396000D01*
X164338000Y-117856000D02*
X164338000Y-120396000D01*
X156718000Y-117856000D02*
X164338000Y-117856000D01*
X156718000Y-120396000D02*
X156718000Y-117856000D01*
X121748000Y-114088000D02*
X121748000Y-122088000D01*
X112948000Y-114088000D02*
X121748000Y-114088000D01*
X112948000Y-122088000D02*
X112948000Y-114088000D01*
X121748000Y-122088000D02*
X112948000Y-122088000D01*
X148082000Y-117856000D02*
X153162000Y-117856000D01*
X148082000Y-120396000D02*
X148082000Y-117856000D01*
X153162000Y-120396000D02*
X148082000Y-120396000D01*
X153162000Y-117856000D02*
X153162000Y-120396000D01*
X112326190Y-92404761D02*
X112683333Y-92404761D01*
X112754761Y-92428571D01*
X112802380Y-92476190D01*
X112826190Y-92547619D01*
X112826190Y-92595238D01*
X112826190Y-91904761D02*
X112826190Y-92190476D01*
X112826190Y-92047619D02*
X112326190Y-92047619D01*
X112397619Y-92095238D01*
X112445238Y-92142857D01*
X112469047Y-92190476D01*
X112826190Y-91428571D02*
X112826190Y-91714285D01*
X112826190Y-91571428D02*
X112326190Y-91571428D01*
X112397619Y-91619047D01*
X112445238Y-91666666D01*
X112469047Y-91714285D01*
X134833333Y-112526190D02*
X134833333Y-112883333D01*
X134809523Y-112954761D01*
X134761904Y-113002380D01*
X134690476Y-113026190D01*
X134642857Y-113026190D01*
X135333333Y-113026190D02*
X135047619Y-113026190D01*
X135190476Y-113026190D02*
X135190476Y-112526190D01*
X135142857Y-112597619D01*
X135095238Y-112645238D01*
X135047619Y-112669047D01*
X155833333Y-74926190D02*
X155833333Y-75283333D01*
X155809523Y-75354761D01*
X155761904Y-75402380D01*
X155690476Y-75426190D01*
X155642857Y-75426190D01*
X156095238Y-75426190D02*
X156190476Y-75426190D01*
X156238095Y-75402380D01*
X156261904Y-75378571D01*
X156309523Y-75307142D01*
X156333333Y-75211904D01*
X156333333Y-75021428D01*
X156309523Y-74973809D01*
X156285714Y-74950000D01*
X156238095Y-74926190D01*
X156142857Y-74926190D01*
X156095238Y-74950000D01*
X156071428Y-74973809D01*
X156047619Y-75021428D01*
X156047619Y-75140476D01*
X156071428Y-75188095D01*
X156095238Y-75211904D01*
X156142857Y-75235714D01*
X156238095Y-75235714D01*
X156285714Y-75211904D01*
X156309523Y-75188095D01*
X156333333Y-75140476D01*
X162033333Y-110926190D02*
X162033333Y-111283333D01*
X162009523Y-111354761D01*
X161961904Y-111402380D01*
X161890476Y-111426190D01*
X161842857Y-111426190D01*
X162342857Y-111140476D02*
X162295238Y-111116666D01*
X162271428Y-111092857D01*
X162247619Y-111045238D01*
X162247619Y-111021428D01*
X162271428Y-110973809D01*
X162295238Y-110950000D01*
X162342857Y-110926190D01*
X162438095Y-110926190D01*
X162485714Y-110950000D01*
X162509523Y-110973809D01*
X162533333Y-111021428D01*
X162533333Y-111045238D01*
X162509523Y-111092857D01*
X162485714Y-111116666D01*
X162438095Y-111140476D01*
X162342857Y-111140476D01*
X162295238Y-111164285D01*
X162271428Y-111188095D01*
X162247619Y-111235714D01*
X162247619Y-111330952D01*
X162271428Y-111378571D01*
X162295238Y-111402380D01*
X162342857Y-111426190D01*
X162438095Y-111426190D01*
X162485714Y-111402380D01*
X162509523Y-111378571D01*
X162533333Y-111330952D01*
X162533333Y-111235714D01*
X162509523Y-111188095D01*
X162485714Y-111164285D01*
X162438095Y-111140476D01*
X140346952Y-119352190D02*
X140346952Y-118852190D01*
X140537428Y-118852190D01*
X140585047Y-118876000D01*
X140608857Y-118899809D01*
X140632666Y-118947428D01*
X140632666Y-119018857D01*
X140608857Y-119066476D01*
X140585047Y-119090285D01*
X140537428Y-119114095D01*
X140346952Y-119114095D01*
X140870761Y-119352190D02*
X140966000Y-119352190D01*
X141013619Y-119328380D01*
X141037428Y-119304571D01*
X141085047Y-119233142D01*
X141108857Y-119137904D01*
X141108857Y-118947428D01*
X141085047Y-118899809D01*
X141061238Y-118876000D01*
X141013619Y-118852190D01*
X140918380Y-118852190D01*
X140870761Y-118876000D01*
X140846952Y-118899809D01*
X140823142Y-118947428D01*
X140823142Y-119066476D01*
X140846952Y-119114095D01*
X140870761Y-119137904D01*
X140918380Y-119161714D01*
X141013619Y-119161714D01*
X141061238Y-119137904D01*
X141085047Y-119114095D01*
X141108857Y-119066476D01*
X160158952Y-119352190D02*
X160158952Y-118852190D01*
X160349428Y-118852190D01*
X160397047Y-118876000D01*
X160420857Y-118899809D01*
X160444666Y-118947428D01*
X160444666Y-119018857D01*
X160420857Y-119066476D01*
X160397047Y-119090285D01*
X160349428Y-119114095D01*
X160158952Y-119114095D01*
X160611333Y-118852190D02*
X160920857Y-118852190D01*
X160754190Y-119042666D01*
X160825619Y-119042666D01*
X160873238Y-119066476D01*
X160897047Y-119090285D01*
X160920857Y-119137904D01*
X160920857Y-119256952D01*
X160897047Y-119304571D01*
X160873238Y-119328380D01*
X160825619Y-119352190D01*
X160682761Y-119352190D01*
X160635142Y-119328380D01*
X160611333Y-119304571D01*
X111830952Y-121026190D02*
X111830952Y-120526190D01*
X112021428Y-120526190D01*
X112069047Y-120550000D01*
X112092857Y-120573809D01*
X112116666Y-120621428D01*
X112116666Y-120692857D01*
X112092857Y-120740476D01*
X112069047Y-120764285D01*
X112021428Y-120788095D01*
X111830952Y-120788095D01*
X112545238Y-120526190D02*
X112450000Y-120526190D01*
X112402380Y-120550000D01*
X112378571Y-120573809D01*
X112330952Y-120645238D01*
X112307142Y-120740476D01*
X112307142Y-120930952D01*
X112330952Y-120978571D01*
X112354761Y-121002380D01*
X112402380Y-121026190D01*
X112497619Y-121026190D01*
X112545238Y-121002380D01*
X112569047Y-120978571D01*
X112592857Y-120930952D01*
X112592857Y-120811904D01*
X112569047Y-120764285D01*
X112545238Y-120740476D01*
X112497619Y-120716666D01*
X112402380Y-120716666D01*
X112354761Y-120740476D01*
X112330952Y-120764285D01*
X112307142Y-120811904D01*
X148030952Y-117426190D02*
X148030952Y-116926190D01*
X148221428Y-116926190D01*
X148269047Y-116950000D01*
X148292857Y-116973809D01*
X148316666Y-117021428D01*
X148316666Y-117092857D01*
X148292857Y-117140476D01*
X148269047Y-117164285D01*
X148221428Y-117188095D01*
X148030952Y-117188095D01*
X148745238Y-117092857D02*
X148745238Y-117426190D01*
X148626190Y-116902380D02*
X148507142Y-117259523D01*
X148816666Y-117259523D01*
M02*
