G04 #@! TF.GenerationSoftware,KiCad,Pcbnew,(5.1.5-0-10_14)*
G04 #@! TF.CreationDate,2020-05-24T14:41:35+12:00*
G04 #@! TF.ProjectId,power-board,706f7765-722d-4626-9f61-72642e6b6963,C*
G04 #@! TF.SameCoordinates,Original*
G04 #@! TF.FileFunction,Copper,L2,Bot*
G04 #@! TF.FilePolarity,Positive*
%FSLAX46Y46*%
G04 Gerber Fmt 4.6, Leading zero omitted, Abs format (unit mm)*
G04 Created by KiCad (PCBNEW (5.1.5-0-10_14)) date 2020-05-24 14:41:35*
%MOMM*%
%LPD*%
G04 APERTURE LIST*
%ADD10C,0.200000*%
%ADD11R,1.500000X3.400000*%
%ADD12R,1.000000X3.500000*%
%ADD13R,2.500000X3.250000*%
%ADD14C,1.397000*%
%ADD15R,1.397000X1.397000*%
%ADD16R,3.000000X1.600000*%
%ADD17R,5.500000X1.000000*%
%ADD18R,2.032000X1.016000*%
%ADD19R,2.032000X3.657600*%
%ADD20R,2.199640X1.800000*%
%ADD21R,1.651000X2.845000*%
%ADD22R,1.270000X0.381000*%
%ADD23R,1.800000X1.200000*%
%ADD24R,1.500000X0.600000*%
%ADD25R,2.032000X1.524000*%
%ADD26R,0.889000X1.397000*%
%ADD27R,1.143000X0.635000*%
%ADD28R,0.635000X1.143000*%
%ADD29R,3.100000X2.600000*%
%ADD30C,0.900000*%
%ADD31C,0.254000*%
%ADD32C,0.508000*%
%ADD33C,0.762000*%
G04 APERTURE END LIST*
D10*
X111800000Y-94400000D02*
X111800000Y-42400000D01*
X41800000Y-42400000D02*
X41800000Y-94400000D01*
X111800000Y-42400000D02*
X41800000Y-42400000D01*
X41800000Y-94400000D02*
X111800000Y-94400000D01*
D11*
X84250000Y-44740000D03*
X90950000Y-44740000D03*
D12*
X88600000Y-50490000D03*
X86600000Y-50490000D03*
D13*
X78160000Y-60900000D03*
X72160000Y-60900000D03*
D14*
X81256000Y-91126000D03*
X78716000Y-91126000D03*
D15*
X76176000Y-91126000D03*
D14*
X101068000Y-91126000D03*
X98528000Y-91126000D03*
D15*
X95988000Y-91126000D03*
D16*
X54070000Y-75476000D03*
X54070000Y-68676000D03*
D17*
X56320000Y-71076000D03*
X56320000Y-73076000D03*
D18*
X57380000Y-59630000D03*
X57380000Y-64202000D03*
X57380000Y-61916000D03*
D19*
X50776000Y-61916000D03*
D14*
X87352000Y-91126000D03*
D15*
X89892000Y-91126000D03*
D20*
X85574000Y-63254000D03*
X85574000Y-59054000D03*
D21*
X83796000Y-67758000D03*
D22*
X81637000Y-66782640D03*
X81637000Y-67432880D03*
X81637000Y-68083120D03*
X81637000Y-68733360D03*
X85955000Y-68733360D03*
X85955000Y-68083120D03*
X85955000Y-67432880D03*
X85955000Y-66782640D03*
X81637000Y-69383360D03*
X81637000Y-66132640D03*
X85955000Y-66132640D03*
X85955000Y-69383360D03*
D23*
X102502000Y-68018000D03*
X102502000Y-62418000D03*
D24*
X106402000Y-63718000D03*
X106402000Y-66718000D03*
X106402000Y-65718000D03*
X106402000Y-64718000D03*
D23*
X102502000Y-76654000D03*
X102502000Y-71054000D03*
D24*
X106402000Y-72354000D03*
X106402000Y-75354000D03*
X106402000Y-74354000D03*
X106402000Y-73354000D03*
D25*
X75922000Y-69409000D03*
X75922000Y-66107000D03*
D26*
X61634500Y-61916000D03*
X59729500Y-61916000D03*
X61634500Y-64202000D03*
X59729500Y-64202000D03*
D27*
X85828000Y-71060000D03*
X85828000Y-72584000D03*
X89638000Y-71060000D03*
X89638000Y-69536000D03*
X87860000Y-71060000D03*
X87860000Y-69536000D03*
X80240000Y-71060000D03*
X80240000Y-72584000D03*
X76684000Y-71060000D03*
X76684000Y-72584000D03*
D28*
X79478000Y-69536000D03*
X77954000Y-69536000D03*
D27*
X78462000Y-71060000D03*
X78462000Y-72584000D03*
D29*
X71858000Y-66894000D03*
X71858000Y-73194000D03*
X66778000Y-66894000D03*
X66778000Y-73194000D03*
X90146000Y-65828000D03*
X90146000Y-59528000D03*
D28*
X94886000Y-72388000D03*
X93362000Y-72388000D03*
X80408000Y-64260000D03*
X81932000Y-64260000D03*
D27*
X79478000Y-66488000D03*
X79478000Y-68012000D03*
D30*
X107164000Y-79442000D03*
X97426000Y-57894000D03*
X96918000Y-59164000D03*
X95902000Y-60180000D03*
X97680000Y-60180000D03*
X71832000Y-75290000D03*
X63200000Y-61824000D03*
X59600000Y-59624000D03*
X83710000Y-71102000D03*
X66800000Y-75200000D03*
X76684000Y-74108000D03*
X80240000Y-74108000D03*
X83288000Y-64202000D03*
X85828000Y-74108000D03*
X60428000Y-73092000D03*
X108434000Y-66742000D03*
X108688000Y-73854000D03*
X88114000Y-56328000D03*
X88600000Y-53400000D03*
X63200000Y-64224000D03*
X47474000Y-57344000D03*
X50944000Y-66292000D03*
X44086000Y-64006000D03*
X66524000Y-82744000D03*
X56364000Y-84014000D03*
D31*
X106402000Y-73354000D02*
X105124000Y-73354000D01*
X104624000Y-76902000D02*
X107164000Y-79442000D01*
X104624000Y-73854000D02*
X104624000Y-76902000D01*
X105124000Y-73354000D02*
X104624000Y-73854000D01*
X108431462Y-60942000D02*
X108431462Y-60564630D01*
X106522832Y-58656000D02*
X104538000Y-58656000D01*
X108431462Y-60564630D02*
X106522832Y-58656000D01*
X97426000Y-57894000D02*
X98188000Y-58656000D01*
X98188000Y-58656000D02*
X104538000Y-58656000D01*
X106570000Y-58656000D02*
X108431462Y-60517462D01*
X104538000Y-58656000D02*
X106570000Y-58656000D01*
X106402000Y-65718000D02*
X107680000Y-65718000D01*
X108431462Y-64966538D02*
X108431462Y-60942000D01*
X108431462Y-60942000D02*
X108431462Y-60517462D01*
X107680000Y-65718000D02*
X108431462Y-64966538D01*
X106402000Y-64718000D02*
X107664000Y-64718000D01*
X96918000Y-59164000D02*
X106316000Y-59164000D01*
X106316000Y-59164000D02*
X107926000Y-60774000D01*
X107926000Y-64456000D02*
X107926000Y-60774000D01*
X107664000Y-64718000D02*
X107926000Y-64456000D01*
X96496000Y-67504000D02*
X96496000Y-60774000D01*
X96496000Y-60774000D02*
X95902000Y-60180000D01*
X89638000Y-69536000D02*
X89638000Y-68083120D01*
X89638000Y-68083120D02*
X95916880Y-68083120D01*
X95916880Y-68083120D02*
X96496000Y-67504000D01*
X85955000Y-68083120D02*
X89638000Y-68083120D01*
X97004002Y-60855998D02*
X97004002Y-67714422D01*
X94420424Y-70298000D02*
X97004002Y-67714422D01*
X87860000Y-70044000D02*
X88114000Y-70298000D01*
X87860000Y-70044000D02*
X87860000Y-69536000D01*
X88114000Y-70298000D02*
X94420424Y-70298000D01*
X97004002Y-60855998D02*
X97680000Y-60180000D01*
X87860000Y-69536000D02*
X87860000Y-68918000D01*
X87675360Y-68733360D02*
X85955000Y-68733360D01*
X87860000Y-68918000D02*
X87675360Y-68733360D01*
D32*
X83796000Y-67758000D02*
X83796000Y-71016000D01*
X83796000Y-71016000D02*
X83710000Y-71102000D01*
D31*
X76684000Y-72584000D02*
X76684000Y-74108000D01*
X80240000Y-72584000D02*
X80240000Y-74108000D01*
D32*
X83796000Y-67758000D02*
X83796000Y-64710000D01*
X83796000Y-64710000D02*
X83288000Y-64202000D01*
D31*
X85828000Y-72584000D02*
X85828000Y-74108000D01*
D32*
X56320000Y-73076000D02*
X60412000Y-73076000D01*
X60412000Y-73076000D02*
X60428000Y-73092000D01*
X106402000Y-66718000D02*
X108410000Y-66718000D01*
X108410000Y-66718000D02*
X108434000Y-66742000D01*
X106402000Y-74354000D02*
X108188000Y-74354000D01*
X108188000Y-74354000D02*
X108688000Y-73854000D01*
X85066000Y-59054000D02*
X85066000Y-57852000D01*
X85574000Y-57344000D02*
X85066000Y-57852000D01*
X85574000Y-57344000D02*
X88114000Y-57344000D01*
X88114000Y-57344000D02*
X89892000Y-57344000D01*
X90146000Y-57598000D02*
X90146000Y-59528000D01*
X89892000Y-57344000D02*
X90146000Y-57598000D01*
X88114000Y-56328000D02*
X88114000Y-57344000D01*
X61612000Y-63815500D02*
X61548500Y-63879000D01*
X88600000Y-53400000D02*
X88600000Y-50490000D01*
X63178000Y-64202000D02*
X63200000Y-64224000D01*
X61634500Y-64202000D02*
X63178000Y-64202000D01*
X63108000Y-61916000D02*
X63200000Y-61824000D01*
X61634500Y-61916000D02*
X63108000Y-61916000D01*
X59594000Y-59630000D02*
X59600000Y-59624000D01*
X57380000Y-59630000D02*
X59594000Y-59630000D01*
X71858000Y-75264000D02*
X71832000Y-75290000D01*
X71858000Y-73194000D02*
X71858000Y-75264000D01*
X66778000Y-75178000D02*
X66800000Y-75200000D01*
X66778000Y-73194000D02*
X66778000Y-75178000D01*
X98528000Y-72354000D02*
X99568000Y-72354000D01*
X99568000Y-72354000D02*
X100306000Y-73092000D01*
X94920000Y-72354000D02*
X94886000Y-72388000D01*
X98528000Y-72354000D02*
X94920000Y-72354000D01*
X106402000Y-72354000D02*
X104600000Y-72354000D01*
X104600000Y-72354000D02*
X103862000Y-73092000D01*
X103862000Y-73092000D02*
X100306000Y-73092000D01*
X106402000Y-63718000D02*
X104854000Y-63718000D01*
X104116000Y-64456000D02*
X99290000Y-64456000D01*
X104854000Y-63718000D02*
X104116000Y-64456000D01*
X99290000Y-64456000D02*
X98528000Y-65218000D01*
X98528000Y-65218000D02*
X98528000Y-72354000D01*
X49506000Y-55312000D02*
X47474000Y-57344000D01*
X110720000Y-58958748D02*
X107073252Y-55312000D01*
X110720000Y-79097252D02*
X110720000Y-58958748D01*
X101068000Y-88749252D02*
X110720000Y-79097252D01*
X101068000Y-91126000D02*
X101068000Y-88749252D01*
X86600000Y-55224000D02*
X86600000Y-50490000D01*
X86512000Y-55312000D02*
X86600000Y-55224000D01*
X107073252Y-55312000D02*
X86512000Y-55312000D01*
X86512000Y-55312000D02*
X49506000Y-55312000D01*
D31*
X79478000Y-68012000D02*
X79478000Y-69536000D01*
D32*
X73636000Y-69467000D02*
X73636000Y-70552000D01*
X73636000Y-70552000D02*
X74398000Y-71314000D01*
X89892000Y-91126000D02*
X89892000Y-90110000D01*
X89130000Y-89348000D02*
X89892000Y-90110000D01*
X74398000Y-78516748D02*
X85229252Y-89348000D01*
X85229252Y-89348000D02*
X89130000Y-89348000D01*
X74398000Y-71314000D02*
X74398000Y-78516748D01*
D33*
X71858000Y-66894000D02*
X71858000Y-69467000D01*
X75836000Y-69467000D02*
X73636000Y-69467000D01*
X73636000Y-69467000D02*
X71858000Y-69467000D01*
X71858000Y-69467000D02*
X67217000Y-69467000D01*
X66778000Y-69028000D02*
X66778000Y-66894000D01*
X67217000Y-69467000D02*
X66778000Y-69028000D01*
D32*
X76090000Y-68070000D02*
X75836000Y-68324000D01*
X75836000Y-68324000D02*
X75836000Y-69467000D01*
X79392000Y-68070000D02*
X76090000Y-68070000D01*
D31*
X81637000Y-68083120D02*
X79405120Y-68083120D01*
D32*
X79405120Y-68083120D02*
X79392000Y-68070000D01*
D31*
X79478000Y-66488000D02*
X80350000Y-66488000D01*
X80350000Y-66488000D02*
X80408000Y-66546000D01*
X80408000Y-66546000D02*
X80662000Y-66800000D01*
X81619640Y-66800000D02*
X81637000Y-66782640D01*
X80662000Y-66800000D02*
X81619640Y-66800000D01*
X80408000Y-64260000D02*
X80408000Y-66546000D01*
D33*
X81932000Y-63186000D02*
X81932000Y-60900000D01*
X81932000Y-60900000D02*
X82018000Y-60900000D01*
D32*
X81932000Y-63186000D02*
X81932000Y-64260000D01*
D33*
X85574000Y-63254000D02*
X85574000Y-61916000D01*
X84558000Y-60900000D02*
X82018000Y-60900000D01*
X85574000Y-61916000D02*
X84558000Y-60900000D01*
X82018000Y-60900000D02*
X78160000Y-60900000D01*
D31*
X81637000Y-66132640D02*
X81637000Y-65571000D01*
D32*
X81932000Y-65276000D02*
X81932000Y-64260000D01*
X81637000Y-65571000D02*
X81932000Y-65276000D01*
X57294000Y-64133000D02*
X55417000Y-64133000D01*
X54840000Y-64710000D02*
X54840000Y-66800000D01*
X55417000Y-64133000D02*
X54840000Y-64710000D01*
X56320000Y-71076000D02*
X61952000Y-71076000D01*
X61952000Y-71076000D02*
X61952000Y-71060000D01*
X87352000Y-91126000D02*
X85574000Y-91126000D01*
X61952000Y-68520000D02*
X60232000Y-66800000D01*
X61952000Y-75124000D02*
X61952000Y-71060000D01*
X61952000Y-71060000D02*
X61952000Y-68520000D01*
X63986538Y-77158538D02*
X61952000Y-75124000D01*
X71606538Y-77158538D02*
X63986538Y-77158538D01*
X85574000Y-91126000D02*
X71606538Y-77158538D01*
X51452000Y-66800000D02*
X54840000Y-66800000D01*
X50944000Y-66292000D02*
X51452000Y-66800000D01*
X54840000Y-66800000D02*
X60232000Y-66800000D01*
X57294000Y-64133000D02*
X59660500Y-64133000D01*
X59660500Y-64133000D02*
X59729500Y-64202000D01*
X109706538Y-59378538D02*
X106653462Y-56325462D01*
X95226000Y-56325462D02*
X106653462Y-56325462D01*
X93956000Y-57595462D02*
X95226000Y-56325462D01*
X87352000Y-67250000D02*
X87169120Y-67432880D01*
X93956000Y-64456000D02*
X93956000Y-57595462D01*
X92584000Y-65828000D02*
X93956000Y-64456000D01*
X109706538Y-78677462D02*
X109706538Y-59378538D01*
X90146000Y-65828000D02*
X92584000Y-65828000D01*
X109706538Y-78677462D02*
X98528000Y-89856000D01*
X98528000Y-89856000D02*
X98528000Y-91126000D01*
D31*
X85955000Y-67432880D02*
X87169120Y-67432880D01*
D32*
X87352000Y-67250000D02*
X87352000Y-66742000D01*
D31*
X85955000Y-66782640D02*
X87352000Y-66782640D01*
X87352000Y-66782640D02*
X87352000Y-66742000D01*
X85955000Y-66132640D02*
X87352000Y-66132640D01*
X87352000Y-66132640D02*
X87352000Y-65980000D01*
D32*
X90146000Y-65828000D02*
X87504000Y-65828000D01*
X87352000Y-65980000D02*
X87352000Y-66742000D01*
X87504000Y-65828000D02*
X87352000Y-65980000D01*
X89544640Y-66132640D02*
X89552000Y-66140000D01*
X50690000Y-61847000D02*
X50690000Y-64542000D01*
X89638000Y-72388000D02*
X93362000Y-72388000D01*
X85664748Y-92650000D02*
X71186748Y-78172000D01*
X47982000Y-75378000D02*
X50776000Y-78172000D01*
X50776000Y-78172000D02*
X71186748Y-78172000D01*
X93362000Y-72388000D02*
X91416000Y-72388000D01*
X93194000Y-90618000D02*
X93194000Y-76394000D01*
X91162000Y-92650000D02*
X93194000Y-90618000D01*
X93194000Y-76394000D02*
X91416000Y-74616000D01*
X91416000Y-72388000D02*
X91416000Y-74616000D01*
X91162000Y-92650000D02*
X85664748Y-92650000D01*
X50690000Y-64542000D02*
X47982000Y-67250000D01*
X47982000Y-67250000D02*
X47982000Y-75378000D01*
X57294000Y-61847000D02*
X59660500Y-61847000D01*
X59660500Y-61847000D02*
X59729500Y-61916000D01*
X89638000Y-71060000D02*
X89638000Y-72388000D01*
X87860000Y-71060000D02*
X87860000Y-71822000D01*
X87860000Y-71822000D02*
X88426000Y-72388000D01*
X88426000Y-72388000D02*
X89638000Y-72388000D01*
X50690000Y-61847000D02*
X57294000Y-61847000D01*
X46372000Y-64006000D02*
X44086000Y-64006000D01*
X48658000Y-61720000D02*
X46372000Y-64006000D01*
X50563000Y-61720000D02*
X48658000Y-61720000D01*
X50690000Y-61847000D02*
X50563000Y-61720000D01*
X66524000Y-82744000D02*
X72892244Y-82744000D01*
X76176000Y-86027756D02*
X76176000Y-91126000D01*
X72892244Y-82744000D02*
X76176000Y-86027756D01*
D31*
X75922000Y-64456000D02*
X77192000Y-64456000D01*
X77700000Y-66742000D02*
X78208000Y-67250000D01*
X77700000Y-64964000D02*
X77700000Y-66742000D01*
X77192000Y-64456000D02*
X77700000Y-64964000D01*
D33*
X72160000Y-60900000D02*
X74144000Y-60900000D01*
X74144000Y-60900000D02*
X75922000Y-62678000D01*
X75922000Y-62678000D02*
X75922000Y-64456000D01*
X75922000Y-64456000D02*
X75922000Y-66107000D01*
D31*
X80422880Y-67432880D02*
X80240000Y-67250000D01*
X80422880Y-67432880D02*
X81637000Y-67432880D01*
X78208000Y-67250000D02*
X80240000Y-67250000D01*
D32*
X95988000Y-91126000D02*
X95988000Y-92650000D01*
X94972000Y-93666000D02*
X80240000Y-93666000D01*
X95988000Y-92650000D02*
X94972000Y-93666000D01*
X78716000Y-92142000D02*
X80240000Y-93666000D01*
X78716000Y-91126000D02*
X78716000Y-92142000D01*
X59158000Y-81220000D02*
X72801496Y-81220000D01*
X59158000Y-81220000D02*
X56364000Y-84014000D01*
X81256000Y-89674504D02*
X81256000Y-91126000D01*
X72801496Y-81220000D02*
X81256000Y-89674504D01*
D31*
X78462000Y-72584000D02*
X78462000Y-72076000D01*
X81256000Y-71822000D02*
X81637000Y-71441000D01*
X78716000Y-71822000D02*
X81256000Y-71822000D01*
X78462000Y-72076000D02*
X78716000Y-71822000D01*
X81637000Y-71441000D02*
X81637000Y-69383360D01*
X80240000Y-71060000D02*
X80240000Y-70044000D01*
X80494000Y-69790000D02*
X80494000Y-69000000D01*
X80240000Y-70044000D02*
X80494000Y-69790000D01*
X81637000Y-68733360D02*
X80760640Y-68733360D01*
X80760640Y-68733360D02*
X80494000Y-69000000D01*
X85955000Y-69383360D02*
X85955000Y-69873000D01*
X85828000Y-70000000D02*
X85828000Y-71060000D01*
X85955000Y-69873000D02*
X85828000Y-70000000D01*
X77954000Y-69536000D02*
X77954000Y-70298000D01*
X78208000Y-70806000D02*
X78462000Y-71060000D01*
X78208000Y-70552000D02*
X78208000Y-70806000D01*
X77954000Y-70298000D02*
X78208000Y-70552000D01*
X76684000Y-71060000D02*
X78462000Y-71060000D01*
M02*
