G04 #@! TF.GenerationSoftware,KiCad,Pcbnew,(5.1.5-0-10_14)*
G04 #@! TF.CreationDate,2020-04-26T15:29:48+12:00*
G04 #@! TF.ProjectId,Power Board,506f7765-7220-4426-9f61-72642e6b6963,C*
G04 #@! TF.SameCoordinates,Original*
G04 #@! TF.FileFunction,Legend,Bot*
G04 #@! TF.FilePolarity,Positive*
%FSLAX46Y46*%
G04 Gerber Fmt 4.6, Leading zero omitted, Abs format (unit mm)*
G04 Created by KiCad (PCBNEW (5.1.5-0-10_14)) date 2020-04-26 15:29:48*
%MOMM*%
%LPD*%
G04 APERTURE LIST*
%ADD10C,0.100000*%
%ADD11C,0.150000*%
%ADD12C,0.300000*%
%ADD13C,0.400000*%
%ADD14C,0.200000*%
%ADD15C,0.109220*%
G04 APERTURE END LIST*
D10*
D11*
X177002200Y-166007200D02*
X177002200Y-198007200D01*
X285002200Y-198007200D01*
X285002200Y-166007200D01*
X177002200Y-166007200D01*
D10*
D11*
X10000000Y-10000000D02*
X10000000Y-200007200D01*
X287002200Y-200007200D01*
X287002200Y-10000000D01*
X10000000Y-10000000D01*
D10*
D11*
X12000000Y-12000000D02*
X12000000Y-198007200D01*
X285002200Y-198007200D01*
X285002200Y-12000000D01*
X12000000Y-12000000D01*
D10*
D11*
X60000000Y-12000000D02*
X60000000Y-10000000D01*
D10*
D11*
X110000000Y-12000000D02*
X110000000Y-10000000D01*
D10*
D11*
X160000000Y-12000000D02*
X160000000Y-10000000D01*
D10*
D11*
X210000000Y-12000000D02*
X210000000Y-10000000D01*
D10*
D11*
X260000000Y-12000000D02*
X260000000Y-10000000D01*
D10*
D11*
X36065476Y-11588095D02*
X35322619Y-11588095D01*
X35694047Y-11588095D02*
X35694047Y-10288095D01*
X35570238Y-10473809D01*
X35446428Y-10597619D01*
X35322619Y-10659523D01*
D10*
D11*
X85322619Y-10411904D02*
X85384523Y-10350000D01*
X85508333Y-10288095D01*
X85817857Y-10288095D01*
X85941666Y-10350000D01*
X86003571Y-10411904D01*
X86065476Y-10535714D01*
X86065476Y-10659523D01*
X86003571Y-10845238D01*
X85260714Y-11588095D01*
X86065476Y-11588095D01*
D10*
D11*
X135260714Y-10288095D02*
X136065476Y-10288095D01*
X135632142Y-10783333D01*
X135817857Y-10783333D01*
X135941666Y-10845238D01*
X136003571Y-10907142D01*
X136065476Y-11030952D01*
X136065476Y-11340476D01*
X136003571Y-11464285D01*
X135941666Y-11526190D01*
X135817857Y-11588095D01*
X135446428Y-11588095D01*
X135322619Y-11526190D01*
X135260714Y-11464285D01*
D10*
D11*
X185941666Y-10721428D02*
X185941666Y-11588095D01*
X185632142Y-10226190D02*
X185322619Y-11154761D01*
X186127380Y-11154761D01*
D10*
D11*
X236003571Y-10288095D02*
X235384523Y-10288095D01*
X235322619Y-10907142D01*
X235384523Y-10845238D01*
X235508333Y-10783333D01*
X235817857Y-10783333D01*
X235941666Y-10845238D01*
X236003571Y-10907142D01*
X236065476Y-11030952D01*
X236065476Y-11340476D01*
X236003571Y-11464285D01*
X235941666Y-11526190D01*
X235817857Y-11588095D01*
X235508333Y-11588095D01*
X235384523Y-11526190D01*
X235322619Y-11464285D01*
D10*
D11*
X285941666Y-10288095D02*
X285694047Y-10288095D01*
X285570238Y-10350000D01*
X285508333Y-10411904D01*
X285384523Y-10597619D01*
X285322619Y-10845238D01*
X285322619Y-11340476D01*
X285384523Y-11464285D01*
X285446428Y-11526190D01*
X285570238Y-11588095D01*
X285817857Y-11588095D01*
X285941666Y-11526190D01*
X286003571Y-11464285D01*
X286065476Y-11340476D01*
X286065476Y-11030952D01*
X286003571Y-10907142D01*
X285941666Y-10845238D01*
X285817857Y-10783333D01*
X285570238Y-10783333D01*
X285446428Y-10845238D01*
X285384523Y-10907142D01*
X285322619Y-11030952D01*
D10*
D11*
X60000000Y-198007200D02*
X60000000Y-200007200D01*
D10*
D11*
X110000000Y-198007200D02*
X110000000Y-200007200D01*
D10*
D11*
X160000000Y-198007200D02*
X160000000Y-200007200D01*
D10*
D11*
X210000000Y-198007200D02*
X210000000Y-200007200D01*
D10*
D11*
X260000000Y-198007200D02*
X260000000Y-200007200D01*
D10*
D11*
X36065476Y-199595295D02*
X35322619Y-199595295D01*
X35694047Y-199595295D02*
X35694047Y-198295295D01*
X35570238Y-198481009D01*
X35446428Y-198604819D01*
X35322619Y-198666723D01*
D10*
D11*
X85322619Y-198419104D02*
X85384523Y-198357200D01*
X85508333Y-198295295D01*
X85817857Y-198295295D01*
X85941666Y-198357200D01*
X86003571Y-198419104D01*
X86065476Y-198542914D01*
X86065476Y-198666723D01*
X86003571Y-198852438D01*
X85260714Y-199595295D01*
X86065476Y-199595295D01*
D10*
D11*
X135260714Y-198295295D02*
X136065476Y-198295295D01*
X135632142Y-198790533D01*
X135817857Y-198790533D01*
X135941666Y-198852438D01*
X136003571Y-198914342D01*
X136065476Y-199038152D01*
X136065476Y-199347676D01*
X136003571Y-199471485D01*
X135941666Y-199533390D01*
X135817857Y-199595295D01*
X135446428Y-199595295D01*
X135322619Y-199533390D01*
X135260714Y-199471485D01*
D10*
D11*
X185941666Y-198728628D02*
X185941666Y-199595295D01*
X185632142Y-198233390D02*
X185322619Y-199161961D01*
X186127380Y-199161961D01*
D10*
D11*
X236003571Y-198295295D02*
X235384523Y-198295295D01*
X235322619Y-198914342D01*
X235384523Y-198852438D01*
X235508333Y-198790533D01*
X235817857Y-198790533D01*
X235941666Y-198852438D01*
X236003571Y-198914342D01*
X236065476Y-199038152D01*
X236065476Y-199347676D01*
X236003571Y-199471485D01*
X235941666Y-199533390D01*
X235817857Y-199595295D01*
X235508333Y-199595295D01*
X235384523Y-199533390D01*
X235322619Y-199471485D01*
D10*
D11*
X285941666Y-198295295D02*
X285694047Y-198295295D01*
X285570238Y-198357200D01*
X285508333Y-198419104D01*
X285384523Y-198604819D01*
X285322619Y-198852438D01*
X285322619Y-199347676D01*
X285384523Y-199471485D01*
X285446428Y-199533390D01*
X285570238Y-199595295D01*
X285817857Y-199595295D01*
X285941666Y-199533390D01*
X286003571Y-199471485D01*
X286065476Y-199347676D01*
X286065476Y-199038152D01*
X286003571Y-198914342D01*
X285941666Y-198852438D01*
X285817857Y-198790533D01*
X285570238Y-198790533D01*
X285446428Y-198852438D01*
X285384523Y-198914342D01*
X285322619Y-199038152D01*
D10*
D11*
X10000000Y-60000000D02*
X12000000Y-60000000D01*
D10*
D11*
X10000000Y-110000000D02*
X12000000Y-110000000D01*
D10*
D11*
X10000000Y-160000000D02*
X12000000Y-160000000D01*
D10*
D11*
X10690476Y-35216666D02*
X11309523Y-35216666D01*
X10566666Y-35588095D02*
X11000000Y-34288095D01*
X11433333Y-35588095D01*
D10*
D11*
X11092857Y-84907142D02*
X11278571Y-84969047D01*
X11340476Y-85030952D01*
X11402380Y-85154761D01*
X11402380Y-85340476D01*
X11340476Y-85464285D01*
X11278571Y-85526190D01*
X11154761Y-85588095D01*
X10659523Y-85588095D01*
X10659523Y-84288095D01*
X11092857Y-84288095D01*
X11216666Y-84350000D01*
X11278571Y-84411904D01*
X11340476Y-84535714D01*
X11340476Y-84659523D01*
X11278571Y-84783333D01*
X11216666Y-84845238D01*
X11092857Y-84907142D01*
X10659523Y-84907142D01*
D10*
D11*
X11402380Y-135464285D02*
X11340476Y-135526190D01*
X11154761Y-135588095D01*
X11030952Y-135588095D01*
X10845238Y-135526190D01*
X10721428Y-135402380D01*
X10659523Y-135278571D01*
X10597619Y-135030952D01*
X10597619Y-134845238D01*
X10659523Y-134597619D01*
X10721428Y-134473809D01*
X10845238Y-134350000D01*
X11030952Y-134288095D01*
X11154761Y-134288095D01*
X11340476Y-134350000D01*
X11402380Y-134411904D01*
D10*
D11*
X10659523Y-185588095D02*
X10659523Y-184288095D01*
X10969047Y-184288095D01*
X11154761Y-184350000D01*
X11278571Y-184473809D01*
X11340476Y-184597619D01*
X11402380Y-184845238D01*
X11402380Y-185030952D01*
X11340476Y-185278571D01*
X11278571Y-185402380D01*
X11154761Y-185526190D01*
X10969047Y-185588095D01*
X10659523Y-185588095D01*
D10*
D11*
X287002200Y-60000000D02*
X285002200Y-60000000D01*
D10*
D11*
X287002200Y-110000000D02*
X285002200Y-110000000D01*
D10*
D11*
X287002200Y-160000000D02*
X285002200Y-160000000D01*
D10*
D11*
X285692676Y-35216666D02*
X286311723Y-35216666D01*
X285568866Y-35588095D02*
X286002200Y-34288095D01*
X286435533Y-35588095D01*
D10*
D11*
X286095057Y-84907142D02*
X286280771Y-84969047D01*
X286342676Y-85030952D01*
X286404580Y-85154761D01*
X286404580Y-85340476D01*
X286342676Y-85464285D01*
X286280771Y-85526190D01*
X286156961Y-85588095D01*
X285661723Y-85588095D01*
X285661723Y-84288095D01*
X286095057Y-84288095D01*
X286218866Y-84350000D01*
X286280771Y-84411904D01*
X286342676Y-84535714D01*
X286342676Y-84659523D01*
X286280771Y-84783333D01*
X286218866Y-84845238D01*
X286095057Y-84907142D01*
X285661723Y-84907142D01*
D10*
D11*
X286404580Y-135464285D02*
X286342676Y-135526190D01*
X286156961Y-135588095D01*
X286033152Y-135588095D01*
X285847438Y-135526190D01*
X285723628Y-135402380D01*
X285661723Y-135278571D01*
X285599819Y-135030952D01*
X285599819Y-134845238D01*
X285661723Y-134597619D01*
X285723628Y-134473809D01*
X285847438Y-134350000D01*
X286033152Y-134288095D01*
X286156961Y-134288095D01*
X286342676Y-134350000D01*
X286404580Y-134411904D01*
D10*
D11*
X285661723Y-185588095D02*
X285661723Y-184288095D01*
X285971247Y-184288095D01*
X286156961Y-184350000D01*
X286280771Y-184473809D01*
X286342676Y-184597619D01*
X286404580Y-184845238D01*
X286404580Y-185030952D01*
X286342676Y-185278571D01*
X286280771Y-185402380D01*
X286156961Y-185526190D01*
X285971247Y-185588095D01*
X285661723Y-185588095D01*
D10*
D11*
X200434342Y-193785771D02*
X200434342Y-192285771D01*
X200791485Y-192285771D01*
X201005771Y-192357200D01*
X201148628Y-192500057D01*
X201220057Y-192642914D01*
X201291485Y-192928628D01*
X201291485Y-193142914D01*
X201220057Y-193428628D01*
X201148628Y-193571485D01*
X201005771Y-193714342D01*
X200791485Y-193785771D01*
X200434342Y-193785771D01*
X202577200Y-193785771D02*
X202577200Y-193000057D01*
X202505771Y-192857200D01*
X202362914Y-192785771D01*
X202077200Y-192785771D01*
X201934342Y-192857200D01*
X202577200Y-193714342D02*
X202434342Y-193785771D01*
X202077200Y-193785771D01*
X201934342Y-193714342D01*
X201862914Y-193571485D01*
X201862914Y-193428628D01*
X201934342Y-193285771D01*
X202077200Y-193214342D01*
X202434342Y-193214342D01*
X202577200Y-193142914D01*
X203077200Y-192785771D02*
X203648628Y-192785771D01*
X203291485Y-192285771D02*
X203291485Y-193571485D01*
X203362914Y-193714342D01*
X203505771Y-193785771D01*
X203648628Y-193785771D01*
X204720057Y-193714342D02*
X204577200Y-193785771D01*
X204291485Y-193785771D01*
X204148628Y-193714342D01*
X204077200Y-193571485D01*
X204077200Y-193000057D01*
X204148628Y-192857200D01*
X204291485Y-192785771D01*
X204577200Y-192785771D01*
X204720057Y-192857200D01*
X204791485Y-193000057D01*
X204791485Y-193142914D01*
X204077200Y-193285771D01*
X205434342Y-193642914D02*
X205505771Y-193714342D01*
X205434342Y-193785771D01*
X205362914Y-193714342D01*
X205434342Y-193642914D01*
X205434342Y-193785771D01*
X205434342Y-192857200D02*
X205505771Y-192928628D01*
X205434342Y-193000057D01*
X205362914Y-192928628D01*
X205434342Y-192857200D01*
X205434342Y-193000057D01*
X207220057Y-192428628D02*
X207291485Y-192357200D01*
X207434342Y-192285771D01*
X207791485Y-192285771D01*
X207934342Y-192357200D01*
X208005771Y-192428628D01*
X208077200Y-192571485D01*
X208077200Y-192714342D01*
X208005771Y-192928628D01*
X207148628Y-193785771D01*
X208077200Y-193785771D01*
X209005771Y-192285771D02*
X209148628Y-192285771D01*
X209291485Y-192357200D01*
X209362914Y-192428628D01*
X209434342Y-192571485D01*
X209505771Y-192857200D01*
X209505771Y-193214342D01*
X209434342Y-193500057D01*
X209362914Y-193642914D01*
X209291485Y-193714342D01*
X209148628Y-193785771D01*
X209005771Y-193785771D01*
X208862914Y-193714342D01*
X208791485Y-193642914D01*
X208720057Y-193500057D01*
X208648628Y-193214342D01*
X208648628Y-192857200D01*
X208720057Y-192571485D01*
X208791485Y-192428628D01*
X208862914Y-192357200D01*
X209005771Y-192285771D01*
X210077200Y-192428628D02*
X210148628Y-192357200D01*
X210291485Y-192285771D01*
X210648628Y-192285771D01*
X210791485Y-192357200D01*
X210862914Y-192428628D01*
X210934342Y-192571485D01*
X210934342Y-192714342D01*
X210862914Y-192928628D01*
X210005771Y-193785771D01*
X210934342Y-193785771D01*
X211862914Y-192285771D02*
X212005771Y-192285771D01*
X212148628Y-192357200D01*
X212220057Y-192428628D01*
X212291485Y-192571485D01*
X212362914Y-192857200D01*
X212362914Y-193214342D01*
X212291485Y-193500057D01*
X212220057Y-193642914D01*
X212148628Y-193714342D01*
X212005771Y-193785771D01*
X211862914Y-193785771D01*
X211720057Y-193714342D01*
X211648628Y-193642914D01*
X211577200Y-193500057D01*
X211505771Y-193214342D01*
X211505771Y-192857200D01*
X211577200Y-192571485D01*
X211648628Y-192428628D01*
X211720057Y-192357200D01*
X211862914Y-192285771D01*
X213005771Y-193214342D02*
X214148628Y-193214342D01*
X215148628Y-192285771D02*
X215291485Y-192285771D01*
X215434342Y-192357200D01*
X215505771Y-192428628D01*
X215577200Y-192571485D01*
X215648628Y-192857200D01*
X215648628Y-193214342D01*
X215577200Y-193500057D01*
X215505771Y-193642914D01*
X215434342Y-193714342D01*
X215291485Y-193785771D01*
X215148628Y-193785771D01*
X215005771Y-193714342D01*
X214934342Y-193642914D01*
X214862914Y-193500057D01*
X214791485Y-193214342D01*
X214791485Y-192857200D01*
X214862914Y-192571485D01*
X214934342Y-192428628D01*
X215005771Y-192357200D01*
X215148628Y-192285771D01*
X216934342Y-192785771D02*
X216934342Y-193785771D01*
X216577200Y-192214342D02*
X216220057Y-193285771D01*
X217148628Y-193285771D01*
X217720057Y-193214342D02*
X218862914Y-193214342D01*
X219505771Y-192428628D02*
X219577200Y-192357200D01*
X219720057Y-192285771D01*
X220077200Y-192285771D01*
X220220057Y-192357200D01*
X220291485Y-192428628D01*
X220362914Y-192571485D01*
X220362914Y-192714342D01*
X220291485Y-192928628D01*
X219434342Y-193785771D01*
X220362914Y-193785771D01*
X221720057Y-192285771D02*
X221005771Y-192285771D01*
X220934342Y-193000057D01*
X221005771Y-192928628D01*
X221148628Y-192857200D01*
X221505771Y-192857200D01*
X221648628Y-192928628D01*
X221720057Y-193000057D01*
X221791485Y-193142914D01*
X221791485Y-193500057D01*
X221720057Y-193642914D01*
X221648628Y-193714342D01*
X221505771Y-193785771D01*
X221148628Y-193785771D01*
X221005771Y-193714342D01*
X220934342Y-193642914D01*
D10*
D11*
X177002200Y-194507200D02*
X285002200Y-194507200D01*
D10*
D11*
X178434342Y-196585771D02*
X178434342Y-195085771D01*
X179291485Y-196585771D02*
X178648628Y-195728628D01*
X179291485Y-195085771D02*
X178434342Y-195942914D01*
X179934342Y-196585771D02*
X179934342Y-195585771D01*
X179934342Y-195085771D02*
X179862914Y-195157200D01*
X179934342Y-195228628D01*
X180005771Y-195157200D01*
X179934342Y-195085771D01*
X179934342Y-195228628D01*
X181505771Y-196442914D02*
X181434342Y-196514342D01*
X181220057Y-196585771D01*
X181077200Y-196585771D01*
X180862914Y-196514342D01*
X180720057Y-196371485D01*
X180648628Y-196228628D01*
X180577200Y-195942914D01*
X180577200Y-195728628D01*
X180648628Y-195442914D01*
X180720057Y-195300057D01*
X180862914Y-195157200D01*
X181077200Y-195085771D01*
X181220057Y-195085771D01*
X181434342Y-195157200D01*
X181505771Y-195228628D01*
X182791485Y-196585771D02*
X182791485Y-195800057D01*
X182720057Y-195657200D01*
X182577200Y-195585771D01*
X182291485Y-195585771D01*
X182148628Y-195657200D01*
X182791485Y-196514342D02*
X182648628Y-196585771D01*
X182291485Y-196585771D01*
X182148628Y-196514342D01*
X182077200Y-196371485D01*
X182077200Y-196228628D01*
X182148628Y-196085771D01*
X182291485Y-196014342D01*
X182648628Y-196014342D01*
X182791485Y-195942914D01*
X184148628Y-196585771D02*
X184148628Y-195085771D01*
X184148628Y-196514342D02*
X184005771Y-196585771D01*
X183720057Y-196585771D01*
X183577200Y-196514342D01*
X183505771Y-196442914D01*
X183434342Y-196300057D01*
X183434342Y-195871485D01*
X183505771Y-195728628D01*
X183577200Y-195657200D01*
X183720057Y-195585771D01*
X184005771Y-195585771D01*
X184148628Y-195657200D01*
X186005771Y-195800057D02*
X186505771Y-195800057D01*
X186720057Y-196585771D02*
X186005771Y-196585771D01*
X186005771Y-195085771D01*
X186720057Y-195085771D01*
X187362914Y-196442914D02*
X187434342Y-196514342D01*
X187362914Y-196585771D01*
X187291485Y-196514342D01*
X187362914Y-196442914D01*
X187362914Y-196585771D01*
X188077200Y-196585771D02*
X188077200Y-195085771D01*
X188434342Y-195085771D01*
X188648628Y-195157200D01*
X188791485Y-195300057D01*
X188862914Y-195442914D01*
X188934342Y-195728628D01*
X188934342Y-195942914D01*
X188862914Y-196228628D01*
X188791485Y-196371485D01*
X188648628Y-196514342D01*
X188434342Y-196585771D01*
X188077200Y-196585771D01*
X189577200Y-196442914D02*
X189648628Y-196514342D01*
X189577200Y-196585771D01*
X189505771Y-196514342D01*
X189577200Y-196442914D01*
X189577200Y-196585771D01*
X190220057Y-196157200D02*
X190934342Y-196157200D01*
X190077200Y-196585771D02*
X190577200Y-195085771D01*
X191077200Y-196585771D01*
X191577200Y-196442914D02*
X191648628Y-196514342D01*
X191577200Y-196585771D01*
X191505771Y-196514342D01*
X191577200Y-196442914D01*
X191577200Y-196585771D01*
X194577200Y-196585771D02*
X194577200Y-195085771D01*
X194720057Y-196014342D02*
X195148628Y-196585771D01*
X195148628Y-195585771D02*
X194577200Y-196157200D01*
X195791485Y-196585771D02*
X195791485Y-195585771D01*
X195791485Y-195085771D02*
X195720057Y-195157200D01*
X195791485Y-195228628D01*
X195862914Y-195157200D01*
X195791485Y-195085771D01*
X195791485Y-195228628D01*
X197148628Y-196514342D02*
X197005771Y-196585771D01*
X196720057Y-196585771D01*
X196577200Y-196514342D01*
X196505771Y-196442914D01*
X196434342Y-196300057D01*
X196434342Y-195871485D01*
X196505771Y-195728628D01*
X196577200Y-195657200D01*
X196720057Y-195585771D01*
X197005771Y-195585771D01*
X197148628Y-195657200D01*
X198434342Y-196585771D02*
X198434342Y-195800057D01*
X198362914Y-195657200D01*
X198220057Y-195585771D01*
X197934342Y-195585771D01*
X197791485Y-195657200D01*
X198434342Y-196514342D02*
X198291485Y-196585771D01*
X197934342Y-196585771D01*
X197791485Y-196514342D01*
X197720057Y-196371485D01*
X197720057Y-196228628D01*
X197791485Y-196085771D01*
X197934342Y-196014342D01*
X198291485Y-196014342D01*
X198434342Y-195942914D01*
X199791485Y-196585771D02*
X199791485Y-195085771D01*
X199791485Y-196514342D02*
X199648628Y-196585771D01*
X199362914Y-196585771D01*
X199220057Y-196514342D01*
X199148628Y-196442914D01*
X199077200Y-196300057D01*
X199077200Y-195871485D01*
X199148628Y-195728628D01*
X199220057Y-195657200D01*
X199362914Y-195585771D01*
X199648628Y-195585771D01*
X199791485Y-195657200D01*
X202077200Y-197157200D02*
X202005771Y-197085771D01*
X201862914Y-196871485D01*
X201791485Y-196728628D01*
X201720057Y-196514342D01*
X201648628Y-196157200D01*
X201648628Y-195871485D01*
X201720057Y-195514342D01*
X201791485Y-195300057D01*
X201862914Y-195157200D01*
X202005771Y-194942914D01*
X202077200Y-194871485D01*
X203362914Y-195085771D02*
X202648628Y-195085771D01*
X202577200Y-195800057D01*
X202648628Y-195728628D01*
X202791485Y-195657200D01*
X203148628Y-195657200D01*
X203291485Y-195728628D01*
X203362914Y-195800057D01*
X203434342Y-195942914D01*
X203434342Y-196300057D01*
X203362914Y-196442914D01*
X203291485Y-196514342D01*
X203148628Y-196585771D01*
X202791485Y-196585771D01*
X202648628Y-196514342D01*
X202577200Y-196442914D01*
X204077200Y-196442914D02*
X204148628Y-196514342D01*
X204077200Y-196585771D01*
X204005771Y-196514342D01*
X204077200Y-196442914D01*
X204077200Y-196585771D01*
X205577200Y-196585771D02*
X204720057Y-196585771D01*
X205148628Y-196585771D02*
X205148628Y-195085771D01*
X205005771Y-195300057D01*
X204862914Y-195442914D01*
X204720057Y-195514342D01*
X206220057Y-196442914D02*
X206291485Y-196514342D01*
X206220057Y-196585771D01*
X206148628Y-196514342D01*
X206220057Y-196442914D01*
X206220057Y-196585771D01*
X207648628Y-195085771D02*
X206934342Y-195085771D01*
X206862914Y-195800057D01*
X206934342Y-195728628D01*
X207077200Y-195657200D01*
X207434342Y-195657200D01*
X207577200Y-195728628D01*
X207648628Y-195800057D01*
X207720057Y-195942914D01*
X207720057Y-196300057D01*
X207648628Y-196442914D01*
X207577200Y-196514342D01*
X207434342Y-196585771D01*
X207077200Y-196585771D01*
X206934342Y-196514342D01*
X206862914Y-196442914D01*
X208362914Y-196014342D02*
X209505771Y-196014342D01*
X210505771Y-195085771D02*
X210648628Y-195085771D01*
X210791485Y-195157200D01*
X210862914Y-195228628D01*
X210934342Y-195371485D01*
X211005771Y-195657200D01*
X211005771Y-196014342D01*
X210934342Y-196300057D01*
X210862914Y-196442914D01*
X210791485Y-196514342D01*
X210648628Y-196585771D01*
X210505771Y-196585771D01*
X210362914Y-196514342D01*
X210291485Y-196442914D01*
X210220057Y-196300057D01*
X210148628Y-196014342D01*
X210148628Y-195657200D01*
X210220057Y-195371485D01*
X210291485Y-195228628D01*
X210362914Y-195157200D01*
X210505771Y-195085771D01*
X211648628Y-196014342D02*
X212791485Y-196014342D01*
X214291485Y-196585771D02*
X213434342Y-196585771D01*
X213862914Y-196585771D02*
X213862914Y-195085771D01*
X213720057Y-195300057D01*
X213577200Y-195442914D01*
X213434342Y-195514342D01*
X215220057Y-195085771D02*
X215362914Y-195085771D01*
X215505771Y-195157200D01*
X215577200Y-195228628D01*
X215648628Y-195371485D01*
X215720057Y-195657200D01*
X215720057Y-196014342D01*
X215648628Y-196300057D01*
X215577200Y-196442914D01*
X215505771Y-196514342D01*
X215362914Y-196585771D01*
X215220057Y-196585771D01*
X215077200Y-196514342D01*
X215005771Y-196442914D01*
X214934342Y-196300057D01*
X214862914Y-196014342D01*
X214862914Y-195657200D01*
X214934342Y-195371485D01*
X215005771Y-195228628D01*
X215077200Y-195157200D01*
X215220057Y-195085771D01*
X216005771Y-196728628D02*
X217148628Y-196728628D01*
X218291485Y-196585771D02*
X217434342Y-196585771D01*
X217862914Y-196585771D02*
X217862914Y-195085771D01*
X217720057Y-195300057D01*
X217577200Y-195442914D01*
X217434342Y-195514342D01*
X219577200Y-195585771D02*
X219577200Y-196585771D01*
X219220057Y-195014342D02*
X218862914Y-196085771D01*
X219791485Y-196085771D01*
X220220057Y-197157200D02*
X220291485Y-197085771D01*
X220434342Y-196871485D01*
X220505771Y-196728628D01*
X220577200Y-196514342D01*
X220648628Y-196157200D01*
X220648628Y-195871485D01*
X220577200Y-195514342D01*
X220505771Y-195300057D01*
X220434342Y-195157200D01*
X220291485Y-194942914D01*
X220220057Y-194871485D01*
D10*
D11*
X177002200Y-191507200D02*
X285002200Y-191507200D01*
D10*
D12*
X264411485Y-193785771D02*
X263911485Y-193071485D01*
X263554342Y-193785771D02*
X263554342Y-192285771D01*
X264125771Y-192285771D01*
X264268628Y-192357200D01*
X264340057Y-192428628D01*
X264411485Y-192571485D01*
X264411485Y-192785771D01*
X264340057Y-192928628D01*
X264268628Y-193000057D01*
X264125771Y-193071485D01*
X263554342Y-193071485D01*
X265625771Y-193714342D02*
X265482914Y-193785771D01*
X265197200Y-193785771D01*
X265054342Y-193714342D01*
X264982914Y-193571485D01*
X264982914Y-193000057D01*
X265054342Y-192857200D01*
X265197200Y-192785771D01*
X265482914Y-192785771D01*
X265625771Y-192857200D01*
X265697200Y-193000057D01*
X265697200Y-193142914D01*
X264982914Y-193285771D01*
X266197200Y-192785771D02*
X266554342Y-193785771D01*
X266911485Y-192785771D01*
X267482914Y-193642914D02*
X267554342Y-193714342D01*
X267482914Y-193785771D01*
X267411485Y-193714342D01*
X267482914Y-193642914D01*
X267482914Y-193785771D01*
X267482914Y-192857200D02*
X267554342Y-192928628D01*
X267482914Y-193000057D01*
X267411485Y-192928628D01*
X267482914Y-192857200D01*
X267482914Y-193000057D01*
X270197200Y-193642914D02*
X270125771Y-193714342D01*
X269911485Y-193785771D01*
X269768628Y-193785771D01*
X269554342Y-193714342D01*
X269411485Y-193571485D01*
X269340057Y-193428628D01*
X269268628Y-193142914D01*
X269268628Y-192928628D01*
X269340057Y-192642914D01*
X269411485Y-192500057D01*
X269554342Y-192357200D01*
X269768628Y-192285771D01*
X269911485Y-192285771D01*
X270125771Y-192357200D01*
X270197200Y-192428628D01*
D10*
D11*
X178362914Y-193714342D02*
X178577200Y-193785771D01*
X178934342Y-193785771D01*
X179077200Y-193714342D01*
X179148628Y-193642914D01*
X179220057Y-193500057D01*
X179220057Y-193357200D01*
X179148628Y-193214342D01*
X179077200Y-193142914D01*
X178934342Y-193071485D01*
X178648628Y-193000057D01*
X178505771Y-192928628D01*
X178434342Y-192857200D01*
X178362914Y-192714342D01*
X178362914Y-192571485D01*
X178434342Y-192428628D01*
X178505771Y-192357200D01*
X178648628Y-192285771D01*
X179005771Y-192285771D01*
X179220057Y-192357200D01*
X179862914Y-193785771D02*
X179862914Y-192785771D01*
X179862914Y-192285771D02*
X179791485Y-192357200D01*
X179862914Y-192428628D01*
X179934342Y-192357200D01*
X179862914Y-192285771D01*
X179862914Y-192428628D01*
X180434342Y-192785771D02*
X181220057Y-192785771D01*
X180434342Y-193785771D01*
X181220057Y-193785771D01*
X182362914Y-193714342D02*
X182220057Y-193785771D01*
X181934342Y-193785771D01*
X181791485Y-193714342D01*
X181720057Y-193571485D01*
X181720057Y-193000057D01*
X181791485Y-192857200D01*
X181934342Y-192785771D01*
X182220057Y-192785771D01*
X182362914Y-192857200D01*
X182434342Y-193000057D01*
X182434342Y-193142914D01*
X181720057Y-193285771D01*
X183077200Y-193642914D02*
X183148628Y-193714342D01*
X183077200Y-193785771D01*
X183005771Y-193714342D01*
X183077200Y-193642914D01*
X183077200Y-193785771D01*
X183077200Y-192857200D02*
X183148628Y-192928628D01*
X183077200Y-193000057D01*
X183005771Y-192928628D01*
X183077200Y-192857200D01*
X183077200Y-193000057D01*
X184862914Y-193357200D02*
X185577200Y-193357200D01*
X184720057Y-193785771D02*
X185220057Y-192285771D01*
X185720057Y-193785771D01*
X186862914Y-192785771D02*
X186862914Y-193785771D01*
X186505771Y-192214342D02*
X186148628Y-193285771D01*
X187077200Y-193285771D01*
D10*
D11*
X263434342Y-196585771D02*
X263434342Y-195085771D01*
X264791485Y-196585771D02*
X264791485Y-195085771D01*
X264791485Y-196514342D02*
X264648628Y-196585771D01*
X264362914Y-196585771D01*
X264220057Y-196514342D01*
X264148628Y-196442914D01*
X264077200Y-196300057D01*
X264077200Y-195871485D01*
X264148628Y-195728628D01*
X264220057Y-195657200D01*
X264362914Y-195585771D01*
X264648628Y-195585771D01*
X264791485Y-195657200D01*
X265505771Y-196442914D02*
X265577200Y-196514342D01*
X265505771Y-196585771D01*
X265434342Y-196514342D01*
X265505771Y-196442914D01*
X265505771Y-196585771D01*
X265505771Y-195657200D02*
X265577200Y-195728628D01*
X265505771Y-195800057D01*
X265434342Y-195728628D01*
X265505771Y-195657200D01*
X265505771Y-195800057D01*
X268148628Y-196585771D02*
X267291485Y-196585771D01*
X267720057Y-196585771D02*
X267720057Y-195085771D01*
X267577200Y-195300057D01*
X267434342Y-195442914D01*
X267291485Y-195514342D01*
X269862914Y-195014342D02*
X268577200Y-196942914D01*
X271148628Y-196585771D02*
X270291485Y-196585771D01*
X270720057Y-196585771D02*
X270720057Y-195085771D01*
X270577200Y-195300057D01*
X270434342Y-195442914D01*
X270291485Y-195514342D01*
D10*
D11*
X177002200Y-187507200D02*
X285002200Y-187507200D01*
D10*
D13*
X178714580Y-188211961D02*
X179857438Y-188211961D01*
X179036009Y-190211961D02*
X179286009Y-188211961D01*
X180274104Y-190211961D02*
X180440771Y-188878628D01*
X180524104Y-188211961D02*
X180416961Y-188307200D01*
X180500295Y-188402438D01*
X180607438Y-188307200D01*
X180524104Y-188211961D01*
X180500295Y-188402438D01*
X181107438Y-188878628D02*
X181869342Y-188878628D01*
X181476485Y-188211961D02*
X181262200Y-189926247D01*
X181333628Y-190116723D01*
X181512200Y-190211961D01*
X181702676Y-190211961D01*
X182655057Y-190211961D02*
X182476485Y-190116723D01*
X182405057Y-189926247D01*
X182619342Y-188211961D01*
X184190771Y-190116723D02*
X183988390Y-190211961D01*
X183607438Y-190211961D01*
X183428866Y-190116723D01*
X183357438Y-189926247D01*
X183452676Y-189164342D01*
X183571723Y-188973866D01*
X183774104Y-188878628D01*
X184155057Y-188878628D01*
X184333628Y-188973866D01*
X184405057Y-189164342D01*
X184381247Y-189354819D01*
X183405057Y-189545295D01*
X185155057Y-190021485D02*
X185238390Y-190116723D01*
X185131247Y-190211961D01*
X185047914Y-190116723D01*
X185155057Y-190021485D01*
X185131247Y-190211961D01*
X185286009Y-188973866D02*
X185369342Y-189069104D01*
X185262200Y-189164342D01*
X185178866Y-189069104D01*
X185286009Y-188973866D01*
X185262200Y-189164342D01*
X187607438Y-190211961D02*
X187857438Y-188211961D01*
X188619342Y-188211961D01*
X188797914Y-188307200D01*
X188881247Y-188402438D01*
X188952676Y-188592914D01*
X188916961Y-188878628D01*
X188797914Y-189069104D01*
X188690771Y-189164342D01*
X188488390Y-189259580D01*
X187726485Y-189259580D01*
X189893152Y-190211961D02*
X189714580Y-190116723D01*
X189631247Y-190021485D01*
X189559819Y-189831009D01*
X189631247Y-189259580D01*
X189750295Y-189069104D01*
X189857438Y-188973866D01*
X190059819Y-188878628D01*
X190345533Y-188878628D01*
X190524104Y-188973866D01*
X190607438Y-189069104D01*
X190678866Y-189259580D01*
X190607438Y-189831009D01*
X190488390Y-190021485D01*
X190381247Y-190116723D01*
X190178866Y-190211961D01*
X189893152Y-190211961D01*
X191393152Y-188878628D02*
X191607438Y-190211961D01*
X192107438Y-189259580D01*
X192369342Y-190211961D01*
X192916961Y-188878628D01*
X194286009Y-190116723D02*
X194083628Y-190211961D01*
X193702676Y-190211961D01*
X193524104Y-190116723D01*
X193452676Y-189926247D01*
X193547914Y-189164342D01*
X193666961Y-188973866D01*
X193869342Y-188878628D01*
X194250295Y-188878628D01*
X194428866Y-188973866D01*
X194500295Y-189164342D01*
X194476485Y-189354819D01*
X193500295Y-189545295D01*
X195226485Y-190211961D02*
X195393152Y-188878628D01*
X195345533Y-189259580D02*
X195464580Y-189069104D01*
X195571723Y-188973866D01*
X195774104Y-188878628D01*
X195964580Y-188878628D01*
X198786009Y-189164342D02*
X199059819Y-189259580D01*
X199143152Y-189354819D01*
X199214580Y-189545295D01*
X199178866Y-189831009D01*
X199059819Y-190021485D01*
X198952676Y-190116723D01*
X198750295Y-190211961D01*
X197988390Y-190211961D01*
X198238390Y-188211961D01*
X198905057Y-188211961D01*
X199083628Y-188307200D01*
X199166961Y-188402438D01*
X199238390Y-188592914D01*
X199214580Y-188783390D01*
X199095533Y-188973866D01*
X198988390Y-189069104D01*
X198786009Y-189164342D01*
X198119342Y-189164342D01*
X200274104Y-190211961D02*
X200095533Y-190116723D01*
X200012200Y-190021485D01*
X199940771Y-189831009D01*
X200012200Y-189259580D01*
X200131247Y-189069104D01*
X200238390Y-188973866D01*
X200440771Y-188878628D01*
X200726485Y-188878628D01*
X200905057Y-188973866D01*
X200988390Y-189069104D01*
X201059819Y-189259580D01*
X200988390Y-189831009D01*
X200869342Y-190021485D01*
X200762200Y-190116723D01*
X200559819Y-190211961D01*
X200274104Y-190211961D01*
X202655057Y-190211961D02*
X202786009Y-189164342D01*
X202714580Y-188973866D01*
X202536009Y-188878628D01*
X202155057Y-188878628D01*
X201952676Y-188973866D01*
X202666961Y-190116723D02*
X202464580Y-190211961D01*
X201988390Y-190211961D01*
X201809819Y-190116723D01*
X201738390Y-189926247D01*
X201762200Y-189735771D01*
X201881247Y-189545295D01*
X202083628Y-189450057D01*
X202559819Y-189450057D01*
X202762200Y-189354819D01*
X203607438Y-190211961D02*
X203774104Y-188878628D01*
X203726485Y-189259580D02*
X203845533Y-189069104D01*
X203952676Y-188973866D01*
X204155057Y-188878628D01*
X204345533Y-188878628D01*
X205702676Y-190211961D02*
X205952676Y-188211961D01*
X205714580Y-190116723D02*
X205512200Y-190211961D01*
X205131247Y-190211961D01*
X204952676Y-190116723D01*
X204869342Y-190021485D01*
X204797914Y-189831009D01*
X204869342Y-189259580D01*
X204988390Y-189069104D01*
X205095533Y-188973866D01*
X205297914Y-188878628D01*
X205678866Y-188878628D01*
X205857438Y-188973866D01*
D10*
D11*
X178934342Y-185600057D02*
X178434342Y-185600057D01*
X178434342Y-186385771D02*
X178434342Y-184885771D01*
X179148628Y-184885771D01*
X179720057Y-186385771D02*
X179720057Y-185385771D01*
X179720057Y-184885771D02*
X179648628Y-184957200D01*
X179720057Y-185028628D01*
X179791485Y-184957200D01*
X179720057Y-184885771D01*
X179720057Y-185028628D01*
X180648628Y-186385771D02*
X180505771Y-186314342D01*
X180434342Y-186171485D01*
X180434342Y-184885771D01*
X181791485Y-186314342D02*
X181648628Y-186385771D01*
X181362914Y-186385771D01*
X181220057Y-186314342D01*
X181148628Y-186171485D01*
X181148628Y-185600057D01*
X181220057Y-185457200D01*
X181362914Y-185385771D01*
X181648628Y-185385771D01*
X181791485Y-185457200D01*
X181862914Y-185600057D01*
X181862914Y-185742914D01*
X181148628Y-185885771D01*
X182505771Y-186242914D02*
X182577200Y-186314342D01*
X182505771Y-186385771D01*
X182434342Y-186314342D01*
X182505771Y-186242914D01*
X182505771Y-186385771D01*
X182505771Y-185457200D02*
X182577200Y-185528628D01*
X182505771Y-185600057D01*
X182434342Y-185528628D01*
X182505771Y-185457200D01*
X182505771Y-185600057D01*
X184362914Y-186385771D02*
X184362914Y-184885771D01*
X184934342Y-184885771D01*
X185077200Y-184957200D01*
X185148628Y-185028628D01*
X185220057Y-185171485D01*
X185220057Y-185385771D01*
X185148628Y-185528628D01*
X185077200Y-185600057D01*
X184934342Y-185671485D01*
X184362914Y-185671485D01*
X186077200Y-186385771D02*
X185934342Y-186314342D01*
X185862914Y-186242914D01*
X185791485Y-186100057D01*
X185791485Y-185671485D01*
X185862914Y-185528628D01*
X185934342Y-185457200D01*
X186077200Y-185385771D01*
X186291485Y-185385771D01*
X186434342Y-185457200D01*
X186505771Y-185528628D01*
X186577200Y-185671485D01*
X186577200Y-186100057D01*
X186505771Y-186242914D01*
X186434342Y-186314342D01*
X186291485Y-186385771D01*
X186077200Y-186385771D01*
X187077200Y-185385771D02*
X187362914Y-186385771D01*
X187648628Y-185671485D01*
X187934342Y-186385771D01*
X188220057Y-185385771D01*
X189362914Y-186314342D02*
X189220057Y-186385771D01*
X188934342Y-186385771D01*
X188791485Y-186314342D01*
X188720057Y-186171485D01*
X188720057Y-185600057D01*
X188791485Y-185457200D01*
X188934342Y-185385771D01*
X189220057Y-185385771D01*
X189362914Y-185457200D01*
X189434342Y-185600057D01*
X189434342Y-185742914D01*
X188720057Y-185885771D01*
X190077200Y-186385771D02*
X190077200Y-185385771D01*
X190077200Y-185671485D02*
X190148628Y-185528628D01*
X190220057Y-185457200D01*
X190362914Y-185385771D01*
X190505771Y-185385771D01*
X192648628Y-185600057D02*
X192862914Y-185671485D01*
X192934342Y-185742914D01*
X193005771Y-185885771D01*
X193005771Y-186100057D01*
X192934342Y-186242914D01*
X192862914Y-186314342D01*
X192720057Y-186385771D01*
X192148628Y-186385771D01*
X192148628Y-184885771D01*
X192648628Y-184885771D01*
X192791485Y-184957200D01*
X192862914Y-185028628D01*
X192934342Y-185171485D01*
X192934342Y-185314342D01*
X192862914Y-185457200D01*
X192791485Y-185528628D01*
X192648628Y-185600057D01*
X192148628Y-185600057D01*
X193862914Y-186385771D02*
X193720057Y-186314342D01*
X193648628Y-186242914D01*
X193577200Y-186100057D01*
X193577200Y-185671485D01*
X193648628Y-185528628D01*
X193720057Y-185457200D01*
X193862914Y-185385771D01*
X194077200Y-185385771D01*
X194220057Y-185457200D01*
X194291485Y-185528628D01*
X194362914Y-185671485D01*
X194362914Y-186100057D01*
X194291485Y-186242914D01*
X194220057Y-186314342D01*
X194077200Y-186385771D01*
X193862914Y-186385771D01*
X195648628Y-186385771D02*
X195648628Y-185600057D01*
X195577200Y-185457200D01*
X195434342Y-185385771D01*
X195148628Y-185385771D01*
X195005771Y-185457200D01*
X195648628Y-186314342D02*
X195505771Y-186385771D01*
X195148628Y-186385771D01*
X195005771Y-186314342D01*
X194934342Y-186171485D01*
X194934342Y-186028628D01*
X195005771Y-185885771D01*
X195148628Y-185814342D01*
X195505771Y-185814342D01*
X195648628Y-185742914D01*
X196362914Y-186385771D02*
X196362914Y-185385771D01*
X196362914Y-185671485D02*
X196434342Y-185528628D01*
X196505771Y-185457200D01*
X196648628Y-185385771D01*
X196791485Y-185385771D01*
X197934342Y-186385771D02*
X197934342Y-184885771D01*
X197934342Y-186314342D02*
X197791485Y-186385771D01*
X197505771Y-186385771D01*
X197362914Y-186314342D01*
X197291485Y-186242914D01*
X197220057Y-186100057D01*
X197220057Y-185671485D01*
X197291485Y-185528628D01*
X197362914Y-185457200D01*
X197505771Y-185385771D01*
X197791485Y-185385771D01*
X197934342Y-185457200D01*
X198648628Y-186242914D02*
X198720057Y-186314342D01*
X198648628Y-186385771D01*
X198577200Y-186314342D01*
X198648628Y-186242914D01*
X198648628Y-186385771D01*
X199362914Y-186385771D02*
X199362914Y-184885771D01*
X199505771Y-185814342D02*
X199934342Y-186385771D01*
X199934342Y-185385771D02*
X199362914Y-185957200D01*
X200577200Y-186385771D02*
X200577200Y-185385771D01*
X200577200Y-184885771D02*
X200505771Y-184957200D01*
X200577200Y-185028628D01*
X200648628Y-184957200D01*
X200577200Y-184885771D01*
X200577200Y-185028628D01*
X201934342Y-186314342D02*
X201791485Y-186385771D01*
X201505771Y-186385771D01*
X201362914Y-186314342D01*
X201291485Y-186242914D01*
X201220057Y-186100057D01*
X201220057Y-185671485D01*
X201291485Y-185528628D01*
X201362914Y-185457200D01*
X201505771Y-185385771D01*
X201791485Y-185385771D01*
X201934342Y-185457200D01*
X203220057Y-186385771D02*
X203220057Y-185600057D01*
X203148628Y-185457200D01*
X203005771Y-185385771D01*
X202720057Y-185385771D01*
X202577200Y-185457200D01*
X203220057Y-186314342D02*
X203077200Y-186385771D01*
X202720057Y-186385771D01*
X202577200Y-186314342D01*
X202505771Y-186171485D01*
X202505771Y-186028628D01*
X202577200Y-185885771D01*
X202720057Y-185814342D01*
X203077200Y-185814342D01*
X203220057Y-185742914D01*
X204577200Y-186385771D02*
X204577200Y-184885771D01*
X204577200Y-186314342D02*
X204434342Y-186385771D01*
X204148628Y-186385771D01*
X204005771Y-186314342D01*
X203934342Y-186242914D01*
X203862914Y-186100057D01*
X203862914Y-185671485D01*
X203934342Y-185528628D01*
X204005771Y-185457200D01*
X204148628Y-185385771D01*
X204434342Y-185385771D01*
X204577200Y-185457200D01*
X204934342Y-186528628D02*
X206077200Y-186528628D01*
X206434342Y-185385771D02*
X206434342Y-186885771D01*
X206434342Y-185457200D02*
X206577200Y-185385771D01*
X206862914Y-185385771D01*
X207005771Y-185457200D01*
X207077200Y-185528628D01*
X207148628Y-185671485D01*
X207148628Y-186100057D01*
X207077200Y-186242914D01*
X207005771Y-186314342D01*
X206862914Y-186385771D01*
X206577200Y-186385771D01*
X206434342Y-186314342D01*
X208434342Y-186314342D02*
X208291485Y-186385771D01*
X208005771Y-186385771D01*
X207862914Y-186314342D01*
X207791485Y-186242914D01*
X207720057Y-186100057D01*
X207720057Y-185671485D01*
X207791485Y-185528628D01*
X207862914Y-185457200D01*
X208005771Y-185385771D01*
X208291485Y-185385771D01*
X208434342Y-185457200D01*
X209077200Y-186385771D02*
X209077200Y-184885771D01*
X209077200Y-185457200D02*
X209220057Y-185385771D01*
X209505771Y-185385771D01*
X209648628Y-185457200D01*
X209720057Y-185528628D01*
X209791485Y-185671485D01*
X209791485Y-186100057D01*
X209720057Y-186242914D01*
X209648628Y-186314342D01*
X209505771Y-186385771D01*
X209220057Y-186385771D01*
X209077200Y-186314342D01*
D10*
D11*
X177002200Y-181507200D02*
X285002200Y-181507200D01*
D10*
D11*
X178362914Y-183614342D02*
X178577200Y-183685771D01*
X178934342Y-183685771D01*
X179077200Y-183614342D01*
X179148628Y-183542914D01*
X179220057Y-183400057D01*
X179220057Y-183257200D01*
X179148628Y-183114342D01*
X179077200Y-183042914D01*
X178934342Y-182971485D01*
X178648628Y-182900057D01*
X178505771Y-182828628D01*
X178434342Y-182757200D01*
X178362914Y-182614342D01*
X178362914Y-182471485D01*
X178434342Y-182328628D01*
X178505771Y-182257200D01*
X178648628Y-182185771D01*
X179005771Y-182185771D01*
X179220057Y-182257200D01*
X179862914Y-183685771D02*
X179862914Y-182185771D01*
X180505771Y-183685771D02*
X180505771Y-182900057D01*
X180434342Y-182757200D01*
X180291485Y-182685771D01*
X180077200Y-182685771D01*
X179934342Y-182757200D01*
X179862914Y-182828628D01*
X181791485Y-183614342D02*
X181648628Y-183685771D01*
X181362914Y-183685771D01*
X181220057Y-183614342D01*
X181148628Y-183471485D01*
X181148628Y-182900057D01*
X181220057Y-182757200D01*
X181362914Y-182685771D01*
X181648628Y-182685771D01*
X181791485Y-182757200D01*
X181862914Y-182900057D01*
X181862914Y-183042914D01*
X181148628Y-183185771D01*
X183077200Y-183614342D02*
X182934342Y-183685771D01*
X182648628Y-183685771D01*
X182505771Y-183614342D01*
X182434342Y-183471485D01*
X182434342Y-182900057D01*
X182505771Y-182757200D01*
X182648628Y-182685771D01*
X182934342Y-182685771D01*
X183077200Y-182757200D01*
X183148628Y-182900057D01*
X183148628Y-183042914D01*
X182434342Y-183185771D01*
X183577200Y-182685771D02*
X184148628Y-182685771D01*
X183791485Y-182185771D02*
X183791485Y-183471485D01*
X183862914Y-183614342D01*
X184005771Y-183685771D01*
X184148628Y-183685771D01*
X184648628Y-183542914D02*
X184720057Y-183614342D01*
X184648628Y-183685771D01*
X184577200Y-183614342D01*
X184648628Y-183542914D01*
X184648628Y-183685771D01*
X184648628Y-182757200D02*
X184720057Y-182828628D01*
X184648628Y-182900057D01*
X184577200Y-182828628D01*
X184648628Y-182757200D01*
X184648628Y-182900057D01*
D10*
D12*
X178554342Y-180685771D02*
X178554342Y-179185771D01*
X179125771Y-179185771D01*
X179268628Y-179257200D01*
X179340057Y-179328628D01*
X179411485Y-179471485D01*
X179411485Y-179685771D01*
X179340057Y-179828628D01*
X179268628Y-179900057D01*
X179125771Y-179971485D01*
X178554342Y-179971485D01*
X180054342Y-180685771D02*
X180054342Y-179685771D01*
X180054342Y-179971485D02*
X180125771Y-179828628D01*
X180197200Y-179757200D01*
X180340057Y-179685771D01*
X180482914Y-179685771D01*
X181197200Y-180685771D02*
X181054342Y-180614342D01*
X180982914Y-180542914D01*
X180911485Y-180400057D01*
X180911485Y-179971485D01*
X180982914Y-179828628D01*
X181054342Y-179757200D01*
X181197200Y-179685771D01*
X181411485Y-179685771D01*
X181554342Y-179757200D01*
X181625771Y-179828628D01*
X181697200Y-179971485D01*
X181697200Y-180400057D01*
X181625771Y-180542914D01*
X181554342Y-180614342D01*
X181411485Y-180685771D01*
X181197200Y-180685771D01*
X182340057Y-179685771D02*
X182340057Y-180971485D01*
X182268628Y-181114342D01*
X182125771Y-181185771D01*
X182054342Y-181185771D01*
X182340057Y-179185771D02*
X182268628Y-179257200D01*
X182340057Y-179328628D01*
X182411485Y-179257200D01*
X182340057Y-179185771D01*
X182340057Y-179328628D01*
X183625771Y-180614342D02*
X183482914Y-180685771D01*
X183197200Y-180685771D01*
X183054342Y-180614342D01*
X182982914Y-180471485D01*
X182982914Y-179900057D01*
X183054342Y-179757200D01*
X183197200Y-179685771D01*
X183482914Y-179685771D01*
X183625771Y-179757200D01*
X183697200Y-179900057D01*
X183697200Y-180042914D01*
X182982914Y-180185771D01*
X184982914Y-180614342D02*
X184840057Y-180685771D01*
X184554342Y-180685771D01*
X184411485Y-180614342D01*
X184340057Y-180542914D01*
X184268628Y-180400057D01*
X184268628Y-179971485D01*
X184340057Y-179828628D01*
X184411485Y-179757200D01*
X184554342Y-179685771D01*
X184840057Y-179685771D01*
X184982914Y-179757200D01*
X185411485Y-179685771D02*
X185982914Y-179685771D01*
X185625771Y-179185771D02*
X185625771Y-180471485D01*
X185697200Y-180614342D01*
X185840057Y-180685771D01*
X185982914Y-180685771D01*
X186482914Y-180542914D02*
X186554342Y-180614342D01*
X186482914Y-180685771D01*
X186411485Y-180614342D01*
X186482914Y-180542914D01*
X186482914Y-180685771D01*
X186482914Y-179757200D02*
X186554342Y-179828628D01*
X186482914Y-179900057D01*
X186411485Y-179828628D01*
X186482914Y-179757200D01*
X186482914Y-179900057D01*
X188840057Y-179900057D02*
X189054342Y-179971485D01*
X189125771Y-180042914D01*
X189197200Y-180185771D01*
X189197200Y-180400057D01*
X189125771Y-180542914D01*
X189054342Y-180614342D01*
X188911485Y-180685771D01*
X188340057Y-180685771D01*
X188340057Y-179185771D01*
X188840057Y-179185771D01*
X188982914Y-179257200D01*
X189054342Y-179328628D01*
X189125771Y-179471485D01*
X189125771Y-179614342D01*
X189054342Y-179757200D01*
X188982914Y-179828628D01*
X188840057Y-179900057D01*
X188340057Y-179900057D01*
X190482914Y-179685771D02*
X190482914Y-180685771D01*
X189840057Y-179685771D02*
X189840057Y-180471485D01*
X189911485Y-180614342D01*
X190054342Y-180685771D01*
X190268628Y-180685771D01*
X190411485Y-180614342D01*
X190482914Y-180542914D01*
X191411485Y-180685771D02*
X191268628Y-180614342D01*
X191197200Y-180542914D01*
X191125771Y-180400057D01*
X191125771Y-179971485D01*
X191197200Y-179828628D01*
X191268628Y-179757200D01*
X191411485Y-179685771D01*
X191625771Y-179685771D01*
X191768628Y-179757200D01*
X191840057Y-179828628D01*
X191911485Y-179971485D01*
X191911485Y-180400057D01*
X191840057Y-180542914D01*
X191768628Y-180614342D01*
X191625771Y-180685771D01*
X191411485Y-180685771D01*
X192411485Y-179685771D02*
X192768628Y-180685771D01*
X193125771Y-179685771D02*
X192768628Y-180685771D01*
X192625771Y-181042914D01*
X192554342Y-181114342D01*
X192411485Y-181185771D01*
X194840057Y-180685771D02*
X194840057Y-179185771D01*
X195554342Y-179685771D02*
X195554342Y-180685771D01*
X195554342Y-179828628D02*
X195625771Y-179757200D01*
X195768628Y-179685771D01*
X195982914Y-179685771D01*
X196125771Y-179757200D01*
X196197200Y-179900057D01*
X196197200Y-180685771D01*
X196840057Y-180614342D02*
X196982914Y-180685771D01*
X197268628Y-180685771D01*
X197411485Y-180614342D01*
X197482914Y-180471485D01*
X197482914Y-180400057D01*
X197411485Y-180257200D01*
X197268628Y-180185771D01*
X197054342Y-180185771D01*
X196911485Y-180114342D01*
X196840057Y-179971485D01*
X196840057Y-179900057D01*
X196911485Y-179757200D01*
X197054342Y-179685771D01*
X197268628Y-179685771D01*
X197411485Y-179757200D01*
X197911485Y-179685771D02*
X198482914Y-179685771D01*
X198125771Y-179185771D02*
X198125771Y-180471485D01*
X198197200Y-180614342D01*
X198340057Y-180685771D01*
X198482914Y-180685771D01*
X198982914Y-180685771D02*
X198982914Y-179685771D01*
X198982914Y-179971485D02*
X199054342Y-179828628D01*
X199125771Y-179757200D01*
X199268628Y-179685771D01*
X199411485Y-179685771D01*
X200554342Y-179685771D02*
X200554342Y-180685771D01*
X199911485Y-179685771D02*
X199911485Y-180471485D01*
X199982914Y-180614342D01*
X200125771Y-180685771D01*
X200340057Y-180685771D01*
X200482914Y-180614342D01*
X200554342Y-180542914D01*
X201268628Y-180685771D02*
X201268628Y-179685771D01*
X201268628Y-179828628D02*
X201340057Y-179757200D01*
X201482914Y-179685771D01*
X201697200Y-179685771D01*
X201840057Y-179757200D01*
X201911485Y-179900057D01*
X201911485Y-180685771D01*
X201911485Y-179900057D02*
X201982914Y-179757200D01*
X202125771Y-179685771D01*
X202340057Y-179685771D01*
X202482914Y-179757200D01*
X202554342Y-179900057D01*
X202554342Y-180685771D01*
X203840057Y-180614342D02*
X203697200Y-180685771D01*
X203411485Y-180685771D01*
X203268628Y-180614342D01*
X203197200Y-180471485D01*
X203197200Y-179900057D01*
X203268628Y-179757200D01*
X203411485Y-179685771D01*
X203697200Y-179685771D01*
X203840057Y-179757200D01*
X203911485Y-179900057D01*
X203911485Y-180042914D01*
X203197200Y-180185771D01*
X204554342Y-179685771D02*
X204554342Y-180685771D01*
X204554342Y-179828628D02*
X204625771Y-179757200D01*
X204768628Y-179685771D01*
X204982914Y-179685771D01*
X205125771Y-179757200D01*
X205197200Y-179900057D01*
X205197200Y-180685771D01*
X205697200Y-179685771D02*
X206268628Y-179685771D01*
X205911485Y-179185771D02*
X205911485Y-180471485D01*
X205982914Y-180614342D01*
X206125771Y-180685771D01*
X206268628Y-180685771D01*
X207411485Y-180685771D02*
X207411485Y-179900057D01*
X207340057Y-179757200D01*
X207197200Y-179685771D01*
X206911485Y-179685771D01*
X206768628Y-179757200D01*
X207411485Y-180614342D02*
X207268628Y-180685771D01*
X206911485Y-180685771D01*
X206768628Y-180614342D01*
X206697200Y-180471485D01*
X206697200Y-180328628D01*
X206768628Y-180185771D01*
X206911485Y-180114342D01*
X207268628Y-180114342D01*
X207411485Y-180042914D01*
X207911485Y-179685771D02*
X208482914Y-179685771D01*
X208125771Y-179185771D02*
X208125771Y-180471485D01*
X208197200Y-180614342D01*
X208340057Y-180685771D01*
X208482914Y-180685771D01*
X208982914Y-180685771D02*
X208982914Y-179685771D01*
X208982914Y-179185771D02*
X208911485Y-179257200D01*
X208982914Y-179328628D01*
X209054342Y-179257200D01*
X208982914Y-179185771D01*
X208982914Y-179328628D01*
X209911485Y-180685771D02*
X209768628Y-180614342D01*
X209697200Y-180542914D01*
X209625771Y-180400057D01*
X209625771Y-179971485D01*
X209697200Y-179828628D01*
X209768628Y-179757200D01*
X209911485Y-179685771D01*
X210125771Y-179685771D01*
X210268628Y-179757200D01*
X210340057Y-179828628D01*
X210411485Y-179971485D01*
X210411485Y-180400057D01*
X210340057Y-180542914D01*
X210268628Y-180614342D01*
X210125771Y-180685771D01*
X209911485Y-180685771D01*
X211054342Y-179685771D02*
X211054342Y-180685771D01*
X211054342Y-179828628D02*
X211125771Y-179757200D01*
X211268628Y-179685771D01*
X211482914Y-179685771D01*
X211625771Y-179757200D01*
X211697200Y-179900057D01*
X211697200Y-180685771D01*
D10*
D11*
X178434342Y-177685771D02*
X178434342Y-176185771D01*
X178791485Y-176185771D01*
X179005771Y-176257200D01*
X179148628Y-176400057D01*
X179220057Y-176542914D01*
X179291485Y-176828628D01*
X179291485Y-177042914D01*
X179220057Y-177328628D01*
X179148628Y-177471485D01*
X179005771Y-177614342D01*
X178791485Y-177685771D01*
X178434342Y-177685771D01*
X179934342Y-177685771D02*
X179934342Y-176685771D01*
X179934342Y-176971485D02*
X180005771Y-176828628D01*
X180077200Y-176757200D01*
X180220057Y-176685771D01*
X180362914Y-176685771D01*
X181505771Y-177685771D02*
X181505771Y-176900057D01*
X181434342Y-176757200D01*
X181291485Y-176685771D01*
X181005771Y-176685771D01*
X180862914Y-176757200D01*
X181505771Y-177614342D02*
X181362914Y-177685771D01*
X181005771Y-177685771D01*
X180862914Y-177614342D01*
X180791485Y-177471485D01*
X180791485Y-177328628D01*
X180862914Y-177185771D01*
X181005771Y-177114342D01*
X181362914Y-177114342D01*
X181505771Y-177042914D01*
X182077200Y-176685771D02*
X182362914Y-177685771D01*
X182648628Y-176971485D01*
X182934342Y-177685771D01*
X183220057Y-176685771D01*
X183791485Y-176685771D02*
X183791485Y-177685771D01*
X183791485Y-176828628D02*
X183862914Y-176757200D01*
X184005771Y-176685771D01*
X184220057Y-176685771D01*
X184362914Y-176757200D01*
X184434342Y-176900057D01*
X184434342Y-177685771D01*
X186291485Y-177685771D02*
X186291485Y-176185771D01*
X186291485Y-176757200D02*
X186434342Y-176685771D01*
X186720057Y-176685771D01*
X186862914Y-176757200D01*
X186934342Y-176828628D01*
X187005771Y-176971485D01*
X187005771Y-177400057D01*
X186934342Y-177542914D01*
X186862914Y-177614342D01*
X186720057Y-177685771D01*
X186434342Y-177685771D01*
X186291485Y-177614342D01*
X187505771Y-176685771D02*
X187862914Y-177685771D01*
X188220057Y-176685771D02*
X187862914Y-177685771D01*
X187720057Y-178042914D01*
X187648628Y-178114342D01*
X187505771Y-178185771D01*
X188791485Y-177542914D02*
X188862914Y-177614342D01*
X188791485Y-177685771D01*
X188720057Y-177614342D01*
X188791485Y-177542914D01*
X188791485Y-177685771D01*
X188791485Y-176757200D02*
X188862914Y-176828628D01*
X188791485Y-176900057D01*
X188720057Y-176828628D01*
X188791485Y-176757200D01*
X188791485Y-176900057D01*
X190577200Y-177257200D02*
X191291485Y-177257200D01*
X190434342Y-177685771D02*
X190934342Y-176185771D01*
X191434342Y-177685771D01*
X191934342Y-176685771D02*
X191934342Y-177685771D01*
X191934342Y-176828628D02*
X192005771Y-176757200D01*
X192148628Y-176685771D01*
X192362914Y-176685771D01*
X192505771Y-176757200D01*
X192577200Y-176900057D01*
X192577200Y-177685771D01*
X193934342Y-177685771D02*
X193934342Y-176185771D01*
X193934342Y-177614342D02*
X193791485Y-177685771D01*
X193505771Y-177685771D01*
X193362914Y-177614342D01*
X193291485Y-177542914D01*
X193220057Y-177400057D01*
X193220057Y-176971485D01*
X193291485Y-176828628D01*
X193362914Y-176757200D01*
X193505771Y-176685771D01*
X193791485Y-176685771D01*
X193934342Y-176757200D01*
X194648628Y-177685771D02*
X194648628Y-176685771D01*
X194648628Y-176971485D02*
X194720057Y-176828628D01*
X194791485Y-176757200D01*
X194934342Y-176685771D01*
X195077200Y-176685771D01*
X196148628Y-177614342D02*
X196005771Y-177685771D01*
X195720057Y-177685771D01*
X195577200Y-177614342D01*
X195505771Y-177471485D01*
X195505771Y-176900057D01*
X195577200Y-176757200D01*
X195720057Y-176685771D01*
X196005771Y-176685771D01*
X196148628Y-176757200D01*
X196220057Y-176900057D01*
X196220057Y-177042914D01*
X195505771Y-177185771D01*
X196720057Y-176685771D02*
X197005771Y-177685771D01*
X197291485Y-176971485D01*
X197577200Y-177685771D01*
X197862914Y-176685771D01*
X200291485Y-177685771D02*
X199577200Y-177685771D01*
X199577200Y-176185771D01*
X200791485Y-177685771D02*
X200791485Y-176685771D01*
X200791485Y-176185771D02*
X200720057Y-176257200D01*
X200791485Y-176328628D01*
X200862914Y-176257200D01*
X200791485Y-176185771D01*
X200791485Y-176328628D01*
D10*
D11*
X197002200Y-191507200D02*
X197002200Y-194507200D01*
D10*
D11*
X261002200Y-191507200D02*
X261002200Y-198007200D01*
D14*
X173800000Y-122400000D02*
X173800000Y-70400000D01*
X103800000Y-70400000D02*
X103800000Y-122400000D01*
X173800000Y-70400000D02*
X103800000Y-70400000D01*
X103800000Y-122400000D02*
X173800000Y-122400000D01*
D10*
X153820000Y-70920000D02*
X145380000Y-70920000D01*
X153820000Y-80380000D02*
X145380000Y-80380000D01*
X153820000Y-80380000D02*
X153820000Y-70920000D01*
X145380000Y-70920000D02*
X145380000Y-80380000D01*
X141650000Y-84960000D02*
X132670000Y-84960000D01*
X141650000Y-92840000D02*
X132670000Y-92840000D01*
X132670000Y-84960000D02*
X132670000Y-92840000D01*
X141650000Y-92840000D02*
X141650000Y-84960000D01*
X121370000Y-95676000D02*
X113370000Y-95676000D01*
X121370000Y-104476000D02*
X121370000Y-95676000D01*
X113370000Y-104476000D02*
X121370000Y-104476000D01*
X113370000Y-95676000D02*
X113370000Y-104476000D01*
X111506000Y-91948000D02*
X113792000Y-93472000D01*
X111506000Y-87884000D02*
X111506000Y-91948000D01*
X113792000Y-86360000D02*
X111506000Y-87884000D01*
X120650000Y-93472000D02*
X113792000Y-93472000D01*
X120650000Y-86360000D02*
X120650000Y-93472000D01*
X113792000Y-86360000D02*
X120650000Y-86360000D01*
X147574000Y-89027000D02*
X147574000Y-90136980D01*
X147891500Y-89027000D02*
X148048980Y-89184480D01*
X147574000Y-89027000D02*
X147891500Y-89027000D01*
X147256500Y-89027000D02*
X147099020Y-88869520D01*
X147574000Y-89027000D02*
X147256500Y-89027000D01*
X148048980Y-88392000D02*
X147574000Y-89027000D01*
X147574000Y-88392000D02*
X148048980Y-88392000D01*
X147099020Y-88392000D02*
X147574000Y-88392000D01*
X147574000Y-89027000D02*
X147099020Y-88392000D01*
X146304000Y-86868000D02*
X145669000Y-86868000D01*
X149479000Y-91440000D02*
X148844000Y-91440000D01*
X149479000Y-86868000D02*
X149479000Y-91440000D01*
X148844000Y-86868000D02*
X149479000Y-86868000D01*
X149479000Y-90144600D02*
X145669000Y-90144600D01*
X149479000Y-89814400D02*
X145669000Y-89814400D01*
X145669000Y-91440000D02*
X146304000Y-91440000D01*
X145669000Y-86868000D02*
X145669000Y-91440000D01*
X147574000Y-88392000D02*
X147574000Y-88188800D01*
X142856000Y-93358000D02*
X142856000Y-98158000D01*
X148736000Y-93358000D02*
X148736000Y-98158000D01*
X142856000Y-98158000D02*
X148736000Y-98158000D01*
X148736000Y-93358000D02*
X142856000Y-93358000D01*
X169302000Y-89618000D02*
X169302000Y-96818000D01*
X162402000Y-89618000D02*
X169302000Y-89618000D01*
X162402000Y-96818000D02*
X162402000Y-89618000D01*
X169302000Y-96818000D02*
X162402000Y-96818000D01*
X169302000Y-98254000D02*
X169302000Y-105454000D01*
X162402000Y-98254000D02*
X169302000Y-98254000D01*
X162402000Y-105454000D02*
X162402000Y-98254000D01*
X169302000Y-105454000D02*
X162402000Y-105454000D01*
X136779000Y-93218000D02*
X136779000Y-98298000D01*
X136779000Y-98298000D02*
X139065000Y-98298000D01*
X139065000Y-93218000D02*
X139065000Y-98298000D01*
X136779000Y-93218000D02*
X139065000Y-93218000D01*
X121202000Y-90696000D02*
X124162000Y-90696000D01*
X124162000Y-90696000D02*
X124162000Y-89136000D01*
X124162000Y-89136000D02*
X121202000Y-89136000D01*
X121192000Y-90696000D02*
X121192000Y-89136000D01*
X121202000Y-92982000D02*
X124162000Y-92982000D01*
X124162000Y-92982000D02*
X124162000Y-91422000D01*
X124162000Y-91422000D02*
X121202000Y-91422000D01*
X121192000Y-92982000D02*
X121192000Y-91422000D01*
X148499500Y-101001500D02*
X148499500Y-98642500D01*
X147156500Y-101002000D02*
X147156500Y-98642000D01*
X148498000Y-98642000D02*
X147158000Y-98642000D01*
X148498000Y-101002000D02*
X147158000Y-101002000D01*
X150966500Y-97118500D02*
X150966500Y-99477500D01*
X152309500Y-97118000D02*
X152309500Y-99478000D01*
X150968000Y-99478000D02*
X152308000Y-99478000D01*
X150968000Y-97118000D02*
X152308000Y-97118000D01*
X149188500Y-97118500D02*
X149188500Y-99477500D01*
X150531500Y-97118000D02*
X150531500Y-99478000D01*
X149190000Y-99478000D02*
X150530000Y-99478000D01*
X149190000Y-97118000D02*
X150530000Y-97118000D01*
X142911500Y-101001500D02*
X142911500Y-98642500D01*
X141568500Y-101002000D02*
X141568500Y-98642000D01*
X142910000Y-98642000D02*
X141570000Y-98642000D01*
X142910000Y-101002000D02*
X141570000Y-101002000D01*
X139355500Y-101001500D02*
X139355500Y-98642500D01*
X138012500Y-101002000D02*
X138012500Y-98642000D01*
X139354000Y-98642000D02*
X138014000Y-98642000D01*
X139354000Y-101002000D02*
X138014000Y-101002000D01*
X139536500Y-98207500D02*
X141895500Y-98207500D01*
X139536000Y-96864500D02*
X141896000Y-96864500D01*
X141896000Y-98206000D02*
X141896000Y-96866000D01*
X139536000Y-98206000D02*
X139536000Y-96866000D01*
X141133500Y-101001500D02*
X141133500Y-98642500D01*
X139790500Y-101002000D02*
X139790500Y-98642000D01*
X141132000Y-98642000D02*
X139792000Y-98642000D01*
X141132000Y-101002000D02*
X139792000Y-101002000D01*
X131538000Y-93474000D02*
X131538000Y-102614000D01*
X136178000Y-93474000D02*
X136178000Y-102614000D01*
X131538000Y-93474000D02*
X136178000Y-93474000D01*
X131538000Y-102614000D02*
X136178000Y-102614000D01*
X126458000Y-93474000D02*
X126458000Y-102614000D01*
X131098000Y-93474000D02*
X131098000Y-102614000D01*
X126458000Y-93474000D02*
X131098000Y-93474000D01*
X126458000Y-102614000D02*
X131098000Y-102614000D01*
X154466000Y-95248000D02*
X154466000Y-86108000D01*
X149826000Y-95248000D02*
X149826000Y-86108000D01*
X154466000Y-95248000D02*
X149826000Y-95248000D01*
X154466000Y-86108000D02*
X149826000Y-86108000D01*
X154944500Y-101059500D02*
X157303500Y-101059500D01*
X154944000Y-99716500D02*
X157304000Y-99716500D01*
X157304000Y-101058000D02*
X157304000Y-99718000D01*
X154944000Y-101058000D02*
X154944000Y-99718000D01*
X144349500Y-91588500D02*
X141990500Y-91588500D01*
X144350000Y-92931500D02*
X141990000Y-92931500D01*
X141990000Y-91590000D02*
X141990000Y-92930000D01*
X144350000Y-91590000D02*
X144350000Y-92930000D01*
X142148000Y-94950000D02*
X140808000Y-94950000D01*
X142149500Y-96429500D02*
X142149500Y-94070500D01*
X140806500Y-96430000D02*
X140806500Y-94070000D01*
X142148000Y-94070000D02*
X140808000Y-94070000D01*
X142148000Y-96430000D02*
X140808000Y-96430000D01*
X146169047Y-81226190D02*
X146169047Y-80726190D01*
X145978571Y-80726190D01*
X145930952Y-80750000D01*
X145907142Y-80773809D01*
X145883333Y-80821428D01*
X145883333Y-80892857D01*
X145907142Y-80940476D01*
X145930952Y-80964285D01*
X145978571Y-80988095D01*
X146169047Y-80988095D01*
X145692857Y-80773809D02*
X145669047Y-80750000D01*
X145621428Y-80726190D01*
X145502380Y-80726190D01*
X145454761Y-80750000D01*
X145430952Y-80773809D01*
X145407142Y-80821428D01*
X145407142Y-80869047D01*
X145430952Y-80940476D01*
X145716666Y-81226190D01*
X145407142Y-81226190D01*
X132083333Y-85626190D02*
X132321428Y-85626190D01*
X132321428Y-85126190D01*
X131940476Y-85173809D02*
X131916666Y-85150000D01*
X131869047Y-85126190D01*
X131750000Y-85126190D01*
X131702380Y-85150000D01*
X131678571Y-85173809D01*
X131654761Y-85221428D01*
X131654761Y-85269047D01*
X131678571Y-85340476D01*
X131964285Y-85626190D01*
X131654761Y-85626190D01*
X112769047Y-100302190D02*
X112769047Y-99802190D01*
X112578571Y-99802190D01*
X112530952Y-99826000D01*
X112507142Y-99849809D01*
X112483333Y-99897428D01*
X112483333Y-99968857D01*
X112507142Y-100016476D01*
X112530952Y-100040285D01*
X112578571Y-100064095D01*
X112769047Y-100064095D01*
X112007142Y-100302190D02*
X112292857Y-100302190D01*
X112150000Y-100302190D02*
X112150000Y-99802190D01*
X112197619Y-99873619D01*
X112245238Y-99921238D01*
X112292857Y-99945047D01*
X111980952Y-86326190D02*
X111980952Y-86730952D01*
X111957142Y-86778571D01*
X111933333Y-86802380D01*
X111885714Y-86826190D01*
X111790476Y-86826190D01*
X111742857Y-86802380D01*
X111719047Y-86778571D01*
X111695238Y-86730952D01*
X111695238Y-86326190D01*
X111480952Y-86373809D02*
X111457142Y-86350000D01*
X111409523Y-86326190D01*
X111290476Y-86326190D01*
X111242857Y-86350000D01*
X111219047Y-86373809D01*
X111195238Y-86421428D01*
X111195238Y-86469047D01*
X111219047Y-86540476D01*
X111504761Y-86826190D01*
X111195238Y-86826190D01*
X145407142Y-87026190D02*
X145407142Y-86526190D01*
X145288095Y-86526190D01*
X145216666Y-86550000D01*
X145169047Y-86597619D01*
X145145238Y-86645238D01*
X145121428Y-86740476D01*
X145121428Y-86811904D01*
X145145238Y-86907142D01*
X145169047Y-86954761D01*
X145216666Y-87002380D01*
X145288095Y-87026190D01*
X145407142Y-87026190D01*
X144645238Y-87026190D02*
X144930952Y-87026190D01*
X144788095Y-87026190D02*
X144788095Y-86526190D01*
X144835714Y-86597619D01*
X144883333Y-86645238D01*
X144930952Y-86669047D01*
X144169047Y-87026190D02*
X144454761Y-87026190D01*
X144311904Y-87026190D02*
X144311904Y-86526190D01*
X144359523Y-86597619D01*
X144407142Y-86645238D01*
X144454761Y-86669047D01*
X148580952Y-92526190D02*
X148580952Y-92930952D01*
X148557142Y-92978571D01*
X148533333Y-93002380D01*
X148485714Y-93026190D01*
X148390476Y-93026190D01*
X148342857Y-93002380D01*
X148319047Y-92978571D01*
X148295238Y-92930952D01*
X148295238Y-92526190D01*
X147795238Y-93026190D02*
X148080952Y-93026190D01*
X147938095Y-93026190D02*
X147938095Y-92526190D01*
X147985714Y-92597619D01*
X148033333Y-92645238D01*
X148080952Y-92669047D01*
X161826190Y-89792857D02*
X161326190Y-89792857D01*
X161326190Y-89983333D01*
X161350000Y-90030952D01*
X161373809Y-90054761D01*
X161421428Y-90078571D01*
X161492857Y-90078571D01*
X161540476Y-90054761D01*
X161564285Y-90030952D01*
X161588095Y-89983333D01*
X161588095Y-89792857D01*
X161826190Y-90554761D02*
X161826190Y-90269047D01*
X161826190Y-90411904D02*
X161326190Y-90411904D01*
X161397619Y-90364285D01*
X161445238Y-90316666D01*
X161469047Y-90269047D01*
X161373809Y-90745238D02*
X161350000Y-90769047D01*
X161326190Y-90816666D01*
X161326190Y-90935714D01*
X161350000Y-90983333D01*
X161373809Y-91007142D01*
X161421428Y-91030952D01*
X161469047Y-91030952D01*
X161540476Y-91007142D01*
X161826190Y-90721428D01*
X161826190Y-91030952D01*
X161826190Y-98392857D02*
X161326190Y-98392857D01*
X161326190Y-98583333D01*
X161350000Y-98630952D01*
X161373809Y-98654761D01*
X161421428Y-98678571D01*
X161492857Y-98678571D01*
X161540476Y-98654761D01*
X161564285Y-98630952D01*
X161588095Y-98583333D01*
X161588095Y-98392857D01*
X161826190Y-99154761D02*
X161826190Y-98869047D01*
X161826190Y-99011904D02*
X161326190Y-99011904D01*
X161397619Y-98964285D01*
X161445238Y-98916666D01*
X161469047Y-98869047D01*
X161326190Y-99321428D02*
X161326190Y-99630952D01*
X161516666Y-99464285D01*
X161516666Y-99535714D01*
X161540476Y-99583333D01*
X161564285Y-99607142D01*
X161611904Y-99630952D01*
X161730952Y-99630952D01*
X161778571Y-99607142D01*
X161802380Y-99583333D01*
X161826190Y-99535714D01*
X161826190Y-99392857D01*
X161802380Y-99345238D01*
X161778571Y-99321428D01*
X139826190Y-95316666D02*
X139588095Y-95150000D01*
X139826190Y-95030952D02*
X139326190Y-95030952D01*
X139326190Y-95221428D01*
X139350000Y-95269047D01*
X139373809Y-95292857D01*
X139421428Y-95316666D01*
X139492857Y-95316666D01*
X139540476Y-95292857D01*
X139564285Y-95269047D01*
X139588095Y-95221428D01*
X139588095Y-95030952D01*
X139826190Y-95554761D02*
X139826190Y-95650000D01*
X139802380Y-95697619D01*
X139778571Y-95721428D01*
X139707142Y-95769047D01*
X139611904Y-95792857D01*
X139421428Y-95792857D01*
X139373809Y-95769047D01*
X139350000Y-95745238D01*
X139326190Y-95697619D01*
X139326190Y-95602380D01*
X139350000Y-95554761D01*
X139373809Y-95530952D01*
X139421428Y-95507142D01*
X139540476Y-95507142D01*
X139588095Y-95530952D01*
X139611904Y-95554761D01*
X139635714Y-95602380D01*
X139635714Y-95697619D01*
X139611904Y-95745238D01*
X139588095Y-95769047D01*
X139540476Y-95792857D01*
D15*
X124883396Y-88778707D02*
X124907224Y-88802534D01*
X124978707Y-88826362D01*
X125026362Y-88826362D01*
X125097845Y-88802534D01*
X125145500Y-88754879D01*
X125169328Y-88707224D01*
X125193155Y-88611913D01*
X125193155Y-88540430D01*
X125169328Y-88445120D01*
X125145500Y-88397465D01*
X125097845Y-88349810D01*
X125026362Y-88325982D01*
X124978707Y-88325982D01*
X124907224Y-88349810D01*
X124883396Y-88373637D01*
X124430671Y-88325982D02*
X124668948Y-88325982D01*
X124692775Y-88564258D01*
X124668948Y-88540430D01*
X124621292Y-88516603D01*
X124502154Y-88516603D01*
X124454499Y-88540430D01*
X124430671Y-88564258D01*
X124406844Y-88611913D01*
X124406844Y-88731051D01*
X124430671Y-88778707D01*
X124454499Y-88802534D01*
X124502154Y-88826362D01*
X124621292Y-88826362D01*
X124668948Y-88802534D01*
X124692775Y-88778707D01*
X124883396Y-91378707D02*
X124907224Y-91402534D01*
X124978707Y-91426362D01*
X125026362Y-91426362D01*
X125097845Y-91402534D01*
X125145500Y-91354879D01*
X125169328Y-91307224D01*
X125193155Y-91211913D01*
X125193155Y-91140430D01*
X125169328Y-91045120D01*
X125145500Y-90997465D01*
X125097845Y-90949810D01*
X125026362Y-90925982D01*
X124978707Y-90925982D01*
X124907224Y-90949810D01*
X124883396Y-90973637D01*
X124716603Y-90925982D02*
X124406844Y-90925982D01*
X124573637Y-91116603D01*
X124502154Y-91116603D01*
X124454499Y-91140430D01*
X124430671Y-91164258D01*
X124406844Y-91211913D01*
X124406844Y-91331051D01*
X124430671Y-91378707D01*
X124454499Y-91402534D01*
X124502154Y-91426362D01*
X124645120Y-91426362D01*
X124692775Y-91402534D01*
X124716603Y-91378707D01*
D10*
X149083333Y-101826190D02*
X149250000Y-101588095D01*
X149369047Y-101826190D02*
X149369047Y-101326190D01*
X149178571Y-101326190D01*
X149130952Y-101350000D01*
X149107142Y-101373809D01*
X149083333Y-101421428D01*
X149083333Y-101492857D01*
X149107142Y-101540476D01*
X149130952Y-101564285D01*
X149178571Y-101588095D01*
X149369047Y-101588095D01*
X148916666Y-101326190D02*
X148583333Y-101326190D01*
X148797619Y-101826190D01*
X151721333Y-100426190D02*
X151888000Y-100188095D01*
X152007047Y-100426190D02*
X152007047Y-99926190D01*
X151816571Y-99926190D01*
X151768952Y-99950000D01*
X151745142Y-99973809D01*
X151721333Y-100021428D01*
X151721333Y-100092857D01*
X151745142Y-100140476D01*
X151768952Y-100164285D01*
X151816571Y-100188095D01*
X152007047Y-100188095D01*
X151530857Y-99973809D02*
X151507047Y-99950000D01*
X151459428Y-99926190D01*
X151340380Y-99926190D01*
X151292761Y-99950000D01*
X151268952Y-99973809D01*
X151245142Y-100021428D01*
X151245142Y-100069047D01*
X151268952Y-100140476D01*
X151554666Y-100426190D01*
X151245142Y-100426190D01*
X149943333Y-100426190D02*
X150110000Y-100188095D01*
X150229047Y-100426190D02*
X150229047Y-99926190D01*
X150038571Y-99926190D01*
X149990952Y-99950000D01*
X149967142Y-99973809D01*
X149943333Y-100021428D01*
X149943333Y-100092857D01*
X149967142Y-100140476D01*
X149990952Y-100164285D01*
X150038571Y-100188095D01*
X150229047Y-100188095D01*
X149467142Y-100426190D02*
X149752857Y-100426190D01*
X149610000Y-100426190D02*
X149610000Y-99926190D01*
X149657619Y-99997619D01*
X149705238Y-100045238D01*
X149752857Y-100069047D01*
X143683333Y-100826190D02*
X143850000Y-100588095D01*
X143969047Y-100826190D02*
X143969047Y-100326190D01*
X143778571Y-100326190D01*
X143730952Y-100350000D01*
X143707142Y-100373809D01*
X143683333Y-100421428D01*
X143683333Y-100492857D01*
X143707142Y-100540476D01*
X143730952Y-100564285D01*
X143778571Y-100588095D01*
X143969047Y-100588095D01*
X143254761Y-100326190D02*
X143350000Y-100326190D01*
X143397619Y-100350000D01*
X143421428Y-100373809D01*
X143469047Y-100445238D01*
X143492857Y-100540476D01*
X143492857Y-100730952D01*
X143469047Y-100778571D01*
X143445238Y-100802380D01*
X143397619Y-100826190D01*
X143302380Y-100826190D01*
X143254761Y-100802380D01*
X143230952Y-100778571D01*
X143207142Y-100730952D01*
X143207142Y-100611904D01*
X143230952Y-100564285D01*
X143254761Y-100540476D01*
X143302380Y-100516666D01*
X143397619Y-100516666D01*
X143445238Y-100540476D01*
X143469047Y-100564285D01*
X143492857Y-100611904D01*
X137483333Y-100826190D02*
X137650000Y-100588095D01*
X137769047Y-100826190D02*
X137769047Y-100326190D01*
X137578571Y-100326190D01*
X137530952Y-100350000D01*
X137507142Y-100373809D01*
X137483333Y-100421428D01*
X137483333Y-100492857D01*
X137507142Y-100540476D01*
X137530952Y-100564285D01*
X137578571Y-100588095D01*
X137769047Y-100588095D01*
X137030952Y-100326190D02*
X137269047Y-100326190D01*
X137292857Y-100564285D01*
X137269047Y-100540476D01*
X137221428Y-100516666D01*
X137102380Y-100516666D01*
X137054761Y-100540476D01*
X137030952Y-100564285D01*
X137007142Y-100611904D01*
X137007142Y-100730952D01*
X137030952Y-100778571D01*
X137054761Y-100802380D01*
X137102380Y-100826190D01*
X137221428Y-100826190D01*
X137269047Y-100802380D01*
X137292857Y-100778571D01*
X140083333Y-96626190D02*
X140250000Y-96388095D01*
X140369047Y-96626190D02*
X140369047Y-96126190D01*
X140178571Y-96126190D01*
X140130952Y-96150000D01*
X140107142Y-96173809D01*
X140083333Y-96221428D01*
X140083333Y-96292857D01*
X140107142Y-96340476D01*
X140130952Y-96364285D01*
X140178571Y-96388095D01*
X140369047Y-96388095D01*
X139654761Y-96292857D02*
X139654761Y-96626190D01*
X139773809Y-96102380D02*
X139892857Y-96459523D01*
X139583333Y-96459523D01*
X140483333Y-101826190D02*
X140650000Y-101588095D01*
X140769047Y-101826190D02*
X140769047Y-101326190D01*
X140578571Y-101326190D01*
X140530952Y-101350000D01*
X140507142Y-101373809D01*
X140483333Y-101421428D01*
X140483333Y-101492857D01*
X140507142Y-101540476D01*
X140530952Y-101564285D01*
X140578571Y-101588095D01*
X140769047Y-101588095D01*
X140316666Y-101326190D02*
X140007142Y-101326190D01*
X140173809Y-101516666D01*
X140102380Y-101516666D01*
X140054761Y-101540476D01*
X140030952Y-101564285D01*
X140007142Y-101611904D01*
X140007142Y-101730952D01*
X140030952Y-101778571D01*
X140054761Y-101802380D01*
X140102380Y-101826190D01*
X140245238Y-101826190D01*
X140292857Y-101802380D01*
X140316666Y-101778571D01*
X135083333Y-103578571D02*
X135107142Y-103602380D01*
X135178571Y-103626190D01*
X135226190Y-103626190D01*
X135297619Y-103602380D01*
X135345238Y-103554761D01*
X135369047Y-103507142D01*
X135392857Y-103411904D01*
X135392857Y-103340476D01*
X135369047Y-103245238D01*
X135345238Y-103197619D01*
X135297619Y-103150000D01*
X135226190Y-103126190D01*
X135178571Y-103126190D01*
X135107142Y-103150000D01*
X135083333Y-103173809D01*
X134607142Y-103626190D02*
X134892857Y-103626190D01*
X134750000Y-103626190D02*
X134750000Y-103126190D01*
X134797619Y-103197619D01*
X134845238Y-103245238D01*
X134892857Y-103269047D01*
X130483333Y-103578571D02*
X130507142Y-103602380D01*
X130578571Y-103626190D01*
X130626190Y-103626190D01*
X130697619Y-103602380D01*
X130745238Y-103554761D01*
X130769047Y-103507142D01*
X130792857Y-103411904D01*
X130792857Y-103340476D01*
X130769047Y-103245238D01*
X130745238Y-103197619D01*
X130697619Y-103150000D01*
X130626190Y-103126190D01*
X130578571Y-103126190D01*
X130507142Y-103150000D01*
X130483333Y-103173809D01*
X130054761Y-103126190D02*
X130150000Y-103126190D01*
X130197619Y-103150000D01*
X130221428Y-103173809D01*
X130269047Y-103245238D01*
X130292857Y-103340476D01*
X130292857Y-103530952D01*
X130269047Y-103578571D01*
X130245238Y-103602380D01*
X130197619Y-103626190D01*
X130102380Y-103626190D01*
X130054761Y-103602380D01*
X130030952Y-103578571D01*
X130007142Y-103530952D01*
X130007142Y-103411904D01*
X130030952Y-103364285D01*
X130054761Y-103340476D01*
X130102380Y-103316666D01*
X130197619Y-103316666D01*
X130245238Y-103340476D01*
X130269047Y-103364285D01*
X130292857Y-103411904D01*
X155283333Y-87578571D02*
X155307142Y-87602380D01*
X155378571Y-87626190D01*
X155426190Y-87626190D01*
X155497619Y-87602380D01*
X155545238Y-87554761D01*
X155569047Y-87507142D01*
X155592857Y-87411904D01*
X155592857Y-87340476D01*
X155569047Y-87245238D01*
X155545238Y-87197619D01*
X155497619Y-87150000D01*
X155426190Y-87126190D01*
X155378571Y-87126190D01*
X155307142Y-87150000D01*
X155283333Y-87173809D01*
X154854761Y-87292857D02*
X154854761Y-87626190D01*
X154973809Y-87102380D02*
X155092857Y-87459523D01*
X154783333Y-87459523D01*
X156207333Y-101826190D02*
X156445428Y-101826190D01*
X156445428Y-101326190D01*
X155778761Y-101826190D02*
X156064476Y-101826190D01*
X155921619Y-101826190D02*
X155921619Y-101326190D01*
X155969238Y-101397619D01*
X156016857Y-101445238D01*
X156064476Y-101469047D01*
X143253333Y-91178571D02*
X143277142Y-91202380D01*
X143348571Y-91226190D01*
X143396190Y-91226190D01*
X143467619Y-91202380D01*
X143515238Y-91154761D01*
X143539047Y-91107142D01*
X143562857Y-91011904D01*
X143562857Y-90940476D01*
X143539047Y-90845238D01*
X143515238Y-90797619D01*
X143467619Y-90750000D01*
X143396190Y-90726190D01*
X143348571Y-90726190D01*
X143277142Y-90750000D01*
X143253333Y-90773809D01*
X143062857Y-90773809D02*
X143039047Y-90750000D01*
X142991428Y-90726190D01*
X142872380Y-90726190D01*
X142824761Y-90750000D01*
X142800952Y-90773809D01*
X142777142Y-90821428D01*
X142777142Y-90869047D01*
X142800952Y-90940476D01*
X143086666Y-91226190D01*
X142777142Y-91226190D01*
X140626190Y-93592857D02*
X140126190Y-93592857D01*
X140126190Y-93711904D01*
X140150000Y-93783333D01*
X140197619Y-93830952D01*
X140245238Y-93854761D01*
X140340476Y-93878571D01*
X140411904Y-93878571D01*
X140507142Y-93854761D01*
X140554761Y-93830952D01*
X140602380Y-93783333D01*
X140626190Y-93711904D01*
X140626190Y-93592857D01*
X140626190Y-94354761D02*
X140626190Y-94069047D01*
X140626190Y-94211904D02*
X140126190Y-94211904D01*
X140197619Y-94164285D01*
X140245238Y-94116666D01*
X140269047Y-94069047D01*
X140173809Y-94545238D02*
X140150000Y-94569047D01*
X140126190Y-94616666D01*
X140126190Y-94735714D01*
X140150000Y-94783333D01*
X140173809Y-94807142D01*
X140221428Y-94830952D01*
X140269047Y-94830952D01*
X140340476Y-94807142D01*
X140626190Y-94521428D01*
X140626190Y-94830952D01*
M02*
