M48
; DRILL file {KiCad (5.1.5-0-10_14)} date Sunday, 26 April 2020 at 03:29:58 pm
; FORMAT={-:-/ absolute / metric / decimal}
; #@! TF.CreationDate,2020-04-26T15:29:58+12:00
; #@! TF.GenerationSoftware,Kicad,Pcbnew,(5.1.5-0-10_14)
; #@! TF.FileFunction,Plated,1,2,PTH
FMAT,2
METRIC
T1C0.500
T2C0.813
%
G90
G05
T1
X106.086Y-92.006
X109.474Y-85.344
X112.944Y-94.292
X118.364Y-112.014
X121.6Y-87.624
X122.428Y-101.092
X125.2Y-89.824
X125.2Y-92.224
X128.524Y-110.744
X128.8Y-103.2
X133.832Y-103.29
X138.684Y-102.108
X142.24Y-102.108
X145.288Y-92.202
X145.71Y-99.102
X147.828Y-102.108
X150.114Y-84.328
X150.6Y-81.4
X157.902Y-88.18
X158.918Y-87.164
X159.426Y-85.894
X159.68Y-88.18
X169.164Y-107.442
X170.434Y-94.742
X170.688Y-101.854
T2
X149.352Y-119.126
X151.892Y-119.126
X138.176Y-119.126
X140.716Y-119.126
X143.256Y-119.126
X157.988Y-119.126
X160.528Y-119.126
X163.068Y-119.126
T0
M30
