G04 #@! TF.GenerationSoftware,KiCad,Pcbnew,(5.1.5-0-10_14)*
G04 #@! TF.CreationDate,2020-05-22T17:31:33+12:00*
G04 #@! TF.ProjectId,main-board,6d61696e-2d62-46f6-9172-642e6b696361,C*
G04 #@! TF.SameCoordinates,Original*
G04 #@! TF.FileFunction,Copper,L1,Top*
G04 #@! TF.FilePolarity,Positive*
%FSLAX46Y46*%
G04 Gerber Fmt 4.6, Leading zero omitted, Abs format (unit mm)*
G04 Created by KiCad (PCBNEW (5.1.5-0-10_14)) date 2020-05-22 17:31:33*
%MOMM*%
%LPD*%
G04 APERTURE LIST*
%ADD10C,0.200000*%
%ADD11R,2.100000X0.850000*%
%ADD12R,1.998980X0.449580*%
%ADD13R,0.449580X1.998980*%
%ADD14R,0.530000X0.530000*%
%ADD15R,0.599440X1.000760*%
%ADD16R,1.399540X0.599440*%
%ADD17R,1.600000X3.000000*%
%ADD18R,1.000000X5.500000*%
%ADD19R,5.500000X2.000000*%
%ADD20R,1.300000X2.200000*%
%ADD21R,0.635000X1.143000*%
%ADD22R,1.143000X0.635000*%
%ADD23R,1.750000X0.700000*%
%ADD24R,1.500000X1.300000*%
%ADD25R,1.500000X1.500000*%
%ADD26R,1.500000X0.800000*%
%ADD27R,1.000000X1.800000*%
%ADD28R,1.550000X1.000000*%
%ADD29R,1.400000X0.800000*%
%ADD30C,1.397000*%
%ADD31R,1.397000X1.397000*%
%ADD32R,0.813000X0.500000*%
%ADD33R,0.500000X0.813000*%
%ADD34R,1.220000X0.915000*%
%ADD35R,7.000000X0.850000*%
%ADD36R,1.270000X0.381000*%
%ADD37C,0.900000*%
%ADD38C,1.000000*%
%ADD39C,0.254000*%
%ADD40C,0.508000*%
G04 APERTURE END LIST*
D10*
X44000000Y-97300000D02*
X44000000Y-51600000D01*
X114000000Y-97300000D02*
X44000000Y-97300000D01*
X114000000Y-51600000D02*
X114000000Y-97300000D01*
X44000000Y-51600000D02*
X114000000Y-51600000D01*
D11*
X111950000Y-76966000D03*
X108950000Y-74966000D03*
X111950000Y-72966000D03*
X108950000Y-70966000D03*
X111950000Y-68966000D03*
X108950000Y-66966000D03*
X111950000Y-64966000D03*
X108950000Y-62966000D03*
X111950000Y-60966000D03*
X108950000Y-58966000D03*
X89950000Y-76966000D03*
X86950000Y-74966000D03*
X89950000Y-72966000D03*
X86950000Y-70966000D03*
X89950000Y-68966000D03*
X86950000Y-66966000D03*
X89950000Y-64966000D03*
X86950000Y-62966000D03*
X89950000Y-60966000D03*
X86950000Y-58966000D03*
D12*
X50128800Y-70436000D03*
X50128800Y-69623200D03*
X50128800Y-68810400D03*
X50128800Y-67997600D03*
X50128800Y-67210200D03*
X50128800Y-66422800D03*
X50128800Y-65610000D03*
X50128800Y-64822600D03*
X59730000Y-70415680D03*
X59730000Y-69618120D03*
X59730000Y-68815480D03*
X59730000Y-68017920D03*
X59730000Y-67215280D03*
X59730000Y-66417720D03*
X59730000Y-65615080D03*
X59730000Y-64817520D03*
D13*
X56936000Y-72391800D03*
X56123200Y-72391800D03*
X55335800Y-72391800D03*
X54523000Y-72391800D03*
X53735600Y-72391800D03*
X52922800Y-72391800D03*
X52110000Y-72391800D03*
X57723400Y-72391800D03*
X57728480Y-62826160D03*
X56928380Y-62826160D03*
X56128280Y-62826160D03*
X55328180Y-62826160D03*
X54528080Y-62826160D03*
X53727980Y-62826160D03*
X52927880Y-62826160D03*
X52127780Y-62826160D03*
D14*
X62950000Y-90600000D03*
X61850000Y-90100000D03*
X61850000Y-91100000D03*
X88474000Y-83390000D03*
X87374000Y-82890000D03*
X87374000Y-83890000D03*
D15*
X89448000Y-90689960D03*
X90098240Y-88790040D03*
X88797760Y-88790040D03*
D16*
X68493000Y-61165000D03*
X68493000Y-59895000D03*
X68493000Y-58625000D03*
X73827000Y-61165000D03*
X73827000Y-59895000D03*
X73827000Y-58625000D03*
X68493000Y-57355000D03*
X73827000Y-57355000D03*
D17*
X64712000Y-94574000D03*
X71512000Y-94574000D03*
D18*
X69112000Y-92324000D03*
X67112000Y-92324000D03*
D17*
X79190000Y-94574000D03*
X85990000Y-94574000D03*
D18*
X83590000Y-92324000D03*
X81590000Y-92324000D03*
D17*
X98240000Y-94574000D03*
X105040000Y-94574000D03*
D18*
X102640000Y-92324000D03*
X100640000Y-92324000D03*
D19*
X59164000Y-54648000D03*
X49664000Y-54648000D03*
D20*
X69568000Y-54688000D03*
X73768000Y-54688000D03*
D21*
X82844000Y-87200000D03*
X81320000Y-87200000D03*
X75732000Y-70182000D03*
X74208000Y-70182000D03*
X94782000Y-86184000D03*
X93258000Y-86184000D03*
X85638000Y-87200000D03*
X84114000Y-87200000D03*
X90464000Y-83136000D03*
X91988000Y-83136000D03*
D22*
X58206000Y-75770000D03*
X58206000Y-77294000D03*
X90972000Y-86692000D03*
X90972000Y-85168000D03*
D21*
X100878000Y-86946000D03*
X102402000Y-86946000D03*
X61438000Y-93600000D03*
X62962000Y-93600000D03*
X74208000Y-66372000D03*
X75732000Y-66372000D03*
X65572000Y-67388000D03*
X64048000Y-67388000D03*
X75732000Y-68150000D03*
X74208000Y-68150000D03*
D22*
X59984000Y-75770000D03*
X59984000Y-77294000D03*
D21*
X65572000Y-69166000D03*
X64048000Y-69166000D03*
D22*
X47284000Y-60530000D03*
X47284000Y-59006000D03*
D21*
X55666000Y-82628000D03*
X57190000Y-82628000D03*
D22*
X61254000Y-61292000D03*
X61254000Y-62816000D03*
D21*
X78018000Y-60784000D03*
X76494000Y-60784000D03*
X86908000Y-87200000D03*
X88432000Y-87200000D03*
X64048000Y-71706000D03*
X65572000Y-71706000D03*
X74208000Y-71960000D03*
X75732000Y-71960000D03*
D22*
X45506000Y-60530000D03*
X45506000Y-59006000D03*
D23*
X48921000Y-90248000D03*
X48921000Y-89148000D03*
X48921000Y-91348000D03*
X48921000Y-88048000D03*
X48921000Y-92448000D03*
X48921000Y-86948000D03*
X48921000Y-93548000D03*
X48921000Y-85848000D03*
D24*
X49046000Y-84648000D03*
D25*
X49046000Y-95998000D03*
D26*
X56646000Y-84398000D03*
D27*
X58146000Y-84898000D03*
D28*
X59721000Y-95998000D03*
D29*
X57296000Y-96348000D03*
D30*
X70652000Y-71706000D03*
X70652000Y-69166000D03*
D31*
X70652000Y-66626000D03*
D22*
X84622000Y-83898000D03*
X84622000Y-85422000D03*
D32*
X79294000Y-73462000D03*
X79294000Y-72662000D03*
X79294000Y-71862000D03*
X79294000Y-71062000D03*
X79294000Y-70262000D03*
X79294000Y-69462000D03*
X81314000Y-69462000D03*
X81314000Y-70262000D03*
X81314000Y-71062000D03*
X81314000Y-71862000D03*
X81314000Y-72662000D03*
X81314000Y-73462000D03*
D33*
X80304000Y-73462000D03*
X80304000Y-69442000D03*
D34*
X91734000Y-92332000D03*
X91734000Y-88682000D03*
D21*
X87670000Y-81358000D03*
X89194000Y-81358000D03*
X64556000Y-88216000D03*
X63032000Y-88216000D03*
D35*
X67191000Y-82362000D03*
X67191000Y-83862000D03*
X67191000Y-85362000D03*
X67191000Y-80862000D03*
X67191000Y-79362000D03*
X67191000Y-77862000D03*
D22*
X47284000Y-61800000D03*
X47284000Y-63324000D03*
X45506000Y-61800000D03*
X45506000Y-63324000D03*
D21*
X55938000Y-58458000D03*
X57462000Y-58458000D03*
D22*
X52636000Y-58204000D03*
X52636000Y-59728000D03*
D21*
X51112000Y-58458000D03*
X49588000Y-58458000D03*
D22*
X52872000Y-77294000D03*
X52872000Y-75770000D03*
X54414000Y-58204000D03*
X54414000Y-59728000D03*
X54650000Y-77294000D03*
X54650000Y-75770000D03*
D21*
X49824000Y-82628000D03*
X48300000Y-82628000D03*
D22*
X59476000Y-61292000D03*
X59476000Y-62816000D03*
D21*
X78018000Y-59006000D03*
X76494000Y-59006000D03*
X78018000Y-57228000D03*
X76494000Y-57228000D03*
D22*
X75732000Y-53926000D03*
X75732000Y-55450000D03*
D21*
X65572000Y-65610000D03*
X64048000Y-65610000D03*
D22*
X67604000Y-53926000D03*
X67604000Y-55450000D03*
X81574000Y-65864000D03*
X81574000Y-67388000D03*
X79542000Y-65864000D03*
X79542000Y-67388000D03*
X83860000Y-80088000D03*
X83860000Y-81612000D03*
X61762000Y-75770000D03*
X61762000Y-77294000D03*
X66588000Y-61546000D03*
X66588000Y-60022000D03*
X56428000Y-75770000D03*
X56428000Y-77294000D03*
D21*
X65572000Y-73484000D03*
X64048000Y-73484000D03*
X66842000Y-67388000D03*
X68366000Y-67388000D03*
D22*
X51094000Y-75770000D03*
X51094000Y-77294000D03*
D36*
X82759000Y-83324640D03*
X82759000Y-83974880D03*
X82759000Y-84625120D03*
X82759000Y-85275360D03*
X78441000Y-85275360D03*
X78441000Y-84625120D03*
X78441000Y-83974880D03*
X78441000Y-83324640D03*
D37*
X71668000Y-86184000D03*
X46776000Y-70182000D03*
X51094000Y-82628000D03*
X46776000Y-68912000D03*
X45760000Y-81866000D03*
X71922000Y-79834000D03*
X53634000Y-82628000D03*
X50840000Y-73230000D03*
X71922000Y-82882000D03*
X72684000Y-71706000D03*
X48300000Y-68150000D03*
X45760000Y-66372000D03*
X81320000Y-81612000D03*
X75224000Y-62816000D03*
X79288000Y-75008000D03*
X62778000Y-66880000D03*
X76494000Y-62562000D03*
X62270000Y-68150000D03*
X81828000Y-75008000D03*
X103926000Y-88216000D03*
X87416000Y-89486000D03*
X53380000Y-74246000D03*
X73446000Y-78818000D03*
X89702000Y-92788000D03*
X85130000Y-82628000D03*
X77256000Y-70182000D03*
X80304000Y-57990000D03*
X64556000Y-60022000D03*
X97830000Y-84660000D03*
X65826000Y-54434000D03*
X55666000Y-74246000D03*
X83606000Y-70944000D03*
X82336000Y-76278000D03*
X78018000Y-76278000D03*
X49824000Y-62562000D03*
X52364000Y-82628000D03*
X72430000Y-77802000D03*
X56192000Y-60236000D03*
X62200000Y-92200000D03*
X71922000Y-84152000D03*
X51602000Y-78564000D03*
D38*
X84368000Y-58244000D03*
D37*
X77764000Y-55196000D03*
X80050000Y-61546000D03*
X67096000Y-65610000D03*
X48808000Y-80088000D03*
X83352000Y-66880000D03*
X63032000Y-62054000D03*
X54668000Y-60998000D03*
X61762000Y-78818000D03*
X66842000Y-75262000D03*
X56174000Y-79326000D03*
X79796000Y-81612000D03*
X77256000Y-66372000D03*
X77002000Y-72722000D03*
X78780000Y-79072000D03*
X89194000Y-84914000D03*
X93004000Y-84660000D03*
X102402000Y-85168000D03*
X70652000Y-75516000D03*
X66588000Y-58498000D03*
X67858000Y-69166000D03*
X77256000Y-68404000D03*
X74970000Y-81358000D03*
X72684000Y-66626000D03*
D39*
X58206000Y-84838000D02*
X58146000Y-84898000D01*
X58206000Y-82628000D02*
X58206000Y-84838000D01*
X47280368Y-66422800D02*
X45381538Y-68321630D01*
X45381538Y-68321630D02*
X45381538Y-71026370D01*
X50128800Y-66422800D02*
X47280368Y-66422800D01*
X58206000Y-81612000D02*
X57949462Y-81355462D01*
X58206000Y-82628000D02*
X58206000Y-81612000D01*
X54490336Y-80596000D02*
X55249798Y-81355462D01*
X55249798Y-81355462D02*
X57949462Y-81355462D01*
X50586000Y-80596000D02*
X54490336Y-80596000D01*
X48554000Y-74198832D02*
X45381538Y-71026370D01*
X50586000Y-80596000D02*
X48554000Y-78564000D01*
X48554000Y-78564000D02*
X48554000Y-74198832D01*
X57190000Y-82628000D02*
X58206000Y-82628000D01*
X47766600Y-64822600D02*
X47284000Y-64340000D01*
X47284000Y-64340000D02*
X47284000Y-63324000D01*
X50128800Y-64822600D02*
X47766600Y-64822600D01*
X46522000Y-65610000D02*
X45506000Y-64594000D01*
X45506000Y-64594000D02*
X45506000Y-63324000D01*
X50128800Y-65610000D02*
X46522000Y-65610000D01*
X71508000Y-85262000D02*
X71668000Y-85422000D01*
X71668000Y-85422000D02*
X71668000Y-86184000D01*
X67191000Y-85262000D02*
X71508000Y-85262000D01*
X47030000Y-70436000D02*
X50128800Y-70436000D01*
X46776000Y-70182000D02*
X47030000Y-70436000D01*
X50584000Y-86948000D02*
X51094000Y-86438000D01*
X51094000Y-86438000D02*
X51094000Y-82628000D01*
X48921000Y-86948000D02*
X50584000Y-86948000D01*
X71556000Y-80962000D02*
X67191000Y-80962000D01*
X48249200Y-69623200D02*
X50128800Y-69623200D01*
X47538000Y-68912000D02*
X48249200Y-69623200D01*
X46776000Y-68912000D02*
X47538000Y-68912000D01*
X48921000Y-91348000D02*
X47368000Y-91348000D01*
X46522000Y-90502000D02*
X47368000Y-91348000D01*
X46522000Y-83898000D02*
X45760000Y-83136000D01*
X45760000Y-83136000D02*
X45760000Y-81866000D01*
X46522000Y-90502000D02*
X46522000Y-83898000D01*
X71922000Y-80596000D02*
X71556000Y-80962000D01*
X71922000Y-79834000D02*
X71922000Y-80596000D01*
X71924538Y-59257462D02*
X71924538Y-62051462D01*
X72557000Y-58625000D02*
X71924538Y-59257462D01*
X73827000Y-58625000D02*
X72557000Y-58625000D01*
X74843000Y-58625000D02*
X75351000Y-59133000D01*
X75732000Y-60784000D02*
X76494000Y-60784000D01*
X73827000Y-58625000D02*
X74843000Y-58625000D01*
X61030480Y-64817520D02*
X62524000Y-63324000D01*
X62524000Y-63324000D02*
X63540000Y-63324000D01*
X59730000Y-64817520D02*
X61030480Y-64817520D01*
X64302000Y-62562000D02*
X71414000Y-62562000D01*
X71414000Y-62562000D02*
X71924538Y-62051462D01*
X63540000Y-63324000D02*
X64302000Y-62562000D01*
X75351000Y-60403000D02*
X75732000Y-60784000D01*
X75351000Y-59133000D02*
X75351000Y-60403000D01*
X51678200Y-72391800D02*
X50840000Y-73230000D01*
X52110000Y-72391800D02*
X51678200Y-72391800D01*
X52131046Y-85146954D02*
X52131046Y-88194954D01*
X52131046Y-88194954D02*
X51178000Y-89148000D01*
X51178000Y-89148000D02*
X48921000Y-89148000D01*
X53634000Y-83644000D02*
X52131046Y-85146954D01*
X53634000Y-82628000D02*
X53634000Y-83644000D01*
X67191000Y-82262000D02*
X71302000Y-82262000D01*
X71302000Y-82262000D02*
X71922000Y-82882000D01*
X73192000Y-70182000D02*
X72684000Y-70690000D01*
X72684000Y-70690000D02*
X72684000Y-71706000D01*
X74208000Y-70182000D02*
X73192000Y-70182000D01*
X72938000Y-71960000D02*
X72684000Y-71706000D01*
X74208000Y-71960000D02*
X72938000Y-71960000D01*
X62166584Y-59111954D02*
X62166584Y-59129954D01*
X62166584Y-59129954D02*
X62036538Y-59260000D01*
X62036538Y-59260000D02*
X59222000Y-59260000D01*
X64574000Y-54140000D02*
X64574000Y-56704538D01*
X91658000Y-68966000D02*
X89950000Y-68966000D01*
X86672000Y-52870000D02*
X65844000Y-52870000D01*
X92260000Y-58458000D02*
X86672000Y-52870000D01*
X92260000Y-68364000D02*
X92260000Y-58458000D01*
X91658000Y-68966000D02*
X92260000Y-68364000D01*
X65844000Y-52870000D02*
X64574000Y-54140000D01*
X57728480Y-62826160D02*
X57728480Y-60753520D01*
X57728480Y-60753520D02*
X59222000Y-59260000D01*
X64574000Y-56704538D02*
X62166584Y-59111954D01*
X60997458Y-65615080D02*
X59730000Y-65615080D01*
X63746832Y-63832000D02*
X64511370Y-63067462D01*
X62780538Y-63832000D02*
X63746832Y-63832000D01*
X60997458Y-65615080D02*
X62780538Y-63832000D01*
X84894000Y-62966000D02*
X86950000Y-62966000D01*
X84576000Y-63284000D02*
X84894000Y-62966000D01*
X78036000Y-63284000D02*
X77268924Y-64051076D01*
X77268924Y-64051076D02*
X72707076Y-64051076D01*
X72707076Y-64051076D02*
X71723462Y-63067462D01*
X71723462Y-63067462D02*
X64511370Y-63067462D01*
X84576000Y-63284000D02*
X78036000Y-63284000D01*
X91246000Y-74966000D02*
X92765462Y-73446538D01*
X92765462Y-73446538D02*
X92765462Y-58201462D01*
X92765462Y-58201462D02*
X86926000Y-52362000D01*
X86926000Y-52362000D02*
X65637168Y-52362000D01*
X65637168Y-52362000D02*
X64066000Y-53933168D01*
X64066000Y-53933168D02*
X64066000Y-56497706D01*
X64066000Y-56497706D02*
X61809168Y-58754538D01*
X61809168Y-58754538D02*
X59012630Y-58754538D01*
X59012630Y-58754538D02*
X56928380Y-60838788D01*
X56928380Y-60838788D02*
X56928380Y-62826160D01*
X86950000Y-74966000D02*
X91246000Y-74966000D01*
X71387370Y-63572924D02*
X72370984Y-64556538D01*
X72370984Y-64556538D02*
X77547462Y-64556538D01*
X77547462Y-64556538D02*
X78309462Y-63794538D01*
X78309462Y-63794538D02*
X84642538Y-63794538D01*
X84642538Y-63794538D02*
X84894000Y-64046000D01*
X84894000Y-64046000D02*
X88958000Y-64046000D01*
X88958000Y-64046000D02*
X89950000Y-63054000D01*
X89950000Y-63054000D02*
X89950000Y-60966000D01*
X60954280Y-66417720D02*
X63032000Y-64340000D01*
X59730000Y-66417720D02*
X60954280Y-66417720D01*
X64042924Y-64340000D02*
X64810000Y-63572924D01*
X63032000Y-64340000D02*
X64042924Y-64340000D01*
X64810000Y-63572924D02*
X71387370Y-63572924D01*
X51366000Y-56426000D02*
X50350000Y-57442000D01*
X50350000Y-57442000D02*
X50350000Y-59474000D01*
X50350000Y-59474000D02*
X51620000Y-60744000D01*
X52927880Y-61289880D02*
X52927880Y-62826160D01*
X51620000Y-60744000D02*
X52382000Y-60744000D01*
X52382000Y-60744000D02*
X52927880Y-61289880D01*
X57462000Y-57188000D02*
X57462000Y-58458000D01*
X56700000Y-56426000D02*
X57462000Y-57188000D01*
X54414000Y-56426000D02*
X56700000Y-56426000D01*
X51366000Y-56426000D02*
X54414000Y-56426000D01*
X54922000Y-54648000D02*
X54414000Y-55156000D01*
X54414000Y-55156000D02*
X54414000Y-56426000D01*
X59164000Y-54648000D02*
X54922000Y-54648000D01*
X49664000Y-56604000D02*
X49588000Y-56680000D01*
X49588000Y-56680000D02*
X49588000Y-58458000D01*
X49664000Y-54648000D02*
X49664000Y-56604000D01*
X52127780Y-61503242D02*
X51876538Y-61252000D01*
X51876538Y-61252000D02*
X51413168Y-61252000D01*
X51413168Y-61252000D02*
X49588000Y-59426832D01*
X49588000Y-59426832D02*
X49588000Y-58458000D01*
X52127780Y-62826160D02*
X52127780Y-61503242D01*
X59730000Y-67215280D02*
X57952000Y-67215280D01*
X60918720Y-67215280D02*
X62524000Y-65610000D01*
X62524000Y-65610000D02*
X64048000Y-65610000D01*
X59730000Y-67215280D02*
X60918720Y-67215280D01*
X57952000Y-64594000D02*
X58650500Y-63895500D01*
X61254000Y-63705000D02*
X61063500Y-63895500D01*
X59476000Y-63895500D02*
X58650500Y-63895500D01*
X61063500Y-63895500D02*
X59476000Y-63895500D01*
X61254000Y-62816000D02*
X61254000Y-63705000D01*
X59476000Y-62816000D02*
X59476000Y-63895500D01*
X57952000Y-67215280D02*
X57952000Y-67134000D01*
X57952000Y-67134000D02*
X57952000Y-64594000D01*
X57952000Y-70436000D02*
X57952000Y-67134000D01*
X57952000Y-70436000D02*
X63032000Y-75516000D01*
X63286000Y-79462000D02*
X67191000Y-79462000D01*
X63032000Y-79208000D02*
X63286000Y-79462000D01*
X63032000Y-75516000D02*
X63032000Y-79208000D01*
X50128800Y-68810400D02*
X48960400Y-68810400D01*
X48960400Y-68810400D02*
X48300000Y-68150000D01*
X46014000Y-84104832D02*
X44767584Y-82858416D01*
X44767584Y-67364416D02*
X45760000Y-66372000D01*
X44767584Y-82858416D02*
X44767584Y-67364416D01*
X46944000Y-92448000D02*
X46014000Y-91518000D01*
X46014000Y-91518000D02*
X46014000Y-84104832D01*
X48921000Y-92448000D02*
X46944000Y-92448000D01*
X77256000Y-84914000D02*
X77256000Y-85953584D01*
X80304000Y-85120832D02*
X79240832Y-86184000D01*
X81320000Y-81612000D02*
X81317462Y-81612000D01*
X81317462Y-81612000D02*
X80304000Y-82625462D01*
X80304000Y-82625462D02*
X80304000Y-85120832D01*
X79216000Y-86184000D02*
X79213470Y-86186530D01*
X79240832Y-86184000D02*
X79216000Y-86184000D01*
X77488946Y-86186530D02*
X77256000Y-85953584D01*
X79213470Y-86186530D02*
X77488946Y-86186530D01*
X77263120Y-84914000D02*
X77256000Y-84914000D01*
X77552000Y-84625120D02*
X77263120Y-84914000D01*
X78441000Y-84625120D02*
X77552000Y-84625120D01*
X57723400Y-73763400D02*
X58714000Y-74754000D01*
X57723400Y-72391800D02*
X57723400Y-73763400D01*
X61762000Y-75008000D02*
X61762000Y-75770000D01*
X61508000Y-74754000D02*
X61762000Y-75008000D01*
X59984000Y-74754000D02*
X61508000Y-74754000D01*
X58714000Y-74754000D02*
X59984000Y-74754000D01*
X59984000Y-75770000D02*
X59984000Y-74754000D01*
X51449600Y-67997600D02*
X50128800Y-67997600D01*
X49570000Y-78056000D02*
X49570000Y-72976000D01*
X49570000Y-78056000D02*
X51094000Y-79580000D01*
X54904000Y-79580000D02*
X51094000Y-79580000D01*
X54904000Y-79580000D02*
X55666000Y-80342000D01*
X55666000Y-80342000D02*
X60492000Y-80342000D01*
X62016000Y-81866000D02*
X60492000Y-80342000D01*
X63032000Y-88216000D02*
X62016000Y-88216000D01*
X51856000Y-68404000D02*
X51856000Y-70690000D01*
X51856000Y-70690000D02*
X49570000Y-72976000D01*
X51449600Y-67997600D02*
X51856000Y-68404000D01*
X62016000Y-81866000D02*
X62016000Y-86984000D01*
X62016000Y-86984000D02*
X62016000Y-88216000D01*
X61105470Y-92441970D02*
X61438000Y-92774500D01*
X61438000Y-92774500D02*
X61438000Y-93600000D01*
X61105470Y-89094530D02*
X61105470Y-92441970D01*
X62016000Y-88184000D02*
X61105470Y-89094530D01*
X62016000Y-86984000D02*
X62016000Y-88184000D01*
X62524000Y-71706000D02*
X61254000Y-70436000D01*
X61254000Y-70436000D02*
X59750320Y-70436000D01*
X59750320Y-70436000D02*
X59730000Y-70415680D01*
X63286000Y-73484000D02*
X63032000Y-73230000D01*
X63032000Y-73230000D02*
X63032000Y-71706000D01*
X64048000Y-73484000D02*
X63286000Y-73484000D01*
X64048000Y-71706000D02*
X63032000Y-71706000D01*
X63032000Y-71706000D02*
X62524000Y-71706000D01*
X73065000Y-59895000D02*
X73827000Y-59895000D01*
X73065000Y-59895000D02*
X72430000Y-60530000D01*
X62778000Y-67134000D02*
X63032000Y-67388000D01*
X63032000Y-67388000D02*
X64048000Y-67388000D01*
X62778000Y-66880000D02*
X62778000Y-67134000D01*
X60878080Y-68017920D02*
X59730000Y-68017920D01*
X60878080Y-68017920D02*
X62016000Y-66880000D01*
X62778000Y-66880000D02*
X62016000Y-66880000D01*
X80304000Y-74500000D02*
X79796000Y-75008000D01*
X79796000Y-75008000D02*
X79288000Y-75008000D01*
X80304000Y-74500000D02*
X80304000Y-73462000D01*
X72430000Y-63012000D02*
X72963614Y-63545614D01*
X72963614Y-63545614D02*
X74494386Y-63545614D01*
X74494386Y-63545614D02*
X75224000Y-62816000D01*
X72430000Y-60530000D02*
X72430000Y-63012000D01*
X62270000Y-68912000D02*
X62173480Y-68815480D01*
X62524000Y-69166000D02*
X62270000Y-68912000D01*
X62173480Y-68815480D02*
X59730000Y-68815480D01*
X64048000Y-69166000D02*
X62524000Y-69166000D01*
X75097000Y-61165000D02*
X76494000Y-62562000D01*
X73827000Y-61165000D02*
X75097000Y-61165000D01*
X62270000Y-68912000D02*
X62270000Y-68150000D01*
X78294000Y-73462000D02*
X79294000Y-73462000D01*
X78018000Y-73738000D02*
X78018000Y-75008000D01*
X78294000Y-73462000D02*
X78018000Y-73738000D01*
X81828000Y-75516000D02*
X81317462Y-76026538D01*
X81828000Y-75008000D02*
X81828000Y-75516000D01*
X78018000Y-75008000D02*
X79036538Y-76026538D01*
X79036538Y-76026538D02*
X81317462Y-76026538D01*
X83860000Y-81612000D02*
X83860000Y-82628000D01*
X103164000Y-88216000D02*
X103926000Y-88216000D01*
X102640000Y-88740000D02*
X103164000Y-88216000D01*
X102640000Y-88740000D02*
X102640000Y-92324000D01*
X86908000Y-87200000D02*
X86908000Y-88978000D01*
X86908000Y-88978000D02*
X87416000Y-89486000D01*
X52922800Y-73788800D02*
X53380000Y-74246000D01*
X52922800Y-72391800D02*
X52922800Y-73788800D01*
X52872000Y-74754000D02*
X52872000Y-75770000D01*
X53380000Y-74246000D02*
X52872000Y-74754000D01*
X83860000Y-83136000D02*
X83860000Y-82628000D01*
X75224000Y-78818000D02*
X77002000Y-80596000D01*
X77002000Y-80596000D02*
X81574000Y-80596000D01*
X73446000Y-78818000D02*
X75224000Y-78818000D01*
X82336000Y-81358000D02*
X82336000Y-82120000D01*
X82336000Y-82120000D02*
X82844000Y-82628000D01*
X82844000Y-82628000D02*
X83860000Y-82628000D01*
X81574000Y-80596000D02*
X82336000Y-81358000D01*
X91734000Y-93042000D02*
X91480000Y-93296000D01*
X90210000Y-93296000D02*
X89702000Y-92788000D01*
X91480000Y-93296000D02*
X90210000Y-93296000D01*
X91734000Y-92332000D02*
X91734000Y-93042000D01*
X83860000Y-82628000D02*
X85130000Y-82628000D01*
X51348000Y-74754000D02*
X51094000Y-75008000D01*
X51094000Y-75008000D02*
X51094000Y-75770000D01*
X52872000Y-74754000D02*
X51348000Y-74754000D01*
X83671360Y-83324640D02*
X82759000Y-83324640D01*
X83860000Y-83136000D02*
X83671360Y-83324640D01*
X75732000Y-70182000D02*
X77256000Y-70182000D01*
X56428000Y-75516000D02*
X56428000Y-75770000D01*
X56428000Y-75008000D02*
X56682000Y-74754000D01*
X56682000Y-74754000D02*
X56936000Y-74754000D01*
X56428000Y-75770000D02*
X56428000Y-75008000D01*
X56936000Y-72391800D02*
X56936000Y-74754000D01*
X57999168Y-74754000D02*
X58206000Y-74960832D01*
X58206000Y-74960832D02*
X58206000Y-75770000D01*
X56936000Y-74754000D02*
X57999168Y-74754000D01*
X89194000Y-81358000D02*
X90464000Y-81358000D01*
X90464000Y-83136000D02*
X90464000Y-81358000D01*
X91990538Y-81358000D02*
X90464000Y-81358000D01*
X94020000Y-83387462D02*
X91990538Y-81358000D01*
X60600000Y-87597000D02*
X60600000Y-94600000D01*
X61510538Y-82075370D02*
X61510538Y-86686462D01*
X91734000Y-96598000D02*
X94020000Y-94312000D01*
X61510538Y-86686462D02*
X60600000Y-87597000D01*
X50128800Y-67210200D02*
X47207800Y-67210200D01*
X60285168Y-80850000D02*
X61510538Y-82075370D01*
X55459168Y-80850000D02*
X60285168Y-80850000D01*
X62598000Y-96598000D02*
X91734000Y-96598000D01*
X50840000Y-80088000D02*
X54697168Y-80088000D01*
X49062000Y-78310000D02*
X50840000Y-80088000D01*
X60600000Y-94600000D02*
X62598000Y-96598000D01*
X54697168Y-80088000D02*
X55459168Y-80850000D01*
X94020000Y-94312000D02*
X94020000Y-83387462D01*
X49062000Y-73992000D02*
X49062000Y-78310000D01*
X45887000Y-70817000D02*
X49062000Y-73992000D01*
X45887000Y-68531000D02*
X45887000Y-70817000D01*
X47207800Y-67210200D02*
X45887000Y-68531000D01*
X52110000Y-81612000D02*
X52364000Y-81866000D01*
X49824000Y-82628000D02*
X49824000Y-81866000D01*
X49824000Y-81866000D02*
X50078000Y-81612000D01*
X50078000Y-81612000D02*
X52110000Y-81612000D01*
X78526000Y-59006000D02*
X78018000Y-59006000D01*
X79288000Y-57228000D02*
X79288000Y-56593000D01*
X79288000Y-56593000D02*
X79288000Y-55148832D01*
X79288000Y-55148832D02*
X78290000Y-54150832D01*
X79288000Y-58244000D02*
X79288000Y-57228000D01*
X78526000Y-59006000D02*
X79288000Y-58244000D01*
X78018000Y-57228000D02*
X79288000Y-57228000D01*
X79923000Y-56593000D02*
X80304000Y-56974000D01*
X80304000Y-56974000D02*
X80304000Y-57990000D01*
X79288000Y-56593000D02*
X79923000Y-56593000D01*
X66588000Y-61546000D02*
X65318000Y-61546000D01*
X67350000Y-61546000D02*
X67604000Y-61292000D01*
X67604000Y-61292000D02*
X68366000Y-61292000D01*
X68366000Y-61292000D02*
X68493000Y-61165000D01*
X66588000Y-61546000D02*
X67350000Y-61546000D01*
X55666000Y-64594000D02*
X56128280Y-64131720D01*
X56128280Y-64131720D02*
X56128280Y-62826160D01*
X54396000Y-64594000D02*
X55666000Y-64594000D01*
X53634000Y-64594000D02*
X54396000Y-64594000D01*
X54528080Y-64594000D02*
X54396000Y-64594000D01*
X54528080Y-62826160D02*
X54528080Y-64594000D01*
X53634000Y-66372000D02*
X55335800Y-68073800D01*
X55335800Y-68073800D02*
X55335800Y-72391800D01*
X53634000Y-64594000D02*
X53634000Y-66372000D01*
X59476000Y-60303000D02*
X60011000Y-59768000D01*
X59476000Y-61292000D02*
X59476000Y-60303000D01*
X60011000Y-59768000D02*
X63090000Y-59768000D01*
X64556000Y-60784000D02*
X65318000Y-61546000D01*
X64556000Y-60022000D02*
X64556000Y-60784000D01*
X81314000Y-71062000D02*
X82336000Y-71062000D01*
X82162000Y-70262000D02*
X82336000Y-70436000D01*
X82336000Y-70436000D02*
X82336000Y-71062000D01*
X81314000Y-70262000D02*
X82162000Y-70262000D01*
X82142000Y-72662000D02*
X82336000Y-72468000D01*
X82336000Y-72468000D02*
X82336000Y-71062000D01*
X81314000Y-72662000D02*
X82142000Y-72662000D01*
X51856000Y-64594000D02*
X53634000Y-64594000D01*
X81574000Y-65864000D02*
X81574000Y-65102000D01*
X55335800Y-73915800D02*
X55666000Y-74246000D01*
X55335800Y-73915800D02*
X55335800Y-72391800D01*
X45506000Y-59006000D02*
X45506000Y-58244000D01*
X45506000Y-58244000D02*
X45760000Y-57990000D01*
X47284000Y-57990000D02*
X48046000Y-57990000D01*
X45760000Y-57990000D02*
X47284000Y-57990000D01*
X47284000Y-57990000D02*
X47284000Y-59006000D01*
X48046000Y-57990000D02*
X48554000Y-58498000D01*
X49824000Y-62562000D02*
X51856000Y-64594000D01*
X48554000Y-61292000D02*
X49824000Y-62562000D01*
X48554000Y-58498000D02*
X48554000Y-61292000D01*
X83488000Y-71062000D02*
X83606000Y-70944000D01*
X82336000Y-71062000D02*
X83488000Y-71062000D01*
X79294000Y-72662000D02*
X78332000Y-72662000D01*
X78272000Y-72722000D02*
X77510000Y-73484000D01*
X78332000Y-72662000D02*
X78272000Y-72722000D01*
X82336000Y-76280538D02*
X81828000Y-76788538D01*
X78018000Y-76278000D02*
X78528538Y-76788538D01*
X78528538Y-76788538D02*
X81828000Y-76788538D01*
X82336000Y-76278000D02*
X82336000Y-76280538D01*
X77510000Y-75770000D02*
X78018000Y-76278000D01*
X77510000Y-73484000D02*
X77510000Y-75770000D01*
X78272000Y-65356000D02*
X78780000Y-64848000D01*
X79542000Y-64848000D02*
X81320000Y-64848000D01*
X78780000Y-64848000D02*
X79542000Y-64848000D01*
X78272000Y-72722000D02*
X78272000Y-65356000D01*
X79542000Y-65864000D02*
X79542000Y-64848000D01*
X81320000Y-64848000D02*
X81574000Y-65102000D01*
X50801168Y-88048000D02*
X51625584Y-87223584D01*
X48921000Y-88048000D02*
X50801168Y-88048000D01*
X51625584Y-87223584D02*
X51625584Y-83366416D01*
X52364000Y-81866000D02*
X52364000Y-82628000D01*
X51625584Y-83366416D02*
X52364000Y-82628000D01*
X71414000Y-77802000D02*
X71254000Y-77962000D01*
X71254000Y-77962000D02*
X67191000Y-77962000D01*
X72430000Y-77802000D02*
X71414000Y-77802000D01*
X51620000Y-58458000D02*
X51874000Y-58204000D01*
X51874000Y-58204000D02*
X52636000Y-58204000D01*
X51112000Y-58458000D02*
X51620000Y-58458000D01*
X52636000Y-58204000D02*
X54414000Y-58204000D01*
X55176000Y-58204000D02*
X55430000Y-58458000D01*
X55430000Y-58458000D02*
X55938000Y-58458000D01*
X54414000Y-58204000D02*
X55176000Y-58204000D01*
X97830000Y-82062000D02*
X92734000Y-76966000D01*
X92734000Y-76966000D02*
X89950000Y-76966000D01*
X97830000Y-84660000D02*
X97830000Y-82062000D01*
X78065168Y-53926000D02*
X78279168Y-54140000D01*
X78279168Y-54140000D02*
X78290000Y-54140000D01*
X78290000Y-54140000D02*
X78290000Y-54150832D01*
X75732000Y-53926000D02*
X78065168Y-53926000D01*
X65826000Y-54412000D02*
X66312000Y-53926000D01*
X66312000Y-53926000D02*
X67604000Y-53926000D01*
X65826000Y-54434000D02*
X65826000Y-54412000D01*
X55938000Y-59982000D02*
X55938000Y-58458000D01*
X55938000Y-59982000D02*
X56192000Y-60236000D01*
X56128280Y-60299720D02*
X56192000Y-60236000D01*
X56128280Y-62826160D02*
X56128280Y-60299720D01*
X63344000Y-60022000D02*
X63090000Y-59768000D01*
X64556000Y-60022000D02*
X63344000Y-60022000D01*
D40*
X61850000Y-91873000D02*
X61850000Y-91100000D01*
X62641500Y-92200000D02*
X62200000Y-92200000D01*
X62962000Y-92520500D02*
X62641500Y-92200000D01*
X62177000Y-92200000D02*
X61850000Y-91873000D01*
X62962000Y-93600000D02*
X62962000Y-92520500D01*
X62200000Y-92200000D02*
X62177000Y-92200000D01*
D39*
X71532000Y-83762000D02*
X67191000Y-83762000D01*
X71532000Y-83762000D02*
X71922000Y-84152000D01*
X79542000Y-67896000D02*
X79796000Y-68150000D01*
X79542000Y-67388000D02*
X79542000Y-67896000D01*
X75732000Y-57228000D02*
X76494000Y-57228000D01*
X80304000Y-68150000D02*
X79796000Y-68150000D01*
X81447000Y-68150000D02*
X80304000Y-68150000D01*
X80304000Y-69442000D02*
X80304000Y-68150000D01*
X81574000Y-68150000D02*
X81447000Y-68150000D01*
X81574000Y-67388000D02*
X81574000Y-68150000D01*
X75605000Y-57355000D02*
X75732000Y-57228000D01*
X75224000Y-57355000D02*
X73827000Y-57355000D01*
X75605000Y-57355000D02*
X75224000Y-57355000D01*
X75224000Y-58291168D02*
X75938832Y-59006000D01*
X75938832Y-59006000D02*
X76494000Y-59006000D01*
X75224000Y-57355000D02*
X75224000Y-58291168D01*
X48808000Y-81106538D02*
X52872000Y-81106538D01*
X51094000Y-78056000D02*
X51602000Y-78564000D01*
X51094000Y-77294000D02*
X51094000Y-78056000D01*
X75224000Y-56466000D02*
X75224000Y-57355000D01*
X76748000Y-56212000D02*
X77764000Y-55196000D01*
X75478000Y-56212000D02*
X76748000Y-56212000D01*
X75224000Y-56466000D02*
X75478000Y-56212000D01*
X65572000Y-69166000D02*
X66334000Y-69166000D01*
X66842000Y-68658000D02*
X66334000Y-69166000D01*
X66842000Y-67388000D02*
X66842000Y-68658000D01*
X65572000Y-67388000D02*
X66842000Y-67388000D01*
X79288000Y-60784000D02*
X80050000Y-61546000D01*
X78018000Y-60784000D02*
X79288000Y-60784000D01*
X67096000Y-66372000D02*
X66842000Y-66626000D01*
X66842000Y-66626000D02*
X66842000Y-67388000D01*
X67096000Y-65610000D02*
X67096000Y-66372000D01*
X81314000Y-69462000D02*
X82590000Y-69462000D01*
X82590000Y-68150000D02*
X82590000Y-69462000D01*
X81447000Y-68150000D02*
X82590000Y-68150000D01*
X84622000Y-72722000D02*
X83882000Y-73462000D01*
X83882000Y-73462000D02*
X81314000Y-73462000D01*
X84622000Y-70436000D02*
X84622000Y-72722000D01*
X83648000Y-69462000D02*
X84622000Y-70436000D01*
X81314000Y-69462000D02*
X83648000Y-69462000D01*
X48808000Y-81106538D02*
X48808000Y-80088000D01*
X83352000Y-66880000D02*
X82590000Y-67642000D01*
X82590000Y-67642000D02*
X82590000Y-68150000D01*
X61508000Y-60276000D02*
X61254000Y-60530000D01*
X61254000Y-60530000D02*
X61254000Y-61292000D01*
X62778000Y-60276000D02*
X61508000Y-60276000D01*
X62778000Y-60276000D02*
X63032000Y-60530000D01*
X63032000Y-60530000D02*
X63032000Y-62054000D01*
X47030000Y-84403462D02*
X47027462Y-84406000D01*
X47030000Y-82628000D02*
X47030000Y-84403462D01*
X47027462Y-84406000D02*
X47030000Y-84406000D01*
X48300000Y-82628000D02*
X47030000Y-82628000D01*
X47030000Y-82628000D02*
X47030000Y-81866000D01*
X47030000Y-84406000D02*
X47030000Y-89742538D01*
X47535462Y-90248000D02*
X47030000Y-89742538D01*
X48921000Y-90248000D02*
X47535462Y-90248000D01*
X54904000Y-82628000D02*
X53382538Y-81106538D01*
X53382538Y-81106538D02*
X52874538Y-81106538D01*
X52874538Y-81106538D02*
X52872000Y-81104000D01*
X52872000Y-81104000D02*
X52872000Y-81106538D01*
X55666000Y-82628000D02*
X54904000Y-82628000D01*
X47789462Y-81106538D02*
X47030000Y-81866000D01*
X48808000Y-81106538D02*
X47789462Y-81106538D01*
X52636000Y-60283168D02*
X53350832Y-60998000D01*
X53652000Y-60998000D02*
X54668000Y-60998000D01*
X53350832Y-60998000D02*
X53652000Y-60998000D01*
X52636000Y-59728000D02*
X52636000Y-60283168D01*
X53727980Y-60998000D02*
X53652000Y-60998000D01*
X53727980Y-62826160D02*
X53727980Y-60998000D01*
X54414000Y-59982000D02*
X54668000Y-60236000D01*
X54668000Y-60236000D02*
X54668000Y-60998000D01*
X54414000Y-59728000D02*
X54414000Y-59982000D01*
X55176000Y-60998000D02*
X55328180Y-61150180D01*
X55328180Y-61150180D02*
X55328180Y-62826160D01*
X54668000Y-60998000D02*
X55176000Y-60998000D01*
X85090000Y-58966000D02*
X84368000Y-58244000D01*
X86950000Y-58966000D02*
X85090000Y-58966000D01*
X85170000Y-58966000D02*
X86950000Y-58966000D01*
X82590000Y-61546000D02*
X85170000Y-58966000D01*
X80050000Y-61546000D02*
X82590000Y-61546000D01*
X85638000Y-87200000D02*
X85638000Y-86438000D01*
X85638000Y-86438000D02*
X87162000Y-84914000D01*
X87374000Y-84914000D02*
X87162000Y-84914000D01*
X77002000Y-72214000D02*
X77002000Y-72722000D01*
X75732000Y-71960000D02*
X76748000Y-71960000D01*
X76748000Y-71960000D02*
X77002000Y-72214000D01*
X83860000Y-80088000D02*
X83860000Y-78818000D01*
X65572000Y-73484000D02*
X66842000Y-73484000D01*
X61762000Y-77294000D02*
X61762000Y-78818000D01*
X66842000Y-75262000D02*
X66842000Y-73484000D01*
X56174000Y-79326000D02*
X56174000Y-78564000D01*
X75732000Y-66372000D02*
X77256000Y-66372000D01*
X78780000Y-77802000D02*
X82844000Y-77802000D01*
X82844000Y-77802000D02*
X83860000Y-78818000D01*
X78780000Y-77802000D02*
X78780000Y-79072000D01*
X89194000Y-84914000D02*
X87374000Y-84914000D01*
X87374000Y-83890000D02*
X87374000Y-84914000D01*
X92750000Y-83136000D02*
X91988000Y-83136000D01*
X92750000Y-83136000D02*
X93004000Y-83390000D01*
X93004000Y-83390000D02*
X93004000Y-84660000D01*
X54650000Y-78564000D02*
X56174000Y-78564000D01*
X53126000Y-78564000D02*
X54650000Y-78564000D01*
X52872000Y-78310000D02*
X53126000Y-78564000D01*
X52872000Y-77294000D02*
X52872000Y-78310000D01*
X54650000Y-77294000D02*
X54650000Y-78564000D01*
X56428000Y-78310000D02*
X56174000Y-78564000D01*
X56428000Y-77294000D02*
X56428000Y-78310000D01*
X66842000Y-73484000D02*
X67858000Y-73484000D01*
X71414000Y-75516000D02*
X70652000Y-75516000D01*
X78780000Y-77802000D02*
X73700000Y-77802000D01*
X75732000Y-73992000D02*
X77002000Y-72722000D01*
X65572000Y-73484000D02*
X65064000Y-73484000D01*
X64810000Y-70944000D02*
X65064000Y-70690000D01*
X64810000Y-73230000D02*
X64810000Y-70944000D01*
X64810000Y-73230000D02*
X65064000Y-73484000D01*
X69890000Y-73992000D02*
X66588000Y-70690000D01*
X66588000Y-70690000D02*
X65064000Y-70690000D01*
X75732000Y-73992000D02*
X69890000Y-73992000D01*
X103164000Y-85168000D02*
X103418000Y-85422000D01*
X103418000Y-85422000D02*
X103418000Y-86692000D01*
X103418000Y-86692000D02*
X103164000Y-86946000D01*
X103164000Y-86946000D02*
X102402000Y-86946000D01*
X102402000Y-85168000D02*
X103164000Y-85168000D01*
X79796000Y-81612000D02*
X79796000Y-84914000D01*
X67858000Y-73484000D02*
X69890000Y-75516000D01*
X69890000Y-75516000D02*
X70652000Y-75516000D01*
X73700000Y-77802000D02*
X71414000Y-75516000D01*
X79434640Y-85275360D02*
X78441000Y-85275360D01*
X79796000Y-84914000D02*
X79434640Y-85275360D01*
X54523000Y-74119000D02*
X54650000Y-74246000D01*
X54650000Y-74246000D02*
X54650000Y-75770000D01*
X54523000Y-72391800D02*
X54523000Y-74119000D01*
X75732000Y-54942000D02*
X75478000Y-54688000D01*
X75478000Y-54688000D02*
X73768000Y-54688000D01*
X75732000Y-55450000D02*
X75732000Y-54942000D01*
X70271000Y-58625000D02*
X71414000Y-57482000D01*
X71414000Y-57482000D02*
X71414000Y-55450000D01*
X71414000Y-55450000D02*
X72176000Y-54688000D01*
X72176000Y-54688000D02*
X73768000Y-54688000D01*
X68493000Y-58625000D02*
X70271000Y-58625000D01*
X77756832Y-65062000D02*
X72161614Y-65062000D01*
X65572000Y-64586386D02*
X66080000Y-64078386D01*
X66080000Y-64078386D02*
X71178000Y-64078386D01*
X65572000Y-65610000D02*
X65572000Y-64586386D01*
X84328000Y-64300000D02*
X85130000Y-65102000D01*
X78518832Y-64300000D02*
X77756832Y-65062000D01*
X84328000Y-64300000D02*
X78518832Y-64300000D01*
X85130000Y-75458000D02*
X85656000Y-75984000D01*
X85656000Y-75984000D02*
X95054000Y-75984000D01*
X95054000Y-75984000D02*
X106072000Y-64966000D01*
X106072000Y-64966000D02*
X111950000Y-64966000D01*
X85130000Y-65102000D02*
X85130000Y-75458000D01*
X72161614Y-65062000D02*
X71178000Y-64078386D01*
X67604000Y-55450000D02*
X67604000Y-56212000D01*
X67477000Y-57355000D02*
X67350000Y-57228000D01*
X67350000Y-57228000D02*
X67350000Y-56466000D01*
X67350000Y-56466000D02*
X67604000Y-56212000D01*
X68493000Y-57355000D02*
X67477000Y-57355000D01*
X67858000Y-54688000D02*
X67604000Y-54942000D01*
X67604000Y-54942000D02*
X67604000Y-55450000D01*
X69568000Y-54688000D02*
X67858000Y-54688000D01*
X67604000Y-60022000D02*
X67731000Y-59895000D01*
X67731000Y-59895000D02*
X68493000Y-59895000D01*
X66588000Y-60022000D02*
X67604000Y-60022000D01*
X66588000Y-60022000D02*
X66588000Y-58498000D01*
X90098240Y-88073760D02*
X90464000Y-87708000D01*
X90098240Y-88790040D02*
X90098240Y-88073760D01*
X91480000Y-87708000D02*
X91734000Y-87962000D01*
X91734000Y-87962000D02*
X91734000Y-88682000D01*
X90972000Y-87708000D02*
X91480000Y-87708000D01*
X90464000Y-87708000D02*
X90972000Y-87708000D01*
X90972000Y-86692000D02*
X90972000Y-87708000D01*
X59730000Y-69618120D02*
X61198120Y-69618120D01*
X61198120Y-69618120D02*
X61762000Y-70182000D01*
X66842000Y-70182000D02*
X61762000Y-70182000D01*
X67858000Y-69166000D02*
X66842000Y-70182000D01*
X68366000Y-68658000D02*
X67858000Y-69166000D01*
X68366000Y-67388000D02*
X68366000Y-68658000D01*
X47284000Y-60530000D02*
X47284000Y-61800000D01*
X45506000Y-60530000D02*
X45506000Y-61800000D01*
X75732000Y-68404000D02*
X77256000Y-68404000D01*
D40*
X74970000Y-86692000D02*
X74970000Y-81358000D01*
X74970000Y-86692000D02*
X73319000Y-88343000D01*
X69112000Y-88740000D02*
X69112000Y-92324000D01*
X69509000Y-88343000D02*
X69112000Y-88740000D01*
X73319000Y-88343000D02*
X69509000Y-88343000D01*
D39*
X89194000Y-83390000D02*
X89956000Y-84152000D01*
X88474000Y-83390000D02*
X89194000Y-83390000D01*
X89956000Y-84152000D02*
X90972000Y-84152000D01*
X84622000Y-88978000D02*
X83860000Y-88978000D01*
X89448000Y-93804000D02*
X93004000Y-93804000D01*
X93512000Y-93296000D02*
X93004000Y-93804000D01*
X93512000Y-88216000D02*
X93512000Y-93296000D01*
X83590000Y-92324000D02*
X83590000Y-89248000D01*
X83590000Y-89248000D02*
X83860000Y-88978000D01*
X89448000Y-93804000D02*
X84622000Y-88978000D01*
X90972000Y-85168000D02*
X90972000Y-84152000D01*
X91988000Y-86692000D02*
X93512000Y-88216000D01*
X91988000Y-86184000D02*
X91988000Y-86692000D01*
X90972000Y-84152000D02*
X91734000Y-84152000D01*
X91734000Y-84152000D02*
X91988000Y-84406000D01*
X91988000Y-84406000D02*
X91988000Y-86184000D01*
X93258000Y-86184000D02*
X91988000Y-86184000D01*
X81320000Y-87962000D02*
X81590000Y-88232000D01*
X81590000Y-88232000D02*
X81590000Y-91562000D01*
X81320000Y-87200000D02*
X81320000Y-87962000D01*
X88130832Y-91772000D02*
X89194000Y-91772000D01*
X89448000Y-90689960D02*
X89448000Y-91518000D01*
X89194000Y-91772000D02*
X89448000Y-91518000D01*
X84590832Y-88232000D02*
X88130832Y-91772000D01*
X81590000Y-88232000D02*
X84590832Y-88232000D01*
X99862000Y-86946000D02*
X100878000Y-86946000D01*
X99862000Y-88216000D02*
X100640000Y-88994000D01*
X100640000Y-88994000D02*
X100640000Y-92324000D01*
X99862000Y-86946000D02*
X99862000Y-88216000D01*
X96560000Y-85676000D02*
X96557462Y-85676000D01*
X89958538Y-79582538D02*
X89956000Y-79580000D01*
X91689370Y-79582538D02*
X89958538Y-79582538D01*
X96303462Y-84196630D02*
X91689370Y-79582538D01*
X96303462Y-85422000D02*
X96303462Y-84196630D01*
X96557462Y-85676000D02*
X96303462Y-85422000D01*
X99862000Y-86946000D02*
X97830000Y-86946000D01*
X96560000Y-85676000D02*
X97830000Y-86946000D01*
X89956000Y-79580000D02*
X85638000Y-79580000D01*
X73906832Y-77294000D02*
X83352000Y-77294000D01*
X83352000Y-77294000D02*
X85638000Y-79580000D01*
X66794832Y-71706000D02*
X69588832Y-74500000D01*
X65572000Y-71706000D02*
X66794832Y-71706000D01*
X71112832Y-74500000D02*
X69588832Y-74500000D01*
X73906832Y-77294000D02*
X71112832Y-74500000D01*
D40*
X65000000Y-90600000D02*
X62950000Y-90600000D01*
X65800000Y-89800000D02*
X65000000Y-90600000D01*
X65800000Y-88750000D02*
X65800000Y-89800000D01*
X66080000Y-88470000D02*
X65800000Y-88750000D01*
X66756732Y-88470000D02*
X66080000Y-88470000D01*
X67112000Y-88825268D02*
X66756732Y-88470000D01*
X67112000Y-92324000D02*
X67112000Y-88825268D01*
D39*
X72684000Y-66626000D02*
X74208000Y-66626000D01*
X73192000Y-68404000D02*
X72684000Y-67896000D01*
X72684000Y-67896000D02*
X72684000Y-66626000D01*
X74208000Y-68404000D02*
X73192000Y-68404000D01*
X87374000Y-82416000D02*
X87670000Y-82120000D01*
X87670000Y-82120000D02*
X87670000Y-81358000D01*
X87374000Y-82890000D02*
X87374000Y-82416000D01*
X88432000Y-88216000D02*
X88432000Y-87200000D01*
X88797760Y-88581760D02*
X88432000Y-88216000D01*
X88797760Y-88790040D02*
X88797760Y-88581760D01*
X61850000Y-90100000D02*
X61850000Y-89550000D01*
X61850000Y-89550000D02*
X62000000Y-89400000D01*
X62000000Y-89400000D02*
X64400000Y-89400000D01*
X64556000Y-89244000D02*
X64556000Y-88216000D01*
X64400000Y-89400000D02*
X64556000Y-89244000D01*
X73448538Y-86181462D02*
X72430000Y-87200000D01*
X72430000Y-87200000D02*
X67096000Y-87200000D01*
X76491462Y-80894630D02*
X76491462Y-82879462D01*
X75560370Y-79963538D02*
X76491462Y-80894630D01*
X74078462Y-79963538D02*
X75560370Y-79963538D01*
X73448538Y-80593462D02*
X74078462Y-79963538D01*
X63026924Y-86178924D02*
X63286000Y-86438000D01*
X66334000Y-86438000D02*
X67096000Y-87200000D01*
X63286000Y-86438000D02*
X66334000Y-86438000D01*
X59984000Y-77294000D02*
X59984000Y-78310000D01*
X59984000Y-78310000D02*
X63026924Y-81352924D01*
X63026924Y-81352924D02*
X63026924Y-86178924D01*
X73448538Y-80593462D02*
X73448538Y-86181462D01*
X76936640Y-83324640D02*
X76491462Y-82879462D01*
X78441000Y-83324640D02*
X77375360Y-83324640D01*
X77375360Y-83324640D02*
X76936640Y-83324640D01*
X77552000Y-83974880D02*
X78441000Y-83974880D01*
X77375360Y-83798240D02*
X77552000Y-83974880D01*
X77375360Y-83324640D02*
X77375360Y-83798240D01*
X82844000Y-87200000D02*
X84114000Y-87200000D01*
X84114000Y-86438000D02*
X84114000Y-87200000D01*
X83606000Y-85930000D02*
X84114000Y-86438000D01*
X83606000Y-85506000D02*
X83606000Y-85930000D01*
X83375360Y-85275360D02*
X83606000Y-85506000D01*
X82759000Y-85275360D02*
X83375360Y-85275360D01*
X87416000Y-80088000D02*
X91480000Y-80088000D01*
X86400000Y-84914000D02*
X85892000Y-85422000D01*
X85892000Y-85422000D02*
X84622000Y-85422000D01*
X95798000Y-84406000D02*
X91480000Y-80088000D01*
X95544000Y-86184000D02*
X95798000Y-85930000D01*
X95798000Y-85930000D02*
X95798000Y-84406000D01*
X94782000Y-86184000D02*
X95544000Y-86184000D01*
X84368000Y-85422000D02*
X84622000Y-85422000D01*
X86400000Y-81104000D02*
X87416000Y-80088000D01*
X86400000Y-84914000D02*
X86400000Y-81104000D01*
X84472000Y-85422000D02*
X84622000Y-85422000D01*
X83675120Y-84625120D02*
X84472000Y-85422000D01*
X82759000Y-84625120D02*
X83675120Y-84625120D01*
X83860000Y-83898000D02*
X84622000Y-83898000D01*
X81751120Y-83974880D02*
X82759000Y-83974880D01*
X81066000Y-84660000D02*
X81751120Y-83974880D01*
X80812000Y-84911462D02*
X81063462Y-84660000D01*
X80812000Y-85422000D02*
X80812000Y-84911462D01*
X77256000Y-86692000D02*
X79542000Y-86692000D01*
X75986000Y-85422000D02*
X77256000Y-86692000D01*
X75986000Y-81104000D02*
X75986000Y-85422000D01*
X75351000Y-80469000D02*
X75986000Y-81104000D01*
X73954000Y-80850000D02*
X74335000Y-80469000D01*
X73954000Y-86390832D02*
X73954000Y-80850000D01*
X66889168Y-87708000D02*
X72636832Y-87708000D01*
X66124630Y-86943462D02*
X66889168Y-87708000D01*
X81063462Y-84660000D02*
X81066000Y-84660000D01*
X58206000Y-78310000D02*
X58460000Y-78564000D01*
X62982294Y-86943462D02*
X66124630Y-86943462D01*
X62521462Y-86482630D02*
X62982294Y-86943462D01*
X74335000Y-80469000D02*
X75351000Y-80469000D01*
X58460000Y-78564000D02*
X59523168Y-78564000D01*
X59523168Y-78564000D02*
X62521462Y-81562294D01*
X79542000Y-86692000D02*
X80812000Y-85422000D01*
X62521462Y-81562294D02*
X62521462Y-86482630D01*
X72636832Y-87708000D02*
X73954000Y-86390832D01*
X58206000Y-77294000D02*
X58206000Y-78310000D01*
X83783120Y-83974880D02*
X83860000Y-83898000D01*
X82759000Y-83974880D02*
X83783120Y-83974880D01*
M02*
