M48
; DRILL file {KiCad (5.1.5-0-10_14)} date Friday, 22 May 2020 at 05:31:41 pm
; FORMAT={-:-/ absolute / metric / decimal}
; #@! TF.CreationDate,2020-05-22T17:31:41+12:00
; #@! TF.GenerationSoftware,Kicad,Pcbnew,(5.1.5-0-10_14)
; #@! TF.FileFunction,Plated,1,2,PTH
FMAT,2
METRIC
T1C0.500
T2C0.813
%
G90
G05
T1
X45.76Y-66.372
X45.76Y-81.866
X46.776Y-68.912
X46.776Y-70.182
X48.3Y-68.15
X48.808Y-80.088
X49.824Y-62.562
X50.84Y-73.23
X51.094Y-82.628
X51.602Y-78.564
X52.364Y-82.628
X53.38Y-74.246
X53.634Y-82.628
X54.668Y-60.998
X55.666Y-74.246
X56.174Y-79.326
X56.192Y-60.236
X61.762Y-78.818
X62.2Y-92.2
X62.27Y-68.15
X62.778Y-66.88
X63.032Y-62.054
X64.556Y-60.022
X65.826Y-54.434
X66.588Y-58.498
X66.842Y-75.262
X67.096Y-65.61
X67.858Y-69.166
X70.652Y-75.516
X71.668Y-86.184
X71.922Y-79.834
X71.922Y-82.882
X71.922Y-84.152
X72.43Y-77.802
X72.684Y-66.626
X72.684Y-71.706
X73.446Y-78.818
X74.97Y-81.358
X75.224Y-62.816
X76.494Y-62.562
X77.002Y-72.722
X77.256Y-66.372
X77.256Y-68.404
X77.256Y-70.182
X77.764Y-55.196
X78.018Y-76.278
X78.78Y-79.072
X79.288Y-75.008
X79.796Y-81.612
X80.05Y-61.546
X80.304Y-57.99
X81.32Y-81.612
X81.828Y-75.008
X82.336Y-76.278
X83.352Y-66.88
X83.606Y-70.944
X84.368Y-58.244
X85.13Y-82.628
X87.416Y-89.486
X89.194Y-84.914
X89.702Y-92.788
X93.004Y-84.66
X97.83Y-84.66
X102.402Y-85.168
X103.926Y-88.216
T2
X70.652Y-66.626
X70.652Y-69.166
X70.652Y-71.706
T0
M30
