G04 #@! TF.GenerationSoftware,KiCad,Pcbnew,(5.1.5-0-10_14)*
G04 #@! TF.CreationDate,2020-05-22T17:31:33+12:00*
G04 #@! TF.ProjectId,main-board,6d61696e-2d62-46f6-9172-642e6b696361,C*
G04 #@! TF.SameCoordinates,Original*
G04 #@! TF.FileFunction,Copper,L2,Bot*
G04 #@! TF.FilePolarity,Positive*
%FSLAX46Y46*%
G04 Gerber Fmt 4.6, Leading zero omitted, Abs format (unit mm)*
G04 Created by KiCad (PCBNEW (5.1.5-0-10_14)) date 2020-05-22 17:31:33*
%MOMM*%
%LPD*%
G04 APERTURE LIST*
%ADD10C,0.200000*%
%ADD11C,0.100000*%
%ADD12R,3.000000X0.900000*%
%ADD13R,0.900000X3.000000*%
%ADD14C,1.397000*%
%ADD15R,1.397000X1.397000*%
%ADD16R,5.720000X6.350000*%
%ADD17C,7.620000*%
%ADD18C,0.500000*%
%ADD19C,0.900000*%
%ADD20C,1.000000*%
%ADD21C,0.254000*%
%ADD22C,0.508000*%
G04 APERTURE END LIST*
D10*
X44000000Y-97300000D02*
X44000000Y-51600000D01*
X114000000Y-97300000D02*
X44000000Y-97300000D01*
X114000000Y-51600000D02*
X114000000Y-97300000D01*
X44000000Y-51600000D02*
X114000000Y-51600000D01*
D11*
G36*
X73000000Y-75250000D02*
G01*
X72000000Y-75250000D01*
X72000000Y-75750000D01*
X73000000Y-75750000D01*
X73000000Y-75250000D01*
G37*
D12*
X47290000Y-76950000D03*
X50290000Y-74950000D03*
X47290000Y-72950000D03*
X50290000Y-70950000D03*
D13*
X104500000Y-57890000D03*
X102500000Y-54890000D03*
X100500000Y-57890000D03*
X98500000Y-54890000D03*
X110500000Y-94010000D03*
X108500000Y-91010000D03*
X106500000Y-94010000D03*
X104500000Y-91010000D03*
D14*
X70652000Y-71706000D03*
X70652000Y-69166000D03*
D15*
X70652000Y-66626000D03*
D16*
X109954000Y-75008000D03*
X86214000Y-75008000D03*
D17*
X98084000Y-75008000D03*
D18*
X72000000Y-75500000D03*
X73000000Y-75500000D03*
D19*
X71668000Y-86184000D03*
X46776000Y-70182000D03*
X51094000Y-82628000D03*
X46776000Y-68912000D03*
X45760000Y-81866000D03*
X71922000Y-79834000D03*
X53634000Y-82628000D03*
X50840000Y-73230000D03*
X71922000Y-82882000D03*
X72684000Y-71706000D03*
X48300000Y-68150000D03*
X45760000Y-66372000D03*
X81320000Y-81612000D03*
X75224000Y-62816000D03*
X79288000Y-75008000D03*
X62778000Y-66880000D03*
X76494000Y-62562000D03*
X62270000Y-68150000D03*
X81828000Y-75008000D03*
X103926000Y-88216000D03*
X87416000Y-89486000D03*
X53380000Y-74246000D03*
X73446000Y-78818000D03*
X89702000Y-92788000D03*
X85130000Y-82628000D03*
X77256000Y-70182000D03*
X80304000Y-57990000D03*
X64556000Y-60022000D03*
X97830000Y-84660000D03*
X65826000Y-54434000D03*
X55666000Y-74246000D03*
X83606000Y-70944000D03*
X82336000Y-76278000D03*
X78018000Y-76278000D03*
X49824000Y-62562000D03*
X52364000Y-82628000D03*
X72430000Y-77802000D03*
X56192000Y-60236000D03*
X62200000Y-92200000D03*
X71922000Y-84152000D03*
X51602000Y-78564000D03*
D20*
X84368000Y-58244000D03*
D19*
X77764000Y-55196000D03*
X80050000Y-61546000D03*
X67096000Y-65610000D03*
X48808000Y-80088000D03*
X83352000Y-66880000D03*
X63032000Y-62054000D03*
X54668000Y-60998000D03*
X61762000Y-78818000D03*
X66842000Y-75262000D03*
X56174000Y-79326000D03*
X79796000Y-81612000D03*
X77256000Y-66372000D03*
X77002000Y-72722000D03*
X78780000Y-79072000D03*
X89194000Y-84914000D03*
X93004000Y-84660000D03*
X102402000Y-85168000D03*
X70652000Y-75516000D03*
X66588000Y-58498000D03*
X67858000Y-69166000D03*
X77256000Y-68404000D03*
X74970000Y-81358000D03*
X72684000Y-66626000D03*
D21*
X70652000Y-86184000D02*
X69128000Y-84660000D01*
X71668000Y-86184000D02*
X70652000Y-86184000D01*
X51094000Y-84660000D02*
X50078000Y-84660000D01*
X45249462Y-77802000D02*
X45252000Y-77802000D01*
X45252000Y-77802000D02*
X45252000Y-71960000D01*
X45760000Y-80342000D02*
X45757462Y-80342000D01*
X45757462Y-80342000D02*
X45249462Y-79834000D01*
X45249462Y-79834000D02*
X45249462Y-77802000D01*
X50078000Y-84660000D02*
X45760000Y-80342000D01*
X46268000Y-70182000D02*
X45249462Y-71200538D01*
X45249462Y-71200538D02*
X45249462Y-71960000D01*
X45249462Y-71960000D02*
X45252000Y-71960000D01*
X46776000Y-70182000D02*
X46268000Y-70182000D01*
X69128000Y-84660000D02*
X51094000Y-84660000D01*
X51094000Y-84660000D02*
X51094000Y-82628000D01*
X78780000Y-70645370D02*
X77719370Y-71706000D01*
X75988538Y-81863462D02*
X75478000Y-82374000D01*
X75478000Y-82374000D02*
X74462000Y-82374000D01*
X75988538Y-78307462D02*
X75988538Y-81863462D01*
X76748000Y-71706000D02*
X77719370Y-71706000D01*
X75986000Y-72468000D02*
X76748000Y-71706000D01*
X75986000Y-78304924D02*
X75988538Y-78307462D01*
X75986000Y-72468000D02*
X75986000Y-78304924D01*
X71922000Y-79834000D02*
X74462000Y-82374000D01*
X78780000Y-68658000D02*
X78780000Y-70645370D01*
X65704436Y-67896000D02*
X63672436Y-69928000D01*
X48046000Y-69420000D02*
X54904000Y-69420000D01*
X47538000Y-68912000D02*
X48046000Y-69420000D01*
X47538000Y-68912000D02*
X46776000Y-68912000D01*
X54904000Y-69420000D02*
X55412000Y-69928000D01*
X77613416Y-67491416D02*
X78780000Y-68658000D01*
X74612584Y-67491416D02*
X77613416Y-67491416D01*
X65704436Y-67896000D02*
X74208000Y-67896000D01*
X74612584Y-67491416D02*
X74208000Y-67896000D01*
X63672436Y-69928000D02*
X55412000Y-69928000D01*
X45760000Y-81866000D02*
X44744000Y-80850000D01*
X44744000Y-70944000D02*
X46776000Y-68912000D01*
X44744000Y-70944000D02*
X44744000Y-80850000D01*
X50840000Y-73230000D02*
X50205000Y-73230000D01*
X49570000Y-77802000D02*
X47792000Y-79580000D01*
X49570000Y-76405000D02*
X49570000Y-77802000D01*
X49189000Y-76024000D02*
X49570000Y-76405000D01*
X50205000Y-73230000D02*
X49506500Y-73928500D01*
X47792000Y-80342000D02*
X48554000Y-81104000D01*
X47792000Y-79580000D02*
X47792000Y-80342000D01*
X49824000Y-81104000D02*
X50078000Y-80850000D01*
X50078000Y-80850000D02*
X51856000Y-80850000D01*
X48554000Y-81104000D02*
X49824000Y-81104000D01*
X48363500Y-73928500D02*
X48046000Y-74246000D01*
X48046000Y-74246000D02*
X48046000Y-75770000D01*
X48046000Y-75770000D02*
X48300000Y-76024000D01*
X48300000Y-76024000D02*
X49189000Y-76024000D01*
X49506500Y-73928500D02*
X48363500Y-73928500D01*
X53634000Y-82628000D02*
X51856000Y-80850000D01*
X53634000Y-82628000D02*
X54142000Y-83136000D01*
X54142000Y-83136000D02*
X71668000Y-83136000D01*
X71668000Y-83136000D02*
X71922000Y-82882000D01*
X72684000Y-71706000D02*
X70652000Y-71706000D01*
X47538000Y-68150000D02*
X45760000Y-66372000D01*
X48300000Y-68150000D02*
X47538000Y-68150000D01*
X81320000Y-81612000D02*
X85685168Y-81612000D01*
X85685168Y-81612000D02*
X87820584Y-83747416D01*
X106974000Y-86184000D02*
X108500000Y-87710000D01*
X89194000Y-86184000D02*
X106974000Y-86184000D01*
X87820584Y-84810584D02*
X89194000Y-86184000D01*
X87820584Y-83747416D02*
X87820584Y-84810584D01*
X108500000Y-91010000D02*
X108500000Y-87710000D01*
X99184000Y-56890000D02*
X92496000Y-63578000D01*
X100500000Y-56890000D02*
X99184000Y-56890000D01*
X75859000Y-63451000D02*
X77430168Y-63451000D01*
X77430168Y-63451000D02*
X80550386Y-66571218D01*
X80550386Y-66571218D02*
X80550386Y-75008000D01*
X75224000Y-62816000D02*
X75859000Y-63451000D01*
X80550386Y-75008000D02*
X80550386Y-78255218D01*
X80550386Y-75008000D02*
X79288000Y-75008000D01*
X71952126Y-64723538D02*
X73859664Y-62816000D01*
X63918462Y-64723538D02*
X71952126Y-64723538D01*
X62778000Y-65864000D02*
X63918462Y-64723538D01*
X75224000Y-62816000D02*
X73859664Y-62816000D01*
X62778000Y-66880000D02*
X62778000Y-65864000D01*
X92448832Y-63578000D02*
X90207462Y-65819370D01*
X90207462Y-65819370D02*
X90207462Y-78566538D01*
X90207462Y-78566538D02*
X89448000Y-79326000D01*
X89448000Y-79326000D02*
X81621168Y-79326000D01*
X81621168Y-79326000D02*
X80550386Y-78255218D01*
X92496000Y-63578000D02*
X92448832Y-63578000D01*
X62013462Y-68150000D02*
X61762000Y-67898538D01*
X62270000Y-68150000D02*
X62013462Y-68150000D01*
X75732000Y-61800000D02*
X74160832Y-61800000D01*
X76494000Y-62562000D02*
X75732000Y-61800000D01*
X98500000Y-56812000D02*
X98500000Y-53890000D01*
X63667000Y-64213000D02*
X61762000Y-66118000D01*
X61762000Y-66118000D02*
X61762000Y-67898538D01*
X76494000Y-62562000D02*
X77256000Y-62562000D01*
X77256000Y-62562000D02*
X81066000Y-66372000D01*
X81066000Y-66372000D02*
X81066000Y-75008000D01*
X81828000Y-75008000D02*
X81066000Y-75008000D01*
X81066000Y-78056000D02*
X81828000Y-78818000D01*
X81066000Y-75008000D02*
X81066000Y-78056000D01*
X71154924Y-64213000D02*
X71160000Y-64218076D01*
X71160000Y-64218076D02*
X71742756Y-64218076D01*
X71742756Y-64218076D02*
X74160832Y-61800000D01*
X63667000Y-64213000D02*
X71154924Y-64213000D01*
X89194000Y-78818000D02*
X89702000Y-78310000D01*
X89702000Y-78310000D02*
X89702000Y-65610000D01*
X89702000Y-65610000D02*
X98500000Y-56812000D01*
X81828000Y-78818000D02*
X89194000Y-78818000D01*
X54396000Y-73230000D02*
X67096000Y-73230000D01*
X54396000Y-73230000D02*
X53380000Y-74246000D01*
X73954000Y-78310000D02*
X73446000Y-78818000D01*
X73954000Y-77802000D02*
X73954000Y-78310000D01*
X67096000Y-73230000D02*
X70652000Y-76786000D01*
X72938000Y-76786000D02*
X73954000Y-77802000D01*
X70652000Y-76786000D02*
X72938000Y-76786000D01*
X89956000Y-86692000D02*
X102402000Y-86692000D01*
X102402000Y-86692000D02*
X103926000Y-88216000D01*
X88940000Y-86692000D02*
X89956000Y-86692000D01*
X87315122Y-85067122D02*
X88940000Y-86692000D01*
X87315122Y-84051122D02*
X87315122Y-85067122D01*
X85892000Y-82628000D02*
X87315122Y-84051122D01*
X85130000Y-82628000D02*
X85892000Y-82628000D01*
X88432000Y-89486000D02*
X89956000Y-87962000D01*
X89956000Y-87962000D02*
X89956000Y-86692000D01*
X87416000Y-89486000D02*
X88432000Y-89486000D01*
X88432000Y-91518000D02*
X89702000Y-92788000D01*
X88432000Y-89486000D02*
X88432000Y-91518000D01*
X54904000Y-70950000D02*
X50290000Y-70950000D01*
X54904000Y-70944000D02*
X55412000Y-70436000D01*
X55412000Y-70436000D02*
X73954000Y-70436000D01*
X54904000Y-70950000D02*
X54904000Y-70944000D01*
X74208000Y-70182000D02*
X73954000Y-70436000D01*
X77256000Y-70182000D02*
X74208000Y-70182000D01*
X63800000Y-59266000D02*
X64556000Y-60022000D01*
D22*
X51472462Y-81482462D02*
X50461538Y-81482462D01*
X50461538Y-81482462D02*
X50078000Y-81866000D01*
X50078000Y-81866000D02*
X48421564Y-81866000D01*
X48421564Y-81866000D02*
X47030000Y-80474436D01*
X47030000Y-80474436D02*
X47030000Y-78564000D01*
X47030000Y-78564000D02*
X47290000Y-78304000D01*
X47290000Y-78304000D02*
X47290000Y-76950000D01*
D21*
X63791462Y-56460000D02*
X63800000Y-56460000D01*
X63791462Y-55659370D02*
X63791462Y-56460000D01*
X65016832Y-54434000D02*
X63791462Y-55659370D01*
X63800000Y-56460000D02*
X63800000Y-59266000D01*
X65826000Y-54434000D02*
X65016832Y-54434000D01*
X81668336Y-80088000D02*
X85590832Y-80088000D01*
X79636336Y-78056000D02*
X81668336Y-80088000D01*
X85590832Y-80088000D02*
X89146832Y-83644000D01*
X79796000Y-60022000D02*
X84876000Y-65102000D01*
X80304000Y-59514000D02*
X79796000Y-60022000D01*
X80304000Y-57990000D02*
X80304000Y-59514000D01*
X82844000Y-75770000D02*
X82844000Y-71706000D01*
X82336000Y-76278000D02*
X82844000Y-75770000D01*
X78018000Y-76278000D02*
X78018000Y-76786000D01*
X78018000Y-76786000D02*
X79288000Y-78056000D01*
X79288000Y-78056000D02*
X79636336Y-78056000D01*
X77510000Y-76786000D02*
X77507462Y-76786000D01*
X77507462Y-76786000D02*
X77256000Y-77037462D01*
X78018000Y-76278000D02*
X77510000Y-76786000D01*
X55666000Y-74243462D02*
X56171462Y-73738000D01*
X55666000Y-74246000D02*
X55666000Y-74243462D01*
X64556000Y-60022000D02*
X79796000Y-60022000D01*
X83606000Y-70944000D02*
X82844000Y-71706000D01*
X84876000Y-69674000D02*
X84876000Y-65102000D01*
X83606000Y-70944000D02*
X84876000Y-69674000D01*
X89146832Y-83644000D02*
X96814000Y-83644000D01*
D22*
X71160000Y-90756000D02*
X61762000Y-90756000D01*
D21*
X96814000Y-83644000D02*
X97830000Y-84660000D01*
X98084000Y-84406000D02*
X97830000Y-84660000D01*
X98084000Y-74373000D02*
X98084000Y-84406000D01*
D22*
X52364000Y-82374000D02*
X51472462Y-81482462D01*
X52364000Y-82628000D02*
X52364000Y-82374000D01*
X52872000Y-83898000D02*
X52364000Y-83390000D01*
X52364000Y-83390000D02*
X52364000Y-82628000D01*
X69382000Y-83898000D02*
X52872000Y-83898000D01*
X72811000Y-85803000D02*
X72176000Y-85168000D01*
X72176000Y-85168000D02*
X70652000Y-85168000D01*
X70652000Y-85168000D02*
X69382000Y-83898000D01*
X72811000Y-86184000D02*
X72811000Y-85803000D01*
D21*
X77256000Y-77037462D02*
X77256000Y-84152000D01*
X77256000Y-84152000D02*
X75224000Y-86184000D01*
X75224000Y-86184000D02*
X72811000Y-86184000D01*
D22*
X72811000Y-89105000D02*
X71160000Y-90756000D01*
X72811000Y-86184000D02*
X72811000Y-89105000D01*
D21*
X72430000Y-77802000D02*
X71691584Y-78540416D01*
X56406000Y-60022000D02*
X56192000Y-60236000D01*
X64556000Y-60022000D02*
X56406000Y-60022000D01*
X66889168Y-73738000D02*
X71691584Y-78540416D01*
X56171462Y-73738000D02*
X66889168Y-73738000D01*
X72303000Y-78945000D02*
X72096168Y-78945000D01*
X72096168Y-78945000D02*
X71691584Y-78540416D01*
X73192000Y-79834000D02*
X72303000Y-78945000D01*
X73192000Y-79834000D02*
X73700000Y-79834000D01*
X73700000Y-79834000D02*
X74464538Y-79069462D01*
X74464538Y-78818000D02*
X74464538Y-76786000D01*
X74462000Y-76278000D02*
X74462000Y-76786000D01*
X74462000Y-76786000D02*
X74464538Y-76786000D01*
X74464538Y-79069462D02*
X74464538Y-78820538D01*
X74464538Y-78820538D02*
X74462000Y-78818000D01*
X74462000Y-78818000D02*
X74464538Y-78818000D01*
X73000000Y-75500000D02*
X73684000Y-75500000D01*
X73684000Y-75500000D02*
X74462000Y-76278000D01*
D22*
X53200000Y-75700000D02*
X53200000Y-78600000D01*
X53200000Y-78600000D02*
X53200000Y-79396000D01*
X53200000Y-79396000D02*
X53636000Y-79832000D01*
X53200000Y-78564000D02*
X53200000Y-78600000D01*
X51602000Y-78564000D02*
X53200000Y-78564000D01*
X53636000Y-79832000D02*
X53636000Y-79836000D01*
X73446000Y-84152000D02*
X71922000Y-84152000D01*
X73446000Y-82628000D02*
X73446000Y-84152000D01*
X70906000Y-81866000D02*
X72684000Y-81866000D01*
X72684000Y-81866000D02*
X73446000Y-82628000D01*
X70268462Y-82503538D02*
X70906000Y-81866000D01*
X53636000Y-79836000D02*
X56303538Y-82503538D01*
X56303538Y-82503538D02*
X70268462Y-82503538D01*
X50290000Y-74950000D02*
X52450000Y-74950000D01*
X52450000Y-74950000D02*
X53200000Y-75700000D01*
X50078000Y-80088000D02*
X51602000Y-78564000D01*
X48808000Y-80088000D02*
X50078000Y-80088000D01*
X76621000Y-83009000D02*
X75478000Y-84152000D01*
X73446000Y-84152000D02*
X75478000Y-84152000D01*
X67350000Y-65356000D02*
X67096000Y-65610000D01*
X76621000Y-74627000D02*
X79917924Y-71330076D01*
X79917924Y-71330076D02*
X79917924Y-67001924D01*
X76621000Y-83009000D02*
X76621000Y-74627000D01*
X79917924Y-67001924D02*
X78272000Y-65356000D01*
X78272000Y-65356000D02*
X67350000Y-65356000D01*
X63032000Y-62054000D02*
X61000000Y-62054000D01*
X61762000Y-69166000D02*
X61000000Y-68404000D01*
X63540000Y-69166000D02*
X61762000Y-69166000D01*
X67096000Y-65610000D02*
X63540000Y-69166000D01*
X61000000Y-68404000D02*
X61000000Y-62054000D01*
X63032000Y-62054000D02*
X65318000Y-62054000D01*
X81320000Y-55196000D02*
X84368000Y-58244000D01*
X77764000Y-55196000D02*
X81320000Y-55196000D01*
X79034000Y-63324000D02*
X82590000Y-66880000D01*
X82590000Y-66880000D02*
X83352000Y-66880000D01*
X76877538Y-61167538D02*
X79034000Y-63324000D01*
X73898858Y-61167538D02*
X76877538Y-61167538D01*
X80050000Y-62054000D02*
X79034000Y-63070000D01*
X79034000Y-63070000D02*
X79034000Y-63324000D01*
X80050000Y-61546000D02*
X80050000Y-62054000D01*
X71578198Y-63488198D02*
X66752198Y-63488198D01*
X66752198Y-63488198D02*
X65318000Y-62054000D01*
X73898858Y-61167538D02*
X71578198Y-63488198D01*
X55724000Y-62054000D02*
X54668000Y-60998000D01*
X61000000Y-62054000D02*
X55724000Y-62054000D01*
D21*
X65318000Y-75262000D02*
X61254000Y-79326000D01*
X66842000Y-75262000D02*
X65318000Y-75262000D01*
X61254000Y-79326000D02*
X61762000Y-78818000D01*
X56174000Y-79326000D02*
X61254000Y-79326000D01*
X80304000Y-80596000D02*
X80812000Y-80596000D01*
X79796000Y-81104000D02*
X80304000Y-80596000D01*
X79796000Y-81612000D02*
X79796000Y-81104000D01*
X77256000Y-66419168D02*
X79285462Y-68448630D01*
X77256000Y-66372000D02*
X77256000Y-66419168D01*
X79285462Y-70854740D02*
X77418202Y-72722000D01*
X77418202Y-72722000D02*
X77002000Y-72722000D01*
X79285462Y-68448630D02*
X79285462Y-70854740D01*
X80628752Y-79763248D02*
X80628752Y-80596000D01*
X80628752Y-80596000D02*
X80812000Y-80596000D01*
X78780000Y-79072000D02*
X79937504Y-79072000D01*
X79937504Y-79072000D02*
X80628752Y-79763248D01*
X85384000Y-80596000D02*
X88432000Y-83644000D01*
X80812000Y-80596000D02*
X85384000Y-80596000D01*
X88432000Y-84152000D02*
X89194000Y-84914000D01*
X88432000Y-83644000D02*
X88432000Y-84152000D01*
X102402000Y-85168000D02*
X101894000Y-85676000D01*
X101894000Y-85676000D02*
X94067168Y-85676000D01*
X93004000Y-85678538D02*
X94067168Y-85678538D01*
X94067168Y-85678538D02*
X94067168Y-85676000D01*
X89956000Y-85678538D02*
X93004000Y-85678538D01*
X89702000Y-85424538D02*
X89956000Y-85678538D01*
X89702000Y-85422000D02*
X89702000Y-85424538D01*
X89194000Y-84914000D02*
X89702000Y-85422000D01*
X93004000Y-84660000D02*
X93004000Y-85678538D01*
X70692000Y-75476000D02*
X70652000Y-75516000D01*
X71984000Y-75516000D02*
X72000000Y-75500000D01*
X70652000Y-75516000D02*
X71984000Y-75516000D01*
X80558000Y-56974000D02*
X86214000Y-62630000D01*
X86214000Y-62630000D02*
X86214000Y-75008000D01*
X68112000Y-56974000D02*
X66588000Y-58498000D01*
X80558000Y-56974000D02*
X68112000Y-56974000D01*
X67858000Y-69166000D02*
X70652000Y-69166000D01*
D22*
X49088000Y-72950000D02*
X49824000Y-72214000D01*
X47290000Y-72950000D02*
X49088000Y-72950000D01*
X69382000Y-73230000D02*
X73954000Y-73230000D01*
X68366000Y-72214000D02*
X69382000Y-73230000D01*
X49824000Y-72214000D02*
X68366000Y-72214000D01*
D21*
X76748000Y-71198000D02*
X74970000Y-71198000D01*
X78018000Y-70692538D02*
X77510000Y-71200538D01*
X77510000Y-71200538D02*
X76748000Y-71200538D01*
X76748000Y-71200538D02*
X76748000Y-71198000D01*
X73954000Y-72214000D02*
X74970000Y-71198000D01*
X73954000Y-73230000D02*
X73954000Y-72214000D01*
X78272000Y-68912000D02*
X78272000Y-70436000D01*
X78272000Y-70436000D02*
X78018000Y-70690000D01*
X78018000Y-70690000D02*
X78018000Y-70692538D01*
X77764000Y-68404000D02*
X78272000Y-68912000D01*
X77256000Y-68404000D02*
X77764000Y-68404000D01*
D22*
X74970000Y-81358000D02*
X74970000Y-80342000D01*
X75224000Y-80088000D02*
X75224000Y-74500000D01*
X74970000Y-80342000D02*
X75224000Y-80088000D01*
X73954000Y-73230000D02*
X75224000Y-74500000D01*
D21*
X70652000Y-66626000D02*
X72684000Y-66626000D01*
G36*
X113519001Y-96819000D02*
G01*
X44481000Y-96819000D01*
X44481000Y-81305420D01*
X44934099Y-81758520D01*
X44929000Y-81784154D01*
X44929000Y-81947846D01*
X44960935Y-82108394D01*
X45023577Y-82259626D01*
X45114520Y-82395732D01*
X45230268Y-82511480D01*
X45366374Y-82602423D01*
X45517606Y-82665065D01*
X45678154Y-82697000D01*
X45841846Y-82697000D01*
X46002394Y-82665065D01*
X46153626Y-82602423D01*
X46289732Y-82511480D01*
X46405480Y-82395732D01*
X46496423Y-82259626D01*
X46559065Y-82108394D01*
X46591000Y-81947846D01*
X46591000Y-81891420D01*
X49701149Y-85001570D01*
X49717052Y-85020948D01*
X49736429Y-85036850D01*
X49794404Y-85084429D01*
X49841015Y-85109343D01*
X49882657Y-85131601D01*
X49978415Y-85160649D01*
X50053053Y-85168000D01*
X50053055Y-85168000D01*
X50077999Y-85170457D01*
X50102943Y-85168000D01*
X51069053Y-85168000D01*
X51094000Y-85170457D01*
X51118947Y-85168000D01*
X68917580Y-85168000D01*
X70275149Y-86525570D01*
X70291052Y-86544948D01*
X70310429Y-86560850D01*
X70368404Y-86608429D01*
X70456655Y-86655600D01*
X70456657Y-86655601D01*
X70552415Y-86684649D01*
X70627053Y-86692000D01*
X70627055Y-86692000D01*
X70651999Y-86694457D01*
X70676943Y-86692000D01*
X71007999Y-86692000D01*
X71022520Y-86713732D01*
X71138268Y-86829480D01*
X71274374Y-86920423D01*
X71425606Y-86983065D01*
X71586154Y-87015000D01*
X71749846Y-87015000D01*
X71910394Y-86983065D01*
X72061626Y-86920423D01*
X72197732Y-86829480D01*
X72313480Y-86713732D01*
X72404423Y-86577626D01*
X72467065Y-86426394D01*
X72499000Y-86265846D01*
X72499000Y-86102154D01*
X72467065Y-85941606D01*
X72404423Y-85790374D01*
X72313480Y-85654268D01*
X72197732Y-85538520D01*
X72061626Y-85447577D01*
X71910394Y-85384935D01*
X71749846Y-85353000D01*
X71586154Y-85353000D01*
X71425606Y-85384935D01*
X71274374Y-85447577D01*
X71138268Y-85538520D01*
X71022520Y-85654268D01*
X71007999Y-85676000D01*
X70862421Y-85676000D01*
X69504855Y-84318435D01*
X69488948Y-84299052D01*
X69411595Y-84235571D01*
X69323343Y-84188399D01*
X69227585Y-84159351D01*
X69152947Y-84152000D01*
X69152944Y-84152000D01*
X69128000Y-84149543D01*
X69103056Y-84152000D01*
X51602000Y-84152000D01*
X51602000Y-83288001D01*
X51623732Y-83273480D01*
X51739480Y-83157732D01*
X51830423Y-83021626D01*
X51893065Y-82870394D01*
X51925000Y-82709846D01*
X51925000Y-82546154D01*
X51893065Y-82385606D01*
X51830423Y-82234374D01*
X51739480Y-82098268D01*
X51623732Y-81982520D01*
X51487626Y-81891577D01*
X51336394Y-81828935D01*
X51175846Y-81797000D01*
X51012154Y-81797000D01*
X50851606Y-81828935D01*
X50700374Y-81891577D01*
X50564268Y-81982520D01*
X50448520Y-82098268D01*
X50357577Y-82234374D01*
X50294935Y-82385606D01*
X50263000Y-82546154D01*
X50263000Y-82709846D01*
X50294935Y-82870394D01*
X50357577Y-83021626D01*
X50448520Y-83157732D01*
X50564268Y-83273480D01*
X50586001Y-83288001D01*
X50586000Y-84152000D01*
X50288421Y-84152000D01*
X46136855Y-80000435D01*
X46120948Y-79981052D01*
X46087418Y-79953535D01*
X45757462Y-79623580D01*
X45757462Y-78034867D01*
X45790000Y-78038072D01*
X47004250Y-78035000D01*
X47163000Y-77876250D01*
X47163000Y-77077000D01*
X47143000Y-77077000D01*
X47143000Y-76823000D01*
X47163000Y-76823000D01*
X47163000Y-76023750D01*
X47004250Y-75865000D01*
X45790000Y-75861928D01*
X45760000Y-75864883D01*
X45760000Y-73779888D01*
X45790000Y-73782843D01*
X47790737Y-73782843D01*
X47704435Y-73869145D01*
X47685052Y-73885052D01*
X47621571Y-73962405D01*
X47574399Y-74050658D01*
X47545351Y-74146416D01*
X47538000Y-74221053D01*
X47535543Y-74246000D01*
X47538000Y-74270945D01*
X47538001Y-75745046D01*
X47535543Y-75770000D01*
X47542593Y-75841570D01*
X47545352Y-75869585D01*
X47551360Y-75889390D01*
X47417000Y-76023750D01*
X47417000Y-76823000D01*
X47437000Y-76823000D01*
X47437000Y-77077000D01*
X47417000Y-77077000D01*
X47417000Y-77876250D01*
X47575750Y-78035000D01*
X48615948Y-78037632D01*
X47450435Y-79203145D01*
X47431052Y-79219052D01*
X47367571Y-79296405D01*
X47320399Y-79384658D01*
X47291351Y-79480416D01*
X47285128Y-79543601D01*
X47281543Y-79580000D01*
X47284000Y-79604945D01*
X47284001Y-80317046D01*
X47281543Y-80342000D01*
X47287321Y-80400657D01*
X47291352Y-80441585D01*
X47320400Y-80537343D01*
X47367571Y-80625595D01*
X47391422Y-80654657D01*
X47431053Y-80702948D01*
X47450430Y-80718850D01*
X48177145Y-81445565D01*
X48193052Y-81464948D01*
X48270405Y-81528429D01*
X48358657Y-81575601D01*
X48454415Y-81604649D01*
X48529053Y-81612000D01*
X48529056Y-81612000D01*
X48554000Y-81614457D01*
X48578944Y-81612000D01*
X49799056Y-81612000D01*
X49824000Y-81614457D01*
X49848944Y-81612000D01*
X49848947Y-81612000D01*
X49923585Y-81604649D01*
X50019343Y-81575601D01*
X50107595Y-81528429D01*
X50184948Y-81464948D01*
X50200855Y-81445565D01*
X50288420Y-81358000D01*
X51645580Y-81358000D01*
X52808099Y-82520519D01*
X52803000Y-82546154D01*
X52803000Y-82709846D01*
X52834935Y-82870394D01*
X52897577Y-83021626D01*
X52988520Y-83157732D01*
X53104268Y-83273480D01*
X53240374Y-83364423D01*
X53391606Y-83427065D01*
X53552154Y-83459000D01*
X53715846Y-83459000D01*
X53741480Y-83453901D01*
X53765149Y-83477570D01*
X53781052Y-83496948D01*
X53800429Y-83512850D01*
X53858404Y-83560429D01*
X53894123Y-83579521D01*
X53946657Y-83607601D01*
X54042415Y-83636649D01*
X54117053Y-83644000D01*
X54117055Y-83644000D01*
X54141999Y-83646457D01*
X54166943Y-83644000D01*
X71261999Y-83644000D01*
X71185577Y-83758374D01*
X71122935Y-83909606D01*
X71091000Y-84070154D01*
X71091000Y-84233846D01*
X71122935Y-84394394D01*
X71185577Y-84545626D01*
X71276520Y-84681732D01*
X71392268Y-84797480D01*
X71528374Y-84888423D01*
X71679606Y-84951065D01*
X71840154Y-84983000D01*
X72003846Y-84983000D01*
X72164394Y-84951065D01*
X72315626Y-84888423D01*
X72451732Y-84797480D01*
X72462212Y-84787000D01*
X73414809Y-84787000D01*
X73446000Y-84790072D01*
X73477192Y-84787000D01*
X75446819Y-84787000D01*
X75478000Y-84790071D01*
X75509181Y-84787000D01*
X75509192Y-84787000D01*
X75602482Y-84777812D01*
X75722180Y-84741502D01*
X75832494Y-84682537D01*
X75929185Y-84603185D01*
X75949074Y-84578950D01*
X77047956Y-83480069D01*
X77072185Y-83460185D01*
X77151537Y-83363494D01*
X77210502Y-83253180D01*
X77246812Y-83133482D01*
X77256000Y-83040192D01*
X77256000Y-83040182D01*
X77259071Y-83009001D01*
X77256000Y-82977820D01*
X77256000Y-74890024D01*
X80042387Y-72103639D01*
X80042387Y-74500000D01*
X79948001Y-74500000D01*
X79933480Y-74478268D01*
X79817732Y-74362520D01*
X79681626Y-74271577D01*
X79530394Y-74208935D01*
X79369846Y-74177000D01*
X79206154Y-74177000D01*
X79045606Y-74208935D01*
X78894374Y-74271577D01*
X78758268Y-74362520D01*
X78642520Y-74478268D01*
X78551577Y-74614374D01*
X78488935Y-74765606D01*
X78457000Y-74926154D01*
X78457000Y-75089846D01*
X78488935Y-75250394D01*
X78551577Y-75401626D01*
X78642520Y-75537732D01*
X78758268Y-75653480D01*
X78894374Y-75744423D01*
X79045606Y-75807065D01*
X79206154Y-75839000D01*
X79369846Y-75839000D01*
X79530394Y-75807065D01*
X79681626Y-75744423D01*
X79817732Y-75653480D01*
X79933480Y-75537732D01*
X79948001Y-75516000D01*
X80042386Y-75516000D01*
X80042387Y-78230264D01*
X80039929Y-78255218D01*
X80046468Y-78321606D01*
X80049738Y-78354803D01*
X80061498Y-78393571D01*
X80078786Y-78450561D01*
X80125957Y-78538813D01*
X80173536Y-78596788D01*
X80189439Y-78616166D01*
X80208816Y-78632068D01*
X80239054Y-78662306D01*
X80221099Y-78647571D01*
X80132847Y-78600399D01*
X80037089Y-78571351D01*
X79962451Y-78564000D01*
X79962448Y-78564000D01*
X79937504Y-78561543D01*
X79912560Y-78564000D01*
X79440001Y-78564000D01*
X79425480Y-78542268D01*
X79309732Y-78426520D01*
X79173626Y-78335577D01*
X79022394Y-78272935D01*
X78861846Y-78241000D01*
X78698154Y-78241000D01*
X78537606Y-78272935D01*
X78386374Y-78335577D01*
X78250268Y-78426520D01*
X78134520Y-78542268D01*
X78043577Y-78678374D01*
X77980935Y-78829606D01*
X77949000Y-78990154D01*
X77949000Y-79153846D01*
X77980935Y-79314394D01*
X78043577Y-79465626D01*
X78134520Y-79601732D01*
X78250268Y-79717480D01*
X78386374Y-79808423D01*
X78537606Y-79871065D01*
X78698154Y-79903000D01*
X78861846Y-79903000D01*
X79022394Y-79871065D01*
X79173626Y-79808423D01*
X79309732Y-79717480D01*
X79425480Y-79601732D01*
X79440001Y-79580000D01*
X79727084Y-79580000D01*
X80120752Y-79973669D01*
X80120752Y-80120730D01*
X80108657Y-80124399D01*
X80108655Y-80124400D01*
X80020404Y-80171571D01*
X79970555Y-80212481D01*
X79943052Y-80235052D01*
X79927149Y-80254430D01*
X79454430Y-80727150D01*
X79435053Y-80743052D01*
X79419151Y-80762429D01*
X79419150Y-80762430D01*
X79371571Y-80820405D01*
X79335941Y-80887065D01*
X79324400Y-80908657D01*
X79317163Y-80932513D01*
X79266268Y-80966520D01*
X79150520Y-81082268D01*
X79059577Y-81218374D01*
X78996935Y-81369606D01*
X78965000Y-81530154D01*
X78965000Y-81693846D01*
X78996935Y-81854394D01*
X79059577Y-82005626D01*
X79150520Y-82141732D01*
X79266268Y-82257480D01*
X79402374Y-82348423D01*
X79553606Y-82411065D01*
X79714154Y-82443000D01*
X79877846Y-82443000D01*
X80038394Y-82411065D01*
X80189626Y-82348423D01*
X80325732Y-82257480D01*
X80441480Y-82141732D01*
X80532423Y-82005626D01*
X80558000Y-81943877D01*
X80583577Y-82005626D01*
X80674520Y-82141732D01*
X80790268Y-82257480D01*
X80926374Y-82348423D01*
X81077606Y-82411065D01*
X81238154Y-82443000D01*
X81401846Y-82443000D01*
X81562394Y-82411065D01*
X81713626Y-82348423D01*
X81849732Y-82257480D01*
X81965480Y-82141732D01*
X81980001Y-82120000D01*
X84469999Y-82120000D01*
X84393577Y-82234374D01*
X84330935Y-82385606D01*
X84299000Y-82546154D01*
X84299000Y-82709846D01*
X84330935Y-82870394D01*
X84393577Y-83021626D01*
X84484520Y-83157732D01*
X84600268Y-83273480D01*
X84736374Y-83364423D01*
X84887606Y-83427065D01*
X85048154Y-83459000D01*
X85211846Y-83459000D01*
X85372394Y-83427065D01*
X85523626Y-83364423D01*
X85659732Y-83273480D01*
X85739396Y-83193816D01*
X86807122Y-84261543D01*
X86807123Y-85042168D01*
X86804665Y-85067122D01*
X86813041Y-85152154D01*
X86814474Y-85166707D01*
X86839694Y-85249846D01*
X86843522Y-85262465D01*
X86890693Y-85350717D01*
X86928203Y-85396423D01*
X86954175Y-85428070D01*
X86973552Y-85443972D01*
X88563145Y-87033565D01*
X88579052Y-87052948D01*
X88656405Y-87116429D01*
X88744657Y-87163601D01*
X88840415Y-87192649D01*
X88915053Y-87200000D01*
X88915056Y-87200000D01*
X88940000Y-87202457D01*
X88964944Y-87200000D01*
X89448001Y-87200000D01*
X89448000Y-87751579D01*
X88221580Y-88978000D01*
X88076001Y-88978000D01*
X88061480Y-88956268D01*
X87945732Y-88840520D01*
X87809626Y-88749577D01*
X87658394Y-88686935D01*
X87497846Y-88655000D01*
X87334154Y-88655000D01*
X87173606Y-88686935D01*
X87022374Y-88749577D01*
X86886268Y-88840520D01*
X86770520Y-88956268D01*
X86679577Y-89092374D01*
X86616935Y-89243606D01*
X86585000Y-89404154D01*
X86585000Y-89567846D01*
X86616935Y-89728394D01*
X86679577Y-89879626D01*
X86770520Y-90015732D01*
X86886268Y-90131480D01*
X87022374Y-90222423D01*
X87173606Y-90285065D01*
X87334154Y-90317000D01*
X87497846Y-90317000D01*
X87658394Y-90285065D01*
X87809626Y-90222423D01*
X87924000Y-90146001D01*
X87924001Y-91493046D01*
X87921543Y-91518000D01*
X87931352Y-91617584D01*
X87960400Y-91713343D01*
X88007571Y-91801595D01*
X88055150Y-91859570D01*
X88071053Y-91878948D01*
X88090430Y-91894850D01*
X88876099Y-92680520D01*
X88871000Y-92706154D01*
X88871000Y-92869846D01*
X88902935Y-93030394D01*
X88965577Y-93181626D01*
X89056520Y-93317732D01*
X89172268Y-93433480D01*
X89308374Y-93524423D01*
X89459606Y-93587065D01*
X89620154Y-93619000D01*
X89783846Y-93619000D01*
X89944394Y-93587065D01*
X90095626Y-93524423D01*
X90231732Y-93433480D01*
X90347480Y-93317732D01*
X90438423Y-93181626D01*
X90501065Y-93030394D01*
X90533000Y-92869846D01*
X90533000Y-92706154D01*
X90501065Y-92545606D01*
X90438423Y-92394374D01*
X90347480Y-92258268D01*
X90231732Y-92142520D01*
X90095626Y-92051577D01*
X89944394Y-91988935D01*
X89783846Y-91957000D01*
X89620154Y-91957000D01*
X89594520Y-91962099D01*
X88940000Y-91307580D01*
X88940000Y-89696420D01*
X89126420Y-89510000D01*
X103667157Y-89510000D01*
X103667157Y-92510000D01*
X103674513Y-92584689D01*
X103696299Y-92656508D01*
X103731678Y-92722696D01*
X103779289Y-92780711D01*
X103837304Y-92828322D01*
X103903492Y-92863701D01*
X103975311Y-92885487D01*
X104050000Y-92892843D01*
X104950000Y-92892843D01*
X105024689Y-92885487D01*
X105096508Y-92863701D01*
X105162696Y-92828322D01*
X105220711Y-92780711D01*
X105268322Y-92722696D01*
X105303701Y-92656508D01*
X105325487Y-92584689D01*
X105332843Y-92510000D01*
X105667157Y-92510000D01*
X105667157Y-95510000D01*
X105674513Y-95584689D01*
X105696299Y-95656508D01*
X105731678Y-95722696D01*
X105779289Y-95780711D01*
X105837304Y-95828322D01*
X105903492Y-95863701D01*
X105975311Y-95885487D01*
X106050000Y-95892843D01*
X106950000Y-95892843D01*
X107024689Y-95885487D01*
X107096508Y-95863701D01*
X107162696Y-95828322D01*
X107220711Y-95780711D01*
X107268322Y-95722696D01*
X107303701Y-95656508D01*
X107325487Y-95584689D01*
X107332843Y-95510000D01*
X107332843Y-92510000D01*
X107325487Y-92435311D01*
X107303701Y-92363492D01*
X107268322Y-92297304D01*
X107220711Y-92239289D01*
X107162696Y-92191678D01*
X107096508Y-92156299D01*
X107024689Y-92134513D01*
X106950000Y-92127157D01*
X106050000Y-92127157D01*
X105975311Y-92134513D01*
X105903492Y-92156299D01*
X105837304Y-92191678D01*
X105779289Y-92239289D01*
X105731678Y-92297304D01*
X105696299Y-92363492D01*
X105674513Y-92435311D01*
X105667157Y-92510000D01*
X105332843Y-92510000D01*
X105332843Y-89510000D01*
X105325487Y-89435311D01*
X105303701Y-89363492D01*
X105268322Y-89297304D01*
X105220711Y-89239289D01*
X105162696Y-89191678D01*
X105096508Y-89156299D01*
X105024689Y-89134513D01*
X104950000Y-89127157D01*
X104050000Y-89127157D01*
X103975311Y-89134513D01*
X103903492Y-89156299D01*
X103837304Y-89191678D01*
X103779289Y-89239289D01*
X103731678Y-89297304D01*
X103696299Y-89363492D01*
X103674513Y-89435311D01*
X103667157Y-89510000D01*
X89126420Y-89510000D01*
X90297571Y-88338850D01*
X90316948Y-88322948D01*
X90337548Y-88297846D01*
X90380429Y-88245596D01*
X90427600Y-88157345D01*
X90427601Y-88157342D01*
X90456649Y-88061585D01*
X90464000Y-87986947D01*
X90464000Y-87986945D01*
X90466457Y-87962001D01*
X90464000Y-87937057D01*
X90464000Y-87200000D01*
X102191580Y-87200000D01*
X103100099Y-88108520D01*
X103095000Y-88134154D01*
X103095000Y-88297846D01*
X103126935Y-88458394D01*
X103189577Y-88609626D01*
X103280520Y-88745732D01*
X103396268Y-88861480D01*
X103532374Y-88952423D01*
X103683606Y-89015065D01*
X103844154Y-89047000D01*
X104007846Y-89047000D01*
X104168394Y-89015065D01*
X104319626Y-88952423D01*
X104455732Y-88861480D01*
X104571480Y-88745732D01*
X104662423Y-88609626D01*
X104725065Y-88458394D01*
X104757000Y-88297846D01*
X104757000Y-88134154D01*
X104725065Y-87973606D01*
X104662423Y-87822374D01*
X104571480Y-87686268D01*
X104455732Y-87570520D01*
X104319626Y-87479577D01*
X104168394Y-87416935D01*
X104007846Y-87385000D01*
X103844154Y-87385000D01*
X103818520Y-87390099D01*
X103120420Y-86692000D01*
X106763580Y-86692000D01*
X107992001Y-87920421D01*
X107992001Y-89132869D01*
X107975311Y-89134513D01*
X107903492Y-89156299D01*
X107837304Y-89191678D01*
X107779289Y-89239289D01*
X107731678Y-89297304D01*
X107696299Y-89363492D01*
X107674513Y-89435311D01*
X107667157Y-89510000D01*
X107667157Y-92510000D01*
X107674513Y-92584689D01*
X107696299Y-92656508D01*
X107731678Y-92722696D01*
X107779289Y-92780711D01*
X107837304Y-92828322D01*
X107903492Y-92863701D01*
X107975311Y-92885487D01*
X108050000Y-92892843D01*
X108950000Y-92892843D01*
X109024689Y-92885487D01*
X109096508Y-92863701D01*
X109162696Y-92828322D01*
X109220711Y-92780711D01*
X109268322Y-92722696D01*
X109303701Y-92656508D01*
X109325487Y-92584689D01*
X109332843Y-92510000D01*
X109667157Y-92510000D01*
X109667157Y-95510000D01*
X109674513Y-95584689D01*
X109696299Y-95656508D01*
X109731678Y-95722696D01*
X109779289Y-95780711D01*
X109837304Y-95828322D01*
X109903492Y-95863701D01*
X109975311Y-95885487D01*
X110050000Y-95892843D01*
X110950000Y-95892843D01*
X111024689Y-95885487D01*
X111096508Y-95863701D01*
X111162696Y-95828322D01*
X111220711Y-95780711D01*
X111268322Y-95722696D01*
X111303701Y-95656508D01*
X111325487Y-95584689D01*
X111332843Y-95510000D01*
X111332843Y-92510000D01*
X111325487Y-92435311D01*
X111303701Y-92363492D01*
X111268322Y-92297304D01*
X111220711Y-92239289D01*
X111162696Y-92191678D01*
X111096508Y-92156299D01*
X111024689Y-92134513D01*
X110950000Y-92127157D01*
X110050000Y-92127157D01*
X109975311Y-92134513D01*
X109903492Y-92156299D01*
X109837304Y-92191678D01*
X109779289Y-92239289D01*
X109731678Y-92297304D01*
X109696299Y-92363492D01*
X109674513Y-92435311D01*
X109667157Y-92510000D01*
X109332843Y-92510000D01*
X109332843Y-89510000D01*
X109325487Y-89435311D01*
X109303701Y-89363492D01*
X109268322Y-89297304D01*
X109220711Y-89239289D01*
X109162696Y-89191678D01*
X109096508Y-89156299D01*
X109024689Y-89134513D01*
X109008000Y-89132869D01*
X109008000Y-87734944D01*
X109010457Y-87710000D01*
X109007345Y-87678406D01*
X109000649Y-87610415D01*
X108971601Y-87514657D01*
X108937866Y-87451543D01*
X108924429Y-87426404D01*
X108890449Y-87385000D01*
X108860948Y-87349052D01*
X108841565Y-87333145D01*
X107350855Y-85842435D01*
X107334948Y-85823052D01*
X107257595Y-85759571D01*
X107169343Y-85712399D01*
X107073585Y-85683351D01*
X106998947Y-85676000D01*
X106998944Y-85676000D01*
X106974000Y-85673543D01*
X106949056Y-85676000D01*
X103062001Y-85676000D01*
X103138423Y-85561626D01*
X103201065Y-85410394D01*
X103233000Y-85249846D01*
X103233000Y-85086154D01*
X103201065Y-84925606D01*
X103138423Y-84774374D01*
X103047480Y-84638268D01*
X102931732Y-84522520D01*
X102795626Y-84431577D01*
X102644394Y-84368935D01*
X102483846Y-84337000D01*
X102320154Y-84337000D01*
X102159606Y-84368935D01*
X102008374Y-84431577D01*
X101872268Y-84522520D01*
X101756520Y-84638268D01*
X101665577Y-84774374D01*
X101602935Y-84925606D01*
X101571000Y-85086154D01*
X101571000Y-85168000D01*
X94092115Y-85168000D01*
X94067168Y-85165543D01*
X94042221Y-85168000D01*
X94016452Y-85170538D01*
X93662305Y-85170538D01*
X93740423Y-85053626D01*
X93803065Y-84902394D01*
X93835000Y-84741846D01*
X93835000Y-84578154D01*
X93803065Y-84417606D01*
X93740423Y-84266374D01*
X93649480Y-84130268D01*
X93533732Y-84014520D01*
X93397626Y-83923577D01*
X93246394Y-83860935D01*
X93085846Y-83829000D01*
X92922154Y-83829000D01*
X92761606Y-83860935D01*
X92610374Y-83923577D01*
X92474268Y-84014520D01*
X92358520Y-84130268D01*
X92267577Y-84266374D01*
X92204935Y-84417606D01*
X92173000Y-84578154D01*
X92173000Y-84741846D01*
X92204935Y-84902394D01*
X92267577Y-85053626D01*
X92345695Y-85170538D01*
X90166420Y-85170538D01*
X90090470Y-85094588D01*
X90078850Y-85080429D01*
X90062948Y-85061052D01*
X90043570Y-85045149D01*
X90019901Y-85021480D01*
X90025000Y-84995846D01*
X90025000Y-84832154D01*
X89993065Y-84671606D01*
X89930423Y-84520374D01*
X89839480Y-84384268D01*
X89723732Y-84268520D01*
X89587626Y-84177577D01*
X89436394Y-84114935D01*
X89275846Y-84083000D01*
X89112154Y-84083000D01*
X89086519Y-84088099D01*
X88940000Y-83941580D01*
X88940000Y-83668944D01*
X88942457Y-83644000D01*
X88937976Y-83598502D01*
X88932649Y-83544415D01*
X88903601Y-83448657D01*
X88858577Y-83364423D01*
X88856429Y-83360404D01*
X88808850Y-83302429D01*
X88792948Y-83283052D01*
X88773571Y-83267150D01*
X85760855Y-80254435D01*
X85744948Y-80235052D01*
X85667595Y-80171571D01*
X85579343Y-80124399D01*
X85483585Y-80095351D01*
X85408947Y-80088000D01*
X85408944Y-80088000D01*
X85384000Y-80085543D01*
X85359056Y-80088000D01*
X81136752Y-80088000D01*
X81136752Y-79788191D01*
X81139209Y-79763247D01*
X81136280Y-79733506D01*
X81129401Y-79663663D01*
X81100353Y-79567905D01*
X81093484Y-79555054D01*
X81053181Y-79479652D01*
X81038452Y-79461705D01*
X81244318Y-79667571D01*
X81260220Y-79686948D01*
X81279597Y-79702850D01*
X81337572Y-79750429D01*
X81384183Y-79775343D01*
X81425825Y-79797601D01*
X81521583Y-79826649D01*
X81596221Y-79834000D01*
X81596223Y-79834000D01*
X81621167Y-79836457D01*
X81646111Y-79834000D01*
X89423056Y-79834000D01*
X89448000Y-79836457D01*
X89472944Y-79834000D01*
X89472947Y-79834000D01*
X89547585Y-79826649D01*
X89643343Y-79797601D01*
X89731595Y-79750429D01*
X89808948Y-79686948D01*
X89824855Y-79667565D01*
X90549032Y-78943388D01*
X90568410Y-78927486D01*
X90610124Y-78876657D01*
X90631891Y-78850134D01*
X90679062Y-78761883D01*
X90679063Y-78761881D01*
X90708111Y-78666123D01*
X90715462Y-78591485D01*
X90715462Y-78591483D01*
X90717919Y-78566539D01*
X90715462Y-78541595D01*
X90715462Y-78142523D01*
X95129082Y-78142523D01*
X95562460Y-78694668D01*
X96330144Y-79115758D01*
X97165228Y-79378989D01*
X98035619Y-79474246D01*
X98907870Y-79397866D01*
X99748460Y-79152787D01*
X100525086Y-78748426D01*
X100605540Y-78694668D01*
X101038918Y-78142523D01*
X98084000Y-75187605D01*
X95129082Y-78142523D01*
X90715462Y-78142523D01*
X90715462Y-74959619D01*
X93617754Y-74959619D01*
X93694134Y-75831870D01*
X93939213Y-76672460D01*
X94343574Y-77449086D01*
X94397332Y-77529540D01*
X94949477Y-77962918D01*
X97904395Y-75008000D01*
X98263605Y-75008000D01*
X101218523Y-77962918D01*
X101770668Y-77529540D01*
X102191758Y-76761856D01*
X102454989Y-75926772D01*
X102550246Y-75056381D01*
X102473866Y-74184130D01*
X102228787Y-73343540D01*
X101824426Y-72566914D01*
X101770668Y-72486460D01*
X101218523Y-72053082D01*
X98263605Y-75008000D01*
X97904395Y-75008000D01*
X94949477Y-72053082D01*
X94397332Y-72486460D01*
X93976242Y-73254144D01*
X93713011Y-74089228D01*
X93617754Y-74959619D01*
X90715462Y-74959619D01*
X90715462Y-71873477D01*
X95129082Y-71873477D01*
X98084000Y-74828395D01*
X101038918Y-71873477D01*
X101007148Y-71833000D01*
X106711157Y-71833000D01*
X106711157Y-78183000D01*
X106718513Y-78257689D01*
X106740299Y-78329508D01*
X106775678Y-78395696D01*
X106823289Y-78453711D01*
X106881304Y-78501322D01*
X106947492Y-78536701D01*
X107019311Y-78558487D01*
X107094000Y-78565843D01*
X112814000Y-78565843D01*
X112888689Y-78558487D01*
X112960508Y-78536701D01*
X113026696Y-78501322D01*
X113084711Y-78453711D01*
X113132322Y-78395696D01*
X113167701Y-78329508D01*
X113189487Y-78257689D01*
X113196843Y-78183000D01*
X113196843Y-71833000D01*
X113189487Y-71758311D01*
X113167701Y-71686492D01*
X113132322Y-71620304D01*
X113084711Y-71562289D01*
X113026696Y-71514678D01*
X112960508Y-71479299D01*
X112888689Y-71457513D01*
X112814000Y-71450157D01*
X107094000Y-71450157D01*
X107019311Y-71457513D01*
X106947492Y-71479299D01*
X106881304Y-71514678D01*
X106823289Y-71562289D01*
X106775678Y-71620304D01*
X106740299Y-71686492D01*
X106718513Y-71758311D01*
X106711157Y-71833000D01*
X101007148Y-71833000D01*
X100605540Y-71321332D01*
X99837856Y-70900242D01*
X99002772Y-70637011D01*
X98132381Y-70541754D01*
X97260130Y-70618134D01*
X96419540Y-70863213D01*
X95642914Y-71267574D01*
X95562460Y-71321332D01*
X95129082Y-71873477D01*
X90715462Y-71873477D01*
X90715462Y-66029790D01*
X92700598Y-64044654D01*
X92779595Y-64002429D01*
X92856948Y-63938948D01*
X92872855Y-63919565D01*
X99394421Y-57398000D01*
X99667157Y-57398000D01*
X99667157Y-59390000D01*
X99674513Y-59464689D01*
X99696299Y-59536508D01*
X99731678Y-59602696D01*
X99779289Y-59660711D01*
X99837304Y-59708322D01*
X99903492Y-59743701D01*
X99975311Y-59765487D01*
X100050000Y-59772843D01*
X100950000Y-59772843D01*
X101024689Y-59765487D01*
X101096508Y-59743701D01*
X101162696Y-59708322D01*
X101220711Y-59660711D01*
X101268322Y-59602696D01*
X101303701Y-59536508D01*
X101325487Y-59464689D01*
X101332843Y-59390000D01*
X101332843Y-56390000D01*
X101325487Y-56315311D01*
X101303701Y-56243492D01*
X101268322Y-56177304D01*
X101220711Y-56119289D01*
X101162696Y-56071678D01*
X101096508Y-56036299D01*
X101024689Y-56014513D01*
X100950000Y-56007157D01*
X100050000Y-56007157D01*
X99975311Y-56014513D01*
X99903492Y-56036299D01*
X99837304Y-56071678D01*
X99779289Y-56119289D01*
X99731678Y-56177304D01*
X99696299Y-56243492D01*
X99674513Y-56315311D01*
X99667945Y-56382000D01*
X99332843Y-56382000D01*
X99332843Y-53390000D01*
X101667157Y-53390000D01*
X101667157Y-56390000D01*
X101674513Y-56464689D01*
X101696299Y-56536508D01*
X101731678Y-56602696D01*
X101779289Y-56660711D01*
X101837304Y-56708322D01*
X101903492Y-56743701D01*
X101975311Y-56765487D01*
X102050000Y-56772843D01*
X102950000Y-56772843D01*
X103024689Y-56765487D01*
X103096508Y-56743701D01*
X103162696Y-56708322D01*
X103220711Y-56660711D01*
X103268322Y-56602696D01*
X103303701Y-56536508D01*
X103325487Y-56464689D01*
X103332843Y-56390000D01*
X103667157Y-56390000D01*
X103667157Y-59390000D01*
X103674513Y-59464689D01*
X103696299Y-59536508D01*
X103731678Y-59602696D01*
X103779289Y-59660711D01*
X103837304Y-59708322D01*
X103903492Y-59743701D01*
X103975311Y-59765487D01*
X104050000Y-59772843D01*
X104950000Y-59772843D01*
X105024689Y-59765487D01*
X105096508Y-59743701D01*
X105162696Y-59708322D01*
X105220711Y-59660711D01*
X105268322Y-59602696D01*
X105303701Y-59536508D01*
X105325487Y-59464689D01*
X105332843Y-59390000D01*
X105332843Y-56390000D01*
X105325487Y-56315311D01*
X105303701Y-56243492D01*
X105268322Y-56177304D01*
X105220711Y-56119289D01*
X105162696Y-56071678D01*
X105096508Y-56036299D01*
X105024689Y-56014513D01*
X104950000Y-56007157D01*
X104050000Y-56007157D01*
X103975311Y-56014513D01*
X103903492Y-56036299D01*
X103837304Y-56071678D01*
X103779289Y-56119289D01*
X103731678Y-56177304D01*
X103696299Y-56243492D01*
X103674513Y-56315311D01*
X103667157Y-56390000D01*
X103332843Y-56390000D01*
X103332843Y-53390000D01*
X103325487Y-53315311D01*
X103303701Y-53243492D01*
X103268322Y-53177304D01*
X103220711Y-53119289D01*
X103162696Y-53071678D01*
X103096508Y-53036299D01*
X103024689Y-53014513D01*
X102950000Y-53007157D01*
X102050000Y-53007157D01*
X101975311Y-53014513D01*
X101903492Y-53036299D01*
X101837304Y-53071678D01*
X101779289Y-53119289D01*
X101731678Y-53177304D01*
X101696299Y-53243492D01*
X101674513Y-53315311D01*
X101667157Y-53390000D01*
X99332843Y-53390000D01*
X99325487Y-53315311D01*
X99303701Y-53243492D01*
X99268322Y-53177304D01*
X99220711Y-53119289D01*
X99162696Y-53071678D01*
X99096508Y-53036299D01*
X99024689Y-53014513D01*
X98950000Y-53007157D01*
X98050000Y-53007157D01*
X97975311Y-53014513D01*
X97903492Y-53036299D01*
X97837304Y-53071678D01*
X97779289Y-53119289D01*
X97731678Y-53177304D01*
X97696299Y-53243492D01*
X97674513Y-53315311D01*
X97667157Y-53390000D01*
X97667157Y-56390000D01*
X97674513Y-56464689D01*
X97696299Y-56536508D01*
X97731678Y-56602696D01*
X97779289Y-56660711D01*
X97837304Y-56708322D01*
X97868554Y-56725026D01*
X89360430Y-65233150D01*
X89341053Y-65249052D01*
X89325151Y-65268429D01*
X89325150Y-65268430D01*
X89277571Y-65326405D01*
X89255549Y-65367606D01*
X89230400Y-65414657D01*
X89210433Y-65480481D01*
X89201352Y-65510416D01*
X89191543Y-65610000D01*
X89194001Y-65634954D01*
X89194001Y-71471258D01*
X89148689Y-71457513D01*
X89074000Y-71450157D01*
X86722000Y-71450157D01*
X86722000Y-62654944D01*
X86724457Y-62630000D01*
X86722000Y-62605053D01*
X86714649Y-62530415D01*
X86685601Y-62434657D01*
X86662571Y-62391571D01*
X86638429Y-62346404D01*
X86604895Y-62305543D01*
X86574948Y-62269052D01*
X86555565Y-62253145D01*
X80934855Y-56632435D01*
X80918948Y-56613052D01*
X80841595Y-56549571D01*
X80753343Y-56502399D01*
X80657585Y-56473351D01*
X80582947Y-56466000D01*
X80582944Y-56466000D01*
X80558000Y-56463543D01*
X80533056Y-56466000D01*
X68136943Y-56466000D01*
X68111999Y-56463543D01*
X68087055Y-56466000D01*
X68087053Y-56466000D01*
X68012415Y-56473351D01*
X67916657Y-56502399D01*
X67916655Y-56502400D01*
X67828404Y-56549571D01*
X67773810Y-56594376D01*
X67751052Y-56613052D01*
X67735150Y-56632429D01*
X66695481Y-57672099D01*
X66669846Y-57667000D01*
X66506154Y-57667000D01*
X66345606Y-57698935D01*
X66194374Y-57761577D01*
X66058268Y-57852520D01*
X65942520Y-57968268D01*
X65851577Y-58104374D01*
X65788935Y-58255606D01*
X65757000Y-58416154D01*
X65757000Y-58579846D01*
X65788935Y-58740394D01*
X65851577Y-58891626D01*
X65942520Y-59027732D01*
X66058268Y-59143480D01*
X66194374Y-59234423D01*
X66345606Y-59297065D01*
X66506154Y-59329000D01*
X66669846Y-59329000D01*
X66830394Y-59297065D01*
X66981626Y-59234423D01*
X67117732Y-59143480D01*
X67233480Y-59027732D01*
X67324423Y-58891626D01*
X67387065Y-58740394D01*
X67419000Y-58579846D01*
X67419000Y-58416154D01*
X67413901Y-58390519D01*
X68322421Y-57482000D01*
X80347580Y-57482000D01*
X85706000Y-62840420D01*
X85706001Y-71450157D01*
X83354000Y-71450157D01*
X83279311Y-71457513D01*
X83207492Y-71479299D01*
X83141304Y-71514678D01*
X83083289Y-71562289D01*
X83035678Y-71620304D01*
X83000299Y-71686492D01*
X82978513Y-71758311D01*
X82971157Y-71833000D01*
X82971157Y-78183000D01*
X82978513Y-78257689D01*
X82994381Y-78310000D01*
X82038420Y-78310000D01*
X81574000Y-77845580D01*
X81574000Y-75802258D01*
X81585606Y-75807065D01*
X81746154Y-75839000D01*
X81909846Y-75839000D01*
X82070394Y-75807065D01*
X82221626Y-75744423D01*
X82357732Y-75653480D01*
X82473480Y-75537732D01*
X82564423Y-75401626D01*
X82627065Y-75250394D01*
X82659000Y-75089846D01*
X82659000Y-74926154D01*
X82627065Y-74765606D01*
X82564423Y-74614374D01*
X82473480Y-74478268D01*
X82357732Y-74362520D01*
X82221626Y-74271577D01*
X82070394Y-74208935D01*
X81909846Y-74177000D01*
X81746154Y-74177000D01*
X81585606Y-74208935D01*
X81574000Y-74213742D01*
X81574000Y-66762026D01*
X82118935Y-67306961D01*
X82138815Y-67331185D01*
X82163039Y-67351065D01*
X82163042Y-67351068D01*
X82235505Y-67410537D01*
X82273931Y-67431076D01*
X82345820Y-67469502D01*
X82465518Y-67505812D01*
X82558808Y-67515000D01*
X82558818Y-67515000D01*
X82589999Y-67518071D01*
X82621180Y-67515000D01*
X82811788Y-67515000D01*
X82822268Y-67525480D01*
X82958374Y-67616423D01*
X83109606Y-67679065D01*
X83270154Y-67711000D01*
X83433846Y-67711000D01*
X83594394Y-67679065D01*
X83745626Y-67616423D01*
X83881732Y-67525480D01*
X83997480Y-67409732D01*
X84088423Y-67273626D01*
X84151065Y-67122394D01*
X84183000Y-66961846D01*
X84183000Y-66798154D01*
X84151065Y-66637606D01*
X84088423Y-66486374D01*
X83997480Y-66350268D01*
X83881732Y-66234520D01*
X83745626Y-66143577D01*
X83594394Y-66080935D01*
X83433846Y-66049000D01*
X83270154Y-66049000D01*
X83109606Y-66080935D01*
X82958374Y-66143577D01*
X82834424Y-66226398D01*
X79805024Y-63197000D01*
X80476956Y-62525069D01*
X80501185Y-62505185D01*
X80580537Y-62408494D01*
X80639502Y-62298180D01*
X80675812Y-62178482D01*
X80684889Y-62086323D01*
X80695480Y-62075732D01*
X80786423Y-61939626D01*
X80849065Y-61788394D01*
X80881000Y-61627846D01*
X80881000Y-61464154D01*
X80849065Y-61303606D01*
X80786423Y-61152374D01*
X80695480Y-61016268D01*
X80579732Y-60900520D01*
X80443626Y-60809577D01*
X80292394Y-60746935D01*
X80131846Y-60715000D01*
X79968154Y-60715000D01*
X79807606Y-60746935D01*
X79656374Y-60809577D01*
X79520268Y-60900520D01*
X79404520Y-61016268D01*
X79313577Y-61152374D01*
X79250935Y-61303606D01*
X79219000Y-61464154D01*
X79219000Y-61627846D01*
X79250935Y-61788394D01*
X79299744Y-61906231D01*
X78907001Y-62298975D01*
X77348612Y-60740588D01*
X77328723Y-60716353D01*
X77232032Y-60637001D01*
X77121718Y-60578036D01*
X77002020Y-60541726D01*
X76908730Y-60532538D01*
X76908719Y-60532538D01*
X76877538Y-60529467D01*
X76846357Y-60532538D01*
X73930047Y-60532538D01*
X73898858Y-60529466D01*
X73867669Y-60532538D01*
X73867666Y-60532538D01*
X73774376Y-60541726D01*
X73654678Y-60578036D01*
X73544364Y-60637000D01*
X73490382Y-60681303D01*
X73447673Y-60716353D01*
X73427788Y-60740583D01*
X71315174Y-62853198D01*
X67015223Y-62853198D01*
X65789074Y-61627050D01*
X65769185Y-61602815D01*
X65672494Y-61523463D01*
X65562180Y-61464498D01*
X65442482Y-61428188D01*
X65349192Y-61419000D01*
X65349181Y-61419000D01*
X65318000Y-61415929D01*
X65286819Y-61419000D01*
X63572212Y-61419000D01*
X63561732Y-61408520D01*
X63425626Y-61317577D01*
X63274394Y-61254935D01*
X63113846Y-61223000D01*
X62950154Y-61223000D01*
X62789606Y-61254935D01*
X62638374Y-61317577D01*
X62502268Y-61408520D01*
X62491788Y-61419000D01*
X61031192Y-61419000D01*
X61000000Y-61415928D01*
X60968809Y-61419000D01*
X55987026Y-61419000D01*
X55499000Y-60930975D01*
X55499000Y-60916154D01*
X55467065Y-60755606D01*
X55404423Y-60604374D01*
X55313480Y-60468268D01*
X55197732Y-60352520D01*
X55061626Y-60261577D01*
X54910394Y-60198935D01*
X54749846Y-60167000D01*
X54586154Y-60167000D01*
X54425606Y-60198935D01*
X54274374Y-60261577D01*
X54138268Y-60352520D01*
X54022520Y-60468268D01*
X53931577Y-60604374D01*
X53868935Y-60755606D01*
X53837000Y-60916154D01*
X53837000Y-61079846D01*
X53868935Y-61240394D01*
X53931577Y-61391626D01*
X54022520Y-61527732D01*
X54138268Y-61643480D01*
X54274374Y-61734423D01*
X54425606Y-61797065D01*
X54586154Y-61829000D01*
X54600975Y-61829000D01*
X55252934Y-62480960D01*
X55272815Y-62505185D01*
X55297039Y-62525065D01*
X55297043Y-62525069D01*
X55369506Y-62584538D01*
X55454560Y-62630000D01*
X55479820Y-62643502D01*
X55599518Y-62679812D01*
X55692808Y-62689000D01*
X55692811Y-62689000D01*
X55724000Y-62692072D01*
X55755189Y-62689000D01*
X60365001Y-62689000D01*
X60365000Y-68372819D01*
X60361929Y-68404000D01*
X60365000Y-68435181D01*
X60365000Y-68435191D01*
X60374188Y-68528481D01*
X60410498Y-68648179D01*
X60469463Y-68758493D01*
X60548815Y-68855185D01*
X60573050Y-68875074D01*
X61117975Y-69420000D01*
X55622421Y-69420000D01*
X55280855Y-69078434D01*
X55264948Y-69059052D01*
X55187595Y-68995571D01*
X55099343Y-68948399D01*
X55003585Y-68919351D01*
X54928947Y-68912000D01*
X54928944Y-68912000D01*
X54904000Y-68909543D01*
X54879056Y-68912000D01*
X48631877Y-68912000D01*
X48693626Y-68886423D01*
X48829732Y-68795480D01*
X48945480Y-68679732D01*
X49036423Y-68543626D01*
X49099065Y-68392394D01*
X49131000Y-68231846D01*
X49131000Y-68068154D01*
X49099065Y-67907606D01*
X49036423Y-67756374D01*
X48945480Y-67620268D01*
X48829732Y-67504520D01*
X48693626Y-67413577D01*
X48542394Y-67350935D01*
X48381846Y-67319000D01*
X48218154Y-67319000D01*
X48057606Y-67350935D01*
X47906374Y-67413577D01*
X47770268Y-67504520D01*
X47690604Y-67584184D01*
X46585901Y-66479481D01*
X46591000Y-66453846D01*
X46591000Y-66290154D01*
X46559065Y-66129606D01*
X46496423Y-65978374D01*
X46405480Y-65842268D01*
X46289732Y-65726520D01*
X46153626Y-65635577D01*
X46002394Y-65572935D01*
X45841846Y-65541000D01*
X45678154Y-65541000D01*
X45517606Y-65572935D01*
X45366374Y-65635577D01*
X45230268Y-65726520D01*
X45114520Y-65842268D01*
X45023577Y-65978374D01*
X44960935Y-66129606D01*
X44929000Y-66290154D01*
X44929000Y-66453846D01*
X44960935Y-66614394D01*
X45023577Y-66765626D01*
X45114520Y-66901732D01*
X45230268Y-67017480D01*
X45366374Y-67108423D01*
X45517606Y-67171065D01*
X45678154Y-67203000D01*
X45841846Y-67203000D01*
X45867481Y-67197901D01*
X46750580Y-68081000D01*
X46694154Y-68081000D01*
X46533606Y-68112935D01*
X46382374Y-68175577D01*
X46246268Y-68266520D01*
X46130520Y-68382268D01*
X46039577Y-68518374D01*
X45976935Y-68669606D01*
X45945000Y-68830154D01*
X45945000Y-68993846D01*
X45950099Y-69019480D01*
X44481000Y-70488580D01*
X44481000Y-55114154D01*
X76933000Y-55114154D01*
X76933000Y-55277846D01*
X76964935Y-55438394D01*
X77027577Y-55589626D01*
X77118520Y-55725732D01*
X77234268Y-55841480D01*
X77370374Y-55932423D01*
X77521606Y-55995065D01*
X77682154Y-56027000D01*
X77845846Y-56027000D01*
X78006394Y-55995065D01*
X78157626Y-55932423D01*
X78293732Y-55841480D01*
X78304212Y-55831000D01*
X81056976Y-55831000D01*
X83487000Y-58261025D01*
X83487000Y-58330771D01*
X83520856Y-58500978D01*
X83587268Y-58661310D01*
X83683682Y-58805605D01*
X83806395Y-58928318D01*
X83950690Y-59024732D01*
X84111022Y-59091144D01*
X84281229Y-59125000D01*
X84454771Y-59125000D01*
X84624978Y-59091144D01*
X84785310Y-59024732D01*
X84929605Y-58928318D01*
X85052318Y-58805605D01*
X85148732Y-58661310D01*
X85215144Y-58500978D01*
X85249000Y-58330771D01*
X85249000Y-58157229D01*
X85215144Y-57987022D01*
X85148732Y-57826690D01*
X85052318Y-57682395D01*
X84929605Y-57559682D01*
X84785310Y-57463268D01*
X84624978Y-57396856D01*
X84454771Y-57363000D01*
X84385025Y-57363000D01*
X81791074Y-54769050D01*
X81771185Y-54744815D01*
X81674494Y-54665463D01*
X81564180Y-54606498D01*
X81444482Y-54570188D01*
X81351192Y-54561000D01*
X81351181Y-54561000D01*
X81320000Y-54557929D01*
X81288819Y-54561000D01*
X78304212Y-54561000D01*
X78293732Y-54550520D01*
X78157626Y-54459577D01*
X78006394Y-54396935D01*
X77845846Y-54365000D01*
X77682154Y-54365000D01*
X77521606Y-54396935D01*
X77370374Y-54459577D01*
X77234268Y-54550520D01*
X77118520Y-54666268D01*
X77027577Y-54802374D01*
X76964935Y-54953606D01*
X76933000Y-55114154D01*
X44481000Y-55114154D01*
X44481000Y-52081000D01*
X113519000Y-52081000D01*
X113519001Y-96819000D01*
G37*
X113519001Y-96819000D02*
X44481000Y-96819000D01*
X44481000Y-81305420D01*
X44934099Y-81758520D01*
X44929000Y-81784154D01*
X44929000Y-81947846D01*
X44960935Y-82108394D01*
X45023577Y-82259626D01*
X45114520Y-82395732D01*
X45230268Y-82511480D01*
X45366374Y-82602423D01*
X45517606Y-82665065D01*
X45678154Y-82697000D01*
X45841846Y-82697000D01*
X46002394Y-82665065D01*
X46153626Y-82602423D01*
X46289732Y-82511480D01*
X46405480Y-82395732D01*
X46496423Y-82259626D01*
X46559065Y-82108394D01*
X46591000Y-81947846D01*
X46591000Y-81891420D01*
X49701149Y-85001570D01*
X49717052Y-85020948D01*
X49736429Y-85036850D01*
X49794404Y-85084429D01*
X49841015Y-85109343D01*
X49882657Y-85131601D01*
X49978415Y-85160649D01*
X50053053Y-85168000D01*
X50053055Y-85168000D01*
X50077999Y-85170457D01*
X50102943Y-85168000D01*
X51069053Y-85168000D01*
X51094000Y-85170457D01*
X51118947Y-85168000D01*
X68917580Y-85168000D01*
X70275149Y-86525570D01*
X70291052Y-86544948D01*
X70310429Y-86560850D01*
X70368404Y-86608429D01*
X70456655Y-86655600D01*
X70456657Y-86655601D01*
X70552415Y-86684649D01*
X70627053Y-86692000D01*
X70627055Y-86692000D01*
X70651999Y-86694457D01*
X70676943Y-86692000D01*
X71007999Y-86692000D01*
X71022520Y-86713732D01*
X71138268Y-86829480D01*
X71274374Y-86920423D01*
X71425606Y-86983065D01*
X71586154Y-87015000D01*
X71749846Y-87015000D01*
X71910394Y-86983065D01*
X72061626Y-86920423D01*
X72197732Y-86829480D01*
X72313480Y-86713732D01*
X72404423Y-86577626D01*
X72467065Y-86426394D01*
X72499000Y-86265846D01*
X72499000Y-86102154D01*
X72467065Y-85941606D01*
X72404423Y-85790374D01*
X72313480Y-85654268D01*
X72197732Y-85538520D01*
X72061626Y-85447577D01*
X71910394Y-85384935D01*
X71749846Y-85353000D01*
X71586154Y-85353000D01*
X71425606Y-85384935D01*
X71274374Y-85447577D01*
X71138268Y-85538520D01*
X71022520Y-85654268D01*
X71007999Y-85676000D01*
X70862421Y-85676000D01*
X69504855Y-84318435D01*
X69488948Y-84299052D01*
X69411595Y-84235571D01*
X69323343Y-84188399D01*
X69227585Y-84159351D01*
X69152947Y-84152000D01*
X69152944Y-84152000D01*
X69128000Y-84149543D01*
X69103056Y-84152000D01*
X51602000Y-84152000D01*
X51602000Y-83288001D01*
X51623732Y-83273480D01*
X51739480Y-83157732D01*
X51830423Y-83021626D01*
X51893065Y-82870394D01*
X51925000Y-82709846D01*
X51925000Y-82546154D01*
X51893065Y-82385606D01*
X51830423Y-82234374D01*
X51739480Y-82098268D01*
X51623732Y-81982520D01*
X51487626Y-81891577D01*
X51336394Y-81828935D01*
X51175846Y-81797000D01*
X51012154Y-81797000D01*
X50851606Y-81828935D01*
X50700374Y-81891577D01*
X50564268Y-81982520D01*
X50448520Y-82098268D01*
X50357577Y-82234374D01*
X50294935Y-82385606D01*
X50263000Y-82546154D01*
X50263000Y-82709846D01*
X50294935Y-82870394D01*
X50357577Y-83021626D01*
X50448520Y-83157732D01*
X50564268Y-83273480D01*
X50586001Y-83288001D01*
X50586000Y-84152000D01*
X50288421Y-84152000D01*
X46136855Y-80000435D01*
X46120948Y-79981052D01*
X46087418Y-79953535D01*
X45757462Y-79623580D01*
X45757462Y-78034867D01*
X45790000Y-78038072D01*
X47004250Y-78035000D01*
X47163000Y-77876250D01*
X47163000Y-77077000D01*
X47143000Y-77077000D01*
X47143000Y-76823000D01*
X47163000Y-76823000D01*
X47163000Y-76023750D01*
X47004250Y-75865000D01*
X45790000Y-75861928D01*
X45760000Y-75864883D01*
X45760000Y-73779888D01*
X45790000Y-73782843D01*
X47790737Y-73782843D01*
X47704435Y-73869145D01*
X47685052Y-73885052D01*
X47621571Y-73962405D01*
X47574399Y-74050658D01*
X47545351Y-74146416D01*
X47538000Y-74221053D01*
X47535543Y-74246000D01*
X47538000Y-74270945D01*
X47538001Y-75745046D01*
X47535543Y-75770000D01*
X47542593Y-75841570D01*
X47545352Y-75869585D01*
X47551360Y-75889390D01*
X47417000Y-76023750D01*
X47417000Y-76823000D01*
X47437000Y-76823000D01*
X47437000Y-77077000D01*
X47417000Y-77077000D01*
X47417000Y-77876250D01*
X47575750Y-78035000D01*
X48615948Y-78037632D01*
X47450435Y-79203145D01*
X47431052Y-79219052D01*
X47367571Y-79296405D01*
X47320399Y-79384658D01*
X47291351Y-79480416D01*
X47285128Y-79543601D01*
X47281543Y-79580000D01*
X47284000Y-79604945D01*
X47284001Y-80317046D01*
X47281543Y-80342000D01*
X47287321Y-80400657D01*
X47291352Y-80441585D01*
X47320400Y-80537343D01*
X47367571Y-80625595D01*
X47391422Y-80654657D01*
X47431053Y-80702948D01*
X47450430Y-80718850D01*
X48177145Y-81445565D01*
X48193052Y-81464948D01*
X48270405Y-81528429D01*
X48358657Y-81575601D01*
X48454415Y-81604649D01*
X48529053Y-81612000D01*
X48529056Y-81612000D01*
X48554000Y-81614457D01*
X48578944Y-81612000D01*
X49799056Y-81612000D01*
X49824000Y-81614457D01*
X49848944Y-81612000D01*
X49848947Y-81612000D01*
X49923585Y-81604649D01*
X50019343Y-81575601D01*
X50107595Y-81528429D01*
X50184948Y-81464948D01*
X50200855Y-81445565D01*
X50288420Y-81358000D01*
X51645580Y-81358000D01*
X52808099Y-82520519D01*
X52803000Y-82546154D01*
X52803000Y-82709846D01*
X52834935Y-82870394D01*
X52897577Y-83021626D01*
X52988520Y-83157732D01*
X53104268Y-83273480D01*
X53240374Y-83364423D01*
X53391606Y-83427065D01*
X53552154Y-83459000D01*
X53715846Y-83459000D01*
X53741480Y-83453901D01*
X53765149Y-83477570D01*
X53781052Y-83496948D01*
X53800429Y-83512850D01*
X53858404Y-83560429D01*
X53894123Y-83579521D01*
X53946657Y-83607601D01*
X54042415Y-83636649D01*
X54117053Y-83644000D01*
X54117055Y-83644000D01*
X54141999Y-83646457D01*
X54166943Y-83644000D01*
X71261999Y-83644000D01*
X71185577Y-83758374D01*
X71122935Y-83909606D01*
X71091000Y-84070154D01*
X71091000Y-84233846D01*
X71122935Y-84394394D01*
X71185577Y-84545626D01*
X71276520Y-84681732D01*
X71392268Y-84797480D01*
X71528374Y-84888423D01*
X71679606Y-84951065D01*
X71840154Y-84983000D01*
X72003846Y-84983000D01*
X72164394Y-84951065D01*
X72315626Y-84888423D01*
X72451732Y-84797480D01*
X72462212Y-84787000D01*
X73414809Y-84787000D01*
X73446000Y-84790072D01*
X73477192Y-84787000D01*
X75446819Y-84787000D01*
X75478000Y-84790071D01*
X75509181Y-84787000D01*
X75509192Y-84787000D01*
X75602482Y-84777812D01*
X75722180Y-84741502D01*
X75832494Y-84682537D01*
X75929185Y-84603185D01*
X75949074Y-84578950D01*
X77047956Y-83480069D01*
X77072185Y-83460185D01*
X77151537Y-83363494D01*
X77210502Y-83253180D01*
X77246812Y-83133482D01*
X77256000Y-83040192D01*
X77256000Y-83040182D01*
X77259071Y-83009001D01*
X77256000Y-82977820D01*
X77256000Y-74890024D01*
X80042387Y-72103639D01*
X80042387Y-74500000D01*
X79948001Y-74500000D01*
X79933480Y-74478268D01*
X79817732Y-74362520D01*
X79681626Y-74271577D01*
X79530394Y-74208935D01*
X79369846Y-74177000D01*
X79206154Y-74177000D01*
X79045606Y-74208935D01*
X78894374Y-74271577D01*
X78758268Y-74362520D01*
X78642520Y-74478268D01*
X78551577Y-74614374D01*
X78488935Y-74765606D01*
X78457000Y-74926154D01*
X78457000Y-75089846D01*
X78488935Y-75250394D01*
X78551577Y-75401626D01*
X78642520Y-75537732D01*
X78758268Y-75653480D01*
X78894374Y-75744423D01*
X79045606Y-75807065D01*
X79206154Y-75839000D01*
X79369846Y-75839000D01*
X79530394Y-75807065D01*
X79681626Y-75744423D01*
X79817732Y-75653480D01*
X79933480Y-75537732D01*
X79948001Y-75516000D01*
X80042386Y-75516000D01*
X80042387Y-78230264D01*
X80039929Y-78255218D01*
X80046468Y-78321606D01*
X80049738Y-78354803D01*
X80061498Y-78393571D01*
X80078786Y-78450561D01*
X80125957Y-78538813D01*
X80173536Y-78596788D01*
X80189439Y-78616166D01*
X80208816Y-78632068D01*
X80239054Y-78662306D01*
X80221099Y-78647571D01*
X80132847Y-78600399D01*
X80037089Y-78571351D01*
X79962451Y-78564000D01*
X79962448Y-78564000D01*
X79937504Y-78561543D01*
X79912560Y-78564000D01*
X79440001Y-78564000D01*
X79425480Y-78542268D01*
X79309732Y-78426520D01*
X79173626Y-78335577D01*
X79022394Y-78272935D01*
X78861846Y-78241000D01*
X78698154Y-78241000D01*
X78537606Y-78272935D01*
X78386374Y-78335577D01*
X78250268Y-78426520D01*
X78134520Y-78542268D01*
X78043577Y-78678374D01*
X77980935Y-78829606D01*
X77949000Y-78990154D01*
X77949000Y-79153846D01*
X77980935Y-79314394D01*
X78043577Y-79465626D01*
X78134520Y-79601732D01*
X78250268Y-79717480D01*
X78386374Y-79808423D01*
X78537606Y-79871065D01*
X78698154Y-79903000D01*
X78861846Y-79903000D01*
X79022394Y-79871065D01*
X79173626Y-79808423D01*
X79309732Y-79717480D01*
X79425480Y-79601732D01*
X79440001Y-79580000D01*
X79727084Y-79580000D01*
X80120752Y-79973669D01*
X80120752Y-80120730D01*
X80108657Y-80124399D01*
X80108655Y-80124400D01*
X80020404Y-80171571D01*
X79970555Y-80212481D01*
X79943052Y-80235052D01*
X79927149Y-80254430D01*
X79454430Y-80727150D01*
X79435053Y-80743052D01*
X79419151Y-80762429D01*
X79419150Y-80762430D01*
X79371571Y-80820405D01*
X79335941Y-80887065D01*
X79324400Y-80908657D01*
X79317163Y-80932513D01*
X79266268Y-80966520D01*
X79150520Y-81082268D01*
X79059577Y-81218374D01*
X78996935Y-81369606D01*
X78965000Y-81530154D01*
X78965000Y-81693846D01*
X78996935Y-81854394D01*
X79059577Y-82005626D01*
X79150520Y-82141732D01*
X79266268Y-82257480D01*
X79402374Y-82348423D01*
X79553606Y-82411065D01*
X79714154Y-82443000D01*
X79877846Y-82443000D01*
X80038394Y-82411065D01*
X80189626Y-82348423D01*
X80325732Y-82257480D01*
X80441480Y-82141732D01*
X80532423Y-82005626D01*
X80558000Y-81943877D01*
X80583577Y-82005626D01*
X80674520Y-82141732D01*
X80790268Y-82257480D01*
X80926374Y-82348423D01*
X81077606Y-82411065D01*
X81238154Y-82443000D01*
X81401846Y-82443000D01*
X81562394Y-82411065D01*
X81713626Y-82348423D01*
X81849732Y-82257480D01*
X81965480Y-82141732D01*
X81980001Y-82120000D01*
X84469999Y-82120000D01*
X84393577Y-82234374D01*
X84330935Y-82385606D01*
X84299000Y-82546154D01*
X84299000Y-82709846D01*
X84330935Y-82870394D01*
X84393577Y-83021626D01*
X84484520Y-83157732D01*
X84600268Y-83273480D01*
X84736374Y-83364423D01*
X84887606Y-83427065D01*
X85048154Y-83459000D01*
X85211846Y-83459000D01*
X85372394Y-83427065D01*
X85523626Y-83364423D01*
X85659732Y-83273480D01*
X85739396Y-83193816D01*
X86807122Y-84261543D01*
X86807123Y-85042168D01*
X86804665Y-85067122D01*
X86813041Y-85152154D01*
X86814474Y-85166707D01*
X86839694Y-85249846D01*
X86843522Y-85262465D01*
X86890693Y-85350717D01*
X86928203Y-85396423D01*
X86954175Y-85428070D01*
X86973552Y-85443972D01*
X88563145Y-87033565D01*
X88579052Y-87052948D01*
X88656405Y-87116429D01*
X88744657Y-87163601D01*
X88840415Y-87192649D01*
X88915053Y-87200000D01*
X88915056Y-87200000D01*
X88940000Y-87202457D01*
X88964944Y-87200000D01*
X89448001Y-87200000D01*
X89448000Y-87751579D01*
X88221580Y-88978000D01*
X88076001Y-88978000D01*
X88061480Y-88956268D01*
X87945732Y-88840520D01*
X87809626Y-88749577D01*
X87658394Y-88686935D01*
X87497846Y-88655000D01*
X87334154Y-88655000D01*
X87173606Y-88686935D01*
X87022374Y-88749577D01*
X86886268Y-88840520D01*
X86770520Y-88956268D01*
X86679577Y-89092374D01*
X86616935Y-89243606D01*
X86585000Y-89404154D01*
X86585000Y-89567846D01*
X86616935Y-89728394D01*
X86679577Y-89879626D01*
X86770520Y-90015732D01*
X86886268Y-90131480D01*
X87022374Y-90222423D01*
X87173606Y-90285065D01*
X87334154Y-90317000D01*
X87497846Y-90317000D01*
X87658394Y-90285065D01*
X87809626Y-90222423D01*
X87924000Y-90146001D01*
X87924001Y-91493046D01*
X87921543Y-91518000D01*
X87931352Y-91617584D01*
X87960400Y-91713343D01*
X88007571Y-91801595D01*
X88055150Y-91859570D01*
X88071053Y-91878948D01*
X88090430Y-91894850D01*
X88876099Y-92680520D01*
X88871000Y-92706154D01*
X88871000Y-92869846D01*
X88902935Y-93030394D01*
X88965577Y-93181626D01*
X89056520Y-93317732D01*
X89172268Y-93433480D01*
X89308374Y-93524423D01*
X89459606Y-93587065D01*
X89620154Y-93619000D01*
X89783846Y-93619000D01*
X89944394Y-93587065D01*
X90095626Y-93524423D01*
X90231732Y-93433480D01*
X90347480Y-93317732D01*
X90438423Y-93181626D01*
X90501065Y-93030394D01*
X90533000Y-92869846D01*
X90533000Y-92706154D01*
X90501065Y-92545606D01*
X90438423Y-92394374D01*
X90347480Y-92258268D01*
X90231732Y-92142520D01*
X90095626Y-92051577D01*
X89944394Y-91988935D01*
X89783846Y-91957000D01*
X89620154Y-91957000D01*
X89594520Y-91962099D01*
X88940000Y-91307580D01*
X88940000Y-89696420D01*
X89126420Y-89510000D01*
X103667157Y-89510000D01*
X103667157Y-92510000D01*
X103674513Y-92584689D01*
X103696299Y-92656508D01*
X103731678Y-92722696D01*
X103779289Y-92780711D01*
X103837304Y-92828322D01*
X103903492Y-92863701D01*
X103975311Y-92885487D01*
X104050000Y-92892843D01*
X104950000Y-92892843D01*
X105024689Y-92885487D01*
X105096508Y-92863701D01*
X105162696Y-92828322D01*
X105220711Y-92780711D01*
X105268322Y-92722696D01*
X105303701Y-92656508D01*
X105325487Y-92584689D01*
X105332843Y-92510000D01*
X105667157Y-92510000D01*
X105667157Y-95510000D01*
X105674513Y-95584689D01*
X105696299Y-95656508D01*
X105731678Y-95722696D01*
X105779289Y-95780711D01*
X105837304Y-95828322D01*
X105903492Y-95863701D01*
X105975311Y-95885487D01*
X106050000Y-95892843D01*
X106950000Y-95892843D01*
X107024689Y-95885487D01*
X107096508Y-95863701D01*
X107162696Y-95828322D01*
X107220711Y-95780711D01*
X107268322Y-95722696D01*
X107303701Y-95656508D01*
X107325487Y-95584689D01*
X107332843Y-95510000D01*
X107332843Y-92510000D01*
X107325487Y-92435311D01*
X107303701Y-92363492D01*
X107268322Y-92297304D01*
X107220711Y-92239289D01*
X107162696Y-92191678D01*
X107096508Y-92156299D01*
X107024689Y-92134513D01*
X106950000Y-92127157D01*
X106050000Y-92127157D01*
X105975311Y-92134513D01*
X105903492Y-92156299D01*
X105837304Y-92191678D01*
X105779289Y-92239289D01*
X105731678Y-92297304D01*
X105696299Y-92363492D01*
X105674513Y-92435311D01*
X105667157Y-92510000D01*
X105332843Y-92510000D01*
X105332843Y-89510000D01*
X105325487Y-89435311D01*
X105303701Y-89363492D01*
X105268322Y-89297304D01*
X105220711Y-89239289D01*
X105162696Y-89191678D01*
X105096508Y-89156299D01*
X105024689Y-89134513D01*
X104950000Y-89127157D01*
X104050000Y-89127157D01*
X103975311Y-89134513D01*
X103903492Y-89156299D01*
X103837304Y-89191678D01*
X103779289Y-89239289D01*
X103731678Y-89297304D01*
X103696299Y-89363492D01*
X103674513Y-89435311D01*
X103667157Y-89510000D01*
X89126420Y-89510000D01*
X90297571Y-88338850D01*
X90316948Y-88322948D01*
X90337548Y-88297846D01*
X90380429Y-88245596D01*
X90427600Y-88157345D01*
X90427601Y-88157342D01*
X90456649Y-88061585D01*
X90464000Y-87986947D01*
X90464000Y-87986945D01*
X90466457Y-87962001D01*
X90464000Y-87937057D01*
X90464000Y-87200000D01*
X102191580Y-87200000D01*
X103100099Y-88108520D01*
X103095000Y-88134154D01*
X103095000Y-88297846D01*
X103126935Y-88458394D01*
X103189577Y-88609626D01*
X103280520Y-88745732D01*
X103396268Y-88861480D01*
X103532374Y-88952423D01*
X103683606Y-89015065D01*
X103844154Y-89047000D01*
X104007846Y-89047000D01*
X104168394Y-89015065D01*
X104319626Y-88952423D01*
X104455732Y-88861480D01*
X104571480Y-88745732D01*
X104662423Y-88609626D01*
X104725065Y-88458394D01*
X104757000Y-88297846D01*
X104757000Y-88134154D01*
X104725065Y-87973606D01*
X104662423Y-87822374D01*
X104571480Y-87686268D01*
X104455732Y-87570520D01*
X104319626Y-87479577D01*
X104168394Y-87416935D01*
X104007846Y-87385000D01*
X103844154Y-87385000D01*
X103818520Y-87390099D01*
X103120420Y-86692000D01*
X106763580Y-86692000D01*
X107992001Y-87920421D01*
X107992001Y-89132869D01*
X107975311Y-89134513D01*
X107903492Y-89156299D01*
X107837304Y-89191678D01*
X107779289Y-89239289D01*
X107731678Y-89297304D01*
X107696299Y-89363492D01*
X107674513Y-89435311D01*
X107667157Y-89510000D01*
X107667157Y-92510000D01*
X107674513Y-92584689D01*
X107696299Y-92656508D01*
X107731678Y-92722696D01*
X107779289Y-92780711D01*
X107837304Y-92828322D01*
X107903492Y-92863701D01*
X107975311Y-92885487D01*
X108050000Y-92892843D01*
X108950000Y-92892843D01*
X109024689Y-92885487D01*
X109096508Y-92863701D01*
X109162696Y-92828322D01*
X109220711Y-92780711D01*
X109268322Y-92722696D01*
X109303701Y-92656508D01*
X109325487Y-92584689D01*
X109332843Y-92510000D01*
X109667157Y-92510000D01*
X109667157Y-95510000D01*
X109674513Y-95584689D01*
X109696299Y-95656508D01*
X109731678Y-95722696D01*
X109779289Y-95780711D01*
X109837304Y-95828322D01*
X109903492Y-95863701D01*
X109975311Y-95885487D01*
X110050000Y-95892843D01*
X110950000Y-95892843D01*
X111024689Y-95885487D01*
X111096508Y-95863701D01*
X111162696Y-95828322D01*
X111220711Y-95780711D01*
X111268322Y-95722696D01*
X111303701Y-95656508D01*
X111325487Y-95584689D01*
X111332843Y-95510000D01*
X111332843Y-92510000D01*
X111325487Y-92435311D01*
X111303701Y-92363492D01*
X111268322Y-92297304D01*
X111220711Y-92239289D01*
X111162696Y-92191678D01*
X111096508Y-92156299D01*
X111024689Y-92134513D01*
X110950000Y-92127157D01*
X110050000Y-92127157D01*
X109975311Y-92134513D01*
X109903492Y-92156299D01*
X109837304Y-92191678D01*
X109779289Y-92239289D01*
X109731678Y-92297304D01*
X109696299Y-92363492D01*
X109674513Y-92435311D01*
X109667157Y-92510000D01*
X109332843Y-92510000D01*
X109332843Y-89510000D01*
X109325487Y-89435311D01*
X109303701Y-89363492D01*
X109268322Y-89297304D01*
X109220711Y-89239289D01*
X109162696Y-89191678D01*
X109096508Y-89156299D01*
X109024689Y-89134513D01*
X109008000Y-89132869D01*
X109008000Y-87734944D01*
X109010457Y-87710000D01*
X109007345Y-87678406D01*
X109000649Y-87610415D01*
X108971601Y-87514657D01*
X108937866Y-87451543D01*
X108924429Y-87426404D01*
X108890449Y-87385000D01*
X108860948Y-87349052D01*
X108841565Y-87333145D01*
X107350855Y-85842435D01*
X107334948Y-85823052D01*
X107257595Y-85759571D01*
X107169343Y-85712399D01*
X107073585Y-85683351D01*
X106998947Y-85676000D01*
X106998944Y-85676000D01*
X106974000Y-85673543D01*
X106949056Y-85676000D01*
X103062001Y-85676000D01*
X103138423Y-85561626D01*
X103201065Y-85410394D01*
X103233000Y-85249846D01*
X103233000Y-85086154D01*
X103201065Y-84925606D01*
X103138423Y-84774374D01*
X103047480Y-84638268D01*
X102931732Y-84522520D01*
X102795626Y-84431577D01*
X102644394Y-84368935D01*
X102483846Y-84337000D01*
X102320154Y-84337000D01*
X102159606Y-84368935D01*
X102008374Y-84431577D01*
X101872268Y-84522520D01*
X101756520Y-84638268D01*
X101665577Y-84774374D01*
X101602935Y-84925606D01*
X101571000Y-85086154D01*
X101571000Y-85168000D01*
X94092115Y-85168000D01*
X94067168Y-85165543D01*
X94042221Y-85168000D01*
X94016452Y-85170538D01*
X93662305Y-85170538D01*
X93740423Y-85053626D01*
X93803065Y-84902394D01*
X93835000Y-84741846D01*
X93835000Y-84578154D01*
X93803065Y-84417606D01*
X93740423Y-84266374D01*
X93649480Y-84130268D01*
X93533732Y-84014520D01*
X93397626Y-83923577D01*
X93246394Y-83860935D01*
X93085846Y-83829000D01*
X92922154Y-83829000D01*
X92761606Y-83860935D01*
X92610374Y-83923577D01*
X92474268Y-84014520D01*
X92358520Y-84130268D01*
X92267577Y-84266374D01*
X92204935Y-84417606D01*
X92173000Y-84578154D01*
X92173000Y-84741846D01*
X92204935Y-84902394D01*
X92267577Y-85053626D01*
X92345695Y-85170538D01*
X90166420Y-85170538D01*
X90090470Y-85094588D01*
X90078850Y-85080429D01*
X90062948Y-85061052D01*
X90043570Y-85045149D01*
X90019901Y-85021480D01*
X90025000Y-84995846D01*
X90025000Y-84832154D01*
X89993065Y-84671606D01*
X89930423Y-84520374D01*
X89839480Y-84384268D01*
X89723732Y-84268520D01*
X89587626Y-84177577D01*
X89436394Y-84114935D01*
X89275846Y-84083000D01*
X89112154Y-84083000D01*
X89086519Y-84088099D01*
X88940000Y-83941580D01*
X88940000Y-83668944D01*
X88942457Y-83644000D01*
X88937976Y-83598502D01*
X88932649Y-83544415D01*
X88903601Y-83448657D01*
X88858577Y-83364423D01*
X88856429Y-83360404D01*
X88808850Y-83302429D01*
X88792948Y-83283052D01*
X88773571Y-83267150D01*
X85760855Y-80254435D01*
X85744948Y-80235052D01*
X85667595Y-80171571D01*
X85579343Y-80124399D01*
X85483585Y-80095351D01*
X85408947Y-80088000D01*
X85408944Y-80088000D01*
X85384000Y-80085543D01*
X85359056Y-80088000D01*
X81136752Y-80088000D01*
X81136752Y-79788191D01*
X81139209Y-79763247D01*
X81136280Y-79733506D01*
X81129401Y-79663663D01*
X81100353Y-79567905D01*
X81093484Y-79555054D01*
X81053181Y-79479652D01*
X81038452Y-79461705D01*
X81244318Y-79667571D01*
X81260220Y-79686948D01*
X81279597Y-79702850D01*
X81337572Y-79750429D01*
X81384183Y-79775343D01*
X81425825Y-79797601D01*
X81521583Y-79826649D01*
X81596221Y-79834000D01*
X81596223Y-79834000D01*
X81621167Y-79836457D01*
X81646111Y-79834000D01*
X89423056Y-79834000D01*
X89448000Y-79836457D01*
X89472944Y-79834000D01*
X89472947Y-79834000D01*
X89547585Y-79826649D01*
X89643343Y-79797601D01*
X89731595Y-79750429D01*
X89808948Y-79686948D01*
X89824855Y-79667565D01*
X90549032Y-78943388D01*
X90568410Y-78927486D01*
X90610124Y-78876657D01*
X90631891Y-78850134D01*
X90679062Y-78761883D01*
X90679063Y-78761881D01*
X90708111Y-78666123D01*
X90715462Y-78591485D01*
X90715462Y-78591483D01*
X90717919Y-78566539D01*
X90715462Y-78541595D01*
X90715462Y-78142523D01*
X95129082Y-78142523D01*
X95562460Y-78694668D01*
X96330144Y-79115758D01*
X97165228Y-79378989D01*
X98035619Y-79474246D01*
X98907870Y-79397866D01*
X99748460Y-79152787D01*
X100525086Y-78748426D01*
X100605540Y-78694668D01*
X101038918Y-78142523D01*
X98084000Y-75187605D01*
X95129082Y-78142523D01*
X90715462Y-78142523D01*
X90715462Y-74959619D01*
X93617754Y-74959619D01*
X93694134Y-75831870D01*
X93939213Y-76672460D01*
X94343574Y-77449086D01*
X94397332Y-77529540D01*
X94949477Y-77962918D01*
X97904395Y-75008000D01*
X98263605Y-75008000D01*
X101218523Y-77962918D01*
X101770668Y-77529540D01*
X102191758Y-76761856D01*
X102454989Y-75926772D01*
X102550246Y-75056381D01*
X102473866Y-74184130D01*
X102228787Y-73343540D01*
X101824426Y-72566914D01*
X101770668Y-72486460D01*
X101218523Y-72053082D01*
X98263605Y-75008000D01*
X97904395Y-75008000D01*
X94949477Y-72053082D01*
X94397332Y-72486460D01*
X93976242Y-73254144D01*
X93713011Y-74089228D01*
X93617754Y-74959619D01*
X90715462Y-74959619D01*
X90715462Y-71873477D01*
X95129082Y-71873477D01*
X98084000Y-74828395D01*
X101038918Y-71873477D01*
X101007148Y-71833000D01*
X106711157Y-71833000D01*
X106711157Y-78183000D01*
X106718513Y-78257689D01*
X106740299Y-78329508D01*
X106775678Y-78395696D01*
X106823289Y-78453711D01*
X106881304Y-78501322D01*
X106947492Y-78536701D01*
X107019311Y-78558487D01*
X107094000Y-78565843D01*
X112814000Y-78565843D01*
X112888689Y-78558487D01*
X112960508Y-78536701D01*
X113026696Y-78501322D01*
X113084711Y-78453711D01*
X113132322Y-78395696D01*
X113167701Y-78329508D01*
X113189487Y-78257689D01*
X113196843Y-78183000D01*
X113196843Y-71833000D01*
X113189487Y-71758311D01*
X113167701Y-71686492D01*
X113132322Y-71620304D01*
X113084711Y-71562289D01*
X113026696Y-71514678D01*
X112960508Y-71479299D01*
X112888689Y-71457513D01*
X112814000Y-71450157D01*
X107094000Y-71450157D01*
X107019311Y-71457513D01*
X106947492Y-71479299D01*
X106881304Y-71514678D01*
X106823289Y-71562289D01*
X106775678Y-71620304D01*
X106740299Y-71686492D01*
X106718513Y-71758311D01*
X106711157Y-71833000D01*
X101007148Y-71833000D01*
X100605540Y-71321332D01*
X99837856Y-70900242D01*
X99002772Y-70637011D01*
X98132381Y-70541754D01*
X97260130Y-70618134D01*
X96419540Y-70863213D01*
X95642914Y-71267574D01*
X95562460Y-71321332D01*
X95129082Y-71873477D01*
X90715462Y-71873477D01*
X90715462Y-66029790D01*
X92700598Y-64044654D01*
X92779595Y-64002429D01*
X92856948Y-63938948D01*
X92872855Y-63919565D01*
X99394421Y-57398000D01*
X99667157Y-57398000D01*
X99667157Y-59390000D01*
X99674513Y-59464689D01*
X99696299Y-59536508D01*
X99731678Y-59602696D01*
X99779289Y-59660711D01*
X99837304Y-59708322D01*
X99903492Y-59743701D01*
X99975311Y-59765487D01*
X100050000Y-59772843D01*
X100950000Y-59772843D01*
X101024689Y-59765487D01*
X101096508Y-59743701D01*
X101162696Y-59708322D01*
X101220711Y-59660711D01*
X101268322Y-59602696D01*
X101303701Y-59536508D01*
X101325487Y-59464689D01*
X101332843Y-59390000D01*
X101332843Y-56390000D01*
X101325487Y-56315311D01*
X101303701Y-56243492D01*
X101268322Y-56177304D01*
X101220711Y-56119289D01*
X101162696Y-56071678D01*
X101096508Y-56036299D01*
X101024689Y-56014513D01*
X100950000Y-56007157D01*
X100050000Y-56007157D01*
X99975311Y-56014513D01*
X99903492Y-56036299D01*
X99837304Y-56071678D01*
X99779289Y-56119289D01*
X99731678Y-56177304D01*
X99696299Y-56243492D01*
X99674513Y-56315311D01*
X99667945Y-56382000D01*
X99332843Y-56382000D01*
X99332843Y-53390000D01*
X101667157Y-53390000D01*
X101667157Y-56390000D01*
X101674513Y-56464689D01*
X101696299Y-56536508D01*
X101731678Y-56602696D01*
X101779289Y-56660711D01*
X101837304Y-56708322D01*
X101903492Y-56743701D01*
X101975311Y-56765487D01*
X102050000Y-56772843D01*
X102950000Y-56772843D01*
X103024689Y-56765487D01*
X103096508Y-56743701D01*
X103162696Y-56708322D01*
X103220711Y-56660711D01*
X103268322Y-56602696D01*
X103303701Y-56536508D01*
X103325487Y-56464689D01*
X103332843Y-56390000D01*
X103667157Y-56390000D01*
X103667157Y-59390000D01*
X103674513Y-59464689D01*
X103696299Y-59536508D01*
X103731678Y-59602696D01*
X103779289Y-59660711D01*
X103837304Y-59708322D01*
X103903492Y-59743701D01*
X103975311Y-59765487D01*
X104050000Y-59772843D01*
X104950000Y-59772843D01*
X105024689Y-59765487D01*
X105096508Y-59743701D01*
X105162696Y-59708322D01*
X105220711Y-59660711D01*
X105268322Y-59602696D01*
X105303701Y-59536508D01*
X105325487Y-59464689D01*
X105332843Y-59390000D01*
X105332843Y-56390000D01*
X105325487Y-56315311D01*
X105303701Y-56243492D01*
X105268322Y-56177304D01*
X105220711Y-56119289D01*
X105162696Y-56071678D01*
X105096508Y-56036299D01*
X105024689Y-56014513D01*
X104950000Y-56007157D01*
X104050000Y-56007157D01*
X103975311Y-56014513D01*
X103903492Y-56036299D01*
X103837304Y-56071678D01*
X103779289Y-56119289D01*
X103731678Y-56177304D01*
X103696299Y-56243492D01*
X103674513Y-56315311D01*
X103667157Y-56390000D01*
X103332843Y-56390000D01*
X103332843Y-53390000D01*
X103325487Y-53315311D01*
X103303701Y-53243492D01*
X103268322Y-53177304D01*
X103220711Y-53119289D01*
X103162696Y-53071678D01*
X103096508Y-53036299D01*
X103024689Y-53014513D01*
X102950000Y-53007157D01*
X102050000Y-53007157D01*
X101975311Y-53014513D01*
X101903492Y-53036299D01*
X101837304Y-53071678D01*
X101779289Y-53119289D01*
X101731678Y-53177304D01*
X101696299Y-53243492D01*
X101674513Y-53315311D01*
X101667157Y-53390000D01*
X99332843Y-53390000D01*
X99325487Y-53315311D01*
X99303701Y-53243492D01*
X99268322Y-53177304D01*
X99220711Y-53119289D01*
X99162696Y-53071678D01*
X99096508Y-53036299D01*
X99024689Y-53014513D01*
X98950000Y-53007157D01*
X98050000Y-53007157D01*
X97975311Y-53014513D01*
X97903492Y-53036299D01*
X97837304Y-53071678D01*
X97779289Y-53119289D01*
X97731678Y-53177304D01*
X97696299Y-53243492D01*
X97674513Y-53315311D01*
X97667157Y-53390000D01*
X97667157Y-56390000D01*
X97674513Y-56464689D01*
X97696299Y-56536508D01*
X97731678Y-56602696D01*
X97779289Y-56660711D01*
X97837304Y-56708322D01*
X97868554Y-56725026D01*
X89360430Y-65233150D01*
X89341053Y-65249052D01*
X89325151Y-65268429D01*
X89325150Y-65268430D01*
X89277571Y-65326405D01*
X89255549Y-65367606D01*
X89230400Y-65414657D01*
X89210433Y-65480481D01*
X89201352Y-65510416D01*
X89191543Y-65610000D01*
X89194001Y-65634954D01*
X89194001Y-71471258D01*
X89148689Y-71457513D01*
X89074000Y-71450157D01*
X86722000Y-71450157D01*
X86722000Y-62654944D01*
X86724457Y-62630000D01*
X86722000Y-62605053D01*
X86714649Y-62530415D01*
X86685601Y-62434657D01*
X86662571Y-62391571D01*
X86638429Y-62346404D01*
X86604895Y-62305543D01*
X86574948Y-62269052D01*
X86555565Y-62253145D01*
X80934855Y-56632435D01*
X80918948Y-56613052D01*
X80841595Y-56549571D01*
X80753343Y-56502399D01*
X80657585Y-56473351D01*
X80582947Y-56466000D01*
X80582944Y-56466000D01*
X80558000Y-56463543D01*
X80533056Y-56466000D01*
X68136943Y-56466000D01*
X68111999Y-56463543D01*
X68087055Y-56466000D01*
X68087053Y-56466000D01*
X68012415Y-56473351D01*
X67916657Y-56502399D01*
X67916655Y-56502400D01*
X67828404Y-56549571D01*
X67773810Y-56594376D01*
X67751052Y-56613052D01*
X67735150Y-56632429D01*
X66695481Y-57672099D01*
X66669846Y-57667000D01*
X66506154Y-57667000D01*
X66345606Y-57698935D01*
X66194374Y-57761577D01*
X66058268Y-57852520D01*
X65942520Y-57968268D01*
X65851577Y-58104374D01*
X65788935Y-58255606D01*
X65757000Y-58416154D01*
X65757000Y-58579846D01*
X65788935Y-58740394D01*
X65851577Y-58891626D01*
X65942520Y-59027732D01*
X66058268Y-59143480D01*
X66194374Y-59234423D01*
X66345606Y-59297065D01*
X66506154Y-59329000D01*
X66669846Y-59329000D01*
X66830394Y-59297065D01*
X66981626Y-59234423D01*
X67117732Y-59143480D01*
X67233480Y-59027732D01*
X67324423Y-58891626D01*
X67387065Y-58740394D01*
X67419000Y-58579846D01*
X67419000Y-58416154D01*
X67413901Y-58390519D01*
X68322421Y-57482000D01*
X80347580Y-57482000D01*
X85706000Y-62840420D01*
X85706001Y-71450157D01*
X83354000Y-71450157D01*
X83279311Y-71457513D01*
X83207492Y-71479299D01*
X83141304Y-71514678D01*
X83083289Y-71562289D01*
X83035678Y-71620304D01*
X83000299Y-71686492D01*
X82978513Y-71758311D01*
X82971157Y-71833000D01*
X82971157Y-78183000D01*
X82978513Y-78257689D01*
X82994381Y-78310000D01*
X82038420Y-78310000D01*
X81574000Y-77845580D01*
X81574000Y-75802258D01*
X81585606Y-75807065D01*
X81746154Y-75839000D01*
X81909846Y-75839000D01*
X82070394Y-75807065D01*
X82221626Y-75744423D01*
X82357732Y-75653480D01*
X82473480Y-75537732D01*
X82564423Y-75401626D01*
X82627065Y-75250394D01*
X82659000Y-75089846D01*
X82659000Y-74926154D01*
X82627065Y-74765606D01*
X82564423Y-74614374D01*
X82473480Y-74478268D01*
X82357732Y-74362520D01*
X82221626Y-74271577D01*
X82070394Y-74208935D01*
X81909846Y-74177000D01*
X81746154Y-74177000D01*
X81585606Y-74208935D01*
X81574000Y-74213742D01*
X81574000Y-66762026D01*
X82118935Y-67306961D01*
X82138815Y-67331185D01*
X82163039Y-67351065D01*
X82163042Y-67351068D01*
X82235505Y-67410537D01*
X82273931Y-67431076D01*
X82345820Y-67469502D01*
X82465518Y-67505812D01*
X82558808Y-67515000D01*
X82558818Y-67515000D01*
X82589999Y-67518071D01*
X82621180Y-67515000D01*
X82811788Y-67515000D01*
X82822268Y-67525480D01*
X82958374Y-67616423D01*
X83109606Y-67679065D01*
X83270154Y-67711000D01*
X83433846Y-67711000D01*
X83594394Y-67679065D01*
X83745626Y-67616423D01*
X83881732Y-67525480D01*
X83997480Y-67409732D01*
X84088423Y-67273626D01*
X84151065Y-67122394D01*
X84183000Y-66961846D01*
X84183000Y-66798154D01*
X84151065Y-66637606D01*
X84088423Y-66486374D01*
X83997480Y-66350268D01*
X83881732Y-66234520D01*
X83745626Y-66143577D01*
X83594394Y-66080935D01*
X83433846Y-66049000D01*
X83270154Y-66049000D01*
X83109606Y-66080935D01*
X82958374Y-66143577D01*
X82834424Y-66226398D01*
X79805024Y-63197000D01*
X80476956Y-62525069D01*
X80501185Y-62505185D01*
X80580537Y-62408494D01*
X80639502Y-62298180D01*
X80675812Y-62178482D01*
X80684889Y-62086323D01*
X80695480Y-62075732D01*
X80786423Y-61939626D01*
X80849065Y-61788394D01*
X80881000Y-61627846D01*
X80881000Y-61464154D01*
X80849065Y-61303606D01*
X80786423Y-61152374D01*
X80695480Y-61016268D01*
X80579732Y-60900520D01*
X80443626Y-60809577D01*
X80292394Y-60746935D01*
X80131846Y-60715000D01*
X79968154Y-60715000D01*
X79807606Y-60746935D01*
X79656374Y-60809577D01*
X79520268Y-60900520D01*
X79404520Y-61016268D01*
X79313577Y-61152374D01*
X79250935Y-61303606D01*
X79219000Y-61464154D01*
X79219000Y-61627846D01*
X79250935Y-61788394D01*
X79299744Y-61906231D01*
X78907001Y-62298975D01*
X77348612Y-60740588D01*
X77328723Y-60716353D01*
X77232032Y-60637001D01*
X77121718Y-60578036D01*
X77002020Y-60541726D01*
X76908730Y-60532538D01*
X76908719Y-60532538D01*
X76877538Y-60529467D01*
X76846357Y-60532538D01*
X73930047Y-60532538D01*
X73898858Y-60529466D01*
X73867669Y-60532538D01*
X73867666Y-60532538D01*
X73774376Y-60541726D01*
X73654678Y-60578036D01*
X73544364Y-60637000D01*
X73490382Y-60681303D01*
X73447673Y-60716353D01*
X73427788Y-60740583D01*
X71315174Y-62853198D01*
X67015223Y-62853198D01*
X65789074Y-61627050D01*
X65769185Y-61602815D01*
X65672494Y-61523463D01*
X65562180Y-61464498D01*
X65442482Y-61428188D01*
X65349192Y-61419000D01*
X65349181Y-61419000D01*
X65318000Y-61415929D01*
X65286819Y-61419000D01*
X63572212Y-61419000D01*
X63561732Y-61408520D01*
X63425626Y-61317577D01*
X63274394Y-61254935D01*
X63113846Y-61223000D01*
X62950154Y-61223000D01*
X62789606Y-61254935D01*
X62638374Y-61317577D01*
X62502268Y-61408520D01*
X62491788Y-61419000D01*
X61031192Y-61419000D01*
X61000000Y-61415928D01*
X60968809Y-61419000D01*
X55987026Y-61419000D01*
X55499000Y-60930975D01*
X55499000Y-60916154D01*
X55467065Y-60755606D01*
X55404423Y-60604374D01*
X55313480Y-60468268D01*
X55197732Y-60352520D01*
X55061626Y-60261577D01*
X54910394Y-60198935D01*
X54749846Y-60167000D01*
X54586154Y-60167000D01*
X54425606Y-60198935D01*
X54274374Y-60261577D01*
X54138268Y-60352520D01*
X54022520Y-60468268D01*
X53931577Y-60604374D01*
X53868935Y-60755606D01*
X53837000Y-60916154D01*
X53837000Y-61079846D01*
X53868935Y-61240394D01*
X53931577Y-61391626D01*
X54022520Y-61527732D01*
X54138268Y-61643480D01*
X54274374Y-61734423D01*
X54425606Y-61797065D01*
X54586154Y-61829000D01*
X54600975Y-61829000D01*
X55252934Y-62480960D01*
X55272815Y-62505185D01*
X55297039Y-62525065D01*
X55297043Y-62525069D01*
X55369506Y-62584538D01*
X55454560Y-62630000D01*
X55479820Y-62643502D01*
X55599518Y-62679812D01*
X55692808Y-62689000D01*
X55692811Y-62689000D01*
X55724000Y-62692072D01*
X55755189Y-62689000D01*
X60365001Y-62689000D01*
X60365000Y-68372819D01*
X60361929Y-68404000D01*
X60365000Y-68435181D01*
X60365000Y-68435191D01*
X60374188Y-68528481D01*
X60410498Y-68648179D01*
X60469463Y-68758493D01*
X60548815Y-68855185D01*
X60573050Y-68875074D01*
X61117975Y-69420000D01*
X55622421Y-69420000D01*
X55280855Y-69078434D01*
X55264948Y-69059052D01*
X55187595Y-68995571D01*
X55099343Y-68948399D01*
X55003585Y-68919351D01*
X54928947Y-68912000D01*
X54928944Y-68912000D01*
X54904000Y-68909543D01*
X54879056Y-68912000D01*
X48631877Y-68912000D01*
X48693626Y-68886423D01*
X48829732Y-68795480D01*
X48945480Y-68679732D01*
X49036423Y-68543626D01*
X49099065Y-68392394D01*
X49131000Y-68231846D01*
X49131000Y-68068154D01*
X49099065Y-67907606D01*
X49036423Y-67756374D01*
X48945480Y-67620268D01*
X48829732Y-67504520D01*
X48693626Y-67413577D01*
X48542394Y-67350935D01*
X48381846Y-67319000D01*
X48218154Y-67319000D01*
X48057606Y-67350935D01*
X47906374Y-67413577D01*
X47770268Y-67504520D01*
X47690604Y-67584184D01*
X46585901Y-66479481D01*
X46591000Y-66453846D01*
X46591000Y-66290154D01*
X46559065Y-66129606D01*
X46496423Y-65978374D01*
X46405480Y-65842268D01*
X46289732Y-65726520D01*
X46153626Y-65635577D01*
X46002394Y-65572935D01*
X45841846Y-65541000D01*
X45678154Y-65541000D01*
X45517606Y-65572935D01*
X45366374Y-65635577D01*
X45230268Y-65726520D01*
X45114520Y-65842268D01*
X45023577Y-65978374D01*
X44960935Y-66129606D01*
X44929000Y-66290154D01*
X44929000Y-66453846D01*
X44960935Y-66614394D01*
X45023577Y-66765626D01*
X45114520Y-66901732D01*
X45230268Y-67017480D01*
X45366374Y-67108423D01*
X45517606Y-67171065D01*
X45678154Y-67203000D01*
X45841846Y-67203000D01*
X45867481Y-67197901D01*
X46750580Y-68081000D01*
X46694154Y-68081000D01*
X46533606Y-68112935D01*
X46382374Y-68175577D01*
X46246268Y-68266520D01*
X46130520Y-68382268D01*
X46039577Y-68518374D01*
X45976935Y-68669606D01*
X45945000Y-68830154D01*
X45945000Y-68993846D01*
X45950099Y-69019480D01*
X44481000Y-70488580D01*
X44481000Y-55114154D01*
X76933000Y-55114154D01*
X76933000Y-55277846D01*
X76964935Y-55438394D01*
X77027577Y-55589626D01*
X77118520Y-55725732D01*
X77234268Y-55841480D01*
X77370374Y-55932423D01*
X77521606Y-55995065D01*
X77682154Y-56027000D01*
X77845846Y-56027000D01*
X78006394Y-55995065D01*
X78157626Y-55932423D01*
X78293732Y-55841480D01*
X78304212Y-55831000D01*
X81056976Y-55831000D01*
X83487000Y-58261025D01*
X83487000Y-58330771D01*
X83520856Y-58500978D01*
X83587268Y-58661310D01*
X83683682Y-58805605D01*
X83806395Y-58928318D01*
X83950690Y-59024732D01*
X84111022Y-59091144D01*
X84281229Y-59125000D01*
X84454771Y-59125000D01*
X84624978Y-59091144D01*
X84785310Y-59024732D01*
X84929605Y-58928318D01*
X85052318Y-58805605D01*
X85148732Y-58661310D01*
X85215144Y-58500978D01*
X85249000Y-58330771D01*
X85249000Y-58157229D01*
X85215144Y-57987022D01*
X85148732Y-57826690D01*
X85052318Y-57682395D01*
X84929605Y-57559682D01*
X84785310Y-57463268D01*
X84624978Y-57396856D01*
X84454771Y-57363000D01*
X84385025Y-57363000D01*
X81791074Y-54769050D01*
X81771185Y-54744815D01*
X81674494Y-54665463D01*
X81564180Y-54606498D01*
X81444482Y-54570188D01*
X81351192Y-54561000D01*
X81351181Y-54561000D01*
X81320000Y-54557929D01*
X81288819Y-54561000D01*
X78304212Y-54561000D01*
X78293732Y-54550520D01*
X78157626Y-54459577D01*
X78006394Y-54396935D01*
X77845846Y-54365000D01*
X77682154Y-54365000D01*
X77521606Y-54396935D01*
X77370374Y-54459577D01*
X77234268Y-54550520D01*
X77118520Y-54666268D01*
X77027577Y-54802374D01*
X76964935Y-54953606D01*
X76933000Y-55114154D01*
X44481000Y-55114154D01*
X44481000Y-52081000D01*
X113519000Y-52081000D01*
X113519001Y-96819000D01*
G36*
X68910930Y-73656955D02*
G01*
X68930815Y-73681185D01*
X69027506Y-73760537D01*
X69137820Y-73819502D01*
X69257518Y-73855812D01*
X69350808Y-73865000D01*
X69350819Y-73865000D01*
X69382000Y-73868071D01*
X69413181Y-73865000D01*
X73690976Y-73865000D01*
X74589001Y-74763026D01*
X74589000Y-79824976D01*
X74543046Y-79870930D01*
X74518816Y-79890815D01*
X74498932Y-79915044D01*
X74439463Y-79987507D01*
X74380498Y-80097821D01*
X74372498Y-80124195D01*
X74344189Y-80217518D01*
X74342482Y-80234848D01*
X74331929Y-80342000D01*
X74335001Y-80373191D01*
X74335001Y-80817787D01*
X74324520Y-80828268D01*
X74233577Y-80964374D01*
X74170935Y-81115606D01*
X74139000Y-81276154D01*
X74139000Y-81332579D01*
X72747901Y-79941481D01*
X72753000Y-79915846D01*
X72753000Y-79752154D01*
X72721065Y-79591606D01*
X72658423Y-79440374D01*
X72567480Y-79304268D01*
X72451732Y-79188520D01*
X72315626Y-79097577D01*
X72164394Y-79034935D01*
X72003846Y-79003000D01*
X71840154Y-79003000D01*
X71679606Y-79034935D01*
X71528374Y-79097577D01*
X71392268Y-79188520D01*
X71276520Y-79304268D01*
X71185577Y-79440374D01*
X71122935Y-79591606D01*
X71091000Y-79752154D01*
X71091000Y-79915846D01*
X71122935Y-80076394D01*
X71185577Y-80227626D01*
X71276520Y-80363732D01*
X71392268Y-80479480D01*
X71528374Y-80570423D01*
X71679606Y-80633065D01*
X71840154Y-80665000D01*
X72003846Y-80665000D01*
X72029481Y-80659901D01*
X72600580Y-81231000D01*
X70937189Y-81231000D01*
X70906000Y-81227928D01*
X70874811Y-81231000D01*
X70874808Y-81231000D01*
X70781518Y-81240188D01*
X70668641Y-81274429D01*
X70661820Y-81276498D01*
X70551506Y-81335462D01*
X70497524Y-81379765D01*
X70454815Y-81414815D01*
X70434930Y-81439045D01*
X70005438Y-81868538D01*
X56566564Y-81868538D01*
X54125380Y-79427356D01*
X54087185Y-79380815D01*
X54062956Y-79360931D01*
X53946179Y-79244154D01*
X55343000Y-79244154D01*
X55343000Y-79407846D01*
X55374935Y-79568394D01*
X55437577Y-79719626D01*
X55528520Y-79855732D01*
X55644268Y-79971480D01*
X55780374Y-80062423D01*
X55931606Y-80125065D01*
X56092154Y-80157000D01*
X56255846Y-80157000D01*
X56416394Y-80125065D01*
X56567626Y-80062423D01*
X56703732Y-79971480D01*
X56819480Y-79855732D01*
X56834001Y-79834000D01*
X61229056Y-79834000D01*
X61254000Y-79836457D01*
X61278944Y-79834000D01*
X61278947Y-79834000D01*
X61353585Y-79826649D01*
X61449343Y-79797601D01*
X61537595Y-79750429D01*
X61614948Y-79686948D01*
X61630855Y-79667565D01*
X61654519Y-79643901D01*
X61680154Y-79649000D01*
X61843846Y-79649000D01*
X62004394Y-79617065D01*
X62155626Y-79554423D01*
X62291732Y-79463480D01*
X62407480Y-79347732D01*
X62498423Y-79211626D01*
X62561065Y-79060394D01*
X62593000Y-78899846D01*
X62593000Y-78736154D01*
X62587901Y-78710519D01*
X65528420Y-75770000D01*
X66181999Y-75770000D01*
X66196520Y-75791732D01*
X66312268Y-75907480D01*
X66448374Y-75998423D01*
X66599606Y-76061065D01*
X66760154Y-76093000D01*
X66923846Y-76093000D01*
X67084394Y-76061065D01*
X67235626Y-75998423D01*
X67371732Y-75907480D01*
X67487480Y-75791732D01*
X67578423Y-75655626D01*
X67641065Y-75504394D01*
X67673000Y-75343846D01*
X67673000Y-75180154D01*
X67641065Y-75019606D01*
X67578423Y-74868374D01*
X67487480Y-74732268D01*
X67371732Y-74616520D01*
X67235626Y-74525577D01*
X67084394Y-74462935D01*
X66923846Y-74431000D01*
X66760154Y-74431000D01*
X66599606Y-74462935D01*
X66448374Y-74525577D01*
X66312268Y-74616520D01*
X66196520Y-74732268D01*
X66181999Y-74754000D01*
X65342944Y-74754000D01*
X65318000Y-74751543D01*
X65293056Y-74754000D01*
X65293053Y-74754000D01*
X65218415Y-74761351D01*
X65122657Y-74790399D01*
X65081576Y-74812357D01*
X65034404Y-74837571D01*
X65013785Y-74854493D01*
X64957052Y-74901052D01*
X64941145Y-74920435D01*
X61869481Y-77992099D01*
X61843846Y-77987000D01*
X61680154Y-77987000D01*
X61519606Y-78018935D01*
X61368374Y-78081577D01*
X61232268Y-78172520D01*
X61116520Y-78288268D01*
X61025577Y-78424374D01*
X60962935Y-78575606D01*
X60931000Y-78736154D01*
X60931000Y-78818000D01*
X56834001Y-78818000D01*
X56819480Y-78796268D01*
X56703732Y-78680520D01*
X56567626Y-78589577D01*
X56416394Y-78526935D01*
X56255846Y-78495000D01*
X56092154Y-78495000D01*
X55931606Y-78526935D01*
X55780374Y-78589577D01*
X55644268Y-78680520D01*
X55528520Y-78796268D01*
X55437577Y-78932374D01*
X55374935Y-79083606D01*
X55343000Y-79244154D01*
X53946179Y-79244154D01*
X53835000Y-79132976D01*
X53835000Y-78595192D01*
X53838072Y-78564000D01*
X53835000Y-78532808D01*
X53835000Y-75731180D01*
X53838071Y-75699999D01*
X53835000Y-75668818D01*
X53835000Y-75668808D01*
X53825812Y-75575518D01*
X53789502Y-75455820D01*
X53730537Y-75345506D01*
X53651185Y-75248815D01*
X53626956Y-75228931D01*
X53472838Y-75074814D01*
X53622394Y-75045065D01*
X53773626Y-74982423D01*
X53909732Y-74891480D01*
X54025480Y-74775732D01*
X54116423Y-74639626D01*
X54179065Y-74488394D01*
X54211000Y-74327846D01*
X54211000Y-74164154D01*
X54205901Y-74138519D01*
X54606421Y-73738000D01*
X66885580Y-73738000D01*
X70275149Y-77127570D01*
X70291052Y-77146948D01*
X70310429Y-77162850D01*
X70368404Y-77210429D01*
X70456655Y-77257600D01*
X70456657Y-77257601D01*
X70552415Y-77286649D01*
X70627053Y-77294000D01*
X70627055Y-77294000D01*
X70651999Y-77296457D01*
X70676943Y-77294000D01*
X72727580Y-77294000D01*
X73420579Y-77987000D01*
X73364154Y-77987000D01*
X73203606Y-78018935D01*
X73052374Y-78081577D01*
X72916268Y-78172520D01*
X72800520Y-78288268D01*
X72709577Y-78424374D01*
X72646935Y-78575606D01*
X72615000Y-78736154D01*
X72615000Y-78899846D01*
X72646935Y-79060394D01*
X72709577Y-79211626D01*
X72800520Y-79347732D01*
X72916268Y-79463480D01*
X73052374Y-79554423D01*
X73203606Y-79617065D01*
X73364154Y-79649000D01*
X73527846Y-79649000D01*
X73688394Y-79617065D01*
X73839626Y-79554423D01*
X73975732Y-79463480D01*
X74091480Y-79347732D01*
X74182423Y-79211626D01*
X74245065Y-79060394D01*
X74277000Y-78899846D01*
X74277000Y-78736154D01*
X74271901Y-78710520D01*
X74295570Y-78686851D01*
X74314948Y-78670948D01*
X74335548Y-78645846D01*
X74378429Y-78593596D01*
X74425600Y-78505345D01*
X74425601Y-78505342D01*
X74454649Y-78409585D01*
X74462000Y-78334947D01*
X74462000Y-78334945D01*
X74464457Y-78310001D01*
X74462000Y-78285057D01*
X74462000Y-77826944D01*
X74464457Y-77802000D01*
X74461542Y-77772405D01*
X74454649Y-77702415D01*
X74425601Y-77606657D01*
X74384381Y-77529540D01*
X74378429Y-77518404D01*
X74330850Y-77460429D01*
X74314948Y-77441052D01*
X74295571Y-77425150D01*
X73314855Y-76444435D01*
X73298948Y-76425052D01*
X73221595Y-76361571D01*
X73133343Y-76314399D01*
X73037585Y-76285351D01*
X72962947Y-76278000D01*
X72962944Y-76278000D01*
X72938000Y-76275543D01*
X72913056Y-76278000D01*
X70983877Y-76278000D01*
X71045626Y-76252423D01*
X71181732Y-76161480D01*
X71297480Y-76045732D01*
X71312001Y-76024000D01*
X71648451Y-76024000D01*
X71701109Y-76059185D01*
X71815944Y-76106751D01*
X71937852Y-76131000D01*
X73000000Y-76131000D01*
X73035704Y-76127499D01*
X73071392Y-76124251D01*
X73072671Y-76123875D01*
X73074003Y-76123744D01*
X73108368Y-76113369D01*
X73142725Y-76103257D01*
X73143908Y-76102638D01*
X73145188Y-76102252D01*
X73176850Y-76085417D01*
X73208622Y-76068807D01*
X73209663Y-76067970D01*
X73210842Y-76067343D01*
X73238605Y-76044700D01*
X73266572Y-76022214D01*
X73267431Y-76021190D01*
X73268466Y-76020346D01*
X73291311Y-75992731D01*
X73314368Y-75965252D01*
X73315012Y-75964081D01*
X73315863Y-75963052D01*
X73332894Y-75931554D01*
X73350191Y-75900092D01*
X73350596Y-75898816D01*
X73351230Y-75897643D01*
X73361829Y-75863402D01*
X73372674Y-75829214D01*
X73372823Y-75827888D01*
X73373218Y-75826611D01*
X73376968Y-75790936D01*
X73380963Y-75755320D01*
X73380981Y-75752757D01*
X73380991Y-75752660D01*
X73380982Y-75752563D01*
X73381000Y-75750000D01*
X73381000Y-75250000D01*
X73377499Y-75214296D01*
X73374251Y-75178608D01*
X73373875Y-75177329D01*
X73373744Y-75175997D01*
X73363369Y-75141632D01*
X73353257Y-75107275D01*
X73352638Y-75106092D01*
X73352252Y-75104812D01*
X73335417Y-75073150D01*
X73318807Y-75041378D01*
X73317970Y-75040337D01*
X73317343Y-75039158D01*
X73294700Y-75011395D01*
X73272214Y-74983428D01*
X73271190Y-74982569D01*
X73270346Y-74981534D01*
X73242731Y-74958689D01*
X73215252Y-74935632D01*
X73214081Y-74934988D01*
X73213052Y-74934137D01*
X73181554Y-74917106D01*
X73150092Y-74899809D01*
X73148816Y-74899404D01*
X73147643Y-74898770D01*
X73113402Y-74888171D01*
X73079214Y-74877326D01*
X73077888Y-74877177D01*
X73076611Y-74876782D01*
X73040936Y-74873032D01*
X73005320Y-74869037D01*
X73002757Y-74869019D01*
X73002660Y-74869009D01*
X73002563Y-74869018D01*
X73000000Y-74869000D01*
X71937852Y-74869000D01*
X71815944Y-74893249D01*
X71701109Y-74940815D01*
X71600560Y-75008000D01*
X71312001Y-75008000D01*
X71297480Y-74986268D01*
X71181732Y-74870520D01*
X71045626Y-74779577D01*
X70894394Y-74716935D01*
X70733846Y-74685000D01*
X70570154Y-74685000D01*
X70409606Y-74716935D01*
X70258374Y-74779577D01*
X70122268Y-74870520D01*
X70006520Y-74986268D01*
X69915577Y-75122374D01*
X69854426Y-75270006D01*
X67472855Y-72888435D01*
X67456948Y-72869052D01*
X67432514Y-72849000D01*
X68102976Y-72849000D01*
X68910930Y-73656955D01*
G37*
X68910930Y-73656955D02*
X68930815Y-73681185D01*
X69027506Y-73760537D01*
X69137820Y-73819502D01*
X69257518Y-73855812D01*
X69350808Y-73865000D01*
X69350819Y-73865000D01*
X69382000Y-73868071D01*
X69413181Y-73865000D01*
X73690976Y-73865000D01*
X74589001Y-74763026D01*
X74589000Y-79824976D01*
X74543046Y-79870930D01*
X74518816Y-79890815D01*
X74498932Y-79915044D01*
X74439463Y-79987507D01*
X74380498Y-80097821D01*
X74372498Y-80124195D01*
X74344189Y-80217518D01*
X74342482Y-80234848D01*
X74331929Y-80342000D01*
X74335001Y-80373191D01*
X74335001Y-80817787D01*
X74324520Y-80828268D01*
X74233577Y-80964374D01*
X74170935Y-81115606D01*
X74139000Y-81276154D01*
X74139000Y-81332579D01*
X72747901Y-79941481D01*
X72753000Y-79915846D01*
X72753000Y-79752154D01*
X72721065Y-79591606D01*
X72658423Y-79440374D01*
X72567480Y-79304268D01*
X72451732Y-79188520D01*
X72315626Y-79097577D01*
X72164394Y-79034935D01*
X72003846Y-79003000D01*
X71840154Y-79003000D01*
X71679606Y-79034935D01*
X71528374Y-79097577D01*
X71392268Y-79188520D01*
X71276520Y-79304268D01*
X71185577Y-79440374D01*
X71122935Y-79591606D01*
X71091000Y-79752154D01*
X71091000Y-79915846D01*
X71122935Y-80076394D01*
X71185577Y-80227626D01*
X71276520Y-80363732D01*
X71392268Y-80479480D01*
X71528374Y-80570423D01*
X71679606Y-80633065D01*
X71840154Y-80665000D01*
X72003846Y-80665000D01*
X72029481Y-80659901D01*
X72600580Y-81231000D01*
X70937189Y-81231000D01*
X70906000Y-81227928D01*
X70874811Y-81231000D01*
X70874808Y-81231000D01*
X70781518Y-81240188D01*
X70668641Y-81274429D01*
X70661820Y-81276498D01*
X70551506Y-81335462D01*
X70497524Y-81379765D01*
X70454815Y-81414815D01*
X70434930Y-81439045D01*
X70005438Y-81868538D01*
X56566564Y-81868538D01*
X54125380Y-79427356D01*
X54087185Y-79380815D01*
X54062956Y-79360931D01*
X53946179Y-79244154D01*
X55343000Y-79244154D01*
X55343000Y-79407846D01*
X55374935Y-79568394D01*
X55437577Y-79719626D01*
X55528520Y-79855732D01*
X55644268Y-79971480D01*
X55780374Y-80062423D01*
X55931606Y-80125065D01*
X56092154Y-80157000D01*
X56255846Y-80157000D01*
X56416394Y-80125065D01*
X56567626Y-80062423D01*
X56703732Y-79971480D01*
X56819480Y-79855732D01*
X56834001Y-79834000D01*
X61229056Y-79834000D01*
X61254000Y-79836457D01*
X61278944Y-79834000D01*
X61278947Y-79834000D01*
X61353585Y-79826649D01*
X61449343Y-79797601D01*
X61537595Y-79750429D01*
X61614948Y-79686948D01*
X61630855Y-79667565D01*
X61654519Y-79643901D01*
X61680154Y-79649000D01*
X61843846Y-79649000D01*
X62004394Y-79617065D01*
X62155626Y-79554423D01*
X62291732Y-79463480D01*
X62407480Y-79347732D01*
X62498423Y-79211626D01*
X62561065Y-79060394D01*
X62593000Y-78899846D01*
X62593000Y-78736154D01*
X62587901Y-78710519D01*
X65528420Y-75770000D01*
X66181999Y-75770000D01*
X66196520Y-75791732D01*
X66312268Y-75907480D01*
X66448374Y-75998423D01*
X66599606Y-76061065D01*
X66760154Y-76093000D01*
X66923846Y-76093000D01*
X67084394Y-76061065D01*
X67235626Y-75998423D01*
X67371732Y-75907480D01*
X67487480Y-75791732D01*
X67578423Y-75655626D01*
X67641065Y-75504394D01*
X67673000Y-75343846D01*
X67673000Y-75180154D01*
X67641065Y-75019606D01*
X67578423Y-74868374D01*
X67487480Y-74732268D01*
X67371732Y-74616520D01*
X67235626Y-74525577D01*
X67084394Y-74462935D01*
X66923846Y-74431000D01*
X66760154Y-74431000D01*
X66599606Y-74462935D01*
X66448374Y-74525577D01*
X66312268Y-74616520D01*
X66196520Y-74732268D01*
X66181999Y-74754000D01*
X65342944Y-74754000D01*
X65318000Y-74751543D01*
X65293056Y-74754000D01*
X65293053Y-74754000D01*
X65218415Y-74761351D01*
X65122657Y-74790399D01*
X65081576Y-74812357D01*
X65034404Y-74837571D01*
X65013785Y-74854493D01*
X64957052Y-74901052D01*
X64941145Y-74920435D01*
X61869481Y-77992099D01*
X61843846Y-77987000D01*
X61680154Y-77987000D01*
X61519606Y-78018935D01*
X61368374Y-78081577D01*
X61232268Y-78172520D01*
X61116520Y-78288268D01*
X61025577Y-78424374D01*
X60962935Y-78575606D01*
X60931000Y-78736154D01*
X60931000Y-78818000D01*
X56834001Y-78818000D01*
X56819480Y-78796268D01*
X56703732Y-78680520D01*
X56567626Y-78589577D01*
X56416394Y-78526935D01*
X56255846Y-78495000D01*
X56092154Y-78495000D01*
X55931606Y-78526935D01*
X55780374Y-78589577D01*
X55644268Y-78680520D01*
X55528520Y-78796268D01*
X55437577Y-78932374D01*
X55374935Y-79083606D01*
X55343000Y-79244154D01*
X53946179Y-79244154D01*
X53835000Y-79132976D01*
X53835000Y-78595192D01*
X53838072Y-78564000D01*
X53835000Y-78532808D01*
X53835000Y-75731180D01*
X53838071Y-75699999D01*
X53835000Y-75668818D01*
X53835000Y-75668808D01*
X53825812Y-75575518D01*
X53789502Y-75455820D01*
X53730537Y-75345506D01*
X53651185Y-75248815D01*
X53626956Y-75228931D01*
X53472838Y-75074814D01*
X53622394Y-75045065D01*
X53773626Y-74982423D01*
X53909732Y-74891480D01*
X54025480Y-74775732D01*
X54116423Y-74639626D01*
X54179065Y-74488394D01*
X54211000Y-74327846D01*
X54211000Y-74164154D01*
X54205901Y-74138519D01*
X54606421Y-73738000D01*
X66885580Y-73738000D01*
X70275149Y-77127570D01*
X70291052Y-77146948D01*
X70310429Y-77162850D01*
X70368404Y-77210429D01*
X70456655Y-77257600D01*
X70456657Y-77257601D01*
X70552415Y-77286649D01*
X70627053Y-77294000D01*
X70627055Y-77294000D01*
X70651999Y-77296457D01*
X70676943Y-77294000D01*
X72727580Y-77294000D01*
X73420579Y-77987000D01*
X73364154Y-77987000D01*
X73203606Y-78018935D01*
X73052374Y-78081577D01*
X72916268Y-78172520D01*
X72800520Y-78288268D01*
X72709577Y-78424374D01*
X72646935Y-78575606D01*
X72615000Y-78736154D01*
X72615000Y-78899846D01*
X72646935Y-79060394D01*
X72709577Y-79211626D01*
X72800520Y-79347732D01*
X72916268Y-79463480D01*
X73052374Y-79554423D01*
X73203606Y-79617065D01*
X73364154Y-79649000D01*
X73527846Y-79649000D01*
X73688394Y-79617065D01*
X73839626Y-79554423D01*
X73975732Y-79463480D01*
X74091480Y-79347732D01*
X74182423Y-79211626D01*
X74245065Y-79060394D01*
X74277000Y-78899846D01*
X74277000Y-78736154D01*
X74271901Y-78710520D01*
X74295570Y-78686851D01*
X74314948Y-78670948D01*
X74335548Y-78645846D01*
X74378429Y-78593596D01*
X74425600Y-78505345D01*
X74425601Y-78505342D01*
X74454649Y-78409585D01*
X74462000Y-78334947D01*
X74462000Y-78334945D01*
X74464457Y-78310001D01*
X74462000Y-78285057D01*
X74462000Y-77826944D01*
X74464457Y-77802000D01*
X74461542Y-77772405D01*
X74454649Y-77702415D01*
X74425601Y-77606657D01*
X74384381Y-77529540D01*
X74378429Y-77518404D01*
X74330850Y-77460429D01*
X74314948Y-77441052D01*
X74295571Y-77425150D01*
X73314855Y-76444435D01*
X73298948Y-76425052D01*
X73221595Y-76361571D01*
X73133343Y-76314399D01*
X73037585Y-76285351D01*
X72962947Y-76278000D01*
X72962944Y-76278000D01*
X72938000Y-76275543D01*
X72913056Y-76278000D01*
X70983877Y-76278000D01*
X71045626Y-76252423D01*
X71181732Y-76161480D01*
X71297480Y-76045732D01*
X71312001Y-76024000D01*
X71648451Y-76024000D01*
X71701109Y-76059185D01*
X71815944Y-76106751D01*
X71937852Y-76131000D01*
X73000000Y-76131000D01*
X73035704Y-76127499D01*
X73071392Y-76124251D01*
X73072671Y-76123875D01*
X73074003Y-76123744D01*
X73108368Y-76113369D01*
X73142725Y-76103257D01*
X73143908Y-76102638D01*
X73145188Y-76102252D01*
X73176850Y-76085417D01*
X73208622Y-76068807D01*
X73209663Y-76067970D01*
X73210842Y-76067343D01*
X73238605Y-76044700D01*
X73266572Y-76022214D01*
X73267431Y-76021190D01*
X73268466Y-76020346D01*
X73291311Y-75992731D01*
X73314368Y-75965252D01*
X73315012Y-75964081D01*
X73315863Y-75963052D01*
X73332894Y-75931554D01*
X73350191Y-75900092D01*
X73350596Y-75898816D01*
X73351230Y-75897643D01*
X73361829Y-75863402D01*
X73372674Y-75829214D01*
X73372823Y-75827888D01*
X73373218Y-75826611D01*
X73376968Y-75790936D01*
X73380963Y-75755320D01*
X73380981Y-75752757D01*
X73380991Y-75752660D01*
X73380982Y-75752563D01*
X73381000Y-75750000D01*
X73381000Y-75250000D01*
X73377499Y-75214296D01*
X73374251Y-75178608D01*
X73373875Y-75177329D01*
X73373744Y-75175997D01*
X73363369Y-75141632D01*
X73353257Y-75107275D01*
X73352638Y-75106092D01*
X73352252Y-75104812D01*
X73335417Y-75073150D01*
X73318807Y-75041378D01*
X73317970Y-75040337D01*
X73317343Y-75039158D01*
X73294700Y-75011395D01*
X73272214Y-74983428D01*
X73271190Y-74982569D01*
X73270346Y-74981534D01*
X73242731Y-74958689D01*
X73215252Y-74935632D01*
X73214081Y-74934988D01*
X73213052Y-74934137D01*
X73181554Y-74917106D01*
X73150092Y-74899809D01*
X73148816Y-74899404D01*
X73147643Y-74898770D01*
X73113402Y-74888171D01*
X73079214Y-74877326D01*
X73077888Y-74877177D01*
X73076611Y-74876782D01*
X73040936Y-74873032D01*
X73005320Y-74869037D01*
X73002757Y-74869019D01*
X73002660Y-74869009D01*
X73002563Y-74869018D01*
X73000000Y-74869000D01*
X71937852Y-74869000D01*
X71815944Y-74893249D01*
X71701109Y-74940815D01*
X71600560Y-75008000D01*
X71312001Y-75008000D01*
X71297480Y-74986268D01*
X71181732Y-74870520D01*
X71045626Y-74779577D01*
X70894394Y-74716935D01*
X70733846Y-74685000D01*
X70570154Y-74685000D01*
X70409606Y-74716935D01*
X70258374Y-74779577D01*
X70122268Y-74870520D01*
X70006520Y-74986268D01*
X69915577Y-75122374D01*
X69854426Y-75270006D01*
X67472855Y-72888435D01*
X67456948Y-72869052D01*
X67432514Y-72849000D01*
X68102976Y-72849000D01*
X68910930Y-73656955D01*
M02*
