G04 #@! TF.GenerationSoftware,KiCad,Pcbnew,(5.1.5-0-10_14)*
G04 #@! TF.CreationDate,2020-05-22T17:31:33+12:00*
G04 #@! TF.ProjectId,main-board,6d61696e-2d62-46f6-9172-642e6b696361,C*
G04 #@! TF.SameCoordinates,Original*
G04 #@! TF.FileFunction,Soldermask,Top*
G04 #@! TF.FilePolarity,Negative*
%FSLAX46Y46*%
G04 Gerber Fmt 4.6, Leading zero omitted, Abs format (unit mm)*
G04 Created by KiCad (PCBNEW (5.1.5-0-10_14)) date 2020-05-22 17:31:33*
%MOMM*%
%LPD*%
G04 APERTURE LIST*
%ADD10C,0.200000*%
%ADD11R,2.100000X0.850000*%
%ADD12R,1.998980X0.449580*%
%ADD13R,0.449580X1.998980*%
%ADD14R,0.530000X0.530000*%
%ADD15R,0.599440X1.000760*%
%ADD16R,1.399540X0.599440*%
%ADD17R,1.600000X3.000000*%
%ADD18R,1.000000X5.500000*%
%ADD19R,5.500000X2.000000*%
%ADD20R,1.300000X2.200000*%
%ADD21R,0.635000X1.143000*%
%ADD22R,1.143000X0.635000*%
%ADD23R,1.750000X0.700000*%
%ADD24R,1.500000X1.300000*%
%ADD25R,1.500000X1.500000*%
%ADD26R,1.500000X0.800000*%
%ADD27R,1.000000X1.800000*%
%ADD28R,1.550000X1.000000*%
%ADD29R,1.400000X0.800000*%
%ADD30C,1.397000*%
%ADD31R,1.397000X1.397000*%
%ADD32R,0.813000X0.500000*%
%ADD33R,0.500000X0.813000*%
%ADD34R,1.220000X0.915000*%
%ADD35R,7.000000X0.850000*%
%ADD36R,1.270000X0.381000*%
G04 APERTURE END LIST*
D10*
X44000000Y-97300000D02*
X44000000Y-51600000D01*
X114000000Y-97300000D02*
X44000000Y-97300000D01*
X114000000Y-51600000D02*
X114000000Y-97300000D01*
X44000000Y-51600000D02*
X114000000Y-51600000D01*
D11*
X111950000Y-76966000D03*
X108950000Y-74966000D03*
X111950000Y-72966000D03*
X108950000Y-70966000D03*
X111950000Y-68966000D03*
X108950000Y-66966000D03*
X111950000Y-64966000D03*
X108950000Y-62966000D03*
X111950000Y-60966000D03*
X108950000Y-58966000D03*
X89950000Y-76966000D03*
X86950000Y-74966000D03*
X89950000Y-72966000D03*
X86950000Y-70966000D03*
X89950000Y-68966000D03*
X86950000Y-66966000D03*
X89950000Y-64966000D03*
X86950000Y-62966000D03*
X89950000Y-60966000D03*
X86950000Y-58966000D03*
D12*
X50128800Y-70436000D03*
X50128800Y-69623200D03*
X50128800Y-68810400D03*
X50128800Y-67997600D03*
X50128800Y-67210200D03*
X50128800Y-66422800D03*
X50128800Y-65610000D03*
X50128800Y-64822600D03*
X59730000Y-70415680D03*
X59730000Y-69618120D03*
X59730000Y-68815480D03*
X59730000Y-68017920D03*
X59730000Y-67215280D03*
X59730000Y-66417720D03*
X59730000Y-65615080D03*
X59730000Y-64817520D03*
D13*
X56936000Y-72391800D03*
X56123200Y-72391800D03*
X55335800Y-72391800D03*
X54523000Y-72391800D03*
X53735600Y-72391800D03*
X52922800Y-72391800D03*
X52110000Y-72391800D03*
X57723400Y-72391800D03*
X57728480Y-62826160D03*
X56928380Y-62826160D03*
X56128280Y-62826160D03*
X55328180Y-62826160D03*
X54528080Y-62826160D03*
X53727980Y-62826160D03*
X52927880Y-62826160D03*
X52127780Y-62826160D03*
D14*
X62950000Y-90600000D03*
X61850000Y-90100000D03*
X61850000Y-91100000D03*
X88474000Y-83390000D03*
X87374000Y-82890000D03*
X87374000Y-83890000D03*
D15*
X89448000Y-90689960D03*
X90098240Y-88790040D03*
X88797760Y-88790040D03*
D16*
X68493000Y-61165000D03*
X68493000Y-59895000D03*
X68493000Y-58625000D03*
X73827000Y-61165000D03*
X73827000Y-59895000D03*
X73827000Y-58625000D03*
X68493000Y-57355000D03*
X73827000Y-57355000D03*
D17*
X64712000Y-94574000D03*
X71512000Y-94574000D03*
D18*
X69112000Y-92324000D03*
X67112000Y-92324000D03*
D17*
X79190000Y-94574000D03*
X85990000Y-94574000D03*
D18*
X83590000Y-92324000D03*
X81590000Y-92324000D03*
D17*
X98240000Y-94574000D03*
X105040000Y-94574000D03*
D18*
X102640000Y-92324000D03*
X100640000Y-92324000D03*
D19*
X59164000Y-54648000D03*
X49664000Y-54648000D03*
D20*
X69568000Y-54688000D03*
X73768000Y-54688000D03*
D21*
X82844000Y-87200000D03*
X81320000Y-87200000D03*
X75732000Y-70182000D03*
X74208000Y-70182000D03*
X94782000Y-86184000D03*
X93258000Y-86184000D03*
X85638000Y-87200000D03*
X84114000Y-87200000D03*
X90464000Y-83136000D03*
X91988000Y-83136000D03*
D22*
X58206000Y-75770000D03*
X58206000Y-77294000D03*
X90972000Y-86692000D03*
X90972000Y-85168000D03*
D21*
X100878000Y-86946000D03*
X102402000Y-86946000D03*
X61438000Y-93600000D03*
X62962000Y-93600000D03*
X74208000Y-66372000D03*
X75732000Y-66372000D03*
X65572000Y-67388000D03*
X64048000Y-67388000D03*
X75732000Y-68150000D03*
X74208000Y-68150000D03*
D22*
X59984000Y-75770000D03*
X59984000Y-77294000D03*
D21*
X65572000Y-69166000D03*
X64048000Y-69166000D03*
D22*
X47284000Y-60530000D03*
X47284000Y-59006000D03*
D21*
X55666000Y-82628000D03*
X57190000Y-82628000D03*
D22*
X61254000Y-61292000D03*
X61254000Y-62816000D03*
D21*
X78018000Y-60784000D03*
X76494000Y-60784000D03*
X86908000Y-87200000D03*
X88432000Y-87200000D03*
X64048000Y-71706000D03*
X65572000Y-71706000D03*
X74208000Y-71960000D03*
X75732000Y-71960000D03*
D22*
X45506000Y-60530000D03*
X45506000Y-59006000D03*
D23*
X48921000Y-90248000D03*
X48921000Y-89148000D03*
X48921000Y-91348000D03*
X48921000Y-88048000D03*
X48921000Y-92448000D03*
X48921000Y-86948000D03*
X48921000Y-93548000D03*
X48921000Y-85848000D03*
D24*
X49046000Y-84648000D03*
D25*
X49046000Y-95998000D03*
D26*
X56646000Y-84398000D03*
D27*
X58146000Y-84898000D03*
D28*
X59721000Y-95998000D03*
D29*
X57296000Y-96348000D03*
D30*
X70652000Y-71706000D03*
X70652000Y-69166000D03*
D31*
X70652000Y-66626000D03*
D22*
X84622000Y-83898000D03*
X84622000Y-85422000D03*
D32*
X79294000Y-73462000D03*
X79294000Y-72662000D03*
X79294000Y-71862000D03*
X79294000Y-71062000D03*
X79294000Y-70262000D03*
X79294000Y-69462000D03*
X81314000Y-69462000D03*
X81314000Y-70262000D03*
X81314000Y-71062000D03*
X81314000Y-71862000D03*
X81314000Y-72662000D03*
X81314000Y-73462000D03*
D33*
X80304000Y-73462000D03*
X80304000Y-69442000D03*
D34*
X91734000Y-92332000D03*
X91734000Y-88682000D03*
D21*
X87670000Y-81358000D03*
X89194000Y-81358000D03*
X64556000Y-88216000D03*
X63032000Y-88216000D03*
D35*
X67191000Y-82362000D03*
X67191000Y-83862000D03*
X67191000Y-85362000D03*
X67191000Y-80862000D03*
X67191000Y-79362000D03*
X67191000Y-77862000D03*
D22*
X47284000Y-61800000D03*
X47284000Y-63324000D03*
X45506000Y-61800000D03*
X45506000Y-63324000D03*
D21*
X55938000Y-58458000D03*
X57462000Y-58458000D03*
D22*
X52636000Y-58204000D03*
X52636000Y-59728000D03*
D21*
X51112000Y-58458000D03*
X49588000Y-58458000D03*
D22*
X52872000Y-77294000D03*
X52872000Y-75770000D03*
X54414000Y-58204000D03*
X54414000Y-59728000D03*
X54650000Y-77294000D03*
X54650000Y-75770000D03*
D21*
X49824000Y-82628000D03*
X48300000Y-82628000D03*
D22*
X59476000Y-61292000D03*
X59476000Y-62816000D03*
D21*
X78018000Y-59006000D03*
X76494000Y-59006000D03*
X78018000Y-57228000D03*
X76494000Y-57228000D03*
D22*
X75732000Y-53926000D03*
X75732000Y-55450000D03*
D21*
X65572000Y-65610000D03*
X64048000Y-65610000D03*
D22*
X67604000Y-53926000D03*
X67604000Y-55450000D03*
X81574000Y-65864000D03*
X81574000Y-67388000D03*
X79542000Y-65864000D03*
X79542000Y-67388000D03*
X83860000Y-80088000D03*
X83860000Y-81612000D03*
X61762000Y-75770000D03*
X61762000Y-77294000D03*
X66588000Y-61546000D03*
X66588000Y-60022000D03*
X56428000Y-75770000D03*
X56428000Y-77294000D03*
D21*
X65572000Y-73484000D03*
X64048000Y-73484000D03*
X66842000Y-67388000D03*
X68366000Y-67388000D03*
D22*
X51094000Y-75770000D03*
X51094000Y-77294000D03*
D36*
X82759000Y-83324640D03*
X82759000Y-83974880D03*
X82759000Y-84625120D03*
X82759000Y-85275360D03*
X78441000Y-85275360D03*
X78441000Y-84625120D03*
X78441000Y-83974880D03*
X78441000Y-83324640D03*
M02*
